<svg width="16" height="16" viewBox="0 0 16 16" fill="none" xmlns="http://www.w3.org/2000/svg">
<path d="M8.00016 13.5499C7.84461 13.5499 7.68627 13.5222 7.52516 13.4666C7.36405 13.411 7.22238 13.3222 7.10016 13.1999L5.95016 12.1499C4.77238 11.0722 3.7085 10.0027 2.7585 8.9416C1.8085 7.88049 1.3335 6.71105 1.3335 5.43327C1.3335 4.38882 1.6835 3.5166 2.3835 2.8166C3.0835 2.1166 3.95572 1.7666 5.00016 1.7666C5.58905 1.7666 6.14461 1.8916 6.66683 2.1416C7.18905 2.3916 7.6335 2.73327 8.00016 3.1666C8.36683 2.73327 8.81127 2.3916 9.3335 2.1416C9.85572 1.8916 10.4113 1.7666 11.0002 1.7666C12.0446 1.7666 12.9168 2.1166 13.6168 2.8166C14.3168 3.5166 14.6668 4.38882 14.6668 5.43327C14.6668 6.71105 14.1946 7.88327 13.2502 8.94994C12.3057 10.0166 11.2335 11.0888 10.0335 12.1666L8.90016 13.1999C8.77794 13.3222 8.63627 13.411 8.47516 13.4666C8.31405 13.5222 8.15572 13.5499 8.00016 13.5499Z" fill="#FF7EFA"/>
</svg>
