<svg width="96" height="119" viewBox="0 0 96 119" fill="none" xmlns="http://www.w3.org/2000/svg">
<path fill-rule="evenodd" clip-rule="evenodd" d="M88.2301 43.2677L68.9815 35.6154C55.7108 30.3395 40.9243 30.2958 27.6224 35.493L7.67218 43.2877V97.9638L23.3564 105.587C38.8873 113.135 57.0349 113.149 72.5774 105.625L88.2301 98.0467V43.2677ZM93.9802 103.768L93.95 103.782C93.8125 103.86 93.6698 103.929 93.5224 103.989L75.9281 112.507C58.2661 121.058 37.6439 121.042 19.9951 112.464L2.91791 104.164C1.2427 103.754 0 102.246 0 100.449V40.616C0 38.7615 1.32326 37.2152 3.07957 36.8649L24.8236 28.3693C39.9395 22.4634 56.7422 22.5131 71.8227 28.5084L92.8639 36.8734C94.5996 37.2395 95.9022 38.776 95.9022 40.616V100.449C95.9022 101.128 95.725 101.765 95.4142 102.318C95.0765 102.918 94.5812 103.418 93.9842 103.763L93.9831 103.764L93.9791 103.766H93.9842L93.9802 103.768Z" fill="#1D2939"/>
<path d="M48.4356 115.034V55.1065L2.90625 40.4434V99.7333L23.4265 109.934L48.4356 115.034Z" fill="#1D2939"/>
<path fill-rule="evenodd" clip-rule="evenodd" d="M83.2426 48.744C83.5986 50.4311 82.4925 52.0817 80.7723 52.4308C62.5193 56.1345 54.6081 60.8833 50.9812 65.3556C47.8194 69.2545 47.535 73.2738 47.1914 78.1308C47.1438 78.8025 47.0952 79.4903 47.0376 80.1959C46.8975 81.9133 45.3644 83.1941 43.6133 83.0567C41.8622 82.9193 40.5562 81.4158 40.6963 79.6984C40.7451 79.1 40.7854 78.4738 40.8272 77.8244C41.1349 73.0408 41.5239 66.9944 46.0024 61.472C51.0612 55.234 60.8394 50.1043 79.4834 46.3212C81.2037 45.9721 82.8867 47.0568 83.2426 48.744Z" fill="#1D2939"/>
<path d="M48.4372 14.8903C49.5084 14.8903 50.3778 14.0275 50.3778 12.9645V1.9258C50.3778 0.862757 49.5084 0 48.4372 0C47.366 0 46.4966 0.862757 46.4966 1.9258V12.9645C46.4966 14.0275 47.366 14.8903 48.4372 14.8903Z" fill="#1D2939"/>
<path d="M62.5572 17.3395C62.8599 17.5167 63.1937 17.5937 63.5275 17.5937C64.195 17.5937 64.8548 17.2471 65.2119 16.6308L70.7621 7.06346C71.2977 6.13908 70.9794 4.96049 70.0479 4.43667C69.1164 3.90515 67.9288 4.22098 67.4009 5.14536L61.8508 14.7127C61.3152 15.6371 61.6334 16.8157 62.5649 17.3395H62.5572Z" fill="#1D2939"/>
<path d="M31.5538 16.6308C31.9109 17.2471 32.5629 17.5937 33.2383 17.5937C33.5643 17.5937 33.8981 17.509 34.2086 17.3395C35.1401 16.808 35.4583 15.6294 34.9227 14.7127L29.3726 5.14536C28.837 4.22098 27.6493 3.90515 26.7256 4.43667C25.7941 4.96819 25.4758 6.14678 26.0114 7.06346L31.5616 16.6308H31.5538Z" fill="#1D2939"/>
</svg>
