<svg width="267" height="58" viewBox="0 0 267 58" fill="none" xmlns="http://www.w3.org/2000/svg">
<path d="M133.5 0L141.5 8L125.5 8L133.5 0Z" fill="#2D3648"/>
<rect y="8" width="267" height="50" rx="4" fill="#2D3648"/>
<path d="M27.6895 26.0879H22.7676V30.2031H21.2637V26.0879H16.3965V24.8574H27.6895V26.0879ZM26.3086 23.4082H17.7773V18.4863H26.3086V23.4082ZM19.2676 22.2188H24.791V19.7031H19.2676V22.2188ZM39.7754 25.377H28.5098V24.1602H39.7754V25.377ZM38.5039 29.9707H29.9043V26.375H31.4219V28.7402H38.5039V29.9707ZM34.9219 18.6777C34.9219 19.179 35.0996 19.6689 35.4551 20.1475C35.8151 20.626 36.3164 21.0407 36.959 21.3916C37.6061 21.7425 38.3398 21.9818 39.1602 22.1094L38.5449 23.3125C37.5514 23.1439 36.6696 22.8203 35.8994 22.3418C35.1292 21.8633 34.5436 21.2822 34.1426 20.5986C33.7415 21.2822 33.1536 21.8656 32.3789 22.3486C31.6087 22.8271 30.7246 23.1484 29.7266 23.3125L29.125 22.1094C29.9453 21.9818 30.6768 21.7448 31.3193 21.3984C31.9619 21.0475 32.4609 20.6328 32.8164 20.1543C33.1764 19.6758 33.3587 19.1836 33.3633 18.6777V18.1992H34.9219V18.6777ZM46.7207 18.8008C47.263 18.8008 47.7393 18.9785 48.1494 19.334C48.5596 19.6895 48.8763 20.1999 49.0996 20.8652C49.3229 21.526 49.4368 22.3053 49.4414 23.2031C49.4368 24.1009 49.3206 24.8848 49.0928 25.5547C48.8695 26.2201 48.5527 26.7327 48.1426 27.0928C47.737 27.4482 47.263 27.6237 46.7207 27.6191C46.1875 27.6237 45.7181 27.4482 45.3125 27.0928C44.9115 26.7327 44.6016 26.2201 44.3828 25.5547C44.1641 24.8848 44.0547 24.1009 44.0547 23.2031C44.0547 22.3053 44.1641 21.526 44.3828 20.8652C44.6016 20.1999 44.9115 19.6895 45.3125 19.334C45.7181 18.9785 46.1875 18.8008 46.7207 18.8008ZM46.7207 20.2363C46.4609 20.2318 46.2354 20.3434 46.0439 20.5713C45.8525 20.7992 45.7067 21.1364 45.6064 21.583C45.5062 22.0296 45.4583 22.5697 45.4629 23.2031C45.4583 23.8366 45.5062 24.3766 45.6064 24.8232C45.7067 25.2699 45.8525 25.6071 46.0439 25.835C46.2354 26.0628 46.4609 26.1745 46.7207 26.1699C47.1354 26.179 47.4567 25.9261 47.6846 25.4111C47.917 24.8962 48.0332 24.1602 48.0332 23.2031C48.0332 22.2461 47.917 21.5101 47.6846 20.9951C47.4567 20.4801 47.1354 20.2272 46.7207 20.2363ZM54.5957 30.2168H53.1328V25.7051H51.8203V29.6152H50.3848V18.0762H51.8203V20.8789H53.1328V17.8574H54.5957V30.2168ZM53.1328 24.4609V22.1094H51.8203V24.4609H53.1328ZM66.3535 30.2168H64.8223V17.8574H66.3535V30.2168ZM62.6621 19.1699C62.6621 21.1341 62.2178 22.859 61.3291 24.3447C60.4404 25.8258 58.9661 27.054 56.9062 28.0293L56.1133 26.8125C57.7038 26.056 58.9001 25.1514 59.7021 24.0986C60.5088 23.0413 60.9805 21.7995 61.1172 20.373H56.7422V19.1699H62.6621ZM77.8105 22.7793H79.7109V24.0371H77.8105V30.2168H76.3066V17.8574H77.8105V22.7793ZM75.3496 20.9746H68.0625V19.7578H70.9883V18.0352H72.5059V19.7578H75.3496V20.9746ZM71.7539 21.7812C72.3418 21.7812 72.8704 21.9066 73.3398 22.1572C73.8138 22.4033 74.1852 22.7474 74.4541 23.1895C74.723 23.6315 74.8574 24.1328 74.8574 24.6934C74.8574 25.2539 74.723 25.7552 74.4541 26.1973C74.1852 26.6348 73.8138 26.9766 73.3398 27.2227C72.8704 27.4688 72.3418 27.5918 71.7539 27.5918C71.1569 27.5918 70.6214 27.4688 70.1475 27.2227C69.6735 26.9766 69.3021 26.6348 69.0332 26.1973C68.7643 25.7552 68.6322 25.2539 68.6367 24.6934C68.6322 24.1328 68.7643 23.6315 69.0332 23.1895C69.3021 22.7474 69.6735 22.4033 70.1475 22.1572C70.6214 21.9066 71.1569 21.7812 71.7539 21.7812ZM71.7539 23.0254C71.4303 23.0254 71.141 23.0938 70.8857 23.2305C70.6351 23.3672 70.4391 23.5632 70.2979 23.8184C70.1566 24.069 70.0859 24.3607 70.0859 24.6934C70.0859 25.026 70.1566 25.3177 70.2979 25.5684C70.4391 25.8145 70.6351 26.0059 70.8857 26.1426C71.141 26.2747 71.4303 26.3385 71.7539 26.334C72.0684 26.3385 72.3486 26.2747 72.5947 26.1426C72.8454 26.0059 73.0413 25.8145 73.1826 25.5684C73.3285 25.3177 73.4036 25.026 73.4082 24.6934C73.4036 24.3607 73.3285 24.069 73.1826 23.8184C73.0413 23.5677 72.8454 23.374 72.5947 23.2373C72.3486 23.096 72.0684 23.0254 71.7539 23.0254ZM90.498 24.1602H88.9941V17.8574H90.498V24.1602ZM90.5254 27.9473H83.8398V28.9043H90.8945V30.1074H82.3496V26.8125H89.0078V25.9102H82.3223V24.7344H90.5254V27.9473ZM84.8379 19.1152C84.8379 19.6439 84.9518 20.1497 85.1797 20.6328C85.4121 21.1159 85.7539 21.542 86.2051 21.9111C86.6562 22.2803 87.1986 22.5605 87.832 22.752L87.0938 23.9277C86.3919 23.7135 85.7835 23.3877 85.2686 22.9502C84.7581 22.5127 84.3594 21.9932 84.0723 21.3916C83.7852 22.0433 83.3796 22.6084 82.8555 23.0869C82.3314 23.5609 81.707 23.9141 80.9824 24.1465L80.2168 22.957C80.8639 22.7474 81.4154 22.4466 81.8711 22.0547C82.3314 21.6582 82.6777 21.207 82.9102 20.7012C83.1471 20.1908 83.2656 19.6621 83.2656 19.1152V18.1582H84.8379V19.1152ZM96.9922 21.3711C96.9922 22.0501 97.1198 22.7223 97.375 23.3877C97.6348 24.0485 98.0039 24.6432 98.4824 25.1719C98.9655 25.696 99.5306 26.0924 100.178 26.3613L99.3438 27.5645C98.6283 27.2591 98.0062 26.8011 97.4775 26.1904C96.9489 25.5798 96.5387 24.8711 96.2471 24.0645C95.9554 24.9303 95.543 25.6982 95.0098 26.3682C94.4811 27.0335 93.8613 27.5326 93.1504 27.8652L92.2754 26.6758C92.9089 26.3841 93.4648 25.9557 93.9434 25.3906C94.4264 24.8255 94.7979 24.1921 95.0576 23.4902C95.3174 22.7839 95.4473 22.0775 95.4473 21.3711V20.332H92.7266V19.0742H99.6992V20.332H96.9922V21.3711ZM102.611 30.2168H101.08V17.8574H102.611V30.2168ZM119.045 28.7129H107.752V27.4688H112.619V24.7754H108.996V18.8145H117.746V24.7754H114.123V27.4688H119.045V28.7129ZM110.486 23.5859H116.242V20.0312H110.486V23.5859ZM131.145 28.7539H119.852V27.5098H131.145V28.7539ZM129.805 22.7109H122.709V24.3242H130.092V25.5273H121.191V21.4941H128.301V19.9629H121.164V18.7324H129.805V22.7109ZM137.42 18.7324C137.42 19.6348 137.288 20.4551 137.023 21.1934H138.541V18.1172H139.977V24.7617H138.541V22.4102H136.422C135.661 23.5951 134.439 24.543 132.758 25.2539L132.006 24.1191C133.173 23.6634 134.07 23.0915 134.699 22.4033C135.333 21.7106 135.713 20.8971 135.841 19.9629H132.594V18.7324H137.42ZM142.52 24.9395H141.07V17.8711H142.52V24.9395ZM136.436 25.9785C136.426 26.5208 136.549 27.0404 136.805 27.5371C137.06 28.0293 137.443 28.4395 137.953 28.7676C138.464 28.4167 138.851 27.9883 139.115 27.4824C139.38 26.9766 139.516 26.4753 139.525 25.9785V25.3223H141.016V25.9785C141.016 26.416 141.102 26.8353 141.275 27.2363C141.453 27.6374 141.722 27.9928 142.082 28.3027C142.442 28.6126 142.884 28.8496 143.408 29.0137L142.67 30.1348C142.082 29.9342 141.585 29.6426 141.18 29.2598C140.774 28.8815 140.46 28.4372 140.236 27.9268C140.027 28.4417 139.733 28.8997 139.354 29.3008C138.981 29.7018 138.523 30.0117 137.98 30.2305C137.42 30.0208 136.948 29.7178 136.565 29.3213C136.187 28.9294 135.898 28.4736 135.697 27.9541C135.469 28.4508 135.157 28.8861 134.761 29.2598C134.364 29.638 133.888 29.9297 133.332 30.1348L132.566 29.0137C133.086 28.8359 133.526 28.5876 133.886 28.2686C134.25 27.9495 134.521 27.5918 134.699 27.1953C134.882 26.7943 134.973 26.3887 134.973 25.9785V25.3223H136.436V25.9785ZM148.48 27.5234H150.9V24.8848H152.445V27.5234H155.344V28.7676H144.051V27.5234H146.949V24.8848H148.48V27.5234ZM154.373 20.0723H150.483C150.52 20.6465 150.732 21.1934 151.119 21.7129C151.507 22.2279 152.028 22.6654 152.685 23.0254C153.341 23.3854 154.077 23.627 154.893 23.75L154.291 24.9668C153.243 24.7708 152.313 24.4062 151.502 23.873C150.691 23.3398 150.087 22.6904 149.69 21.9248C149.294 22.7041 148.695 23.3672 147.893 23.9141C147.09 24.4564 146.174 24.8255 145.145 25.0215L144.543 23.791C145.336 23.6725 146.054 23.4287 146.696 23.0596C147.343 22.6904 147.858 22.2438 148.241 21.7197C148.624 21.1956 148.834 20.6465 148.87 20.0723H144.994V18.8418H154.373V20.0723ZM158.242 25.9648C158.247 25.4043 158.301 24.9508 158.406 24.6045C158.511 24.2581 158.657 23.9824 158.844 23.7773C159.035 23.5677 159.29 23.3626 159.609 23.1621C159.933 22.957 160.184 22.7337 160.361 22.4922C160.544 22.2461 160.635 21.9635 160.635 21.6445C160.635 21.3939 160.576 21.1751 160.457 20.9883C160.339 20.7969 160.177 20.6488 159.972 20.5439C159.771 20.4391 159.546 20.3867 159.295 20.3867C159.058 20.3867 158.837 20.4368 158.632 20.5371C158.427 20.6374 158.258 20.79 158.126 20.9951C157.998 21.2002 157.928 21.4486 157.914 21.7402H156.205C156.219 21.1478 156.365 20.6442 156.643 20.2295C156.921 19.8102 157.292 19.4958 157.757 19.2861C158.222 19.0719 158.739 18.9648 159.309 18.9648C159.919 18.9648 160.459 19.0742 160.929 19.293C161.403 19.5072 161.77 19.8148 162.029 20.2158C162.294 20.6169 162.426 21.084 162.426 21.6172C162.426 22.1458 162.3 22.6016 162.05 22.9844C161.804 23.3672 161.446 23.6999 160.977 23.9824C160.703 24.1465 160.484 24.3174 160.32 24.4951C160.161 24.6683 160.042 24.8711 159.965 25.1035C159.887 25.3359 159.846 25.623 159.842 25.9648V26.0879H158.242V25.9648ZM159.09 29.1094C158.898 29.1094 158.721 29.0615 158.557 28.9658C158.393 28.8701 158.263 28.7402 158.167 28.5762C158.071 28.4121 158.023 28.2344 158.023 28.043C158.023 27.8561 158.071 27.6829 158.167 27.5234C158.263 27.3594 158.393 27.2295 158.557 27.1338C158.721 27.0381 158.898 26.9902 159.09 26.9902C159.272 26.9902 159.443 27.0381 159.603 27.1338C159.767 27.2295 159.896 27.3594 159.992 27.5234C160.092 27.6829 160.143 27.8561 160.143 28.043C160.143 28.2344 160.092 28.4121 159.992 28.5762C159.896 28.7402 159.767 28.8701 159.603 28.9658C159.443 29.0615 159.272 29.1094 159.09 29.1094ZM22.7949 36.5527C22.7949 37.1862 22.9863 37.8037 23.3691 38.4053C23.7565 39.0068 24.2897 39.5264 24.9688 39.9639C25.6478 40.3968 26.4089 40.6862 27.252 40.832L26.5684 42.1035C25.5339 41.8848 24.6133 41.4814 23.8066 40.8936C23.0046 40.3011 22.403 39.5879 22.002 38.7539C21.5918 39.5833 20.9834 40.2943 20.1768 40.8867C19.3701 41.4746 18.4518 41.8802 17.4219 42.1035L16.752 40.832C17.5859 40.6816 18.3379 40.39 19.0078 39.957C19.6823 39.5195 20.2109 39 20.5938 38.3984C20.9811 37.7969 21.1771 37.1816 21.1816 36.5527V35.6367H22.7949V36.5527ZM27.7031 45.6445H16.4102V44.3867H27.7031V45.6445ZM38.5312 37.4824C38.5312 38.2708 38.5221 38.9385 38.5039 39.4854C38.4857 40.0322 38.4355 40.6497 38.3535 41.3379C38.276 42.026 38.153 42.778 37.9844 43.5938L36.4668 43.457C36.6992 42.459 36.8564 41.4906 36.9385 40.5518L29.6582 40.9277L29.4531 39.6973L37.0137 39.4102C37.0319 38.9681 37.041 38.3255 37.041 37.4824V37.2363H29.8223V36.0059H38.5312V37.4824ZM39.7754 45.6445H28.5098V44.4004H39.7754V45.6445ZM51.8887 41.6523H40.5957V40.5312H45.4902V39.752H42.0312V36.9219H48.9766V36.1699H41.9902V35.1309H50.4941V37.9062H43.5352V38.7129H50.7129V39.752H46.9941V40.5312H51.8887V41.6523ZM50.5215 45.1797H43.4395V46.0547H50.8906V47.1074H41.9219V44.1953H49.0176V43.4297H41.9082V42.3633H50.5215V45.1797ZM62.3887 39.7793H64.2891V41.0371H62.3887V47.2168H60.8848V34.8574H62.3887V39.7793ZM59.9277 37.9746H52.6406V36.7578H55.5664V35.0352H57.084V36.7578H59.9277V37.9746ZM56.332 38.7812C56.9199 38.7812 57.4486 38.9066 57.918 39.1572C58.3919 39.4033 58.7633 39.7474 59.0322 40.1895C59.3011 40.6315 59.4355 41.1328 59.4355 41.6934C59.4355 42.2539 59.3011 42.7552 59.0322 43.1973C58.7633 43.6348 58.3919 43.9766 57.918 44.2227C57.4486 44.4688 56.9199 44.5918 56.332 44.5918C55.735 44.5918 55.1995 44.4688 54.7256 44.2227C54.2516 43.9766 53.8802 43.6348 53.6113 43.1973C53.3424 42.7552 53.2103 42.2539 53.2148 41.6934C53.2103 41.1328 53.3424 40.6315 53.6113 40.1895C53.8802 39.7474 54.2516 39.4033 54.7256 39.1572C55.1995 38.9066 55.735 38.7812 56.332 38.7812ZM56.332 40.0254C56.0085 40.0254 55.7191 40.0938 55.4639 40.2305C55.2132 40.3672 55.0173 40.5632 54.876 40.8184C54.7347 41.069 54.6641 41.3607 54.6641 41.6934C54.6641 42.026 54.7347 42.3177 54.876 42.5684C55.0173 42.8145 55.2132 43.0059 55.4639 43.1426C55.7191 43.2747 56.0085 43.3385 56.332 43.334C56.6465 43.3385 56.9268 43.2747 57.1729 43.1426C57.4235 43.0059 57.6195 42.8145 57.7607 42.5684C57.9066 42.3177 57.9818 42.026 57.9863 41.6934C57.9818 41.3607 57.9066 41.069 57.7607 40.8184C57.6195 40.5677 57.4235 40.374 57.1729 40.2373C56.9268 40.096 56.6465 40.0254 56.332 40.0254ZM71.1523 36.8809H73.6406V34.8711H75.1582V43.8672H73.6406V40.75H71.1523V41.8164H65.3418V35.8965H71.1523V36.8809ZM66.8594 40.627H69.6484V37.0996H66.8594V40.627ZM75.4316 46.9707H67.0098V43.0332H68.5547V45.7402H75.4316V46.9707ZM73.6406 39.5332V38.125H71.1523V39.5332H73.6406Z" fill="white"/>
<path d="M90.7988 44.0449H89.3496V39.6836H88.0645V43.7578H86.6426V35.1035H88.0645V38.4395H89.3496V34.8711H90.7988V44.0449ZM91.1406 46.9707H82.5273V43.1836H84.0449V45.7402H91.1406V46.9707ZM85.4395 39.6289H82.2266V41.0918C82.9785 41.0827 83.6462 41.0553 84.2295 41.0098C84.8128 40.9596 85.4076 40.8776 86.0137 40.7637L86.1504 41.9805C85.444 42.1035 84.7513 42.1878 84.0723 42.2334C83.3932 42.2744 82.5684 42.2949 81.5977 42.2949H80.75V38.4805H83.9766V37.0859H80.7363V35.8828H85.4395V39.6289ZM98.6328 36.8125H94.5176V40.2988C95.6022 40.2897 96.4863 40.2624 97.1699 40.2168C97.8581 40.1667 98.5417 40.0755 99.2207 39.9434L99.3711 41.1602C98.61 41.3151 97.833 41.4199 97.04 41.4746C96.2516 41.5293 95.224 41.5566 93.957 41.5566H93V35.5957H98.6328V36.8125ZM102.68 41.9941H101.162V39H97.9902V37.7695H101.162V34.8574H102.68V41.9941ZM102.68 47.0527H94.4629V42.5547H102.68V47.0527ZM95.9805 45.8359H101.189V43.7578H95.9805V45.8359ZM110.049 35.5547C110.915 35.5547 111.699 35.7005 112.4 35.9922C113.102 36.2793 113.654 36.6872 114.055 37.2158C114.456 37.7445 114.656 38.3529 114.656 39.041C114.656 39.7383 114.456 40.3535 114.055 40.8867C113.654 41.4154 113.102 41.8255 112.4 42.1172C111.703 42.4089 110.919 42.5547 110.049 42.5547C109.183 42.5547 108.401 42.4089 107.704 42.1172C107.007 41.8255 106.458 41.4154 106.057 40.8867C105.66 40.3535 105.464 39.7383 105.469 39.041C105.464 38.3529 105.66 37.7445 106.057 37.2158C106.458 36.6872 107.007 36.2793 107.704 35.9922C108.401 35.7005 109.183 35.5547 110.049 35.5547ZM110.049 36.7852C109.456 36.7806 108.923 36.8717 108.449 37.0586C107.975 37.2454 107.604 37.512 107.335 37.8584C107.066 38.2002 106.932 38.5944 106.932 39.041C106.932 39.4967 107.066 39.8978 107.335 40.2441C107.604 40.5859 107.973 40.8503 108.442 41.0371C108.916 41.2194 109.452 41.3105 110.049 41.3105C110.65 41.3105 111.186 41.2194 111.655 41.0371C112.129 40.8503 112.498 40.5859 112.763 40.2441C113.032 39.8978 113.166 39.4967 113.166 39.041C113.166 38.5944 113.032 38.2002 112.763 37.8584C112.498 37.512 112.129 37.2454 111.655 37.0586C111.181 36.8717 110.646 36.7806 110.049 36.7852ZM115.723 45.6582H104.43V44.4141H115.723V45.6582ZM127.822 45.7812H116.529V44.5234H121.396V42.5137H117.869V38.4668H124.979V36.9355H117.842V35.7051H126.482V39.6699H119.387V41.2695H126.77V42.5137H122.9V44.5234H127.822V45.7812ZM142 42.2949H138.35V44.5508H143.244V45.7676H131.951V44.5508H136.818V42.2949H133.332V35.7734H141.891V37.0039H134.877V38.3984H141.604V39.6016H134.877V41.0781H142V42.2949ZM151.297 37.0312H150.189V40.4082C150.691 40.3763 151.233 40.3307 151.816 40.2715L151.912 41.3926C150.796 41.5612 149.631 41.6751 148.419 41.7344C147.207 41.7891 145.874 41.821 144.42 41.8301L144.256 40.5723C144.538 40.5723 145.008 40.5677 145.664 40.5586V37.0312H144.584V35.7871H151.297V37.0312ZM154.346 47.2168H152.814V44.1543H145.91V42.9238H154.346V47.2168ZM154.346 42.4043H152.814V34.8574H154.346V42.4043ZM147.127 40.5381C147.847 40.5199 148.385 40.5016 148.74 40.4834V37.0312H147.127V40.5381ZM170.738 43.5254H165.844V47.2305H164.34V43.5254H159.473V42.2812H170.738V43.5254ZM169.686 37.5234H165.871C165.921 37.9382 166.126 38.3415 166.486 38.7334C166.846 39.1253 167.339 39.4648 167.963 39.752C168.587 40.0391 169.298 40.2305 170.096 40.3262L169.535 41.5293C168.533 41.4017 167.644 41.1305 166.869 40.7158C166.099 40.2965 165.509 39.7839 165.099 39.1777C164.688 39.7884 164.096 40.3011 163.321 40.7158C162.547 41.1305 161.651 41.4017 160.635 41.5293L160.088 40.3262C160.885 40.2305 161.596 40.0413 162.221 39.7588C162.845 39.4717 163.34 39.1322 163.704 38.7402C164.069 38.3483 164.276 37.9427 164.326 37.5234H160.512V36.3203H164.34V34.8711H165.844V36.3203H169.686V37.5234ZM176.016 37.7832C176.016 38.2845 176.13 38.7653 176.357 39.2256C176.585 39.6813 176.923 40.0892 177.369 40.4492C177.82 40.8092 178.363 41.0872 178.996 41.2832L178.258 42.4727C177.57 42.263 176.973 41.9463 176.467 41.5225C175.965 41.0986 175.569 40.5973 175.277 40.0186C174.999 40.6429 174.605 41.1852 174.095 41.6455C173.584 42.1058 172.976 42.4499 172.27 42.6777L171.531 41.4883C172.16 41.2878 172.698 40.9984 173.145 40.6201C173.591 40.2419 173.928 39.8089 174.156 39.3213C174.384 38.8337 174.498 38.321 174.498 37.7832V37.5918H171.914V36.3887H174.498V34.9395H176.029V36.3887H178.6V37.5918H176.016V37.7832ZM181.922 44.0449H180.404V39.7656H178.189V38.5488H180.404V34.8711H181.922V44.0449ZM182.236 46.9707H173.814V43.252H175.332V45.7402H182.236V46.9707ZM189.291 35.0488C190.23 35.0488 191.03 35.1309 191.69 35.2949C192.356 35.459 192.864 35.7005 193.215 36.0195C193.566 36.334 193.743 36.7168 193.748 37.168C193.743 37.8516 193.354 38.3757 192.579 38.7402C191.804 39.1048 190.708 39.2917 189.291 39.3008C187.869 39.2917 186.771 39.1048 185.996 38.7402C185.221 38.3757 184.834 37.8516 184.834 37.168C184.834 36.7168 185.009 36.334 185.36 36.0195C185.711 35.7005 186.219 35.459 186.885 35.2949C187.55 35.1309 188.352 35.0488 189.291 35.0488ZM189.291 36.1699C188.352 36.1699 187.639 36.2565 187.151 36.4297C186.664 36.5983 186.424 36.8444 186.434 37.168C186.429 37.5052 186.666 37.7559 187.145 37.9199C187.623 38.084 188.339 38.166 189.291 38.166C190.257 38.166 190.979 38.084 191.458 37.9199C191.937 37.7559 192.176 37.5052 192.176 37.168C192.176 36.8444 191.932 36.5983 191.444 36.4297C190.957 36.2565 190.239 36.1699 189.291 36.1699ZM194.938 41.1738H183.672V39.957H194.938V41.1738ZM193.529 45.0293H186.502V45.9453H193.871V47.1074H185.012V43.9492H192.039V43.1289H184.998V42.0078H193.529V45.0293ZM205.123 38.043H199.066V36.8262H201.363V35.2129H202.867V36.8262H205.123V38.043ZM202.115 38.6992C202.635 38.6992 203.097 38.8223 203.503 39.0684C203.913 39.3099 204.232 39.6494 204.46 40.0869C204.692 40.5244 204.809 41.0189 204.809 41.5703C204.809 42.1309 204.692 42.6322 204.46 43.0742C204.232 43.5163 203.913 43.8626 203.503 44.1133C203.097 44.3594 202.635 44.4824 202.115 44.4824C201.6 44.4824 201.138 44.3594 200.728 44.1133C200.317 43.8626 199.996 43.5163 199.764 43.0742C199.531 42.6322 199.417 42.1309 199.422 41.5703C199.417 41.0189 199.531 40.5244 199.764 40.0869C199.996 39.6494 200.317 39.3099 200.728 39.0684C201.138 38.8223 201.6 38.6992 202.115 38.6992ZM202.115 39.957C201.846 39.957 201.609 40.0254 201.404 40.1621C201.199 40.2943 201.04 40.4834 200.926 40.7295C200.812 40.971 200.757 41.2513 200.762 41.5703C200.757 41.8984 200.812 42.1855 200.926 42.4316C201.04 42.6777 201.199 42.8669 201.404 42.999C201.609 43.1266 201.846 43.1882 202.115 43.1836C202.38 43.1882 202.614 43.1266 202.819 42.999C203.024 42.8669 203.184 42.6777 203.298 42.4316C203.412 42.1855 203.469 41.8984 203.469 41.5703C203.469 41.2513 203.412 40.971 203.298 40.7295C203.184 40.4834 203.024 40.2943 202.819 40.1621C202.614 40.0254 202.38 39.957 202.115 39.957ZM209.717 47.2168H208.268V41.1738H207.064V46.6562H205.643V35.1172H207.064V39.9434H208.268V34.8574H209.717V47.2168ZM221.229 41.8711H212.561V35.9375H221.133V37.168H214.064V40.6543H221.229V41.8711ZM222.486 45.6445H211.193V44.3867H222.486V45.6445ZM233.643 47.2305H232.125V42.1582H229.869V40.9141H232.125V38.7949H229.91V37.5508H232.125V34.8574H233.643V47.2305ZM229.213 40.5449H225.248V43.1699C226.137 43.1608 226.948 43.1335 227.682 43.0879C228.42 43.0378 229.181 42.9557 229.965 42.8418L230.088 44.0859C229.213 44.2227 228.37 44.3138 227.559 44.3594C226.747 44.4049 225.795 44.4277 224.701 44.4277H223.744V39.3555H227.723V37.1406H223.703V35.9238H229.213V40.5449ZM246.686 45.7129H235.393V44.4688H238.004V41.3447C237.503 41.0531 237.113 40.6908 236.835 40.2578C236.562 39.8249 236.427 39.3372 236.432 38.7949C236.427 38.1523 236.621 37.5827 237.013 37.0859C237.405 36.5892 237.949 36.2064 238.646 35.9375C239.344 35.6641 240.132 35.5273 241.012 35.5273C241.896 35.5273 242.687 35.6641 243.384 35.9375C244.086 36.2064 244.632 36.5892 245.024 37.0859C245.421 37.5781 245.619 38.1478 245.619 38.7949C245.619 39.3236 245.485 39.8044 245.216 40.2373C244.951 40.6657 244.576 41.0234 244.088 41.3105V44.4688H246.686V45.7129ZM241.012 36.7305C240.396 36.7305 239.854 36.8148 239.385 36.9834C238.92 37.1475 238.558 37.3844 238.298 37.6943C238.043 38.0042 237.917 38.3711 237.922 38.7949C237.917 39.2142 238.043 39.5788 238.298 39.8887C238.558 40.1986 238.922 40.4378 239.392 40.6064C239.861 40.7751 240.401 40.8594 241.012 40.8594C241.622 40.8594 242.162 40.7751 242.632 40.6064C243.106 40.4378 243.473 40.1986 243.732 39.8887C243.997 39.5788 244.129 39.2142 244.129 38.7949C244.129 38.3757 243.997 38.0111 243.732 37.7012C243.473 37.3867 243.108 37.1475 242.639 36.9834C242.169 36.8148 241.627 36.7305 241.012 36.7305ZM242.543 44.4688V41.8916C242.06 41.9964 241.549 42.0488 241.012 42.0488C240.497 42.0488 239.995 41.9987 239.508 41.8984V44.4688H242.543ZM248.996 46.1094C248.805 46.1094 248.627 46.0615 248.463 45.9658C248.299 45.8701 248.169 45.7402 248.073 45.5762C247.978 45.4121 247.93 45.2344 247.93 45.043C247.93 44.8561 247.978 44.6829 248.073 44.5234C248.169 44.3594 248.299 44.2295 248.463 44.1338C248.627 44.0381 248.805 43.9902 248.996 43.9902C249.178 43.9902 249.349 44.0381 249.509 44.1338C249.673 44.2295 249.803 44.3594 249.898 44.5234C249.999 44.6829 250.049 44.8561 250.049 45.043C250.049 45.2344 249.999 45.4121 249.898 45.5762C249.803 45.7402 249.673 45.8701 249.509 45.9658C249.349 46.0615 249.178 46.1094 248.996 46.1094Z" fill="#FF7EFA"/>
</svg>
