<svg width="312" height="312" viewBox="0 0 312 312" fill="none" xmlns="http://www.w3.org/2000/svg">
<path d="M192.21 124.523C188.253 94.9609 161.085 74.2074 131.523 78.1646C101.961 82.1217 81.2074 109.29 85.1645 138.852C87.7036 157.82 99.801 173.161 115.952 180.673C110.912 175.381 107.434 168.516 106.391 160.721C103.763 141.089 117.548 123.044 137.179 120.416C156.81 117.789 174.855 131.573 177.483 151.204C178.526 159 176.977 166.538 173.505 172.969C187.112 161.468 194.749 143.486 192.21 124.523Z" fill="url(#paint0_linear_882_1006)"/>
<path d="M173.506 172.974C165.906 179.398 156.446 183.797 145.853 185.215C135.259 186.633 124.975 184.877 115.953 180.678" fill="white"/>
<path d="M137.179 120.421C117.548 123.049 103.763 141.094 106.391 160.725C107.434 168.521 110.912 175.386 115.953 180.677C124.975 184.876 135.259 186.633 145.852 185.215C156.446 183.797 165.906 179.397 173.506 172.973C176.977 166.542 178.527 159.004 177.483 151.209C174.855 131.578 156.81 117.793 137.179 120.421Z" fill="white"/>
<path d="M180.463 131.182C184.736 120.801 179.786 108.922 169.407 104.649C159.027 100.376 147.149 105.327 142.876 115.708L137.704 128.271C133.43 138.651 138.38 150.53 148.76 154.803C159.139 159.076 171.017 154.125 175.291 143.744L180.463 131.182Z" fill="white"/>
<path d="M106.894 152.904C113.747 161.795 126.51 163.448 135.4 156.596C144.29 149.743 145.941 136.981 139.088 128.089L130.795 117.329C123.941 108.438 111.179 106.785 102.289 113.638C93.3987 120.49 91.7474 133.253 98.6006 142.144L106.894 152.904Z" fill="white"/>
<path d="M150.87 123.465C149.732 122.745 149.405 121.249 150.133 120.123L152.956 115.778C156.381 110.505 163.893 109.224 169.727 112.912C175.566 116.599 177.519 123.86 174.093 129.134L171.271 133.479C170.537 134.605 169.021 134.933 167.884 134.218L167.39 133.757C163.127 129.769 158.18 126.559 152.777 124.273L150.86 123.462L150.87 123.465Z" fill="#FF7EFA"/>
<path d="M125.871 126.812C126.737 125.823 126.654 124.295 125.691 123.395L121.964 119.927C117.442 115.718 110.173 116.415 105.732 121.478C101.287 126.542 101.353 134.056 105.876 138.265L109.603 141.734C110.57 142.632 112.055 142.559 112.922 141.575L113.259 141.004C116.171 136.055 119.915 131.682 124.317 128.083L125.88 126.806L125.871 126.812Z" fill="#FF7EFA"/>
<path fill-rule="evenodd" clip-rule="evenodd" d="M129.416 147.853C128.801 147.884 128.225 148.035 127.683 148.281C126.075 149.016 124.754 150.663 123.834 152.761C123.638 153.367 123.515 153.985 123.458 154.61C123.401 155.249 123.416 155.891 123.498 156.535C123.502 156.565 123.504 156.595 123.506 156.624C123.676 159.754 125.701 162.375 128.247 163.527L128.248 163.527C128.871 163.81 129.528 163.998 130.19 164.087L130.207 164.089C132.369 164.411 134.467 163.434 135.942 161.674C137.395 159.94 138.148 157.55 137.718 155.202C137.7 155.14 137.687 155.076 137.678 155.01C137.598 154.378 137.456 153.773 137.261 153.196C136.005 149.596 132.665 147.222 129.593 147.831C129.535 147.843 129.475 147.85 129.416 147.853ZM140.112 154.573C140.114 154.582 140.116 154.592 140.118 154.601C140.757 157.8 139.741 160.992 137.833 163.268C135.926 165.544 133.028 167.009 129.854 166.54C128.956 166.419 128.07 166.164 127.232 165.784C123.923 164.287 121.282 160.906 121.042 156.802C120.944 156.005 120.925 155.198 120.998 154.385C121.073 153.561 121.238 152.737 121.507 151.926C121.519 151.891 121.532 151.857 121.547 151.823C122.591 149.415 124.259 147.123 126.659 146.026L126.662 146.025L126.662 146.025C127.438 145.673 128.285 145.443 129.199 145.385C133.832 144.52 138.089 148.061 139.594 152.386L139.597 152.396C139.833 153.089 140.008 153.816 140.112 154.573Z" fill="#2D343A"/>
<path d="M136.883 152.099C137.768 153.293 138.237 154.951 138.072 156.707C137.764 159.957 135.391 162.341 132.774 162.027C130.157 161.714 128.285 158.828 128.593 155.578C128.901 152.329 131.274 149.945 133.891 150.258C135.089 150.401 136.135 151.085 136.883 152.099Z" fill="#2D343A"/>
<path fill-rule="evenodd" clip-rule="evenodd" d="M151.674 144.874C151.058 144.905 150.483 145.056 149.941 145.301C148.333 146.037 147.012 147.683 146.092 149.782C145.895 150.387 145.773 151.005 145.716 151.631C145.659 152.269 145.674 152.912 145.756 153.556C145.76 153.585 145.762 153.615 145.764 153.645C145.933 156.775 147.959 159.396 150.505 160.547L150.506 160.548C151.129 160.83 151.786 161.018 152.448 161.107L152.464 161.11C154.627 161.431 156.724 160.454 158.2 158.694C159.653 156.961 160.406 154.57 159.976 152.222C159.958 152.16 159.944 152.096 159.936 152.03C159.856 151.399 159.714 150.793 159.518 150.217C158.263 146.616 154.922 144.242 151.851 144.852C151.792 144.863 151.733 144.871 151.674 144.874ZM162.37 151.593C162.372 151.603 162.374 151.612 162.376 151.622C163.015 154.82 161.999 158.012 160.091 160.288C158.184 162.564 155.286 164.03 152.112 163.561C151.214 163.439 150.328 163.184 149.49 162.804C146.181 161.308 143.54 157.927 143.3 153.822C143.202 153.026 143.183 152.218 143.256 151.405C143.331 150.581 143.496 149.758 143.765 148.946C143.777 148.912 143.79 148.877 143.804 148.844C144.849 146.436 146.517 144.143 148.916 143.047L148.919 143.045L148.919 143.045C149.695 142.693 150.543 142.463 151.457 142.405C156.09 141.541 160.346 145.081 161.852 149.407L161.855 149.416C162.091 150.11 162.265 150.837 162.37 151.593Z" fill="#2D343A"/>
<path d="M152.699 149.982C153.662 151.166 154.159 152.819 153.95 154.582C153.561 157.842 150.894 160.265 147.996 159.99C145.098 159.714 143.064 156.849 143.453 153.589C143.842 150.329 146.508 147.905 149.406 148.181C150.734 148.307 151.884 148.977 152.699 149.982Z" fill="#2D343A"/>
<path fill-rule="evenodd" clip-rule="evenodd" d="M147.752 139.234C147.375 139.801 146.625 139.939 146.075 139.541C145.523 139.142 145.38 138.356 145.757 137.785L146.756 138.507C145.757 137.785 145.757 137.784 145.757 137.783L145.758 137.782L145.76 137.779L145.764 137.773L145.777 137.755C145.786 137.741 145.799 137.723 145.814 137.701C145.845 137.657 145.888 137.599 145.942 137.528C146.05 137.388 146.206 137.199 146.405 136.988C146.801 136.569 147.395 136.036 148.168 135.626C148.948 135.211 149.928 134.914 151.061 135.005C152.2 135.097 153.401 135.573 154.628 136.552C155.161 136.978 155.267 137.77 154.865 138.321C154.463 138.873 153.705 138.975 153.172 138.549C152.263 137.824 151.504 137.569 150.903 137.52C150.297 137.471 149.757 137.626 149.285 137.876C148.806 138.131 148.415 138.476 148.138 138.769C148.002 138.913 147.899 139.038 147.834 139.124C147.801 139.166 147.778 139.198 147.764 139.217C147.758 139.226 147.754 139.232 147.752 139.234C147.752 139.234 147.752 139.234 147.752 139.234C147.752 139.234 147.752 139.234 147.752 139.234Z" fill="#2D343A"/>
<path fill-rule="evenodd" clip-rule="evenodd" d="M143.172 161.878C143.173 161.878 143.173 161.877 143.174 161.877C144.054 161.778 144.973 161.899 145.732 162.275C145.801 162.308 145.948 162.382 146.091 162.487C146.294 162.636 146.603 162.927 146.703 163.379C146.835 163.956 146.537 164.424 146.518 164.454C146.518 164.455 146.517 164.455 146.517 164.456C146.513 164.463 146.509 164.47 146.505 164.477C145.987 165.344 144.951 165.719 144.551 165.848C143.449 166.209 142.213 166.31 141.089 166.092C141.087 166.092 141.084 166.091 141.08 166.09C140.988 166.074 140.458 165.981 140.008 165.654C139.396 165.22 139.289 164.649 139.301 164.301C139.316 163.754 139.615 163.32 139.874 163.049C140.145 162.766 140.474 162.548 140.797 162.392C141.357 162.121 141.932 162.022 142.167 161.981C142.177 161.98 142.186 161.978 142.194 161.977L142.22 161.972C142.232 161.971 142.245 161.968 142.26 161.966C142.416 161.939 142.755 161.882 143.172 161.878ZM143.665 165.525C143.674 165.526 143.681 165.527 143.686 165.528L143.688 165.528L143.665 165.525Z" fill="#2D343A"/>
<path fill-rule="evenodd" clip-rule="evenodd" d="M143.72 163.994C144.448 164.126 144.91 164.782 144.751 165.458C144.36 167.123 143.61 168.369 142.635 169.269C141.666 170.164 140.546 170.651 139.519 170.906C138.5 171.159 137.55 171.189 136.867 171.16C136.521 171.145 136.235 171.115 136.03 171.088C135.927 171.074 135.843 171.061 135.782 171.051C135.752 171.046 135.727 171.041 135.708 171.037L135.684 171.033L135.675 171.031L135.672 171.03L135.67 171.03C135.669 171.03 135.669 171.03 135.986 169.811L135.669 171.03C134.944 170.882 134.499 170.217 134.674 169.544C134.849 168.87 135.578 168.444 136.303 168.592L135.99 169.793C136.303 168.592 136.302 168.592 136.302 168.592L136.301 168.591L136.299 168.591L136.297 168.59C136.296 168.59 136.297 168.59 136.299 168.591C136.303 168.592 136.312 168.593 136.326 168.596C136.355 168.601 136.404 168.608 136.47 168.617C136.602 168.635 136.801 168.656 137.047 168.666C137.546 168.688 138.201 168.663 138.872 168.496C139.536 168.331 140.193 168.035 140.748 167.522C141.298 167.015 141.82 166.229 142.114 164.979C142.272 164.303 142.992 163.861 143.72 163.994Z" fill="#2D343A"/>
<path fill-rule="evenodd" clip-rule="evenodd" d="M142.334 164.179C143.001 163.86 143.811 164.097 144.142 164.707C144.754 165.837 145.465 166.457 146.129 166.802C146.799 167.151 147.51 167.264 148.194 167.248C148.886 167.232 149.524 167.084 150 166.933C150.235 166.858 150.421 166.785 150.544 166.733C150.606 166.708 150.65 166.687 150.677 166.675C150.69 166.669 150.699 166.665 150.702 166.663C150.703 166.663 150.703 166.662 150.704 166.662C150.704 166.662 150.704 166.662 150.704 166.662C151.363 166.333 152.175 166.553 152.521 167.155C152.867 167.758 152.612 168.517 151.952 168.85L151.325 167.758C151.952 168.85 151.951 168.851 151.95 168.851L151.949 168.852L151.946 168.853L151.938 168.857L151.916 168.868C151.898 168.876 151.875 168.887 151.847 168.9C151.791 168.926 151.715 168.961 151.619 169.001C151.428 169.082 151.159 169.186 150.83 169.291C150.178 169.498 149.254 169.719 148.204 169.743C147.147 169.768 145.938 169.592 144.768 168.984C143.591 168.372 142.539 167.367 141.724 165.864C141.393 165.253 141.666 164.499 142.334 164.179Z" fill="#2D343A"/>
<path d="M204.21 188.677L94.8555 182.448L102.802 266.924L209.284 271.482L204.21 188.677Z" fill="#0C111D" stroke="#D0D5DD" stroke-width="3"/>
<path d="M210.144 180.002L90.4427 170.713C85.9887 170.367 84.7066 177.579 84.6224 181.228L94.2213 277.608L223.93 284.437L210.144 180.002Z" stroke="#D0D5DD" stroke-width="3"/>
<path d="M170.461 187.046C166.156 187.345 162.129 192.939 160.324 196.438C158.451 200.068 156.959 202.996 156.495 207.105C156.017 211.335 155.91 215.663 156.684 219.856C157.093 222.069 157.453 226.789 160.302 227.715C164.685 229.141 164.759 219.813 166.106 217.907C168.481 214.544 173.244 215.904 173.674 211.432" stroke="#D0D5DD" stroke-width="3" stroke-linecap="round"/>
<path d="M219.044 189.615C219.2 190.447 220.616 191.102 221.216 191.56C222.389 192.458 223.506 193.791 224.449 194.928C226.342 197.21 227.389 199.361 228.385 202.229C230.23 207.542 229.808 212.69 230.03 218.187C230.188 222.099 229.371 226.589 226.323 229.29C225.358 230.146 220.741 233.414 219.323 231.849C217.93 230.31 217.753 228.841 217.622 226.694C217.351 222.272 216.381 216.931 211.826 214.992" stroke="#D0D5DD" stroke-width="3" stroke-linecap="round"/>
<path d="M176.996 249.449C176.9 248.935 174.903 248.192 174.33 248.227C172.299 248.351 171.229 248.455 169.427 249.425C167.08 250.688 162.306 255.683 162.323 258.659C162.335 260.888 161.754 259.343 160.483 258.361C159.118 257.307 157.241 257.275 155.659 257.913C154.361 258.436 153.82 261.644 152.921 261.8C152.296 261.909 150.725 259.627 149.896 259.318C146.399 258.014 142.66 259.585 141.059 262.476C139.833 264.691 139.822 263.356 137.562 262.331C135.604 261.443 134.514 260.679 132.347 260.957C130.838 261.151 128.262 262.468 128.056 264.196C127.862 265.827 127.384 267.118 126.068 266.909C120.896 266.088 117.849 271.359 118.114 275.682" stroke="#D0D5DD" stroke-width="3" stroke-linecap="round"/>
<path d="M203.331 249.682C205.94 249.523 208.045 248.939 209.9 251.384C211.197 253.093 212.764 254.623 213.458 256.707C213.821 257.795 214.97 261.283 213.781 261.971" stroke="#D0D5DD" stroke-width="3" stroke-linecap="round"/>
<path d="M211.593 263.952C214.545 260.986 221.834 265.289 222.052 268.852" stroke="#D0D5DD" stroke-width="3" stroke-linecap="round"/>
<path d="M221.394 265.66C223.495 265.266 225.508 263.561 227.952 263.412C229.859 263.295 231.323 263.885 232.989 264.822C234.733 265.802 237.612 266.785 238.851 268.387C240.326 270.294 239.554 270.138 241.549 269.3C244.653 267.995 248 270.292 250.222 272.257C251.571 273.451 251.965 274.76 252.071 276.479C252.127 277.403 252.785 276.492 253.464 276.189C254.92 275.538 256.399 275.362 257.935 275.889C260.454 276.753 261.958 279.591 262.113 282.123C262.241 284.2 261.545 283.954 260.929 285.402" stroke="#D0D5DD" stroke-width="3" stroke-linecap="round"/>
<path d="M242.15 220.061C246.014 219.824 248.541 219.598 252.148 217.858C258.222 214.927 264.851 209.828 267.983 203.753C269.697 200.429 271.07 195.436 268.049 192.257C266.513 190.641 263.233 189.131 261.626 191.265C257.704 196.473 263.885 203.064 269.579 202.167C282.761 200.092 291.578 190.069 295.905 177.98" stroke="#D0D5DD" stroke-width="3" stroke-linecap="round"/>
<path d="M247.227 182.347C247.664 189.486 242.306 193.785 237.088 197.745" stroke="#D0D5DD" stroke-width="3" stroke-linecap="round"/>
<path d="M238.236 246.62C238.154 245.287 239.145 244.073 239.863 243.032C242.098 239.791 244.478 236.55 247.383 233.875C251.892 229.721 258.191 225.018 264.025 222.876C268.492 221.236 270.37 220.655 274.623 222.945C276.367 223.884 281.655 227.379 279.968 230.211C279.145 231.592 276.922 231.909 275.477 231.845C272.751 231.726 273.072 229.291 273.739 227.36C277.073 217.716 287.253 211.651 296.385 208.426" stroke="#D0D5DD" stroke-width="3" stroke-linecap="round"/>
<path d="M251.935 259.172C252.558 259.055 253.389 257.973 253.84 257.619C257.22 254.965 260.352 254.112 264.62 253.521C269.04 252.908 275.413 251.881 279.742 253.312" stroke="#D0D5DD" stroke-width="3" stroke-linecap="round"/>
<path d="M145.47 239.836C146.454 239.776 146.907 241.133 146.015 241.188C145.199 241.238 144.769 240.341 145.958 240.268" stroke="#D0D5DD" stroke-width="3" stroke-linecap="round"/>
<path d="M288.033 290.668L95.1281 276.629C91.0307 282.79 97.6996 288.169 101.546 290.088C153.389 294.3 260.407 302.334 273.736 300.779C287.065 299.224 288.821 293.39 288.033 290.668Z" stroke="#D0D5DD" stroke-width="3"/>
<path d="M178.32 143.104C162.854 176.457 172.256 209.987 178.89 222.583C192.99 218.764 202.567 222.912 205.592 225.464C213.44 210.923 226.521 174.25 216.064 143.879C202.992 105.915 197.652 101.413 178.32 143.104Z" fill="#0C111D" stroke="#D0D5DD" stroke-width="3"/>
<path d="M176.522 215.763C183.056 214.108 198.314 212.59 207.067 219.759" stroke="#D0D5DD" stroke-width="3"/>
<path d="M179.992 139.546C185.798 137.293 201.01 134.641 215.414 142.051" stroke="#D0D5DD" stroke-width="3"/>
<path d="M219.215 180.248C211.087 183.397 189.79 187.108 169.626 176.755" stroke="#D0D5DD" stroke-width="3"/>
<path d="M178.161 222.133L177.849 249.297" stroke="#D0D5DD" stroke-width="3" stroke-linecap="round"/>
<path d="M205.622 225.43L203.023 249.807" stroke="#D0D5DD" stroke-width="3" stroke-linecap="round"/>
<circle cx="137" cy="251" r="5" stroke="#D0D5DD" stroke-width="2"/>
<path d="M174.874 185.724C175.28 185.769 175.506 186.13 175.812 186.368C176.821 187.152 178.07 187.32 179.242 187.74C180.194 188.082 180.934 188.244 181.931 188.244" stroke="#D0D5DD" stroke-width="3" stroke-linecap="round"/>
<path d="M185.963 189.252C187.195 189.376 188.264 189.726 189.561 189.77C191.308 189.831 193.034 190.009 194.784 190.009" stroke="#D0D5DD" stroke-width="3" stroke-linecap="round"/>
<path d="M184.955 227.812V240.161" stroke="#D0D5DD" stroke-width="3" stroke-linecap="round"/>
<path d="M188.734 245.201H188.482" stroke="#D0D5DD" stroke-width="3" stroke-linecap="round"/>
<path d="M197.808 240.665V257.298" stroke="#D0D5DD" stroke-width="3" stroke-linecap="round"/>
<path d="M197.808 262.59V262.842" stroke="#D0D5DD" stroke-width="3" stroke-linecap="round"/>
<path d="M225.838 270.403C228.445 270.403 231.505 270.601 232.798 273.187" stroke="#D0D5DD" stroke-width="3" stroke-linecap="round"/>
<path d="M236.696 275.415C236.965 275.717 237.019 275.81 236.696 275.971" stroke="#D0D5DD" stroke-width="3" stroke-linecap="round"/>
<path d="M173.109 294.849C173.619 294.747 174.021 294.229 174.439 293.953C175.562 293.215 176.894 292.636 178.178 292.245C181.007 291.384 184.62 291.622 187.461 292.203C188.601 292.436 189.027 292.847 189.799 293.533C189.81 293.543 192.574 292.285 192.893 292.203C195.022 291.655 197.195 291.991 199.264 292.707C199.873 292.918 200.429 293.576 201.056 293.589C203.036 293.629 205.368 294.11 205.368 296.613" stroke="#D0D5DD" stroke-width="3" stroke-linecap="round"/>
<path d="M103.257 288.176C103.692 288.639 103.677 288.646 104.385 288.613C106.503 288.514 108.592 287.982 110.715 287.896C113.152 287.798 115.585 287.594 118.025 287.584C119.327 287.578 123.229 287.732 121.927 287.732" stroke="#D0D5DD" stroke-width="3" stroke-linecap="round"/>
<path d="M100.779 289.053C101.444 288.979 102.283 288.102 102.851 287.793C104.477 286.909 106.183 286.182 108.018 285.903C112.322 285.246 116.671 285.28 120.885 286.281C122.078 286.564 123.117 286.996 124.217 287.485C124.377 287.556 126.005 286.292 126.373 286.169C128.808 285.357 131.676 285.296 134.214 285.272C135.976 285.256 137.686 285.317 139.171 286.393C139.927 286.94 141.157 288.351 141.971 287.933C144.647 286.557 147.318 286.551 150.021 287.653C152.123 288.509 155.468 290.324 155.468 292.833" stroke="#D0D5DD" stroke-width="3" stroke-linecap="round"/>
<path d="M107.851 288.917C111.238 289.348 114.759 289.066 118.174 289.066C120.429 289.066 122.676 289.214 124.932 289.214C125.709 289.214 126.456 289.127 127.229 289.033C128.151 288.92 129.076 288.79 129.995 288.654C130.383 288.596 130.91 288.621 130.176 288.621C129.938 288.621 127.904 288.752 127.904 288.399C127.904 287.868 132.06 287.632 132.431 287.617C133.636 287.568 134.648 287.71 135.601 288.456C136.41 289.089 134.605 289.252 134.3 289.28C131.945 289.491 129.034 289.439 126.817 288.506C126.549 288.393 126.099 288.461 125.813 288.473C125.628 288.48 126.376 289.11 126.439 289.164C126.852 289.528 127.191 289.955 127.772 289.955C128.262 289.955 127.033 289.947 127.007 289.946C126.846 289.94 125.069 289.806 125.698 289.806C127.078 289.806 128.625 290.214 129.987 290.424C131.599 290.672 133.157 291.117 134.753 291.436C134.963 291.478 134.337 291.31 134.16 291.189C133.488 290.729 132.966 290.042 132.464 289.411C131.838 288.623 131.662 288.465 132.695 288.325C133.854 288.167 136.459 288.161 137.19 289.312C137.322 289.521 137.75 290.729 137.255 290.819C136.87 290.889 135.741 289.243 135.988 289.041C136.365 288.732 138.326 290.101 138.326 290.572C138.326 290.973 137.677 290.089 137.42 289.782C136.994 289.27 136.664 288.732 136.548 288.069C136.277 286.522 140.415 289.42 139.824 290.07C139.386 290.552 136.591 287.496 136.333 287.222C135.23 286.044 136.174 286.864 136.679 287.37C137.369 288.06 138.958 289.134 139.165 290.169C139.336 291.021 136.11 290.206 135.914 290.144C134.951 289.841 134.025 289.432 133.049 289.173C132.888 289.13 132.431 288.988 132.555 289.098C133.211 289.682 133.718 290.397 134.58 290.695C136.572 291.385 137.973 291.423 140.005 291.14C140.585 291.059 142.501 291.262 142.919 290.844C142.924 290.839 140.436 289.617 140.235 289.461C140.054 289.319 140.648 289.22 140.878 289.205C142.411 289.109 143.998 288.962 145.52 289.238C145.584 289.25 147.484 289.84 146.525 289.946C145.852 290.021 145.182 289.781 144.574 289.518C144.443 289.462 143.933 289.152 144.475 289.263C145.432 289.459 146.361 289.972 147.233 290.391C147.605 290.569 149.488 291.137 149.488 291.7C149.488 292.283 147.664 290.757 147.562 290.663C147.367 290.483 145.649 289.052 146.442 288.835C147.77 288.473 149.501 289.558 150.493 290.317C150.756 290.518 151.974 291.443 151.834 291.93C151.792 292.079 149.646 290.61 149.562 290.556C148.97 290.166 148.368 289.816 147.743 289.485C147.35 289.277 148.579 289.792 148.986 289.971C149.955 290.396 150.838 290.925 151.76 291.428C152.226 291.682 153.86 292.637 152.485 292.21C151.504 291.906 150.487 291.73 149.505 291.412C147.082 290.627 145.01 290.251 142.466 290.251C141.778 290.251 141.089 290.251 140.4 290.251C140.379 290.251 141.113 290.926 141.207 290.984C142.542 291.81 144.552 291.973 146.113 292.029C146.637 292.048 148.676 292.617 148.896 292.177" stroke="#D0D5DD" stroke-width="3" stroke-linecap="round"/>
<path d="M176.309 294.104H202.832" stroke="#D0D5DD" stroke-width="3" stroke-linecap="round"/>
<path d="M192.015 295.141C192.701 295.141 193.387 295.384 194.081 295.421C195.608 295.501 197.124 295.586 198.65 295.7C199.43 295.759 200.202 295.882 200.979 295.882C201.707 295.882 202.326 296.178 202.98 296.178" stroke="#D0D5DD" stroke-width="3" stroke-linecap="round"/>
<defs>
<linearGradient id="paint0_linear_882_1006" x1="131.523" y1="78.1646" x2="144.729" y2="176.821" gradientUnits="userSpaceOnUse">
<stop stop-color="#1359FF"/>
<stop offset="1" stop-color="#FF7EFA"/>
</linearGradient>
</defs>
</svg>
