<svg width="312" height="312" viewBox="0 0 312 312" fill="none" xmlns="http://www.w3.org/2000/svg">
<path d="M178.216 77.5692C177.848 77.5692 177.482 77.1924 177.231 76.9672C176.16 76.0063 175.162 74.964 174.265 73.8401C173.444 72.8097 172.527 71.7287 171.942 70.5372C170.868 68.3491 170.306 65.9123 169.763 63.5531C169.288 61.4825 168.885 59.5024 169.03 57.3788C169.169 55.3454 169.557 53.2988 171.032 51.7746C173.311 49.4206 177.962 49.4143 180.223 51.7213C180.698 52.206 181.08 52.7568 181.47 53.3088C182.035 54.1071 182.699 54.8816 183.157 55.7487C183.608 56.6032 183.758 57.6583 183.799 58.6094C183.824 59.1924 183.71 59.6781 183.633 60.2449C183.597 60.5096 183.402 61.2492 183.574 61.044C183.692 60.9028 183.786 60.7233 183.901 60.5752C185.114 59.0085 186.36 57.4901 188.012 56.356C189.115 55.5985 190.303 55.4633 191.609 55.2319C192.861 55.0101 193.936 54.7884 195.174 55.0881C197.436 55.6356 198.747 57.7386 199.381 59.8507C199.984 61.8566 199.261 63.5678 198.097 65.2152C197.662 65.831 197.22 66.417 196.651 66.9146C196.193 67.3158 196.387 67.1043 196.812 66.8507C199.864 65.0284 203.2 63.1692 206.838 63.3294C209.27 63.4365 211.421 65.1585 212.443 67.2982C212.842 68.1332 212.99 69.0311 212.999 69.9512C213.016 71.4914 212.683 72.6506 212.014 74.0425C211.408 75.3062 210.81 76.3516 209.756 77.3028C208.35 78.5702 206.862 79.8619 205.211 80.8081C200.624 83.4365 195.472 83.8255 190.292 83.9779C187.166 84.0698 184.059 83.9626 181.545 81.9162C180.885 81.3784 179.957 80.8436 179.565 80.0623" stroke="#D0D5DD" stroke-width="3" stroke-linecap="round"/>
<path d="M223.943 130.658C218.074 93.8412 183.475 68.7573 146.658 74.6267C109.841 80.4961 84.7573 115.095 90.6267 151.912C94.3928 175.535 109.989 194.326 130.407 203.208C123.943 196.753 119.383 188.284 117.835 178.575C113.937 154.126 130.598 131.145 155.047 127.248C179.496 123.35 202.477 140.011 206.374 164.46C207.922 174.169 206.222 183.636 202.085 191.781C218.728 176.985 227.708 154.276 223.943 130.658Z" fill="url(#paint0_linear_878_1018)"/>
<path d="M202.086 191.787C192.79 200.053 181.106 205.846 167.913 207.949C154.719 210.053 141.813 208.179 130.408 203.214" fill="white"/>
<path d="M155.048 127.254C130.599 131.152 113.938 154.132 117.836 178.581C119.384 188.29 123.944 196.76 130.408 203.214C141.813 208.179 154.719 210.053 167.913 207.949C181.106 205.846 192.79 200.053 202.086 191.788C206.223 183.643 207.923 174.175 206.375 164.466C202.478 140.017 179.497 123.356 155.048 127.254Z" fill="white"/>
<path d="M209.471 139.346C214.487 126.241 207.93 111.552 194.826 106.537C181.722 101.522 167.034 108.081 162.018 121.186L155.949 137.046C150.933 150.151 157.49 164.841 170.594 169.855C183.697 174.87 198.386 168.312 203.401 155.206L209.471 139.346Z" fill="white"/>
<path d="M118.219 168.791C127.061 179.687 143.061 181.354 153.956 172.513C164.851 163.672 166.515 147.672 157.673 136.776L146.973 123.59C138.131 112.693 122.131 111.027 111.236 119.868C100.341 128.709 98.6771 144.709 107.519 155.605L118.219 168.791Z" fill="white"/>
<path d="M172.269 130.552C170.846 129.688 170.394 127.835 171.252 126.413L174.577 120.924C178.612 114.263 187.803 112.453 195.097 116.876C202.397 121.298 205.039 130.28 201.004 136.942L197.679 142.431C196.815 143.854 194.962 144.306 193.54 143.448L192.918 142.889C187.545 138.047 181.357 134.194 174.64 131.503L172.256 130.548L172.269 130.552Z" fill="#FF7EFA"/>
<path d="M141.278 135.492C142.362 134.229 142.215 132.328 140.958 131.243L136.091 127.06C130.184 121.983 120.887 123.121 115.33 129.592C109.766 136.065 110.048 145.424 115.955 150.5L120.822 154.683C122.085 155.767 123.987 155.621 125.071 154.363L125.489 153.639C129.09 147.366 133.773 141.779 139.32 137.134L141.289 135.484L141.278 135.492Z" fill="#FF7EFA"/>
<path fill-rule="evenodd" clip-rule="evenodd" d="M146.47 162.181C145.7 162.239 144.984 162.446 144.312 162.77C142.321 163.74 140.717 165.84 139.629 168.491C139.401 169.253 139.267 170.029 139.215 170.812C139.163 171.612 139.202 172.414 139.324 173.216C139.33 173.253 139.334 173.29 139.337 173.327C139.646 177.232 142.264 180.443 145.489 181.8L145.49 181.801C146.28 182.134 147.108 182.348 147.94 182.438L147.961 182.441C150.68 182.774 153.277 181.486 155.071 179.24C156.838 177.028 157.708 174.018 157.097 171.098C157.073 171.021 157.054 170.941 157.041 170.859C156.921 170.073 156.725 169.321 156.462 168.607C154.778 164.148 150.52 161.289 146.692 162.148C146.619 162.164 146.545 162.175 146.47 162.181ZM160.077 170.236C160.079 170.248 160.082 170.259 160.085 170.271C160.985 174.247 159.81 178.268 157.49 181.172C155.171 184.076 151.586 185.999 147.595 185.514C146.466 185.391 145.349 185.101 144.287 184.653C140.095 182.888 136.683 178.748 136.256 173.628C136.108 172.636 136.06 171.627 136.127 170.609C136.194 169.577 136.376 168.543 136.689 167.521C136.702 167.477 136.717 167.434 136.734 167.391C137.969 164.35 139.988 161.432 142.96 159.986L142.964 159.984L142.964 159.984C143.925 159.52 144.98 159.205 146.123 159.104C151.9 157.876 157.341 162.164 159.361 167.521L159.365 167.532C159.681 168.391 159.923 169.294 160.077 170.236Z" fill="#2D343A"/>
<path d="M149.266 167.427C150.52 168.964 151.21 171.129 151.022 173.454C150.674 177.754 147.443 181.002 143.809 180.704C140.175 180.405 137.513 176.679 137.862 172.38C138.211 168.08 141.442 164.831 145.075 165.13C146.739 165.266 148.205 166.123 149.266 167.427Z" fill="#2D343A"/>
<path fill-rule="evenodd" clip-rule="evenodd" d="M173.664 157.846C172.894 157.905 172.177 158.111 171.506 158.435C169.515 159.405 167.91 161.505 166.822 164.156C166.595 164.918 166.46 165.694 166.409 166.477C166.356 167.277 166.395 168.079 166.517 168.881C166.523 168.918 166.527 168.955 166.53 168.992C166.839 172.897 169.457 176.108 172.682 177.465L172.683 177.466C173.473 177.799 174.301 178.013 175.133 178.103L175.154 178.106C177.873 178.439 180.471 177.151 182.265 174.905C184.031 172.693 184.902 169.683 184.29 166.763C184.266 166.686 184.247 166.606 184.235 166.524C184.115 165.738 183.918 164.986 183.655 164.272C181.972 159.813 177.714 156.954 173.885 157.813C173.812 157.829 173.738 157.84 173.664 157.846ZM187.27 165.901C187.273 165.913 187.276 165.924 187.278 165.936C188.178 169.912 187.003 173.933 184.683 176.837C182.364 179.741 178.779 181.664 174.789 181.179C173.659 181.056 172.542 180.766 171.48 180.318C167.289 178.553 163.876 174.413 163.449 169.293C163.302 168.301 163.253 167.292 163.32 166.274C163.388 165.242 163.569 164.208 163.882 163.186C163.895 163.142 163.911 163.099 163.928 163.056C165.162 160.015 167.181 157.098 170.153 155.651L170.157 155.649L170.157 155.649C171.118 155.185 172.173 154.87 173.316 154.769C179.093 153.541 184.534 157.829 186.554 163.186L186.558 163.197C186.875 164.056 187.116 164.959 187.27 165.901Z" fill="#2D343A"/>
<path d="M175.683 163.216C176.937 164.752 177.627 166.918 177.439 169.242C177.091 173.542 173.859 176.791 170.226 176.492C166.592 176.194 163.93 172.468 164.279 168.168C164.628 163.868 167.859 160.62 171.492 160.918C173.156 161.054 174.622 161.911 175.683 163.216Z" fill="#2D343A"/>
<path fill-rule="evenodd" clip-rule="evenodd" d="M169.115 150.52C168.646 151.23 167.691 151.429 166.977 150.962C166.262 150.494 166.061 149.535 166.529 148.82L167.824 149.667C166.529 148.82 166.529 148.819 166.53 148.818L166.531 148.817L166.533 148.814L166.539 148.805L166.554 148.783C166.566 148.765 166.581 148.742 166.601 148.715C166.639 148.66 166.693 148.587 166.76 148.498C166.895 148.322 167.089 148.084 167.34 147.817C167.836 147.288 168.583 146.611 169.563 146.077C170.551 145.538 171.797 145.134 173.249 145.202C174.708 145.27 176.255 145.807 177.848 146.96C178.54 147.461 178.695 148.429 178.194 149.121C177.692 149.814 176.725 149.968 176.032 149.467C174.853 148.614 173.876 148.33 173.106 148.294C172.329 148.258 171.643 148.468 171.045 148.794C170.438 149.125 169.946 149.564 169.598 149.934C169.428 150.116 169.299 150.274 169.217 150.381C169.176 150.435 169.147 150.475 169.131 150.498C169.123 150.51 169.118 150.517 169.116 150.52C169.116 150.52 169.116 150.52 169.115 150.52C169.115 150.52 169.115 150.52 169.115 150.52Z" fill="#2D343A"/>
<path fill-rule="evenodd" clip-rule="evenodd" d="M163.599 178.057C163.599 178.057 163.6 178.057 163.6 178.057C164.5 177.938 165.455 178.108 166.264 178.609C166.338 178.653 166.494 178.752 166.649 178.891C166.868 179.088 167.208 179.473 167.343 180.065C167.52 180.821 167.246 181.431 167.229 181.47C167.228 181.471 167.228 181.472 167.228 181.472C167.224 181.481 167.22 181.49 167.216 181.5C166.744 182.628 165.704 183.105 165.301 183.269C164.191 183.727 162.925 183.845 161.752 183.545C161.749 183.545 161.746 183.544 161.742 183.543C161.646 183.521 161.094 183.392 160.607 182.959C159.946 182.384 159.795 181.635 159.782 181.179C159.759 180.464 160.037 179.9 160.284 179.549C160.543 179.182 160.866 178.901 161.188 178.7C161.746 178.353 162.331 178.231 162.571 178.18C162.581 178.178 162.59 178.177 162.598 178.175L162.624 178.169C162.636 178.167 162.65 178.164 162.666 178.161C162.824 178.128 163.17 178.058 163.599 178.057ZM164.365 182.835C164.375 182.837 164.382 182.838 164.387 182.839L164.389 182.839L164.365 182.835Z" fill="#2D343A"/>
<path fill-rule="evenodd" clip-rule="evenodd" d="M163.678 182.025C164.519 182.178 165.077 182.983 164.924 183.824C164.549 185.894 163.743 187.451 162.664 188.583C161.592 189.708 160.329 190.329 159.163 190.661C158.005 190.991 156.917 191.043 156.131 191.018C155.735 191.006 155.405 190.973 155.168 190.943C155.05 190.927 154.954 190.912 154.883 190.9C154.848 190.895 154.819 190.889 154.797 190.885L154.769 190.88L154.759 190.878L154.755 190.877L154.753 190.877C154.753 190.877 154.752 190.876 155.062 189.36L154.752 190.876C153.914 190.705 153.375 189.887 153.546 189.05C153.717 188.212 154.535 187.672 155.373 187.844L155.067 189.338C155.373 187.844 155.372 187.844 155.371 187.843L155.37 187.843L155.368 187.843L155.365 187.842C155.365 187.842 155.365 187.842 155.368 187.843C155.372 187.844 155.383 187.846 155.4 187.848C155.433 187.854 155.489 187.863 155.565 187.873C155.718 187.892 155.947 187.916 156.229 187.924C156.802 187.943 157.553 187.901 158.315 187.684C159.07 187.469 159.809 187.091 160.424 186.447C161.032 185.809 161.597 184.827 161.879 183.272C162.031 182.431 162.836 181.873 163.678 182.025Z" fill="#2D343A"/>
<path fill-rule="evenodd" clip-rule="evenodd" d="M163.271 182.09C164.023 181.684 164.962 181.964 165.369 182.716C166.12 184.106 166.962 184.863 167.738 185.281C168.523 185.702 169.343 185.832 170.127 185.801C170.919 185.77 171.645 185.576 172.184 185.381C172.45 185.285 172.661 185.191 172.8 185.125C172.869 185.092 172.919 185.066 172.949 185.051C172.964 185.043 172.974 185.038 172.978 185.035C172.979 185.035 172.979 185.035 172.979 185.034C172.979 185.034 172.979 185.034 172.979 185.034C173.721 184.616 174.662 184.875 175.085 185.616C175.508 186.359 175.249 187.304 174.506 187.727L173.74 186.382C174.506 187.727 174.506 187.727 174.505 187.728L174.503 187.729L174.5 187.731L174.491 187.736L174.466 187.75C174.446 187.76 174.421 187.774 174.389 187.791C174.326 187.824 174.239 187.868 174.131 187.92C173.916 188.022 173.612 188.156 173.239 188.291C172.501 188.559 171.451 188.847 170.247 188.894C169.036 188.941 167.642 188.743 166.273 188.007C164.896 187.268 163.646 186.038 162.645 184.188C162.239 183.436 162.519 182.496 163.271 182.09Z" fill="#2D343A"/>
<path d="M84.4706 106.5C84.4706 103.481 84.3547 98.2457 83.6391 95.293C83.0446 92.84 80.9944 89.308 78.1188 89.0604C70.7236 88.4236 65.5485 92.8921 62.4588 99.1812C60.3899 103.392 60.8559 109.666 61.812 114.117C62.8722 119.051 64.4558 124.246 66.5239 128.869C67.2161 130.416 68.0764 131.817 68.9376 133.26C69.2691 133.816 70.3895 135.397 69.9654 134.907C69.8326 134.754 73.482 133.785 73.7303 133.741C75.734 133.38 77.7895 133.24 79.8049 132.917C88.5971 131.511 97.12 128.968 103.549 122.602C107.12 119.066 109 113.726 109 108.81C109 104.958 104.695 98.7238 100.258 98.7238C96.676 98.7238 93.2632 100.292 90.3373 102.223C89.2462 102.943 85.337 106.047 84.4706 107" stroke="#D0D5DD" stroke-width="4" stroke-linecap="round"/>
<path d="M78.4996 119.5C74.954 123.265 68.9968 135.867 66.5621 140.41C64.8513 143.602 63.3328 146.698 62.2469 150.152C61.5952 152.225 61.0598 154.33 60.4124 156.405C58.4228 162.78 57.7906 169.062 57.2083 175.642C56.5628 182.937 58.0962 191.417 62.6087 197.36C64.1816 199.431 66.0553 201.622 68.5 202.708C72.1202 204.317 77.0932 203.856 80.7477 202.734C85.6416 201.232 89.7256 198.385 92.7758 194.233C94.2391 192.241 95.2156 190.152 96.1607 187.89C96.642 186.738 97.3359 185.468 97.556 184.221C98.4651 179.069 97.7423 173.714 93.383 170.461C89.206 167.344 84.817 172.562 82.5048 175.745C77.5593 182.554 75.7401 191.294 76.5101 199.582C76.9171 203.963 78.22 207.917 80.1792 211.855C81.5508 214.613 82.7823 216.339 85.3729 217.902C88.5246 219.803 91.8324 219.866 95.3726 219.866C99.1718 219.866 103.524 220.525 106.949 218.47C112.912 214.892 117.272 207.534 116.225 200.435C115.632 196.416 112.95 193.844 109.3 192.541C107.478 191.89 104.567 194.844 103.525 196.016C100.655 199.245 98.5912 203.49 98.3958 207.837C98.0331 215.907 98.6149 223.611 102.814 230.718C106.242 236.519 113.297 240.098 119.881 240.537C122.196 240.691 124.392 239.751 126.625 239.284" stroke="#D0D5DD" stroke-width="3" stroke-linecap="round"/>
<path d="M76.1153 228C75.6852 228 75.4824 228.151 75.1076 228.388C71.0984 230.92 67.1748 233.578 63.325 236.346C58.5018 239.814 53.5954 243.172 48.8034 246.682C46.2002 248.588 43.7093 250.676 41 252.418" stroke="#D0D5DD" stroke-width="3" stroke-linecap="round"/>
<path d="M87.2781 244.279C80.4793 250.883 73.8946 257.651 68.4414 265.441" stroke="#D0D5DD" stroke-width="3" stroke-linecap="round"/>
<path d="M102.161 256.139C100.212 260.214 98.8224 264.639 97.6002 268.968C96.5422 272.716 95.6617 276.518 94.5383 280.247C94.3483 280.878 94.0215 281.515 94.0215 282.185" stroke="#D0D5DD" stroke-width="3" stroke-linecap="round"/>
<path d="M226.632 239.219C231.568 220.8 220.639 201.871 202.22 196.936C183.801 192 164.872 202.929 159.937 221.348C156.77 233.166 160.136 245.195 167.82 253.6C166.147 249.238 165.783 244.331 167.084 239.474C170.362 227.243 182.935 219.984 195.166 223.261C207.398 226.538 214.657 239.111 211.379 251.343C210.078 256.2 207.309 260.267 203.679 263.209C214.537 259.768 223.467 251.034 226.632 239.219Z" fill="url(#paint1_linear_878_1018)"/>
<path d="M203.678 263.211C197.613 265.133 190.949 265.403 184.348 263.634C177.748 261.866 172.111 258.3 167.819 253.603" fill="white"/>
<path d="M195.165 223.264C182.934 219.987 170.361 227.246 167.083 239.477C165.782 244.334 166.145 249.241 167.819 253.603C172.11 258.3 177.747 261.866 184.348 263.634C190.948 265.403 197.613 265.133 203.678 263.212C207.308 260.27 210.076 256.203 211.378 251.346C214.655 239.114 207.396 226.541 195.165 223.264Z" fill="white"/>
<path d="M218.062 240.259C223.137 235.184 223.137 226.957 218.063 221.882C212.989 216.808 204.761 216.808 199.686 221.883L193.544 228.025C188.469 233.1 188.469 241.328 193.543 246.402C198.617 251.477 206.845 251.476 211.92 246.401L218.062 240.259Z" fill="white"/>
<path d="M169.304 234.985C171.162 241.918 178.287 246.032 185.219 244.175C192.15 242.317 196.264 235.192 194.406 228.259L192.158 219.869C190.3 212.937 183.175 208.822 176.244 210.68C169.312 212.537 165.199 219.663 167.056 226.595L169.304 234.985Z" fill="white"/>
<path d="M202.496 228.428C202.002 227.723 202.177 226.76 202.883 226.275L205.618 224.405C208.936 222.135 213.684 223.226 216.22 226.838C218.759 230.45 218.125 235.215 214.807 237.485L212.073 239.355C211.363 239.839 210.387 239.66 209.892 238.958L209.714 238.565C208.179 235.163 206.049 232.052 203.423 229.374L202.491 228.423L202.496 228.428Z" fill="#C5FF67"/>
<path d="M186.92 224.254C187.674 223.884 188.001 222.962 187.654 222.194L186.308 219.231C184.674 215.634 180.213 214.258 176.347 216.154C172.479 218.049 170.67 222.499 172.303 226.096L173.65 229.059C174 229.828 174.894 230.15 175.648 229.782L175.987 229.528C178.923 227.323 182.208 225.663 185.691 224.623L186.927 224.253L186.92 224.254Z" fill="#C5FF67"/>
<path fill-rule="evenodd" clip-rule="evenodd" d="M183.837 237.543C183.466 237.41 183.09 237.358 182.709 237.369C181.58 237.408 180.395 238.055 179.336 239.067C179.071 239.376 178.847 239.71 178.66 240.066C178.468 240.428 178.32 240.811 178.21 241.211C178.204 241.23 178.199 241.248 178.192 241.266C177.523 243.155 178.073 245.2 179.293 246.505L179.293 246.506C179.592 246.826 179.933 247.098 180.301 247.314L180.311 247.319C181.508 248.041 182.986 247.98 184.289 247.304C185.573 246.639 186.606 245.413 186.929 243.922C186.934 243.881 186.942 243.84 186.953 243.799C187.061 243.406 187.126 243.014 187.152 242.626C187.297 240.192 185.91 237.97 183.947 237.574C183.91 237.566 183.873 237.556 183.837 237.543ZM188.497 244.139C188.496 244.145 188.495 244.152 188.493 244.158C188.084 246.203 186.699 247.836 185.013 248.71C183.328 249.584 181.258 249.736 179.5 248.679C179 248.386 178.54 248.018 178.138 247.588C176.554 245.891 175.827 243.246 176.695 240.765C176.832 240.271 177.02 239.789 177.263 239.328C177.51 238.86 177.81 238.414 178.168 238.002C178.184 237.984 178.2 237.967 178.217 237.951C179.425 236.787 180.974 235.844 182.659 235.787L182.661 235.787L182.661 235.787C183.206 235.77 183.763 235.843 184.317 236.033C187.263 236.662 188.904 239.799 188.729 242.722L188.729 242.728C188.697 243.195 188.621 243.667 188.497 244.139Z" fill="#2D343A"/>
<path d="M187.2 241.886C187.428 242.808 187.298 243.901 186.768 244.897C185.787 246.739 183.8 247.563 182.333 246.734C180.866 245.906 180.471 243.742 181.452 241.9C182.433 240.058 184.419 239.235 185.887 240.063C186.559 240.442 187.008 241.103 187.2 241.886Z" fill="#2D343A"/>
<path fill-rule="evenodd" clip-rule="evenodd" d="M197.705 241.26C197.335 241.127 196.958 241.074 196.577 241.086C195.448 241.124 194.263 241.771 193.204 242.783C192.939 243.092 192.715 243.427 192.528 243.782C192.337 244.145 192.188 244.527 192.078 244.928C192.073 244.946 192.067 244.964 192.06 244.982C191.391 246.871 191.941 248.916 193.161 250.222L193.161 250.222C193.46 250.542 193.801 250.815 194.169 251.03L194.179 251.035C195.376 251.757 196.854 251.696 198.158 251.021C199.441 250.355 200.474 249.13 200.797 247.638C200.802 247.597 200.81 247.556 200.821 247.515C200.929 247.123 200.994 246.73 201.021 246.342C201.165 243.909 199.778 241.686 197.815 241.29C197.778 241.283 197.741 241.272 197.705 241.26ZM202.365 247.856C202.364 247.862 202.363 247.868 202.361 247.874C201.952 249.919 200.567 251.553 198.882 252.427C197.196 253.3 195.126 253.453 193.368 252.395C192.868 252.103 192.408 251.734 192.007 251.304C190.422 249.607 189.695 246.962 190.563 244.481C190.701 243.987 190.888 243.506 191.131 243.044C191.378 242.576 191.678 242.131 192.037 241.718C192.052 241.7 192.068 241.683 192.085 241.667C193.293 240.503 194.842 239.56 196.527 239.503L196.53 239.503L196.53 239.503C197.074 239.486 197.631 239.559 198.185 239.75C201.131 240.379 202.772 243.515 202.597 246.438L202.597 246.444C202.565 246.912 202.489 247.384 202.365 247.856Z" fill="#2D343A"/>
<path d="M197.054 244.526C197.331 245.461 197.217 246.559 196.66 247.548C195.629 249.376 193.459 250.15 191.817 249.275C190.174 248.4 189.679 246.209 190.71 244.38C191.741 242.552 193.911 241.778 195.554 242.653C196.306 243.054 196.82 243.732 197.054 244.526Z" fill="#2D343A"/>
<path fill-rule="evenodd" clip-rule="evenodd" d="M196.777 236.967C196.415 237.208 195.939 237.105 195.712 236.735C195.485 236.364 195.594 235.865 195.956 235.62L196.368 236.292C195.956 235.62 195.957 235.62 195.957 235.62L195.958 235.619L195.96 235.618L195.964 235.615L195.975 235.608C195.985 235.602 195.996 235.594 196.011 235.585C196.04 235.567 196.08 235.543 196.129 235.515C196.227 235.459 196.365 235.385 196.535 235.31C196.872 235.16 197.353 234.992 197.91 234.939C198.473 234.887 199.124 234.952 199.771 235.285C200.42 235.619 201.011 236.195 201.495 237.075C201.705 237.457 201.573 237.951 201.2 238.177C200.827 238.404 200.354 238.278 200.144 237.895C199.786 237.244 199.401 236.906 199.058 236.73C198.713 236.552 198.356 236.511 198.016 236.542C197.671 236.575 197.355 236.682 197.12 236.787C197.004 236.839 196.912 236.887 196.853 236.921C196.823 236.938 196.801 236.952 196.789 236.959C196.783 236.963 196.779 236.966 196.777 236.967C196.777 236.967 196.777 236.967 196.777 236.967C196.777 236.967 196.777 236.967 196.777 236.967Z" fill="#2D343A"/>
<path fill-rule="evenodd" clip-rule="evenodd" d="M188.505 249.202C188.506 249.203 188.506 249.203 188.506 249.203C189.05 249.361 189.563 249.658 189.918 250.066C189.951 250.103 190.019 250.183 190.078 250.28C190.161 250.418 190.272 250.666 190.22 250.957C190.156 251.33 189.865 251.533 189.846 251.546C189.846 251.546 189.845 251.546 189.845 251.547C189.841 251.55 189.837 251.553 189.833 251.556C189.314 251.941 188.611 251.907 188.343 251.885C187.603 251.826 186.849 251.582 186.239 251.177C186.238 251.176 186.237 251.175 186.234 251.174C186.184 251.142 185.895 250.956 185.709 250.653C185.455 250.247 185.532 249.883 185.625 249.68C185.768 249.361 186.052 249.179 186.271 249.083C186.5 248.982 186.748 248.934 186.977 248.922C187.374 248.9 187.738 248.983 187.887 249.017C187.893 249.018 187.899 249.019 187.904 249.02L187.92 249.024C187.927 249.026 187.936 249.028 187.946 249.03C188.044 249.053 188.258 249.102 188.505 249.202ZM187.899 251.476C187.904 251.479 187.908 251.481 187.911 251.483L187.912 251.483L187.899 251.476Z" fill="#2D343A"/>
<path fill-rule="evenodd" clip-rule="evenodd" d="M188.309 250.587C188.706 250.844 188.818 251.344 188.557 251.705C187.917 252.591 187.168 253.142 186.371 253.433C185.579 253.723 184.799 253.735 184.13 253.633C183.466 253.531 182.899 253.315 182.502 253.13C182.302 253.037 182.141 252.949 182.026 252.882C181.969 252.848 181.923 252.82 181.889 252.799C181.873 252.789 181.859 252.78 181.849 252.773L181.836 252.764L181.831 252.761L181.829 252.76L181.828 252.759C181.828 252.759 181.827 252.759 182.314 252.117L181.827 252.759C181.436 252.494 181.337 251.991 181.606 251.637C181.875 251.283 182.41 251.211 182.801 251.476L182.321 252.108C182.801 251.476 182.801 251.476 182.801 251.476L182.8 251.475L182.799 251.475L182.798 251.474C182.797 251.474 182.798 251.474 182.799 251.474C182.801 251.476 182.806 251.479 182.814 251.484C182.83 251.494 182.857 251.511 182.893 251.532C182.967 251.575 183.079 251.637 183.222 251.703C183.511 251.838 183.904 251.985 184.341 252.052C184.773 252.118 185.234 252.104 185.688 251.938C186.137 251.774 186.638 251.439 187.119 250.773C187.379 250.413 187.912 250.33 188.309 250.587Z" fill="#2D343A"/>
<path fill-rule="evenodd" clip-rule="evenodd" d="M187.444 250.355C187.917 250.331 188.337 250.67 188.382 251.112C188.465 251.929 188.732 252.469 189.039 252.836C189.349 253.207 189.741 253.449 190.148 253.608C190.56 253.768 190.974 253.838 191.292 253.866C191.448 253.879 191.576 253.882 191.662 253.882C191.704 253.882 191.736 253.881 191.754 253.88C191.764 253.88 191.77 253.879 191.772 253.879C191.773 253.879 191.773 253.879 191.773 253.879C191.773 253.879 191.773 253.879 191.773 253.879C192.243 253.847 192.669 254.177 192.724 254.617C192.78 255.058 192.443 255.443 191.972 255.477L191.871 254.678C191.972 255.477 191.971 255.477 191.971 255.477L191.97 255.477L191.967 255.478L191.962 255.478L191.946 255.479C191.934 255.48 191.918 255.48 191.898 255.481C191.858 255.483 191.804 255.484 191.738 255.485C191.606 255.485 191.421 255.48 191.201 255.461C190.766 255.424 190.166 255.327 189.54 255.083C188.91 254.837 188.24 254.436 187.699 253.789C187.155 253.139 186.781 252.287 186.67 251.199C186.625 250.757 186.972 250.38 187.444 250.355Z" fill="#2D343A"/>
<path d="M219.676 239.708L252.883 180.683" stroke="#D0D5DD" stroke-width="3" stroke-linejoin="round"/>
<path d="M263.426 185.16L225.131 263.568C224.141 265.644 221.49 266.561 219.262 265.601L212.048 262.377C209.777 261.398 208.859 258.863 210.037 256.821L220.457 238.209" stroke="#D0D5DD" stroke-width="3" stroke-linejoin="round"/>
<path d="M302.38 173.672L274.769 158.566C271.16 156.591 267.385 154.943 263.491 153.634L220.229 139.131C217.811 138.322 215.17 139.458 214.104 141.776L211.88 146.599C210.793 148.959 211.694 151.757 213.953 153.04L250.885 173.985L249.009 178.047C248.402 179.362 248.978 180.918 250.292 181.525L263.591 187.664C264.906 188.271 266.463 187.696 267.07 186.381L268.889 182.442L293.826 192.163C295.068 192.649 296.478 192.08 297.036 190.87L303.46 176.948C304.016 175.742 303.543 174.313 302.38 173.672Z" stroke="#D0D5DD" stroke-width="3" stroke-linejoin="round"/>
<defs>
<linearGradient id="paint0_linear_878_1018" x1="146.658" y1="74.6267" x2="166.246" y2="197.495" gradientUnits="userSpaceOnUse">
<stop offset="0.065" stop-color="#2A61E7"/>
<stop offset="0.905" stop-color="#FF7EFA"/>
</linearGradient>
<linearGradient id="paint1_linear_878_1018" x1="202.22" y1="196.936" x2="185.75" y2="258.404" gradientUnits="userSpaceOnUse">
<stop offset="0.065" stop-color="#02F1CF"/>
<stop offset="0.905" stop-color="#6D9FFF"/>
</linearGradient>
</defs>
</svg>
