<svg width="257" height="64" viewBox="0 0 257 64" fill="none" xmlns="http://www.w3.org/2000/svg">
<rect y="8" width="257" height="56" rx="4" fill="#2D3648"/>
<path d="M20.312 23.076C20.312 25.148 21.026 27.192 22.748 28.116L21.852 29.32C20.718 28.69 19.99 27.598 19.57 26.282C19.122 27.738 18.324 28.956 17.176 29.656L16.224 28.536C18.016 27.472 18.842 25.274 18.856 23.16V20.948H20.312V23.076ZM22.888 31.616V20.08H24.344V24.728H25.604V19.856H27.06V32.204H25.604V25.96H24.344V31.616H22.888ZM39.8036 29.516V30.776H28.5196V29.516H33.3916V27.5H29.8636V23.468H36.9756V21.928H29.8356V20.696H38.4596V24.672H31.3756V26.268H38.7396V27.5H34.8756V29.516H39.8036ZM50.6992 20.976V22.18C50.6852 23.72 50.6852 25.442 50.2232 28.004L48.6832 27.864C49.1592 25.456 49.1592 23.692 49.1592 22.208H41.7952V20.976H50.6992ZM40.6192 30.608V29.376H44.7632V25.064H46.2752V29.376H51.8752V30.608H40.6192ZM60.0268 21.172V22.376H57.3948C57.4088 23.748 58.5008 25.092 60.4468 25.624L59.7468 26.8C58.3048 26.408 57.2548 25.554 56.6808 24.462C56.1208 25.666 55.0568 26.59 53.5868 27.024L52.8588 25.876C54.8048 25.274 55.8688 23.86 55.8828 22.376H53.2508V21.172H55.8828V19.828H57.4228V21.172H60.0268ZM54.7908 32.064V27.696H62.9948V32.064H54.7908ZM56.3028 30.832H61.5108V28.9H56.3028V30.832ZM61.4828 27.136V19.884H62.9948V27.136H61.4828ZM78.5144 19.856V32.232H77.0024V25.54H74.4824V29.236H68.6024V20.808H70.1424V23.888H72.9984V20.808H74.4824V24.28H77.0024V19.856H78.5144ZM70.1424 28.004H72.9984V25.092H70.1424V28.004ZM91.51 26.604V27.808H80.226V26.604H91.51ZM81.626 31.98V28.508H83.138V30.748H90.334V31.98H81.626ZM81.654 25.68V20.276H90.166V21.452H83.194V22.404H89.858V23.552H83.194V24.532H90.25V25.68H81.654ZM97.9816 20.052C100.782 20.052 102.406 20.794 102.406 22.152C102.406 23.552 100.782 24.294 97.9816 24.308C95.1536 24.294 93.5156 23.552 93.5016 22.152C93.5156 20.794 95.1536 20.052 97.9816 20.052ZM92.3536 26.184V24.952H103.61V26.184H92.3536ZM93.6696 32.12V28.956H100.698V28.144H93.6696V26.996H102.21V30.02H95.1816V30.944H102.546V32.12H93.6696ZM95.0976 22.152C95.0976 22.852 96.0776 23.16 97.9816 23.16C99.8716 23.16 100.852 22.852 100.838 22.152C100.852 21.536 99.8716 21.172 97.9816 21.172C96.0776 21.172 95.0976 21.536 95.0976 22.152ZM117.841 23.832V25.036H109.189V20.444H110.729V23.832H117.841ZM107.789 27.864V26.604H119.073V27.864H114.145V32.204H112.605V27.864H107.789ZM131.173 29.516V30.748H119.889V29.516H131.173ZM121.205 21.956V20.724H129.829V24.728H122.745V26.324H130.109V27.528H121.233V23.496H128.345V21.956H121.205ZM138.316 20.892V21.872H140.808V19.884H142.32V28.872H140.808V25.764H138.316V26.828H132.52V20.892H138.316ZM134.032 25.624H136.832V22.096H134.032V25.624ZM134.172 31.98V28.032H135.712V30.748H142.6V31.98H134.172ZM138.316 24.532H140.808V23.132H138.316V24.532Z" fill="white"/>
<path d="M26.08 39.856V44.532H27.984V45.792H26.08V52.232H24.568V39.856H26.08ZM16.924 49.208V41.032H22.692V42.264H18.436V47.948C20.354 47.934 21.866 47.836 23.588 47.528L23.756 48.816C21.838 49.152 20.172 49.208 17.932 49.208H16.924ZM39.8036 46.604V47.808H28.4916V46.604H39.8036ZM29.8916 41.368V40.192H38.4036V43.496H31.4316V44.532H38.6276V45.68H29.9196V42.376H36.8636V41.368H29.8916ZM29.9476 51.98V48.592H31.4596V50.748H38.6556V51.98H29.9476ZM50.5912 40.584V41.816H46.1672V42.964H50.2552V44.14H46.1672V45.372C48.4772 45.372 49.8912 45.33 51.5152 45.064L51.6552 46.24C49.8912 46.548 48.3512 46.59 45.6912 46.576H44.6272V40.584H50.5912ZM46.0272 52.064V47.752H54.2312V52.064H46.0272ZM47.5392 50.832H52.7472V48.928H47.5392V50.832ZM52.7192 47.22V39.884H54.2312V47.22H52.7192ZM66.4148 39.884V49.208H64.8748V48.144H62.4668V47.08H64.8748V39.884H66.4148ZM55.9988 45.428C58.2668 45.414 61.3328 45.386 63.9508 45.064L64.0348 46.156C63.0268 46.324 61.9628 46.436 60.9268 46.506V48.872H59.4148V46.59C58.2528 46.632 57.1468 46.632 56.1668 46.632L55.9988 45.428ZM56.9228 42.516C56.9368 41.2 58.1828 40.318 60.0308 40.332C61.8228 40.318 63.0828 41.2 63.0828 42.516C63.0828 43.832 61.8228 44.686 60.0308 44.672C58.1968 44.686 56.9368 43.832 56.9228 42.516ZM57.6228 51.98V48.312H59.1628V50.748H66.6948V51.98H57.6228ZM58.3788 42.516C58.3648 43.188 59.0368 43.566 60.0308 43.58C60.9688 43.566 61.6408 43.188 61.6548 42.516C61.6408 41.844 60.9688 41.438 60.0308 41.452C59.0368 41.438 58.3648 41.844 58.3788 42.516ZM79.4104 44.812V46.016H68.1544V44.812H79.4104ZM69.4704 52.092V48.872H76.4984V48.004H69.4704V46.856H78.0104V49.964H70.9824V50.888H78.3464V52.092H69.4704ZM69.5824 44V40.164H77.9824V41.396H71.0944V42.796H78.0664V44H69.5824ZM84.258 40.724C86.218 40.71 87.646 41.942 87.646 43.692C87.646 45.456 86.218 46.688 84.258 46.688C82.312 46.688 80.856 45.456 80.87 43.692C80.856 41.942 82.312 40.71 84.258 40.724ZM80.31 48.396C82.536 48.396 85.616 48.368 88.29 48.004L88.402 49.096C85.63 49.628 82.676 49.642 80.478 49.656L80.31 48.396ZM82.354 43.692C82.354 44.728 83.166 45.372 84.258 45.372C85.35 45.372 86.162 44.728 86.162 43.692C86.162 42.67 85.35 42.026 84.258 42.04C83.166 42.026 82.354 42.67 82.354 43.692ZM89.018 52.232V39.856H90.53V52.232H89.018ZM105.434 39.856V42.6H107.17V43.86H105.434V46.464H103.894V39.856H105.434ZM96.1935 46.128V40.64H101.682V41.844H97.7055V44.896C100.03 44.882 101.318 44.798 102.774 44.504L102.942 45.736C101.332 46.058 99.8895 46.128 97.2015 46.128H96.1935ZM97.4255 52.036V47.08H98.9375V48.368H103.894V47.08H105.434V52.036H97.4255ZM98.9375 50.804H103.894V49.544H98.9375V50.804ZM118.121 39.884V48.984H116.609V45.876H114.117V46.996H108.349V40.696H109.861V42.684H112.633V40.696H114.117V42.012H116.609V39.884H118.121ZM109.861 45.792H112.633V43.832H109.861V45.792ZM109.973 51.98V48.088H111.513V50.748H118.401V51.98H109.973ZM114.117 44.644H116.609V43.244H114.117V44.644ZM125.517 40.052C128.317 40.052 129.941 40.794 129.941 42.152C129.941 43.552 128.317 44.294 125.517 44.308C122.689 44.294 121.051 43.552 121.037 42.152C121.051 40.794 122.689 40.052 125.517 40.052ZM119.889 46.184V44.952H131.145V46.184H119.889ZM121.205 52.12V48.956H128.233V48.144H121.205V46.996H129.745V50.02H122.717V50.944H130.081V52.12H121.205ZM122.633 42.152C122.633 42.852 123.613 43.16 125.517 43.16C127.407 43.16 128.387 42.852 128.373 42.152C128.387 41.536 127.407 41.172 125.517 41.172C123.613 41.172 122.633 41.536 122.633 42.152ZM138.264 40.052V41.032H143.612V40.052H145.124V44.168H136.78V40.052H138.264ZM135.324 46.184V44.924H146.58V46.184H141.68V47.08H145.18V50.076H138.152V50.944H145.516V52.12H136.64V49.012H143.668V48.2H136.64V47.08H140.168V46.184H135.324ZM138.264 43.02H143.612V42.124H138.264V43.02ZM157.756 39.856V52.232H156.244V45.652H154.116V44.42H156.244V39.856H157.756ZM147.816 42.18V40.948H153.416V45.456H149.384V48.06C151.218 48.046 152.688 47.99 154.34 47.696L154.48 48.928C152.632 49.264 150.98 49.334 148.852 49.32H147.872V44.224H151.932V42.18H147.816ZM165.152 39.996C167.952 39.982 169.576 40.738 169.576 42.096C169.576 43.356 168.232 44.084 165.88 44.21V45.008H170.78V46.212H159.524V45.008H164.368V44.21C162.03 44.07 160.686 43.342 160.672 42.096C160.686 40.738 162.324 39.982 165.152 39.996ZM160.84 52.12V48.956H167.868V48.144H160.84V46.996H169.38V50.02H162.352V50.944H169.716V52.12H160.84ZM162.268 42.096C162.268 42.782 163.248 43.104 165.152 43.104C167.042 43.104 168.022 42.782 168.008 42.096C168.022 41.466 167.042 41.116 165.152 41.116C163.248 41.116 162.268 41.466 162.268 42.096ZM181.371 40.892C181.385 42.432 183.121 44.014 185.767 44.364L185.151 45.596C183.065 45.274 181.399 44.238 180.587 42.838C179.775 44.238 178.123 45.274 176.051 45.596L175.435 44.364C178.053 44.014 179.789 42.446 179.803 40.892V40.248H181.371V40.892ZM174.959 47.892V46.66H186.215V47.892H181.315V52.204H179.803V47.892H174.959ZM194.763 47.892C194.777 48.928 195.253 50.006 196.303 50.678C197.381 49.964 197.885 48.844 197.899 47.892V47.388H199.383V47.892C199.369 49.194 200.139 50.398 201.763 50.916L201.007 52.036C199.817 51.63 199.019 50.832 198.585 49.838C198.193 50.818 197.479 51.7 196.359 52.148C195.183 51.714 194.441 50.874 194.049 49.88C193.601 50.832 192.817 51.616 191.655 52.036L190.927 50.916C192.509 50.356 193.293 49.096 193.307 47.892V47.388H194.763V47.892ZM190.619 43.468C190.605 41.732 192.033 40.528 193.951 40.528C195.841 40.528 197.269 41.732 197.255 43.468C197.269 45.19 195.841 46.394 193.951 46.408C192.033 46.394 190.605 45.19 190.619 43.468ZM192.103 43.468C192.089 44.476 192.859 45.134 193.951 45.12C195.001 45.134 195.771 44.476 195.771 43.468C195.771 42.46 195.001 41.802 193.951 41.816C192.859 41.802 192.089 42.46 192.103 43.468ZM199.159 46.884V39.884H200.671V46.884H199.159ZM205.854 40.752C207.534 40.766 208.78 42.166 208.99 44.42H211.342V39.856H212.854V52.232H211.342V45.624H209.004C208.85 48.018 207.59 49.502 205.854 49.488C204.006 49.502 202.69 47.808 202.69 45.12C202.69 42.46 204.006 40.766 205.854 40.752ZM204.146 45.12C204.146 47.024 204.846 48.13 205.854 48.116C206.89 48.13 207.576 47.024 207.59 45.12C207.576 43.244 206.89 42.124 205.854 42.124C204.846 42.124 204.146 43.244 204.146 45.12ZM225.878 49.46V50.72H214.594V49.46H217.198V46.352C216.218 45.778 215.616 44.896 215.63 43.804C215.616 41.83 217.548 40.528 220.222 40.528C222.868 40.528 224.814 41.83 224.814 43.804C224.814 44.882 224.226 45.75 223.274 46.324V49.46H225.878ZM217.114 43.804C217.1 45.064 218.36 45.862 220.222 45.876C222.042 45.862 223.316 45.064 223.33 43.804C223.316 42.502 222.042 41.732 220.222 41.732C218.36 41.732 217.1 42.502 217.114 43.804ZM218.71 49.46H221.734V46.898C221.272 46.996 220.754 47.052 220.222 47.052C219.69 47.052 219.172 46.996 218.71 46.898V49.46Z" fill="#FF7EFA"/>
<path d="M244 20L236 28" stroke="#98A2B3" stroke-width="1.33333" stroke-linecap="round" stroke-linejoin="round"/>
<path d="M236 20L244 28" stroke="#98A2B3" stroke-width="1.33333" stroke-linecap="round" stroke-linejoin="round"/>
<path d="M234 0L242 8L226 8L234 0Z" fill="#2D3648"/>
</svg>
