<svg width="24" height="24" viewBox="0 0 24 24" fill="none" xmlns="http://www.w3.org/2000/svg">
<path d="M8.14109 4.99636C9.66003 4.15882 11.41 3.83765 13.1274 4.08125C14.8448 4.32484 16.4364 5.12 17.6626 6.3469C17.6697 6.35405 17.677 6.3611 17.6843 6.36803L20.4333 9H17C16.4477 9 16 9.44772 16 10C16 10.5523 16.4477 11 17 11H23C23.5523 11 24 10.5523 24 10V4C24 3.44772 23.5523 3 23 3C22.4477 3 22 3.44772 22 4V7.73116L19.0662 4.92215C17.5351 3.39476 15.5498 2.40483 13.4083 2.10107C11.2616 1.79658 9.07407 2.19804 7.17538 3.24495C5.2767 4.29187 3.76971 5.92752 2.8815 7.90543C1.9933 9.88334 1.772 12.0963 2.25095 14.211C2.7299 16.3256 3.88316 18.2273 5.53694 19.6294C7.19072 21.0316 9.25541 21.8583 11.4199 21.9849C13.5844 22.1115 15.7314 21.5312 17.5374 20.3315C19.3434 19.1317 20.7105 17.3775 21.4328 15.3331C21.6167 14.8124 21.3437 14.2411 20.823 14.0571C20.3023 13.8732 19.731 14.1462 19.547 14.6669C18.9692 16.3024 17.8755 17.7058 16.4307 18.6656C14.9859 19.6254 13.2683 20.0896 11.5367 19.9883C9.80511 19.887 8.15335 19.2257 6.83033 18.1039C5.50731 16.9822 4.58471 15.4609 4.20154 13.7692C3.81838 12.0775 3.99542 10.3071 4.70598 8.72474C5.41655 7.14241 6.62214 5.83389 8.14109 4.99636Z" fill="#98A2B3"/>
</svg>
