<svg width="26" height="26" viewBox="0 0 26 26" fill="none" xmlns="http://www.w3.org/2000/svg">
<circle cx="13" cy="13" r="13" fill="#98A2B3"/>
<path d="M8.33333 17.6667H9.28333L15.8 11.15L14.85 10.2L8.33333 16.7167V17.6667ZM7.66667 19C7.47778 19 7.31944 18.9361 7.19167 18.8083C7.06389 18.6806 7 18.5222 7 18.3333V16.7167C7 16.5389 7.03333 16.3694 7.1 16.2083C7.16667 16.0472 7.26111 15.9056 7.38333 15.7833L15.8 7.38333C15.9333 7.26111 16.0806 7.16667 16.2417 7.1C16.4028 7.03333 16.5722 7 16.75 7C16.9278 7 17.1 7.03333 17.2667 7.1C17.4333 7.16667 17.5778 7.26667 17.7 7.4L18.6167 8.33333C18.75 8.45556 18.8472 8.6 18.9083 8.76667C18.9694 8.93333 19 9.1 19 9.26667C19 9.44444 18.9694 9.61389 18.9083 9.775C18.8472 9.93611 18.75 10.0833 18.6167 10.2167L10.2167 18.6167C10.0944 18.7389 9.95278 18.8333 9.79167 18.9C9.63056 18.9667 9.46111 19 9.28333 19H7.66667ZM15.3167 10.6833L14.85 10.2L15.8 11.15L15.3167 10.6833Z" fill="white"/>
</svg>
