<svg width="99" height="99" viewBox="0 0 99 99" fill="none" xmlns="http://www.w3.org/2000/svg">
<g clip-path="url(#clip0_841_5722)">
<path d="M99 49.5C99 22.1599 76.8401 0 49.5 0C22.1599 0 0 22.1599 0 49.5C0 67.0427 9.12547 82.4516 22.8863 91.2411C18.9501 85.8203 16.6256 79.16 16.6256 71.9505C16.6256 53.7949 31.3444 39.0761 49.5 39.0761C67.6556 39.0761 82.3744 53.7949 82.3744 71.9505C82.3744 79.16 80.0499 85.8203 76.1137 91.2411C89.8745 82.447 99 67.0382 99 49.5Z" fill="#2F65E8"/>
<path d="M76.1141 91.2456C68.4278 96.1579 59.2978 99.0045 49.5004 99.0045C39.703 99.0045 30.573 96.1579 22.8867 91.2456" fill="white"/>
<path d="M49.4994 39.0806C31.3438 39.0806 16.625 53.7994 16.625 71.955C16.625 79.1645 18.9495 85.8248 22.8857 91.2456C30.572 96.1579 39.702 99.0045 49.4994 99.0045C59.2968 99.0045 68.4268 96.1579 76.1131 91.2456C80.0493 85.8248 82.3738 79.1645 82.3738 71.955C82.3738 53.7994 67.655 39.0806 49.4994 39.0806Z" fill="white"/>
<path d="M87.5165 54.1211C92.6616 45.2094 89.6091 33.8145 80.6985 28.67C71.7879 23.5255 60.3935 26.5793 55.2483 35.491L49.0216 46.2759C43.8765 55.1876 46.929 66.5824 55.8396 71.727C64.7502 76.8715 76.1446 73.8176 81.2898 64.9059L87.5165 54.1211Z" fill="white"/>
<path d="M18.0329 64.9095C23.178 73.8212 34.5725 76.8751 43.4831 71.7305C52.3937 66.586 55.4462 55.1912 50.301 46.2795L44.0744 35.4946C38.9292 26.5829 27.5348 23.529 18.6241 28.6736C9.71354 33.8181 6.66105 45.2129 11.8062 54.1246L18.0329 64.9095Z" fill="white"/>
<path d="M61.591 43.4574C60.6603 42.6674 60.5468 41.2736 61.3323 40.3429L64.3741 36.7517C68.0651 32.3933 74.9297 32.1436 79.7012 36.1888C84.4774 40.2339 85.3536 47.044 81.6625 51.4024L78.6207 54.9936C77.8307 55.9243 76.437 56.0378 75.5063 55.2524L75.1204 54.7757C71.788 50.6488 67.7519 47.1439 63.1982 44.4198L61.582 43.4528L61.591 43.4574Z" fill="#FF7EFA"/>
<path d="M38.5775 43.4574C39.5082 42.6674 39.6217 41.2736 38.8362 40.3429L35.7944 36.7517C32.1034 32.3933 25.2388 32.1436 20.4673 36.1888C15.6911 40.2339 14.8149 47.044 18.506 51.4024L21.5478 54.9936C22.3377 55.9243 23.7315 56.0378 24.6622 55.2524L25.0481 54.7757C28.3805 50.6488 32.4166 47.1439 36.9703 44.4198L38.5865 43.4528L38.5775 43.4574Z" fill="#FF7EFA"/>
<path fill-rule="evenodd" clip-rule="evenodd" d="M39.255 63.3841C38.6907 63.3377 38.1481 63.4046 37.6244 63.5619C36.0704 64.0345 34.666 65.3695 33.5723 67.1637C33.3195 67.6896 33.1324 68.236 33.0046 68.7973C32.8741 69.3706 32.8099 69.9559 32.8059 70.5507C32.8057 70.5781 32.8045 70.6055 32.8024 70.6328C32.5752 73.4962 34.1005 76.1236 36.2793 77.4789L36.2801 77.4794C36.8136 77.8119 37.3885 78.0624 37.9806 78.2239L37.9956 78.2281C39.9262 78.7834 41.9558 78.1508 43.5143 76.7313C45.0491 75.3334 46.0269 73.2537 45.9214 71.0687C45.9125 71.0101 45.9081 70.9502 45.9085 70.8894C45.9125 70.306 45.8567 69.7389 45.7491 69.1915C45.0445 65.7682 42.2912 63.2055 39.4192 63.3857C39.3645 63.3891 39.3096 63.3886 39.255 63.3841ZM48.1786 70.7883C48.1794 70.7972 48.1801 70.8061 48.1807 70.815C48.3731 73.7983 47.0582 76.574 45.0429 78.4096C43.0279 80.2448 40.2097 81.2238 37.3759 80.4119C36.5722 80.192 35.7968 79.853 35.0795 79.406C32.2477 77.644 30.2546 74.2518 30.5363 70.4944C30.544 69.7591 30.6251 69.0233 30.7912 68.2935C30.9595 67.5541 31.2103 66.8262 31.5548 66.1218C31.5695 66.0917 31.5856 66.0622 31.6029 66.0335C32.8478 63.9731 34.6471 62.0938 36.9661 61.3894L36.9692 61.3885L36.9692 61.3885C37.7189 61.163 38.5191 61.057 39.3588 61.1155C43.6841 60.8934 47.1295 64.6271 47.9737 68.7394L47.9755 68.7482C48.1053 69.4068 48.1759 70.0885 48.1786 70.7883Z" fill="#2D343A"/>
<path d="M40.6737 67.5059C41.4047 68.7635 41.6544 70.4116 41.2503 72.0732C40.5012 75.1468 37.7863 77.1263 35.1894 76.4907C32.5925 75.8551 31.0943 72.8496 31.8434 69.7759C32.5925 66.7023 35.3074 64.7229 37.9043 65.3585C39.0938 65.6491 40.0563 66.439 40.6737 67.5059Z" fill="#2D343A"/>
<path fill-rule="evenodd" clip-rule="evenodd" d="M59.4503 63.3841C58.886 63.3377 58.3434 63.4046 57.8197 63.5619C56.2657 64.0345 54.8613 65.3695 53.7676 67.1637C53.5148 67.6896 53.3277 68.236 53.1999 68.7973C53.0694 69.3706 53.0052 69.9559 53.0012 70.5507C53.001 70.5781 52.9998 70.6055 52.9977 70.6328C52.7705 73.4962 54.2958 76.1236 56.4746 77.4789L56.4754 77.4794C57.0089 77.8119 57.5838 78.0624 58.1759 78.2239L58.191 78.2281C60.1215 78.7834 62.1512 78.1508 63.7096 76.7313C65.2444 75.3334 66.2222 73.2537 66.1167 71.0687C66.1078 71.0101 66.1034 70.9502 66.1038 70.8894C66.1078 70.306 66.052 69.7389 65.9444 69.1915C65.2398 65.7682 62.4865 63.2055 59.6145 63.3857C59.5598 63.3891 59.505 63.3886 59.4503 63.3841ZM68.3739 70.7883C68.3747 70.7972 68.3754 70.8061 68.376 70.815C68.5684 73.7983 67.2535 76.574 65.2382 78.4096C63.2232 80.2448 60.4051 81.2238 57.5712 80.4119C56.7676 80.192 55.9921 79.853 55.2748 79.406C52.443 77.644 50.4499 74.2518 50.7316 70.4944C50.7393 69.7591 50.8204 69.0233 50.9865 68.2935C51.1548 67.5541 51.4056 66.8262 51.7501 66.1218C51.7648 66.0917 51.7809 66.0622 51.7982 66.0335C53.0431 63.9731 54.8424 62.0938 57.1615 61.3894L57.1645 61.3885L57.1645 61.3885C57.9142 61.163 58.7144 61.057 59.5541 61.1155C63.8794 60.8934 67.3248 64.6271 68.169 68.7394L68.1708 68.7482C68.3006 69.4068 68.3712 70.0885 68.3739 70.7883Z" fill="#2D343A"/>
<path d="M60.2909 67.5059C61.0219 68.7635 61.2716 70.4116 60.8675 72.0732C60.1184 75.1468 57.4035 77.1263 54.8066 76.4907C52.2097 75.8551 50.7114 72.8496 51.4605 69.7759C52.2096 66.7023 54.9246 64.7229 57.5215 65.3585C58.711 65.6491 59.6735 66.439 60.2909 67.5059Z" fill="#2D343A"/>
<path fill-rule="evenodd" clip-rule="evenodd" d="M57.0008 57.5538C56.5789 58.0139 55.8641 58.0471 55.4014 57.627C54.9373 57.2057 54.9026 56.4879 55.3239 56.0237L56.1643 56.7866C55.3239 56.0237 55.3243 56.0233 55.3248 56.0228L55.3257 56.0219L55.3277 56.0196L55.3327 56.0142L55.3463 55.9996C55.357 55.9882 55.371 55.9735 55.3881 55.9559C55.4224 55.9207 55.4694 55.8737 55.5286 55.8176C55.6467 55.7056 55.8147 55.5558 56.0272 55.3911C56.4476 55.0651 57.0668 54.6611 57.8378 54.3874C58.6158 54.1112 59.5645 53.9628 60.6086 54.1794C61.6572 54.397 62.7157 54.965 63.7356 55.9836C64.1791 56.4265 64.1796 57.1452 63.7366 57.5887C63.2936 58.0322 62.575 58.0327 62.1314 57.5897C61.3762 56.8354 60.701 56.517 60.1474 56.4021C59.5895 56.2863 59.0678 56.3595 58.5973 56.5266C58.1198 56.6961 57.7124 56.9569 57.4182 57.185C57.2735 57.2972 57.1623 57.3967 57.0905 57.4648C57.0547 57.4988 57.0292 57.5244 57.0145 57.5395C57.0072 57.547 57.0027 57.5518 57.001 57.5536C57.0009 57.5537 57.0009 57.5537 57.0008 57.5538C57.0008 57.5538 57.0008 57.5538 57.0008 57.5538Z" fill="#2D343A"/>
<path fill-rule="evenodd" clip-rule="evenodd" d="M49.8275 76.8588C49.8279 76.8588 49.8283 76.8588 49.8286 76.8588C50.4937 76.8766 51.166 77.1097 51.6937 77.5661C51.7424 77.6064 51.8441 77.696 51.9401 77.8147C52.0764 77.983 52.2775 78.3009 52.3069 78.7454C52.3481 79.3134 52.0793 79.7234 52.0622 79.7494C52.0618 79.7501 52.0615 79.7505 52.0614 79.7506C52.0576 79.7569 52.0538 79.7632 52.0499 79.7695C51.5777 80.5322 50.7695 80.7573 50.4588 80.8295C49.6017 81.0335 48.6715 80.9724 47.8562 80.6201C47.8545 80.6194 47.8523 80.6185 47.8495 80.6174C47.7826 80.5901 47.3977 80.433 47.0949 80.0636C46.6827 79.5705 46.6597 79.0104 46.7031 78.6792C46.7691 78.1585 47.0352 77.7821 47.255 77.5563C47.4845 77.3205 47.7513 77.1542 48.0074 77.0464C48.4517 76.8593 48.8893 76.8382 49.0688 76.8295C49.0762 76.8291 49.083 76.8288 49.0895 76.8285L49.1089 76.8276C49.1178 76.8273 49.1281 76.8268 49.1398 76.8263C49.2584 76.821 49.5167 76.8096 49.8275 76.8588ZM49.8308 80.4073C49.8375 80.4098 49.8428 80.4116 49.8464 80.4129L49.8476 80.4133L49.8308 80.4073Z" fill="#2D343A"/>
<path fill-rule="evenodd" clip-rule="evenodd" d="M49.4263 79.7416C50.0178 79.9491 50.3291 80.5968 50.1216 81.1883C49.6108 82.6441 48.8471 83.6787 47.9354 84.3734C47.0288 85.0643 46.0426 85.3687 45.1597 85.4745C44.283 85.5796 43.489 85.4918 42.9232 85.3831C42.6375 85.3282 42.4024 85.2665 42.2345 85.217C42.1503 85.1922 42.0824 85.1703 42.0329 85.1536C42.0081 85.1452 41.9879 85.1381 41.9724 85.1326L41.9528 85.1255L41.9458 85.1229L41.9429 85.1218L41.9417 85.1214C41.9411 85.1212 41.9406 85.1209 42.3404 84.0587L41.9406 85.1209C41.3539 84.9001 41.0573 84.2455 41.2781 83.6589C41.4989 83.0722 42.1535 82.7756 42.7402 82.9964L42.3461 84.0435C42.7402 82.9964 42.7397 82.9962 42.7392 82.996L42.7383 82.9957L42.7368 82.9952L42.7351 82.9945C42.7345 82.9943 42.7351 82.9945 42.7367 82.9951C42.74 82.9963 42.7476 82.999 42.7593 83.0029C42.7827 83.0108 42.8223 83.0237 42.8762 83.0396C42.9844 83.0715 43.1478 83.1147 43.3514 83.1538C43.7643 83.2331 44.3124 83.2898 44.8896 83.2206C45.4607 83.1522 46.0402 82.9637 46.5595 82.5679C47.0737 82.1761 47.5959 81.5302 47.9796 80.4368C48.1871 79.8453 48.8348 79.534 49.4263 79.7416Z" fill="#2D343A"/>
<path fill-rule="evenodd" clip-rule="evenodd" d="M49.1248 79.7416C49.7163 79.534 50.364 79.8453 50.5716 80.4368C50.9552 81.5302 51.4774 82.1761 51.9916 82.5679C52.5109 82.9637 53.0904 83.1522 53.6615 83.2206C54.2387 83.2898 54.7869 83.2331 55.1997 83.1538C55.4034 83.1147 55.5667 83.0715 55.6749 83.0396C55.7288 83.0237 55.7684 83.0108 55.7918 83.0029C55.8035 82.999 55.8111 82.9963 55.8144 82.9951C55.8149 82.9949 55.8153 82.9948 55.8156 82.9947C55.8156 82.9947 55.8156 82.9947 55.8156 82.9947C56.4011 82.7772 57.0528 83.0738 57.273 83.6589C57.4938 84.2455 57.1972 84.9001 56.6105 85.1209L56.2107 84.0587C56.6105 85.1209 56.61 85.1212 56.6094 85.1214L56.6082 85.1218L56.6053 85.1229L56.5983 85.1255L56.5787 85.1326C56.5633 85.1381 56.543 85.1452 56.5182 85.1536C56.4687 85.1703 56.4008 85.1922 56.3166 85.217C56.1487 85.2665 55.9136 85.3282 55.6279 85.3831C55.0621 85.4918 54.2681 85.5796 53.3914 85.4745C52.5085 85.3687 51.5223 85.0643 50.6157 84.3734C49.704 83.6787 48.9403 82.6441 48.4295 81.1883C48.222 80.5968 48.5333 79.9491 49.1248 79.7416Z" fill="#2D343A"/>
<circle cx="49.5" cy="49.5" r="48.5" fill="#1D2939" stroke="#98A2B3" stroke-width="2"/>
<path d="M35 50.5H64M49.5 36V65" stroke="#98A2B3" stroke-width="2" stroke-linecap="round" stroke-linejoin="round"/>
</g>
<defs>
<clipPath id="clip0_841_5722">
<rect width="99" height="99" fill="white"/>
</clipPath>
</defs>
</svg>
