<svg width="70" height="71" viewBox="0 0 70 71" fill="none" xmlns="http://www.w3.org/2000/svg">
<path d="M34.9826 69.9652C54.3029 69.9652 69.9652 54.303 69.9652 34.9826C69.9652 15.6622 54.3029 0 34.9826 0C15.6622 0 0 15.6622 0 34.9826C0 54.303 15.6622 69.9652 34.9826 69.9652Z" fill="#475467"/>
<mask id="mask0_834_4376" style="mask-type:luminance" maskUnits="userSpaceOnUse" x="0" y="0" width="70" height="71">
<path d="M35 70.8984C54.33 70.8984 70 55.2284 70 35.8984C70 16.5685 54.33 0.898438 35 0.898438C15.67 0.898438 0 16.5685 0 35.8984C0 55.2284 15.67 70.8984 35 70.8984Z" fill="white"/>
</mask>
<g mask="url(#mask0_834_4376)">
<path d="M27.5662 72.8234C27.5989 75.301 24.6099 77.3482 20.8901 77.3971C17.1702 77.4436 12.7321 77.2186 12.6994 74.7385C12.6667 72.2608 17.0497 68.4697 20.7695 68.4208C24.4894 68.3719 27.5336 70.3433 27.5662 72.8234Z" fill="#02F1CF"/>
<path d="M41.5063 73.4845C41.5463 76.0488 44.5852 78.0814 48.2925 78.0207C51.9997 77.9599 56.4129 77.5954 56.3728 75.0312C56.3328 72.4669 51.852 68.6724 48.1448 68.7306C44.4375 68.7889 41.4662 70.9177 41.5063 73.4845Z" fill="#02F1CF"/>
<path d="M70.0423 46.591C65.3583 45.6707 62.9743 43.3307 62.9743 43.3307L62.9635 43.3447C63.086 41.498 63.0324 39.5957 62.7832 37.6454C60.7188 21.4852 46.0744 8.39542 31.2538 10.2887C16.9003 12.1223 -0.711141 33.1308 1.35327 49.2909C1.44032 49.9724 1.5621 50.6293 1.71242 51.2725C1.32623 51.8457 -0.459547 54.2676 -4.22913 56.079C-7.99158 57.8869 -0.195549 60.543 4.82255 60.7986C5.53607 63.6769 6.13246 67.1796 5.42108 69.021C4.16808 72.2739 28.6404 70.5505 33.69 69.175C34.2011 69.1651 34.7113 69.1478 35.2156 69.1237C38.8359 69.6208 65.2403 64.8625 63.1203 61.9019C61.9533 60.2754 61.6576 56.6561 61.6317 53.6673C66.4072 52.478 74.382 47.4446 70.0423 46.591Z" fill="#4747F4"/>
<path d="M56.3053 46.0106C56.2676 45.143 56.1923 44.2905 56.0843 43.4506C56.0667 43.2997 56.0516 43.1513 56.034 42.9979L56.024 43.0054C54.3988 31.7391 46.5997 23.1987 37.2257 23.1987C35.259 23.1987 33.3626 23.576 31.5767 24.2726C29.7908 23.5734 27.8944 23.1987 25.9277 23.1987C15.3731 23.1987 6.81543 34.0225 6.81543 47.3762C6.81543 58.9368 13.228 68.5987 21.8008 70.9853C26.1286 73.0877 32.6342 74.8883 41.1918 73.5152C54.8962 71.3173 54.4139 68.6063 53.693 65.6614C53.0274 62.9555 56.9282 56.9954 56.3053 46.0106Z" fill="white"/>
<path d="M30.6639 47.6675C33.572 47.6675 35.9294 46.0034 35.9294 43.9507C35.9294 41.898 33.572 40.2339 30.6639 40.2339C27.7559 40.2339 25.3984 41.898 25.3984 43.9507C25.3984 46.0034 27.7559 47.6675 30.6639 47.6675Z" fill="#CFFF83"/>
</g>
<path d="M26.9155 41.5403C26.0072 41.9082 25.1315 42.3577 24.582 43.1923C24.0551 43.9948 23.9924 45.064 24.5544 45.8666C25.7814 47.6124 28.2629 47.3013 30.1422 47.3235C31.1835 47.3358 32.2298 47.3827 33.2711 47.3432C34.2245 47.3062 35.2407 47.1506 36.0411 46.6049C36.8039 46.0839 37.371 45.3258 37.4663 44.3973C37.5541 43.5355 37.1276 42.7083 36.5078 42.1231C35.7626 41.4193 34.7866 40.9896 33.8181 40.676C32.7392 40.3254 31.5774 40.155 30.4433 40.2711C30.0393 40.313 29.6906 40.5822 29.6906 41.0119C29.6906 41.3798 30.0368 41.7946 30.4433 41.7527C31.9237 41.5996 33.5069 41.9502 34.7891 42.696C35.0701 42.8589 35.2884 43.012 35.5067 43.2318C35.5995 43.3256 35.6698 43.4022 35.725 43.4812C35.8128 43.6096 35.8831 43.738 35.9132 43.8294C35.996 44.0812 36.0035 44.2195 35.9383 44.4541C35.8755 44.6838 35.73 44.9109 35.5469 45.0937C34.5382 46.1086 32.7291 45.8715 31.3943 45.8542C30.4759 45.8444 29.5576 45.832 28.6393 45.8221C27.9442 45.8147 27.1363 45.8493 26.509 45.5851C25.9395 45.3455 25.5129 44.8665 25.7086 44.2837C25.9395 43.5973 26.6822 43.2244 27.317 42.9676C27.6933 42.8145 27.9593 42.4762 27.8439 42.0564C27.7435 41.7082 27.2944 41.3897 26.9155 41.5403Z" fill="#2D343A"/>
<path d="M41.5131 45.7105C43.3163 45.7105 44.7781 44.0399 44.7781 41.979C44.7781 39.9182 43.3163 38.2476 41.5131 38.2476C39.7099 38.2476 38.248 39.9182 38.248 41.979C38.248 44.0399 39.7099 45.7105 41.5131 45.7105Z" fill="#FFE6EC"/>
<path d="M20.5235 45.7105C22.5843 45.7105 24.2549 44.0399 24.2549 41.979C24.2549 39.9182 22.5843 38.2476 20.5235 38.2476C18.4626 38.2476 16.792 39.9182 16.792 41.979C16.792 44.0399 18.4626 45.7105 20.5235 45.7105Z" fill="#FFE6EC"/>
<path fill-rule="evenodd" clip-rule="evenodd" d="M28.5464 32.3004L28.5476 32.3003C29.0919 32.2535 29.6924 32.4461 30.1735 32.7465C30.6619 33.0513 31.1515 33.5453 31.3376 34.2226C31.5352 34.9415 31.3478 35.7071 30.7702 36.4195C30.604 36.6244 30.4044 36.8271 30.1695 37.0275C30.7282 37.2015 31.3998 37.3421 32.2032 37.4281C34.49 37.6727 36.0304 36.7813 37.0202 35.8255C37.5212 35.3416 37.8807 34.84 38.1143 34.4594C38.2307 34.2699 38.3144 34.1127 38.3677 34.0059C38.3943 33.9526 38.4133 33.9121 38.4248 33.8868C38.4306 33.8741 38.4345 33.8652 38.4365 33.8604L38.4373 33.8587C38.4374 33.8584 38.4375 33.8582 38.4376 33.858C38.4377 33.8578 38.4377 33.8576 38.4378 33.8575C38.4379 33.8572 38.438 33.857 38.4381 33.8567C38.4382 33.8566 38.4382 33.8566 38.4382 33.8566C38.603 33.4631 39.0553 33.2769 39.4495 33.4407C39.8444 33.6049 40.0315 34.058 39.8674 34.4529L39.168 34.1623C39.8674 34.4529 39.8673 34.4533 39.8671 34.4537L39.8668 34.4545L39.8659 34.4566L39.8637 34.4619L39.857 34.4775C39.8515 34.49 39.8441 34.5068 39.8346 34.5277C39.8157 34.5693 39.7887 34.6269 39.7531 34.698C39.6821 34.8402 39.5768 35.0373 39.4342 35.2696C39.15 35.7325 38.7124 36.3442 38.096 36.9395C36.851 38.1418 34.8756 39.2715 32.0384 38.968L32.0383 38.968C30.6404 38.8183 29.4909 38.5011 28.5873 38.0652C28.3694 38.1797 28.1378 38.2933 27.8919 38.406C25.2566 39.6141 23.0632 39.288 21.3369 38.3585C19.6594 37.4553 18.4662 36.0056 17.7174 35.0498C17.4537 34.7131 17.5128 34.2264 17.8495 33.9627C18.1861 33.6989 18.6728 33.7581 18.9365 34.0947C19.6774 35.0404 20.7016 36.2576 22.0711 36.9949C23.3648 37.6915 25.0063 37.9821 27.1149 37.0573C26.7001 36.6477 26.4109 36.1939 26.2463 35.7139C25.972 34.9138 26.0757 34.0893 26.5149 33.4391C26.9532 32.7901 27.6834 32.3759 28.5464 32.3004ZM28.5882 36.2747C29.0579 35.969 29.3695 35.688 29.5672 35.4441C29.8938 35.0414 29.8848 34.7805 29.8443 34.633C29.7923 34.4437 29.6272 34.231 29.3535 34.0602C29.0729 33.885 28.8043 33.8328 28.6806 33.8432C28.2382 33.8822 27.9509 34.0799 27.7982 34.3059C27.6463 34.5308 27.5854 34.8446 27.7113 35.2116C27.8185 35.5245 28.0839 35.9094 28.5882 36.2747Z" fill="#171C22"/>
</svg>
