<svg width="70" height="70" viewBox="0 0 70 70" fill="none" xmlns="http://www.w3.org/2000/svg">
<g clip-path="url(#clip0_834_4268)">
<path d="M70 35C70 15.6686 54.3314 0 35 0C15.6686 0 0 15.6686 0 35C0 47.4649 6.51655 58.405 16.3299 64.607C13.4568 60.7388 11.7555 55.9493 11.7555 50.7617C11.7555 37.9244 22.1627 27.5172 35 27.5172C47.8373 27.5172 58.2445 37.9244 58.2445 50.7617C58.2445 55.9493 56.5432 60.7388 53.6701 64.607C63.4802 58.405 70 47.4649 70 35Z" fill="#171C22"/>
<path d="M53.6703 64.6069C48.2676 68.0225 41.8634 69.9999 35.0002 69.9999C28.1369 69.9999 21.7327 68.0225 16.3301 64.6069" fill="white"/>
<path d="M35.0004 27.5171C22.1631 27.5171 11.7559 37.9243 11.7559 50.7616C11.7559 55.9492 13.4572 60.7387 16.3303 64.6069C21.7329 68.0225 28.1371 69.9999 35.0004 69.9999C41.8636 69.9999 48.2678 68.0225 53.6705 64.6069C56.5435 60.7387 58.2449 55.9492 58.2449 50.7616C58.2449 37.9243 47.8377 27.5171 35.0004 27.5171Z" fill="#B0B0BF"/>
<path d="M61.8801 38.2671C65.5181 31.9659 63.3597 23.909 57.0593 20.2714C50.7589 16.6339 42.7022 18.7932 39.0642 25.0944L34.6615 32.7201C31.0235 39.0213 33.1818 47.0782 39.4823 50.7158C45.7827 54.3533 53.8394 52.194 57.4774 45.8928L61.8801 38.2671Z" fill="#B0B0BF"/>
<path d="M12.7512 45.8957C16.3892 52.1969 24.4459 54.3563 30.7464 50.7187C37.0468 47.0811 39.2051 39.0242 35.5671 32.723L31.1644 25.0973C27.5264 18.7961 19.4697 16.6368 13.1693 20.2744C6.86889 23.9119 4.71056 31.9689 8.34856 38.2701L12.7512 45.8957Z" fill="#B0B0BF"/>
<path d="M43.5489 30.7275C42.8909 30.169 42.8106 29.1835 43.366 28.5254L45.5167 25.9862C48.1266 22.9045 52.9803 22.7279 56.3541 25.5881C59.7312 28.4483 60.3507 33.2635 57.7409 36.3453L55.5901 38.8845C55.0316 39.5425 54.046 39.6228 53.388 39.0674L53.1151 38.7304C50.7589 35.8124 47.9051 33.3342 44.6853 31.4081L43.5425 30.7243L43.5489 30.7275Z" fill="#9090B6"/>
<path d="M27.2761 30.7275C27.9342 30.169 28.0145 29.1835 27.4591 28.5254L25.3083 25.9862C22.6985 22.9045 17.8448 22.7279 14.471 25.5881C11.0939 28.4483 10.4743 33.2635 13.0842 36.3453L15.235 38.8845C15.7935 39.5425 16.779 39.6228 17.4371 39.0674L17.71 38.7304C20.0662 35.8124 22.92 33.3342 26.1398 31.4081L27.2826 30.7243L27.2761 30.7275Z" fill="#9090B6"/>
<path fill-rule="evenodd" clip-rule="evenodd" d="M35.231 53.3815C35.2312 53.3815 35.2315 53.3815 35.2318 53.3815C35.702 53.3941 36.1774 53.5589 36.5505 53.8816C36.5849 53.9101 36.6568 53.9735 36.7247 54.0574C36.821 54.1764 36.9633 54.4011 36.9841 54.7154C37.0132 55.1171 36.8231 55.407 36.811 55.4253C36.8107 55.4258 36.8105 55.4261 36.8105 55.4262C36.8078 55.4307 36.8051 55.4351 36.8023 55.4396C36.4685 55.9789 35.897 56.138 35.6773 56.1891C35.0713 56.3333 34.4136 56.2901 33.8371 56.041C33.8359 56.0405 33.8343 56.0399 33.8324 56.0391C33.7851 56.0198 33.5129 55.9087 33.2988 55.6475C33.0074 55.2989 32.9911 54.9029 33.0218 54.6687C33.0685 54.3005 33.2566 54.0344 33.412 53.8747C33.5743 53.708 33.7629 53.5904 33.944 53.5141C34.2582 53.3818 34.5676 53.3669 34.6945 53.3608C34.6997 53.3605 34.7046 53.3603 34.7091 53.3601L34.7229 53.3595C34.7291 53.3592 34.7364 53.3589 34.7447 53.3585C34.8285 53.3548 35.0112 53.3467 35.231 53.3815ZM35.2333 55.8905C35.238 55.8923 35.2417 55.8936 35.2443 55.8945L35.2452 55.8948L35.2333 55.8905Z" fill="#2D343A"/>
<path fill-rule="evenodd" clip-rule="evenodd" d="M34.9478 55.42C35.366 55.5667 35.5861 56.0247 35.4394 56.4429C35.0782 57.4723 34.5382 58.2038 33.8936 58.695C33.2526 59.1836 32.5552 59.3988 31.931 59.4736C31.3111 59.5479 30.7497 59.4858 30.3496 59.4089C30.1476 59.3701 29.9814 59.3265 29.8626 59.2915C29.8031 59.274 29.7551 59.2585 29.7201 59.2467C29.7026 59.2407 29.6883 59.2357 29.6773 59.2318L29.6635 59.2268L29.6585 59.225L29.6565 59.2242L29.6556 59.2239C29.6552 59.2237 29.6548 59.2236 29.9375 58.4725L29.6548 59.2236C29.24 59.0675 29.0303 58.6046 29.1864 58.1898C29.3426 57.775 29.8054 57.5653 30.2202 57.7214L29.9415 58.4618C30.2202 57.7214 30.2198 57.7213 30.2195 57.7211L30.2189 57.7209L30.2178 57.7205L30.2166 57.7201C30.2162 57.7199 30.2166 57.7201 30.2177 57.7205C30.2201 57.7213 30.2254 57.7232 30.2337 57.726C30.2503 57.7316 30.2783 57.7407 30.3164 57.7519C30.3929 57.7745 30.5084 57.805 30.6524 57.8327C30.9443 57.8888 31.3319 57.9288 31.74 57.8799C32.1438 57.8315 32.5536 57.6982 32.9207 57.4184C33.2843 57.1414 33.6536 56.6847 33.9248 55.9116C34.0715 55.4933 34.5295 55.2733 34.9478 55.42Z" fill="#2D343A"/>
<path fill-rule="evenodd" clip-rule="evenodd" d="M34.7343 55.42C35.1526 55.2733 35.6106 55.4933 35.7573 55.9116C36.0285 56.6847 36.3978 57.1414 36.7614 57.4184C37.1285 57.6982 37.5383 57.8315 37.9421 57.8799C38.3502 57.9288 38.7378 57.8888 39.0297 57.8327C39.1737 57.805 39.2892 57.7745 39.3657 57.7519C39.4038 57.7407 39.4318 57.7316 39.4484 57.726C39.4567 57.7232 39.462 57.7213 39.4643 57.7205C39.4647 57.7203 39.465 57.7202 39.4652 57.7202C39.4652 57.7202 39.4652 57.7202 39.4652 57.7202C39.8792 57.5664 40.34 57.7761 40.4957 58.1898C40.6518 58.6046 40.4421 59.0675 40.0273 59.2236L39.7446 58.4725C40.0273 59.2236 40.0269 59.2237 40.0265 59.2239L40.0256 59.2242L40.0236 59.225L40.0186 59.2268L40.0048 59.2318C39.9938 59.2357 39.9795 59.2407 39.962 59.2467C39.927 59.2585 39.879 59.274 39.8195 59.2915C39.7007 59.3265 39.5345 59.3701 39.3325 59.4089C38.9324 59.4858 38.371 59.5479 37.7511 59.4736C37.1269 59.3988 36.4295 59.1836 35.7885 58.695C35.1439 58.2038 34.6039 57.4723 34.2427 56.4429C34.096 56.0247 34.3161 55.5667 34.7343 55.42Z" fill="#2D343A"/>
<path fill-rule="evenodd" clip-rule="evenodd" d="M31.0604 45.7805C31.3738 46.0939 31.3738 46.602 31.0604 46.9154L24.8456 53.1302C24.5322 53.4436 24.024 53.4436 23.7106 53.1302C23.3972 52.8168 23.3972 52.3087 23.7106 51.9953L29.9254 45.7805C30.2389 45.4671 30.747 45.4671 31.0604 45.7805Z" fill="#2D343A"/>
<path fill-rule="evenodd" clip-rule="evenodd" d="M23.7106 45.7805C24.024 45.4671 24.5322 45.4671 24.8456 45.7805L31.0604 51.9953C31.3738 52.3087 31.3738 52.8168 31.0604 53.1302C30.747 53.4436 30.2389 53.4436 29.9254 53.1302L23.7106 46.9154C23.3972 46.602 23.3972 46.0939 23.7106 45.7805Z" fill="#2D343A"/>
<path fill-rule="evenodd" clip-rule="evenodd" d="M45.8426 45.7805C46.156 46.0939 46.156 46.602 45.8426 46.9154L39.6278 53.1302C39.3144 53.4436 38.8063 53.4436 38.4929 53.1302C38.1795 52.8168 38.1795 52.3087 38.4929 51.9953L44.7077 45.7805C45.0211 45.4671 45.5292 45.4671 45.8426 45.7805Z" fill="#2D343A"/>
<path fill-rule="evenodd" clip-rule="evenodd" d="M38.4929 45.7805C38.8063 45.4671 39.3144 45.4671 39.6278 45.7805L45.8426 51.9953C46.156 52.3087 46.156 52.8168 45.8426 53.1302C45.5292 53.4436 45.0211 53.4436 44.7077 53.1302L38.4929 46.9154C38.1795 46.602 38.1795 46.0939 38.4929 45.7805Z" fill="#2D343A"/>
<path fill-rule="evenodd" clip-rule="evenodd" d="M32.3611 57.9751C32.8044 57.9751 33.1637 58.3344 33.1637 58.7776V60.2639C33.1637 60.8933 33.7925 61.5897 34.8105 61.5897C35.8284 61.5897 36.4572 60.8933 36.4572 60.2639V58.7776C36.4572 58.3344 36.8166 57.9751 37.2598 57.9751C37.703 57.9751 38.0623 58.3344 38.0623 58.7776V60.2639C38.0623 61.9843 36.4954 63.1948 34.8105 63.1948C33.1255 63.1948 31.5586 61.9843 31.5586 60.2639V58.7776C31.5586 58.3344 31.9179 57.9751 32.3611 57.9751Z" fill="#2D343A"/>
<path fill-rule="evenodd" clip-rule="evenodd" d="M26.1592 12.404C26.554 12.6073 27.1649 12.8211 27.9904 13.0148C29.7436 13.4261 32.2223 13.6912 34.9997 13.6912C37.7772 13.6912 40.2559 13.4261 42.0091 13.0148C42.8346 12.8211 43.4454 12.6073 43.8402 12.404C43.4454 12.2007 42.8346 11.9868 42.0091 11.7931C40.2559 11.3818 37.7772 11.1167 34.9997 11.1167C32.2223 11.1167 29.7436 11.3818 27.9904 11.7931C27.1649 11.9868 26.554 12.2007 26.1592 12.404ZM27.4772 9.60544C29.4431 9.14421 32.1021 8.86963 34.9997 8.86963C37.8973 8.86963 40.5564 9.14421 42.5223 9.60544C43.4963 9.83395 44.3627 10.1224 45.0128 10.4831C45.3376 10.6632 45.6603 10.8895 45.9133 11.1796C46.1727 11.477 46.3989 11.8915 46.3989 12.404C46.3989 12.9164 46.1727 13.3309 45.9133 13.6284C45.6603 13.9185 45.3376 14.1447 45.0128 14.3249C44.3627 14.6855 43.4963 14.974 42.5223 15.2025C40.5564 15.6637 37.8973 15.9383 34.9997 15.9383C32.1021 15.9383 29.4431 15.6637 27.4772 15.2025C26.5031 14.974 25.6368 14.6855 24.9866 14.3249C24.6619 14.1447 24.3392 13.9185 24.0862 13.6284C23.8267 13.3309 23.6006 12.9164 23.6006 12.404C23.6006 11.8915 23.8267 11.477 24.0862 11.1796C24.3392 10.8895 24.6619 10.6632 24.9866 10.4831C25.6368 10.1224 26.5031 9.83395 27.4772 9.60544Z" fill="#E4FF76"/>
</g>
<defs>
<clipPath id="clip0_834_4268">
<rect width="70" height="70" fill="white"/>
</clipPath>
</defs>
</svg>
