<svg width="70" height="70" viewBox="0 0 70 70" fill="none" xmlns="http://www.w3.org/2000/svg">
<path d="M35.225 69.5495C54.4305 69.5495 69.9997 53.9803 69.9997 34.7748C69.9997 15.5692 54.4305 0 35.225 0C16.0194 0 0.450195 15.5692 0.450195 34.7748C0.450195 53.9803 16.0194 69.5495 35.225 69.5495Z" fill="#FF7EFA"/>
<mask id="mask0_834_4305" style="mask-type:luminance" maskUnits="userSpaceOnUse" x="0" y="0" width="70" height="70">
<path d="M34.7827 69.9184C53.9926 69.9184 69.5654 54.3457 69.5654 35.1357C69.5654 15.9258 53.9926 0.353027 34.7827 0.353027C15.5727 0.353027 0 15.9258 0 35.1357C0 54.3457 15.5727 69.9184 34.7827 69.9184Z" fill="white"/>
</mask>
<g mask="url(#mask0_834_4305)">
<path d="M71.7798 44.0979C66.9577 43.3493 64.4244 41.0519 64.4244 41.0519L64.4139 41.0666C64.4611 39.1707 64.326 37.2251 63.9892 35.2383C61.1988 18.7765 45.6914 5.97918 30.6367 8.53104C16.0564 11.0025 -1.04145 33.2428 1.74892 49.7046C1.86659 50.3988 2.01869 51.0664 2.19935 51.7188C1.82917 52.3217 0.107791 54.8755 -3.66522 56.8862C-7.43108 58.8931 0.642295 61.2903 5.77754 61.3443C6.62769 64.262 7.38459 67.824 6.73586 69.7389C5.59363 73.1215 30.5119 70.3443 35.6104 68.7269C36.132 68.6957 36.6523 68.6568 37.1662 68.6112C40.8842 68.9705 67.6473 63.0056 65.3575 60.0619C64.0971 58.4447 63.6422 54.751 63.4896 51.6917C68.3161 50.2762 76.2475 44.7923 71.7798 44.0979Z" fill="#4747F4"/>
<path d="M27.5419 71.9477C27.5744 74.4803 24.5928 76.5728 20.8819 76.6228C17.1711 76.6703 12.7437 76.4403 12.7111 73.9053C12.6785 71.3702 17.0508 67.4977 20.7617 67.4477C24.4725 67.3977 27.5093 69.4127 27.5419 71.9477Z" fill="#02F1CF"/>
<path d="M41.3149 72.4976C41.3548 75.0313 44.3863 77.0397 48.0846 76.9797C51.7829 76.9197 56.1853 76.5595 56.1454 74.0258C56.1054 71.4922 51.6355 67.7429 47.9373 67.8005C44.239 67.858 41.2749 69.9615 41.3149 72.4976Z" fill="#02F1CF"/>
<path d="M56.0778 45.2774C56.0403 44.4149 55.9651 43.5674 55.8573 42.7324C55.8398 42.5824 55.8248 42.4349 55.8072 42.2824L55.7972 42.2899C54.176 31.09 46.3958 22.6001 37.0445 22.6001C35.0826 22.6001 33.1908 22.9751 31.4092 23.6676C29.6277 22.9726 27.7359 22.6001 25.7739 22.6001C15.2449 22.6001 6.70801 33.36 6.70801 46.6349C6.70801 58.1273 13.1051 67.7322 21.657 70.1047C25.9743 72.1946 32.4641 73.9846 41.001 72.6196C54.6721 70.4347 54.191 67.7397 53.4719 64.8122C52.8079 62.1222 56.6993 56.1973 56.0778 45.2774Z" fill="white"/>
<path d="M31.2512 46.2591C34.079 46.2591 36.3714 44.8362 36.3714 43.0809C36.3714 41.3257 34.079 39.9028 31.2512 39.9028C28.4233 39.9028 26.1309 41.3257 26.1309 43.0809C26.1309 44.8362 28.4233 46.2591 31.2512 46.2591Z" fill="#CFFF83"/>
<path d="M24.0117 35.7311C24.0117 36.5123 24.0117 37.291 24.0117 38.0723C24.0117 38.4757 24.3366 38.8612 24.718 38.8432C25.1017 38.8252 25.4242 38.504 25.4242 38.0723C25.4242 37.291 25.4242 36.5123 25.4242 35.7311C25.4242 35.3276 25.0993 34.9421 24.718 34.9601C24.3366 34.9781 24.0117 35.2993 24.0117 35.7311Z" fill="#2D343A"/>
<path d="M37.1388 34.717C36.1151 35.4337 35.0385 36.0675 33.9139 36.6108C33.6441 36.7416 33.5155 37.0861 33.5534 37.3628C33.5937 37.6545 33.803 37.9111 34.0955 37.989C35.4595 38.3587 36.8463 38.6404 38.2482 38.8341C38.639 38.8869 39.0803 38.741 39.1786 38.3059C39.2593 37.9513 39.0702 37.4357 38.6491 37.3779C37.2472 37.1867 35.8605 36.9051 34.4964 36.5328C34.5569 36.9931 34.6174 37.4533 34.6779 37.9111C35.8025 37.3653 36.8816 36.734 37.9028 36.0172C38.2255 35.7909 38.4071 35.3482 38.1751 34.9861C37.9684 34.6667 37.4842 34.473 37.1388 34.717Z" fill="#2D343A"/>
<path d="M27.4264 40.8388C26.5161 41.2107 25.6158 41.6749 25.0928 42.5435C24.6074 43.3472 24.5647 44.3929 25.133 45.1691C26.3752 46.8688 28.7893 46.5593 30.6476 46.5793C31.6409 46.5918 32.6393 46.6342 33.63 46.5993C34.578 46.5643 35.5889 46.4096 36.3836 45.8555C37.1405 45.3289 37.6862 44.5676 37.7742 43.6392C37.8521 42.7981 37.4246 41.9844 36.8262 41.4179C36.1019 40.729 35.1589 40.3072 34.2185 39.9952C33.1522 39.6408 32.003 39.4711 30.8815 39.5859C30.4766 39.6283 30.1271 39.9004 30.1271 40.3347C30.1271 40.7065 30.4741 41.1258 30.8815 41.0834C32.3325 40.9337 33.884 41.2806 35.1413 42.0219C35.594 42.2889 36.0692 42.6833 36.2101 43.1076C36.3685 43.5768 36.2101 44.0111 35.8228 44.3879C34.8396 45.3488 33.0894 45.1117 31.8119 45.0943C30.9544 45.0843 30.0969 45.0743 29.2394 45.0643C28.5253 45.0568 27.6728 45.0968 27.0441 44.8322C26.7776 44.7199 26.5261 44.5402 26.3853 44.338C26.2294 44.1159 26.1791 43.9087 26.252 43.6217C26.4306 42.9204 27.2101 42.5335 27.8287 42.2814C28.2059 42.1267 28.4725 41.7848 28.3568 41.3605C28.2562 41.0085 27.8036 40.6841 27.4264 40.8388Z" fill="#2D343A"/>
</g>
<path d="M42.3848 45.0028C44.0794 45.0028 45.4531 43.4001 45.4531 41.423C45.4531 39.446 44.0794 37.8433 42.3848 37.8433C40.6902 37.8433 39.3164 39.446 39.3164 41.423C39.3164 43.4001 40.6902 45.0028 42.3848 45.0028Z" fill="#FFE6EC"/>
<path d="M20.3952 45.0028C22.3722 45.0028 23.9749 43.4001 23.9749 41.423C23.9749 39.446 22.3722 37.8433 20.3952 37.8433C18.4181 37.8433 16.8154 39.446 16.8154 41.423C16.8154 43.4001 18.4181 45.0028 20.3952 45.0028Z" fill="#FFE6EC"/>
</svg>
