<svg width="70" height="70" viewBox="0 0 70 70" fill="none" xmlns="http://www.w3.org/2000/svg">
<g clip-path="url(#clip0_834_4286)">
<path d="M70 35C70 15.6686 54.3314 0 35 0C15.6686 0 0 15.6686 0 35C0 47.4039 6.45235 58.2991 16.1822 64.5139C13.3991 60.681 11.7555 55.9717 11.7555 50.8741C11.7555 38.0368 22.1627 27.6296 35 27.6296C47.8373 27.6296 58.2445 38.0368 58.2445 50.8741C58.2445 55.9717 56.6009 60.681 53.8178 64.5139C63.5476 58.2959 70 47.4007 70 35Z" fill="url(#paint0_linear_834_4286)"/>
<path d="M53.8181 64.5171C48.3834 67.9904 41.9278 70.0032 35.0004 70.0032C28.0729 70.0032 21.6174 67.9904 16.1826 64.5171" fill="white"/>
<path d="M35.0004 27.6328C22.1631 27.6328 11.7559 38.04 11.7559 50.8773C11.7559 55.975 13.3994 60.6843 16.1826 64.5172C21.6174 67.9905 28.0729 70.0033 35.0004 70.0033C41.9278 70.0033 48.3834 67.9905 53.8181 64.5172C56.6013 60.6843 58.2449 55.975 58.2449 50.8773C58.2449 38.04 47.8377 27.6328 35.0004 27.6328Z" fill="white"/>
<path d="M61.8801 38.2671C65.5181 31.9659 63.3597 23.909 57.0593 20.2714C50.7589 16.6339 42.7022 18.7932 39.0642 25.0944L34.6615 32.7201C31.0235 39.0213 33.1818 47.0782 39.4823 50.7158C45.7827 54.3533 53.8394 52.194 57.4774 45.8928L61.8801 38.2671Z" fill="white"/>
<path d="M12.7512 45.8957C16.3892 52.1969 24.4459 54.3563 30.7464 50.7187C37.0468 47.0811 39.2051 39.0242 35.5671 32.723L31.1644 25.0973C27.5264 18.7961 19.4697 16.6368 13.1693 20.2744C6.86889 23.9119 4.71056 31.9689 8.34856 38.2701L12.7512 45.8957Z" fill="white"/>
<path d="M43.5489 30.7275C42.8909 30.169 42.8106 29.1835 43.366 28.5254L45.5167 25.9862C48.1266 22.9045 52.9803 22.7279 56.3541 25.5881C59.7312 28.4483 60.3507 33.2635 57.7409 36.3453L55.5901 38.8845C55.0316 39.5425 54.046 39.6228 53.388 39.0674L53.1151 38.7304C50.7589 35.8124 47.9051 33.3342 44.6853 31.4081L43.5425 30.7243L43.5489 30.7275Z" fill="#FF7EFA"/>
<path d="M27.2761 30.7275C27.9342 30.169 28.0145 29.1835 27.4591 28.5254L25.3083 25.9862C22.6985 22.9045 17.8448 22.7279 14.471 25.5881C11.0939 28.4483 10.4743 33.2635 13.0842 36.3453L15.235 38.8845C15.7935 39.5425 16.779 39.6228 17.4371 39.0674L17.71 38.7304C20.0662 35.8124 22.92 33.3342 26.1398 31.4081L27.2826 30.7243L27.2761 30.7275Z" fill="#FF7EFA"/>
<path fill-rule="evenodd" clip-rule="evenodd" d="M40.3041 39.7317C40.0059 40.057 39.5004 40.0805 39.1733 39.7835C38.8451 39.4856 38.8206 38.978 39.1185 38.6499L39.7127 39.1893C39.1185 38.6499 39.1188 38.6496 39.1191 38.6492L39.1197 38.6485L39.1211 38.647L39.1247 38.6432L39.1343 38.6328C39.1419 38.6247 39.1517 38.6144 39.1639 38.6019C39.1881 38.577 39.2214 38.5438 39.2632 38.5041C39.3467 38.425 39.4655 38.319 39.6158 38.2025C39.913 37.9721 40.3508 37.6864 40.896 37.4928C41.4461 37.2976 42.1169 37.1926 42.8551 37.3458C43.5965 37.4997 44.345 37.9012 45.0661 38.6215C45.3797 38.9347 45.38 39.4428 45.0668 39.7564C44.7536 40.07 44.2455 40.0703 43.9319 39.7571C43.3979 39.2238 42.9204 38.9986 42.529 38.9174C42.1346 38.8356 41.7657 38.8873 41.433 39.0054C41.0954 39.1253 40.8073 39.3097 40.5993 39.4709C40.497 39.5503 40.4184 39.6207 40.3676 39.6688C40.3423 39.6928 40.3242 39.711 40.3139 39.7216C40.3087 39.7269 40.3055 39.7303 40.3043 39.7316C40.3043 39.7316 40.3042 39.7317 40.3042 39.7317C40.3042 39.7317 40.3042 39.7317 40.3041 39.7317Z" fill="#2D343A"/>
<path fill-rule="evenodd" clip-rule="evenodd" d="M35.231 53.3815C35.2312 53.3815 35.2315 53.3815 35.2318 53.3815C35.702 53.3941 36.1774 53.5589 36.5505 53.8816C36.5849 53.9101 36.6568 53.9735 36.7247 54.0574C36.821 54.1764 36.9633 54.4011 36.9841 54.7154C37.0132 55.1171 36.8231 55.407 36.811 55.4253C36.8107 55.4258 36.8105 55.4261 36.8105 55.4262C36.8078 55.4307 36.8051 55.4351 36.8023 55.4396C36.4685 55.9789 35.897 56.138 35.6773 56.1891C35.0713 56.3333 34.4136 56.2901 33.8371 56.041C33.8359 56.0405 33.8343 56.0399 33.8324 56.0391C33.7851 56.0198 33.5129 55.9087 33.2988 55.6475C33.0074 55.2989 32.9911 54.9029 33.0218 54.6687C33.0685 54.3005 33.2566 54.0344 33.412 53.8747C33.5743 53.708 33.7629 53.5904 33.944 53.5141C34.2582 53.3818 34.5676 53.3669 34.6945 53.3608C34.6997 53.3605 34.7046 53.3603 34.7091 53.3601L34.7229 53.3595C34.7291 53.3592 34.7364 53.3589 34.7447 53.3585C34.8285 53.3548 35.0112 53.3467 35.231 53.3815ZM35.2333 55.8905C35.238 55.8923 35.2417 55.8936 35.2443 55.8945L35.2452 55.8948L35.2333 55.8905Z" fill="#2D343A"/>
<path fill-rule="evenodd" clip-rule="evenodd" d="M34.9478 55.42C35.366 55.5667 35.5861 56.0247 35.4394 56.4429C35.0782 57.4723 34.5382 58.2038 33.8936 58.695C33.2526 59.1836 32.5552 59.3988 31.931 59.4736C31.3111 59.5479 30.7497 59.4858 30.3496 59.4089C30.1476 59.3701 29.9814 59.3265 29.8626 59.2915C29.8031 59.274 29.7551 59.2585 29.7201 59.2467C29.7026 59.2407 29.6883 59.2357 29.6773 59.2318L29.6635 59.2268L29.6585 59.225L29.6565 59.2242L29.6556 59.2239C29.6552 59.2237 29.6548 59.2236 29.9375 58.4725L29.6548 59.2236C29.24 59.0675 29.0303 58.6046 29.1864 58.1898C29.3426 57.775 29.8054 57.5653 30.2202 57.7214L29.9415 58.4618C30.2202 57.7214 30.2198 57.7213 30.2195 57.7211L30.2189 57.7209L30.2178 57.7205L30.2166 57.7201C30.2162 57.7199 30.2166 57.7201 30.2177 57.7205C30.2201 57.7213 30.2254 57.7232 30.2337 57.726C30.2503 57.7316 30.2783 57.7407 30.3164 57.7519C30.3929 57.7745 30.5084 57.805 30.6524 57.8327C30.9443 57.8888 31.3319 57.9288 31.74 57.8799C32.1438 57.8315 32.5536 57.6982 32.9207 57.4184C33.2843 57.1414 33.6536 56.6847 33.9248 55.9116C34.0715 55.4933 34.5295 55.2733 34.9478 55.42Z" fill="#2D343A"/>
<path fill-rule="evenodd" clip-rule="evenodd" d="M34.7343 55.42C35.1526 55.2733 35.6106 55.4933 35.7573 55.9116C36.0285 56.6847 36.3978 57.1414 36.7614 57.4184C37.1285 57.6982 37.5383 57.8315 37.9421 57.8799C38.3502 57.9288 38.7378 57.8888 39.0297 57.8327C39.1737 57.805 39.2892 57.7745 39.3657 57.7519C39.4038 57.7407 39.4318 57.7316 39.4484 57.726C39.4567 57.7232 39.462 57.7213 39.4643 57.7205C39.4647 57.7203 39.465 57.7202 39.4652 57.7202C39.4652 57.7202 39.4652 57.7202 39.4652 57.7202C39.8792 57.5664 40.34 57.7761 40.4957 58.1898C40.6518 58.6046 40.4421 59.0675 40.0273 59.2236L39.7446 58.4725C40.0273 59.2236 40.0269 59.2237 40.0265 59.2239L40.0256 59.2242L40.0236 59.225L40.0186 59.2268L40.0048 59.2318C39.9938 59.2357 39.9795 59.2407 39.962 59.2467C39.927 59.2585 39.879 59.274 39.8195 59.2915C39.7007 59.3265 39.5345 59.3701 39.3325 59.4089C38.9324 59.4858 38.371 59.5479 37.7511 59.4736C37.1269 59.3988 36.4295 59.1836 35.7885 58.695C35.1439 58.2038 34.6039 57.4723 34.2427 56.4429C34.096 56.0247 34.3161 55.5667 34.7343 55.42Z" fill="#2D343A"/>
<path fill-rule="evenodd" clip-rule="evenodd" d="M32.2293 57.9751C32.6725 57.9751 33.0318 58.3344 33.0318 58.7776V60.2639C33.0318 60.8933 33.6607 61.5897 34.6786 61.5897C35.6966 61.5897 36.3254 60.8933 36.3254 60.2639V58.7776C36.3254 58.3344 36.6847 57.9751 37.1279 57.9751C37.5712 57.9751 37.9305 58.3344 37.9305 58.7776V60.2639C37.9305 61.9843 36.3636 63.1948 34.6786 63.1948C32.9936 63.1948 31.4268 61.9843 31.4268 60.2639V58.7776C31.4268 58.3344 31.7861 57.9751 32.2293 57.9751Z" fill="#2D343A"/>
<path d="M22.8079 57.8658C25.2173 57.8658 27.1704 56.5005 27.1704 54.8162C27.1704 53.132 25.2173 51.7666 22.8079 51.7666C20.3985 51.7666 18.4453 53.132 18.4453 54.8162C18.4453 56.5005 20.3985 57.8658 22.8079 57.8658Z" fill="#F3CBF4"/>
<path d="M46.4671 57.8658C48.8764 57.8658 50.8296 56.5005 50.8296 54.8162C50.8296 53.132 48.8764 51.7666 46.4671 51.7666C44.0577 51.7666 42.1045 53.132 42.1045 54.8162C42.1045 56.5005 44.0577 57.8658 46.4671 57.8658Z" fill="#F3CBF4"/>
<path fill-rule="evenodd" clip-rule="evenodd" d="M24.3081 45.9889C24.5062 45.5924 24.9882 45.4316 25.3847 45.6297L31.0377 48.4546C31.3096 48.5905 31.4814 48.8684 31.4815 49.1724C31.4816 49.4763 31.3099 49.7543 31.038 49.8903L25.3336 52.7441C24.9373 52.9424 24.4552 52.7818 24.2569 52.3854C24.0586 51.989 24.2191 51.5069 24.6155 51.3086L28.8845 49.1729L24.6672 47.0655C24.2707 46.8674 24.1099 46.3854 24.3081 45.9889Z" fill="#2D343A"/>
<path fill-rule="evenodd" clip-rule="evenodd" d="M45.2164 45.5623C45.4144 45.9588 45.2535 46.4408 44.857 46.6388L40.5861 48.7719L44.806 50.8818C45.2024 51.08 45.3631 51.5621 45.1649 51.9585C44.9666 52.3549 44.4846 52.5156 44.0882 52.3174L38.4319 49.4893C38.16 49.3533 37.9882 49.0753 37.9883 48.7713C37.9883 48.4672 38.1602 48.1893 38.4322 48.0535L44.1398 45.2029C44.5364 45.0049 45.0183 45.1658 45.2164 45.5623Z" fill="#2D343A"/>
</g>
<defs>
<linearGradient id="paint0_linear_834_4286" x1="35" y1="0" x2="35" y2="64.5139" gradientUnits="userSpaceOnUse">
<stop offset="0.065" stop-color="#2A61E7"/>
<stop offset="0.905" stop-color="#FF7EFA"/>
</linearGradient>
<clipPath id="clip0_834_4286">
<rect width="70" height="70" fill="white"/>
</clipPath>
</defs>
</svg>
