<svg width="70" height="70" viewBox="0 0 70 70" fill="none" xmlns="http://www.w3.org/2000/svg">
<path d="M34.8439 69.6878C54.0877 69.6878 69.6878 54.0877 69.6878 34.8439C69.6878 15.6002 54.0877 0 34.8439 0C15.6001 0 0 15.6002 0 34.8439C0 54.0877 15.6001 69.6878 34.8439 69.6878Z" fill="#02F1CF"/>
<mask id="mask0_834_4330" style="mask-type:luminance" maskUnits="userSpaceOnUse" x="0" y="0" width="70" height="70">
<path d="M35.1564 69.9984C54.4002 69.9984 70.0003 54.3982 70.0003 35.1545C70.0003 15.9107 54.4002 0.310547 35.1564 0.310547C15.9126 0.310547 0.3125 15.9107 0.3125 35.1545C0.3125 54.3982 15.9126 69.9984 35.1564 69.9984Z" fill="white"/>
</mask>
<g mask="url(#mask0_834_4330)">
<path d="M27.6901 72.0852C27.7222 74.6597 24.7826 76.7868 21.1241 76.8377C17.4656 76.886 13.1007 76.6521 13.0685 74.0752C13.0364 71.5007 17.3471 67.5615 21.0055 67.5107C24.664 67.4599 27.658 69.5082 27.6901 72.0852Z" fill="#02F1CF"/>
<path d="M41.6899 72.5964C41.7301 75.172 44.7824 77.2137 48.5061 77.1527C52.2298 77.0916 56.6625 76.7255 56.6223 74.1499C56.5821 71.5743 52.0815 67.763 48.3578 67.8215C44.6341 67.8825 41.6496 70.0182 41.6899 72.5964Z" fill="#02F1CF"/>
<path d="M71.4946 44.2361C66.7933 43.5063 64.3236 41.2665 64.3236 41.2665L64.3134 41.2809C64.3594 39.4324 64.2276 37.5356 63.8993 35.5987C61.1789 19.5497 46.0603 7.07316 31.3831 9.56103C17.1683 11.9705 0.499162 33.6532 3.21956 49.7023C3.33429 50.3791 3.48257 51.03 3.6587 51.666C3.2978 52.2538 1.61958 54.7435 -2.05882 56.7038C-5.73027 58.6604 2.14069 60.9974 7.14717 61.0501C7.97601 63.8947 8.71394 67.3674 8.08147 69.2342C6.96788 72.5321 31.2614 69.8244 36.232 68.2477C36.7405 68.2172 37.2478 68.1793 37.7489 68.1349C41.3736 68.4851 67.4657 62.6698 65.2333 59.7999C64.0045 58.2232 63.5611 54.6221 63.4123 51.6395C68.1177 50.2596 75.8503 44.9131 71.4946 44.2361Z" fill="#4747F4"/>
<path d="M56.5564 45.3124C56.5191 44.4409 56.4443 43.5846 56.3372 42.7409C56.3198 42.5894 56.3048 42.4403 56.2874 42.2863L56.2774 42.2938C54.6655 30.9776 46.9297 22.3994 37.6319 22.3994C35.6811 22.3994 33.8002 22.7783 32.0288 23.478C30.2574 22.7758 28.3764 22.3994 26.4257 22.3994C15.9569 22.3994 7.46875 33.2711 7.46875 46.684C7.46875 58.2958 13.8292 68.0005 22.3323 70.3976C26.625 72.5093 33.0777 74.3179 41.5658 72.9387C55.1588 70.7311 54.6804 68.0081 53.9654 65.0502C53.3052 62.3323 57.1743 56.3457 56.5564 45.3124Z" fill="white"/>
<path d="M31.5786 46.3546C34.4136 46.3546 36.7118 44.8224 36.7118 42.9324C36.7118 41.0424 34.4136 39.5103 31.5786 39.5103C28.7435 39.5103 26.4453 41.0424 26.4453 42.9324C26.4453 44.8224 28.7435 46.3546 31.5786 46.3546Z" fill="#CFFF83"/>
</g>
<path d="M27.3457 40.4529C26.4334 40.8064 25.5538 41.2382 25.0019 42.0401C24.4726 42.8088 24.4096 43.8384 24.9742 44.6094C26.2065 46.2868 28.699 45.9878 30.5867 46.0092C31.6326 46.021 32.6835 46.0661 33.7294 46.0282C34.6871 45.9926 35.7078 45.8431 36.5117 45.3188C37.2779 44.8182 37.8474 44.0899 37.9432 43.1978C38.0314 42.3699 37.603 41.5751 36.9805 41.0128C36.232 40.3367 35.2516 39.9239 34.2788 39.6226C33.1951 39.2857 32.0283 39.122 30.8891 39.2335C30.4834 39.2738 30.1331 39.5324 30.1331 39.9452C30.1331 40.2987 30.4808 40.6973 30.8891 40.657C32.376 40.5099 33.9663 40.8468 35.2541 41.5632C35.5364 41.7198 35.7557 41.8669 35.9749 42.0781C36.0682 42.1682 36.1387 42.2418 36.1942 42.3177C36.2824 42.441 36.353 42.5644 36.3832 42.6522C36.4664 42.8942 36.4739 43.027 36.4084 43.2524C36.3454 43.473 36.1992 43.6913 36.0152 43.8669C35.0021 44.8419 33.185 44.6142 31.8443 44.5976C30.9219 44.5881 29.9995 44.5762 29.0771 44.5667C28.379 44.5596 27.5675 44.5928 26.9374 44.339C26.3653 44.1089 25.9369 43.6486 26.1335 43.0887C26.3653 42.4292 27.1113 42.0709 27.7489 41.8242C28.127 41.6771 28.3941 41.3521 28.2782 40.9488C28.1774 40.6119 27.7262 40.3059 27.3457 40.4529Z" fill="#2D343A"/>
<path d="M19.0667 35.8466C19.7736 37.2067 21.7872 37.5484 23.2831 37.6288C25.0005 37.7204 26.7329 37.3564 28.2487 36.6305C29.0975 36.224 28.3433 35.0671 27.4945 35.4736C26.2674 36.0632 24.886 36.3402 23.4947 36.2977C22.8426 36.2776 22.1879 36.1883 21.5682 36.0051C21.038 35.8488 20.5925 35.6188 20.3585 35.1699C20.1893 34.8415 19.6616 34.7589 19.338 34.9287C18.9597 35.1252 18.895 35.516 19.0667 35.8466Z" fill="#2D343A"/>
<path d="M34.3105 35.9092C35.1728 37.5906 37.239 37.6427 38.8896 37.6427C40.5808 37.6427 42.3174 37.5218 43.8246 36.6894C44.6296 36.2435 43.9082 35.0151 43.1008 35.4609C41.8802 36.1345 40.459 36.2127 39.0926 36.2198C37.927 36.2269 36.1641 36.3977 35.5455 35.1906C35.3687 34.8491 34.8862 34.7495 34.5661 34.9345C34.2174 35.1384 34.1338 35.5653 34.3105 35.9092Z" fill="#2D343A"/>
<path d="M40.9006 39.9396C40.6723 41.5281 40.444 43.1142 40.2182 44.7028C40.1421 45.225 40.0685 45.7666 40.2258 46.272C40.6875 47.759 43.0747 48.0273 44.2137 46.9224C45.3527 45.8174 45.3248 43.9653 44.5891 42.5847C43.8535 41.2041 42.5572 40.1814 41.2989 39.1997" fill="#02F1CF"/>
</svg>
