<svg width="70" height="70" viewBox="0 0 70 70" fill="none" xmlns="http://www.w3.org/2000/svg">
<g clip-path="url(#clip0_834_4250)">
<path d="M70 35C70 15.6686 54.3314 0 35 0C15.6686 0 0 15.6686 0 35C0 47.4039 6.45235 58.2991 16.1822 64.5139C13.3991 60.681 11.7555 55.9717 11.7555 50.8741C11.7555 38.0368 22.1627 27.6296 35 27.6296C47.8373 27.6296 58.2445 38.0368 58.2445 50.8741C58.2445 55.9717 56.6009 60.681 53.8178 64.5139C63.5476 58.2959 70 47.4007 70 35Z" fill="#2F65E8"/>
<path d="M53.8181 64.5171C48.3834 67.9904 41.9278 70.0032 35.0004 70.0032C28.0729 70.0032 21.6174 67.9904 16.1826 64.5171" fill="white"/>
<path d="M35.0004 27.6328C22.1631 27.6328 11.7559 38.04 11.7559 50.8773C11.7559 55.975 13.3994 60.6843 16.1826 64.5172C21.6174 67.9905 28.0729 70.0033 35.0004 70.0033C41.9278 70.0033 48.3834 67.9905 53.8181 64.5172C56.6013 60.6843 58.2449 55.975 58.2449 50.8773C58.2449 38.04 47.8377 27.6328 35.0004 27.6328Z" fill="white"/>
<path d="M61.8801 38.2671C65.5181 31.9659 63.3597 23.909 57.0593 20.2714C50.7589 16.6339 42.7022 18.7932 39.0642 25.0944L34.6615 32.7201C31.0235 39.0213 33.1818 47.0782 39.4823 50.7158C45.7827 54.3533 53.8394 52.194 57.4774 45.8928L61.8801 38.2671Z" fill="white"/>
<path d="M12.7512 45.8957C16.3892 52.1969 24.4459 54.3563 30.7464 50.7187C37.0468 47.0811 39.2051 39.0242 35.5671 32.723L31.1644 25.0973C27.5264 18.7961 19.4697 16.6368 13.1693 20.2744C6.86889 23.9119 4.71056 31.9689 8.34856 38.2701L12.7512 45.8957Z" fill="white"/>
<path d="M43.5489 30.7275C42.8909 30.169 42.8106 29.1835 43.366 28.5254L45.5167 25.9862C48.1266 22.9045 52.9803 22.7279 56.3541 25.5881C59.7312 28.4483 60.3507 33.2635 57.7409 36.3453L55.5901 38.8845C55.0316 39.5425 54.046 39.6228 53.388 39.0674L53.1151 38.7304C50.7589 35.8124 47.9051 33.3342 44.6853 31.4081L43.5425 30.7243L43.5489 30.7275Z" fill="#FF7EFA"/>
<path d="M27.2761 30.7275C27.9342 30.169 28.0145 29.1835 27.4591 28.5254L25.3083 25.9862C22.6985 22.9045 17.8448 22.7279 14.471 25.5881C11.0939 28.4483 10.4743 33.2635 13.0842 36.3453L15.235 38.8845C15.7935 39.5425 16.779 39.6228 17.4371 39.0674L17.71 38.7304C20.0662 35.8124 22.92 33.3342 26.1398 31.4081L27.2826 30.7243L27.2761 30.7275Z" fill="#FF7EFA"/>
<path fill-rule="evenodd" clip-rule="evenodd" d="M27.7568 44.817C27.3578 44.7841 26.9741 44.8314 26.6038 44.9427C25.505 45.2768 24.512 46.2207 23.7387 47.4894C23.5599 47.8613 23.4276 48.2476 23.3373 48.6445C23.245 49.0499 23.1996 49.4637 23.1968 49.8842C23.1966 49.9036 23.1958 49.923 23.1943 49.9423C23.0336 51.9669 24.1122 53.8247 25.6527 54.783L25.6532 54.7833C26.0305 55.0184 26.437 55.1956 26.8556 55.3097L26.8663 55.3127C28.2313 55.7054 29.6664 55.258 30.7684 54.2544C31.8536 53.266 32.545 51.7954 32.4704 50.2505C32.4641 50.2091 32.4609 50.1667 32.4612 50.1237C32.4641 49.7112 32.4246 49.3102 32.3486 48.9232C31.8503 46.5027 29.9036 44.6907 27.8728 44.8181C27.8342 44.8205 27.7954 44.8201 27.7568 44.817ZM34.0664 50.0522C34.0669 50.0585 34.0674 50.0648 34.0678 50.0711C34.2039 52.1805 33.2741 54.1432 31.8492 55.441C30.4244 56.7387 28.4318 57.4309 26.4281 56.8568C25.8598 56.7013 25.3115 56.4616 24.8043 56.1455C22.8021 54.8997 21.3928 52.5012 21.592 49.8445C21.5974 49.3245 21.6548 48.8042 21.7722 48.2883C21.8912 47.7654 22.0686 47.2508 22.3121 46.7527C22.3226 46.7314 22.3339 46.7106 22.3462 46.6903C23.2264 45.2335 24.4986 43.9046 26.1384 43.4065L26.1405 43.4059L26.1405 43.4059C26.6706 43.2465 27.2364 43.1715 27.8301 43.2129C30.8884 43.0558 33.3246 45.6958 33.9215 48.6035L33.9227 48.6097C34.0145 49.0754 34.0644 49.5574 34.0664 50.0522Z" fill="#2D343A"/>
<path d="M28.759 47.7313C29.2759 48.6205 29.4524 49.7857 29.1667 50.9606C28.6371 53.1339 26.7174 54.5335 24.8812 54.0841C23.045 53.6347 21.9857 51.5096 22.5153 49.3363C23.045 47.1631 24.9647 45.7635 26.8009 46.2129C27.6419 46.4183 28.3225 46.9769 28.759 47.7313Z" fill="#2D343A"/>
<path fill-rule="evenodd" clip-rule="evenodd" d="M42.0351 44.817C41.6361 44.7841 41.2524 44.8314 40.8821 44.9427C39.7833 45.2768 38.7903 46.2207 38.017 47.4894C37.8382 47.8613 37.7059 48.2476 37.6156 48.6445C37.5233 49.0499 37.4779 49.4637 37.4751 49.8842C37.475 49.9036 37.4741 49.923 37.4726 49.9423C37.3119 51.9669 38.3905 53.8247 39.931 54.783L39.9316 54.7833C40.3088 55.0184 40.7153 55.1956 41.1339 55.3097L41.1446 55.3127C42.5097 55.7054 43.9448 55.258 45.0467 54.2544C46.1319 53.266 46.8233 51.7954 46.7487 50.2505C46.7424 50.2091 46.7393 50.1667 46.7395 50.1237C46.7424 49.7112 46.703 49.3102 46.6269 48.9232C46.1286 46.5027 44.1819 44.6907 42.1511 44.8181C42.1125 44.8205 42.0737 44.8201 42.0351 44.817ZM48.3447 50.0522C48.3452 50.0585 48.3457 50.0648 48.3461 50.0711C48.4822 52.1805 47.5525 54.1432 46.1275 55.441C44.7027 56.7387 42.7101 57.4309 40.7064 56.8568C40.1382 56.7013 39.5899 56.4616 39.0827 56.1455C37.0804 54.8997 35.6711 52.5012 35.8703 49.8445C35.8757 49.3245 35.9331 48.8042 36.0506 48.2883C36.1695 47.7654 36.3469 47.2508 36.5905 46.7527C36.6009 46.7314 36.6122 46.7106 36.6245 46.6903C37.5047 45.2335 38.7769 43.9046 40.4167 43.4065L40.4188 43.4059L40.4188 43.4059C40.9489 43.2465 41.5147 43.1715 42.1085 43.2129C45.1667 43.0558 47.6029 45.6958 48.1998 48.6035L48.201 48.6097C48.2928 49.0754 48.3427 49.5574 48.3447 50.0522Z" fill="#2D343A"/>
<path d="M42.6301 47.7313C43.147 48.6205 43.3235 49.7857 43.0378 50.9606C42.5082 53.1339 40.5885 54.5335 38.7523 54.0841C36.9161 53.6347 35.8568 51.5096 36.3864 49.3363C36.9161 47.1631 38.8358 45.7635 40.672 46.2129C41.513 46.4183 42.1936 46.9769 42.6301 47.7313Z" fill="#2D343A"/>
<path fill-rule="evenodd" clip-rule="evenodd" d="M40.3041 40.6946C40.0059 41.0199 39.5004 41.0434 39.1733 40.7464C38.8451 40.4485 38.8206 39.9409 39.1185 39.6128L39.7127 40.1522C39.1185 39.6128 39.1188 39.6125 39.1191 39.6121L39.1197 39.6114L39.1211 39.6099L39.1247 39.606L39.1343 39.5957C39.1419 39.5876 39.1517 39.5772 39.1639 39.5648C39.1881 39.5399 39.2214 39.5067 39.2632 39.467C39.3467 39.3878 39.4655 39.2819 39.6158 39.1654C39.913 38.935 40.3508 38.6493 40.896 38.4557C41.4461 38.2605 42.1169 38.1555 42.8551 38.3087C43.5965 38.4625 44.345 38.8641 45.0661 39.5844C45.3797 39.8976 45.38 40.4057 45.0668 40.7193C44.7536 41.0329 44.2455 41.0332 43.9319 40.72C43.3979 40.1867 42.9204 39.9615 42.529 39.8803C42.1346 39.7984 41.7657 39.8502 41.433 39.9683C41.0954 40.0882 40.8073 40.2726 40.5993 40.4338C40.497 40.5132 40.4184 40.5836 40.3676 40.6317C40.3423 40.6557 40.3242 40.6739 40.3139 40.6845C40.3087 40.6898 40.3055 40.6932 40.3043 40.6945C40.3043 40.6945 40.3042 40.6946 40.3042 40.6946C40.3042 40.6946 40.3042 40.6946 40.3041 40.6946Z" fill="#2D343A"/>
<path fill-rule="evenodd" clip-rule="evenodd" d="M35.231 54.3444C35.2312 54.3444 35.2315 54.3444 35.2318 54.3444C35.702 54.357 36.1774 54.5218 36.5505 54.8445C36.5849 54.873 36.6568 54.9363 36.7247 55.0203C36.821 55.1392 36.9633 55.364 36.9841 55.6783C37.0132 56.08 36.8231 56.3699 36.811 56.3882C36.8107 56.3887 36.8105 56.389 36.8105 56.3891C36.8078 56.3936 36.8051 56.398 36.8023 56.4024C36.4685 56.9418 35.897 57.1009 35.6773 57.1519C35.0713 57.2962 34.4136 57.253 33.8371 57.0039C33.8359 57.0034 33.8343 57.0028 33.8324 57.002C33.7851 56.9827 33.5129 56.8716 33.2988 56.6104C33.0074 56.2618 32.9911 55.8657 33.0218 55.6316C33.0685 55.2634 33.2566 54.9973 33.412 54.8376C33.5743 54.6709 33.7629 54.5533 33.944 54.477C34.2582 54.3447 34.5676 54.3298 34.6945 54.3237C34.6997 54.3234 34.7046 54.3232 34.7091 54.323L34.7229 54.3224C34.7291 54.3221 34.7364 54.3218 34.7447 54.3214C34.8285 54.3177 35.0112 54.3096 35.231 54.3444ZM35.2333 56.8534C35.238 56.8552 35.2417 56.8565 35.2443 56.8574L35.2452 56.8577L35.2333 56.8534Z" fill="#2D343A"/>
<path fill-rule="evenodd" clip-rule="evenodd" d="M34.9478 56.3829C35.366 56.5296 35.5861 56.9876 35.4394 57.4058C35.0782 58.4352 34.5382 59.1667 33.8936 59.6579C33.2526 60.1465 32.5552 60.3617 31.931 60.4365C31.3111 60.5107 30.7497 60.4487 30.3496 60.3718C30.1476 60.333 29.9814 60.2894 29.8626 60.2544C29.8031 60.2369 29.7551 60.2214 29.7201 60.2096C29.7026 60.2036 29.6883 60.1986 29.6773 60.1947L29.6635 60.1897L29.6585 60.1879L29.6565 60.1871L29.6556 60.1868C29.6552 60.1866 29.6548 60.1865 29.9375 59.4354L29.6548 60.1865C29.24 60.0304 29.0303 59.5675 29.1864 59.1527C29.3426 58.7379 29.8054 58.5282 30.2202 58.6843L29.9415 59.4247C30.2202 58.6843 30.2198 58.6842 30.2195 58.684L30.2189 58.6838L30.2178 58.6834L30.2166 58.683C30.2162 58.6828 30.2166 58.683 30.2177 58.6834C30.2201 58.6842 30.2254 58.6861 30.2337 58.6889C30.2503 58.6945 30.2783 58.7036 30.3164 58.7148C30.3929 58.7374 30.5084 58.7679 30.6524 58.7956C30.9443 58.8517 31.3319 58.8917 31.74 58.8428C32.1438 58.7944 32.5536 58.6611 32.9207 58.3813C33.2843 58.1043 33.6536 57.6476 33.9248 56.8745C34.0715 56.4562 34.5295 56.2361 34.9478 56.3829Z" fill="#2D343A"/>
<path fill-rule="evenodd" clip-rule="evenodd" d="M34.7343 56.3829C35.1526 56.2361 35.6106 56.4562 35.7573 56.8745C36.0285 57.6476 36.3978 58.1043 36.7614 58.3813C37.1285 58.6611 37.5383 58.7944 37.9421 58.8428C38.3502 58.8917 38.7378 58.8517 39.0297 58.7956C39.1737 58.7679 39.2892 58.7374 39.3657 58.7148C39.4038 58.7036 39.4318 58.6945 39.4484 58.6889C39.4567 58.6861 39.462 58.6842 39.4643 58.6834C39.4647 58.6832 39.465 58.6831 39.4652 58.6831C39.4652 58.6831 39.4652 58.6831 39.4652 58.6831C39.8792 58.5293 40.34 58.739 40.4957 59.1527C40.6518 59.5675 40.4421 60.0304 40.0273 60.1865L39.7446 59.4354C40.0273 60.1865 40.0269 60.1866 40.0265 60.1868L40.0256 60.1871L40.0236 60.1879L40.0186 60.1897L40.0048 60.1947C39.9938 60.1986 39.9795 60.2036 39.962 60.2096C39.927 60.2214 39.879 60.2369 39.8195 60.2544C39.7007 60.2894 39.5345 60.333 39.3325 60.3718C38.9324 60.4487 38.371 60.5107 37.7511 60.4365C37.1269 60.3617 36.4295 60.1465 35.7885 59.6579C35.1439 59.1667 34.6039 58.4352 34.2427 57.4058C34.096 56.9876 34.3161 56.5296 34.7343 56.3829Z" fill="#2D343A"/>
</g>
<defs>
<clipPath id="clip0_834_4250">
<rect width="70" height="70" fill="white"/>
</clipPath>
</defs>
</svg>
