<svg width="70" height="71" viewBox="0 0 70 71" fill="none" xmlns="http://www.w3.org/2000/svg">
<path d="M34.9826 69.9652C54.3029 69.9652 69.9652 54.3029 69.9652 34.9826C69.9652 15.6622 54.3029 0 34.9826 0C15.6622 0 0 15.6622 0 34.9826C0 54.3029 15.6622 69.9652 34.9826 69.9652Z" fill="#1E1E1E"/>
<mask id="mask0_834_4354" style="mask-type:luminance" maskUnits="userSpaceOnUse" x="0" y="0" width="70" height="71">
<path d="M35 70.3096C54.33 70.3096 70 54.6395 70 35.3096C70 15.9796 54.33 0.30957 35 0.30957C15.67 0.30957 0 15.9796 0 35.3096C0 54.6395 15.67 70.3096 35 70.3096Z" fill="white"/>
</mask>
<g mask="url(#mask0_834_4354)">
<path d="M27.5662 72.235C27.5989 74.7126 24.6099 76.7598 20.8901 76.8088C17.1702 76.8552 12.7321 76.6302 12.6994 74.1501C12.6667 71.6724 17.0497 67.8814 20.7695 67.8324C24.4894 67.7835 27.5336 69.7549 27.5662 72.235Z" fill="#02F1CF"/>
<path d="M41.5063 72.8956C41.5463 75.4599 44.5852 77.4926 48.2925 77.4318C51.9997 77.3711 56.4129 77.0066 56.3728 74.4423C56.3328 71.878 51.852 68.0836 48.1448 68.1418C44.4375 68.2 41.4662 70.3289 41.5063 72.8956Z" fill="#02F1CF"/>
<path d="M70.0423 46.0027C65.3583 45.0823 62.9743 42.7423 62.9743 42.7423L62.9635 42.7563C63.086 40.9096 63.0324 39.0073 62.7832 37.057C60.7188 20.8968 46.0744 7.80704 31.2538 9.70031C16.9003 11.5339 -0.711141 32.5424 1.35327 48.7026C1.44032 49.3841 1.5621 50.041 1.71242 50.6842C1.32623 51.2574 -0.459547 53.6792 -4.22913 55.4906C-7.99158 57.2985 -0.195549 59.9546 4.82255 60.2102C5.53607 63.0885 6.13246 66.5913 5.42108 68.4326C4.16808 71.6855 28.6404 69.9621 33.69 68.5867C34.2011 68.5768 34.7113 68.5594 35.2156 68.5353C38.8359 69.0324 65.2403 64.2741 63.1203 61.3136C61.9533 59.687 61.6576 56.0678 61.6317 53.079C66.4072 51.8896 74.382 46.8562 70.0423 46.0027Z" fill="#4747F4"/>
<path d="M56.3053 45.4223C56.2676 44.5547 56.1923 43.7021 56.0843 42.8622C56.0667 42.7113 56.0516 42.5629 56.034 42.4095L56.024 42.4171C54.3988 31.1507 46.5997 22.6104 37.2257 22.6104C35.259 22.6104 33.3626 22.9876 31.5767 23.6842C29.7908 22.9851 27.8944 22.6104 25.9277 22.6104C15.3731 22.6104 6.81543 33.4341 6.81543 46.7878C6.81543 58.3484 13.228 68.0104 21.8008 70.3969C26.1286 72.4993 32.6342 74.2999 41.1918 72.9268C54.8962 70.7289 54.4139 68.0179 53.693 65.073C53.0274 62.3671 56.9282 56.407 56.3053 45.4223Z" fill="white"/>
<path d="M30.6639 47.0791C33.572 47.0791 35.9294 45.4151 35.9294 43.3623C35.9294 41.3096 33.572 39.6455 30.6639 39.6455C27.7559 39.6455 25.3984 41.3096 25.3984 43.3623C25.3984 45.4151 27.7559 47.0791 30.6639 47.0791Z" fill="#CFFF83"/>
</g>
<path fill-rule="evenodd" clip-rule="evenodd" d="M26.4555 33.013C26.6974 33.2549 26.6974 33.6471 26.4555 33.889L21.8095 38.5351C21.5675 38.777 21.1753 38.777 20.9334 38.5351C20.6915 38.2931 20.6915 37.9009 20.9334 37.659L25.5794 33.013C25.8213 32.7711 26.2136 32.7711 26.4555 33.013Z" fill="#2D343A"/>
<path fill-rule="evenodd" clip-rule="evenodd" d="M38.8461 33.013C39.088 33.2549 39.088 33.6471 38.8461 33.889L34.2001 38.5351C33.9582 38.777 33.5659 38.777 33.324 38.5351C33.0821 38.2931 33.0821 37.9009 33.324 37.659L37.97 33.013C38.212 32.7711 38.6042 32.7711 38.8461 33.013Z" fill="#2D343A"/>
<path fill-rule="evenodd" clip-rule="evenodd" d="M20.9334 33.013C21.1753 32.7711 21.5675 32.7711 21.8095 33.013L26.4555 37.659C26.6974 37.9009 26.6974 38.2931 26.4555 38.5351C26.2136 38.777 25.8213 38.777 25.5794 38.5351L20.9334 33.889C20.6915 33.6471 20.6915 33.2549 20.9334 33.013Z" fill="#2D343A"/>
<path fill-rule="evenodd" clip-rule="evenodd" d="M33.324 33.013C33.5659 32.7711 33.9582 32.7711 34.2001 33.013L38.8461 37.659C39.088 37.9009 39.088 38.2931 38.8461 38.5351C38.6042 38.777 38.212 38.777 37.97 38.5351L33.324 33.889C33.0821 33.6471 33.0821 33.2549 33.324 33.013Z" fill="#2D343A"/>
<path d="M26.9155 40.9514C26.0072 41.3194 25.1315 41.7688 24.582 42.6034C24.0551 43.406 23.9924 44.4752 24.5544 45.2777C25.7814 47.0235 28.2629 46.7124 30.1422 46.7346C31.1835 46.747 32.2298 46.7939 33.2711 46.7544C34.2245 46.7173 35.2407 46.5618 36.0411 46.016C36.8039 45.495 37.371 44.7369 37.4663 43.8085C37.5541 42.9467 37.1276 42.1194 36.5078 41.5342C35.7626 40.8304 34.7866 40.4008 33.8181 40.0872C32.7392 39.7365 31.5774 39.5661 30.4433 39.6822C30.0393 39.7242 29.6906 39.9933 29.6906 40.423C29.6906 40.7909 30.0368 41.2058 30.4433 41.1638C31.9237 41.0107 33.5069 41.3613 34.7891 42.1071C35.0701 42.2701 35.2884 42.4232 35.5067 42.6429C35.5995 42.7368 35.6698 42.8133 35.725 42.8923C35.8128 43.0207 35.8831 43.1491 35.9132 43.2405C35.996 43.4924 36.0035 43.6307 35.9383 43.8653C35.8755 44.0949 35.73 44.3221 35.5469 44.5048C34.5382 45.5197 32.7291 45.2826 31.3943 45.2654C30.4759 45.2555 29.5576 45.2431 28.6393 45.2333C27.9442 45.2259 27.1363 45.2604 26.509 44.9962C25.9395 44.7567 25.5129 44.2776 25.7086 43.6949C25.9395 43.0084 26.6822 42.6355 27.317 42.3787C27.6933 42.2256 27.9593 41.8873 27.8439 41.4675C27.7435 41.1194 27.2944 40.8008 26.9155 40.9514Z" fill="#2D343A"/>
<path d="M41.5131 44.7776C43.3163 44.7776 44.7781 43.3158 44.7781 41.5126C44.7781 39.7094 43.3163 38.2476 41.5131 38.2476C39.7099 38.2476 38.248 39.7094 38.248 41.5126C38.248 43.3158 39.7099 44.7776 41.5131 44.7776Z" fill="#FFE6EC"/>
<path d="M20.5235 44.7776C22.5843 44.7776 24.2549 43.3158 24.2549 41.5126C24.2549 39.7094 22.5843 38.2476 20.5235 38.2476C18.4626 38.2476 16.792 39.7094 16.792 41.5126C16.792 43.3158 18.4626 44.7776 20.5235 44.7776Z" fill="#FFE6EC"/>
</svg>
