<svg width="28" height="28" viewBox="0 0 28 28" fill="none" xmlns="http://www.w3.org/2000/svg">
<path d="M18.6667 14L12.4444 7V12.25H0V15.75H12.4444V21M28 24.5V3.5C28 2.57174 27.6722 1.6815 27.0888 1.02513C26.5053 0.368749 25.714 0 24.8889 0H6.22222C5.3971 0 4.60578 0.368749 4.02233 1.02513C3.43889 1.6815 3.11111 2.57174 3.11111 3.5V8.75H6.22222V3.5H24.8889V24.5H6.22222V19.25H3.11111V24.5C3.11111 25.4283 3.43889 26.3185 4.02233 26.9749C4.60578 27.6312 5.3971 28 6.22222 28H24.8889C25.714 28 26.5053 27.6312 27.0888 26.9749C27.6722 26.3185 28 25.4283 28 24.5Z" fill="#FCFCFD"/>
</svg>
