<svg width="109" height="109" viewBox="0 0 109 109" fill="none" xmlns="http://www.w3.org/2000/svg">
<path d="M83.4188 9.49314L15.5719 78.4523L8.89844 105.146L35.5923 96.8044L103.995 29.5136C109.779 9.04824 92.6875 7.6394 83.4188 9.49314Z" fill="#02F1CF"/>
<path d="M13.7941 29.7787C15.3028 31.2949 16.437 33.1432 17.1063 35.1763L19.2739 41.8468C19.4541 42.3619 19.7897 42.8081 20.2341 43.1238C20.6786 43.4395 21.21 43.6091 21.7548 43.6091C22.2997 43.6091 22.8311 43.4395 23.2755 43.1238C23.72 42.8081 24.0555 42.3619 24.2358 41.8468L26.4033 35.1763C27.0767 33.1479 28.2136 31.3049 29.7233 29.7942C31.233 28.2834 33.074 27.1465 35.0997 26.474L41.759 24.3071C42.2712 24.1246 42.7145 23.7877 43.0279 23.3428C43.3414 22.8978 43.5096 22.3666 43.5096 21.822C43.5096 21.2774 43.3414 20.7462 43.0279 20.3012C42.7145 19.8563 42.2712 19.5194 41.759 19.3369L41.6284 19.302L34.9647 17.1352C32.9397 16.4614 31.0994 15.3241 29.5898 13.8135C28.0803 12.3029 26.943 10.4606 26.2684 8.43288L24.1052 1.7623C23.925 1.24724 23.5894 0.801001 23.145 0.485291C22.7005 0.169581 22.1691 0 21.6242 0C21.0794 0 20.548 0.169581 20.1035 0.485291C19.6591 0.801001 19.3235 1.24724 19.1433 1.7623L16.9757 8.43288L16.9192 8.59856C16.243 10.5764 15.125 12.3734 13.6504 13.8528C12.1758 15.3322 10.3834 16.4548 8.40998 17.1352L1.75062 19.302C1.23841 19.4845 0.795158 19.8214 0.481715 20.2664C0.168271 20.7113 0 21.2425 0 21.7871C0 22.3317 0.168271 22.8629 0.481715 23.3079C0.795158 23.7528 1.23841 24.0897 1.75062 24.2722L8.40998 26.4391C10.4426 27.1192 12.2837 28.2615 13.7941 29.7787ZM51.4434 45.1647L55.439 46.4639L55.5217 46.4814C55.831 46.5889 56.0992 46.7902 56.289 47.0574C56.4789 47.3247 56.5809 47.6445 56.5809 47.9724C56.5809 48.3004 56.4789 48.6202 56.289 48.8874C56.0992 49.1546 55.831 49.356 55.5217 49.4635L51.5217 50.7671C50.3076 51.1714 49.2042 51.8536 48.2991 52.7595C47.394 53.6653 46.7121 54.77 46.3074 55.9858L45.006 59.9882C44.8967 60.296 44.6949 60.5624 44.4284 60.7508C44.1618 60.9392 43.8436 61.0403 43.5174 61.0403C43.1912 61.0403 42.873 60.9392 42.6065 60.7508C42.34 60.5624 42.1382 60.296 42.0289 59.9882L40.7275 55.9858C40.326 54.7658 39.6455 53.6566 38.7402 52.7467C37.8349 51.8369 36.7298 51.1515 35.5132 50.7453L31.5132 49.4461C31.2059 49.3365 30.9399 49.1344 30.7518 48.8674C30.5638 48.6005 30.4628 48.2817 30.4628 47.955C30.4628 47.6283 30.5638 47.3095 30.7518 47.0425C30.9399 46.7756 31.2059 46.5734 31.5132 46.4639L35.5132 45.1603C36.7128 44.7457 37.8005 44.0589 38.6915 43.1536C39.5824 42.2483 40.2524 41.149 40.6491 39.9416L41.9505 35.9392C42.0599 35.6314 42.2617 35.365 42.5282 35.1766C42.7947 34.9882 43.1129 34.8871 43.4391 34.8871C43.7653 34.8871 44.0835 34.9882 44.35 35.1766C44.6165 35.365 44.8183 35.6314 44.9277 35.9392L46.2247 39.9416C46.6292 41.1582 47.3116 42.2635 48.2176 43.1695C49.1236 44.0755 50.2281 44.7615 51.4434 45.1647ZM84.2136 14.0004L56.1398 42.1215L53.093 41.1623C52.5395 40.9472 52.0359 40.6207 51.6131 40.2032C51.166 39.7873 50.8358 39.2611 50.6556 38.6772L50.5772 38.4461L79.5955 9.37897C81.1753 7.74597 83.0636 6.4441 85.1505 5.54919C87.2374 4.65427 89.4812 4.18418 91.7513 4.1663C94.0213 4.14842 96.2722 4.5831 98.3729 5.44503C100.474 6.30696 102.382 7.57891 103.987 9.18683C105.593 10.7947 106.862 12.7065 107.723 14.8107C108.583 16.915 109.017 19.1697 108.999 21.4435C108.982 23.7174 108.512 25.965 107.619 28.0554C106.725 30.1459 105.426 32.0374 103.796 33.6198L97.0927 40.334C99.6554 43.0084 101.07 46.5823 101.032 50.2892C100.995 53.9961 99.5086 57.5406 96.8925 60.1626L88.2614 68.8038C87.9625 69.1251 87.6022 69.3828 87.2017 69.5615C86.8013 69.7402 86.369 69.8363 85.9307 69.844C85.4924 69.8518 85.057 69.771 84.6506 69.6066C84.2441 69.4421 83.8748 69.1973 83.5649 68.8868C83.2549 68.5763 83.0105 68.2065 82.8463 67.7993C82.6822 67.3921 82.6015 66.956 82.6093 66.517C82.617 66.0779 82.7129 65.6449 82.8913 65.2438C83.0698 64.8427 83.327 64.4817 83.6477 64.1824L92.2744 55.5368C93.6667 54.1421 94.4658 52.2615 94.5039 50.2896C94.5421 48.3176 93.8163 46.4074 92.479 44.9598L39.4391 98.089C37.524 100.007 35.1432 101.402 32.5317 102.135L8.48832 108.88C7.93087 109.035 7.34208 109.04 6.78228 108.893C6.22248 108.746 5.7118 108.452 5.30256 108.042C4.89332 107.632 4.60024 107.121 4.45334 106.56C4.30645 105.999 4.31102 105.41 4.46659 104.851L11.1999 80.7629C11.9312 78.147 13.3196 75.7665 15.2391 73.8482L34.1552 54.8959C34.7141 55.0789 35.2214 55.3928 35.635 55.8115C36.072 56.2357 36.4004 56.7591 36.5926 57.3374L37.6633 60.6291L19.8528 78.4696C18.729 79.5951 17.9136 80.9915 17.485 82.5243L12.3185 101.014L30.7733 95.8393C32.3032 95.4093 33.697 94.5925 34.8211 93.4675L99.1862 28.9983C101.172 27.0095 102.287 24.312 102.287 21.4994C102.287 18.6867 101.172 15.9893 99.1862 14.0004C97.2007 12.0116 94.5078 10.8942 91.6999 10.8942C88.892 10.8942 86.1991 12.0116 84.2136 14.0004Z" fill="#475467"/>
<path d="M6.11719 21.6888C16.3498 19.4643 20.7617 11.4932 21.6886 7.78571C23.0233 14.4592 26.1376 18.9082 37.26 21.6888C29.2519 21.6888 23.5424 33.182 21.6886 38.9286C20.3539 28.6959 10.7515 23.1718 6.11719 21.6888Z" fill="#F2F4F7"/>
<path d="M35.5918 46.9924C40.7081 45.8801 42.9141 41.8946 43.3775 40.0408C45.0459 43.3776 46.1581 45.0459 51.1632 46.9924C47.1591 46.9924 44.3044 52.739 43.3775 55.6123C42.7102 50.4959 37.909 47.7339 35.5918 46.9924Z" fill="#F2F4F7"/>
<path d="M19 80L27.3418 88.3418" stroke="#475467" stroke-width="5" stroke-linecap="round"/>
</svg>
