<svg width="197" height="173" viewBox="0 0 197 173" fill="none" xmlns="http://www.w3.org/2000/svg">
<path d="M116.029 22.5864C113.934 22.4474 111.858 22.5197 109.83 22.857C108.875 23.0227 108.224 23.9242 108.39 24.8792C108.556 25.8343 109.457 26.4852 110.412 26.3195C111.711 26.1012 113.047 26.003 114.384 26.0148L114.371 24.3482C114.364 23.405 115.104 22.6445 116.029 22.5864Z" fill="#475467"/>
<path d="M117.881 24.3142L117.894 26.3031C126.427 27.5791 135.157 33.0996 141.557 41.658C142.093 42.3744 143.065 42.5616 143.822 42.1345C143.891 42.0957 143.952 42.0612 144.013 42.0071C144.794 41.4254 144.951 40.3284 144.369 39.5475C136.924 29.6022 126.486 23.4122 116.407 22.5949C117.24 22.7302 117.873 23.4417 117.881 24.3142Z" fill="#475467"/>
<path d="M115.445 62.4974C114.957 62.1875 114.624 61.6498 114.616 61.0289L114.618 60.9069L109.287 63.914L110.628 64.4682C111.05 64.6437 111.296 65.0797 111.228 65.5313L111.009 66.9657L116.301 63.9802L116.273 63.9658C115.745 63.6383 115.45 63.079 115.445 62.4974Z" fill="#475467"/>
<path d="M159.283 36.6391L160.215 38.2911L161.699 36.365L159.283 36.6391Z" fill="#475467"/>
<path d="M118.121 58.9309L118.129 60.983L119.808 62.0118L156.788 41.1521L155.062 38.0928L118.121 58.9309Z" fill="#475467"/>
<path d="M166.337 31.4306L155.498 32.6448C154.767 32.7246 154.121 33.1697 153.788 33.8312C153.451 34.485 153.471 35.2704 153.829 35.9052L155.063 38.0926L160.592 34.9734C161.434 34.4988 162.51 34.7989 162.985 35.6402C163.459 36.4815 163.159 37.5581 162.318 38.0327L156.788 41.1519L158.022 43.3393C158.385 43.9818 159.042 44.3971 159.776 44.447C160.214 44.4723 160.646 44.3799 161.013 44.1728C161.265 44.0304 161.488 43.8345 161.676 43.597L168.321 34.9487C168.857 34.2535 168.923 33.2987 168.492 32.5339C168.06 31.7691 167.209 31.3319 166.337 31.4306Z" fill="#475467"/>
<path d="M162.985 35.6402C162.51 34.7989 161.433 34.4988 160.592 34.9734L155.062 38.0927L156.788 41.1519L162.318 38.0327C163.159 37.5581 163.459 36.4815 162.985 35.6402ZM159.284 36.6391L161.692 36.3693L160.215 38.2912L159.284 36.6391Z" fill="#475467"/>
<path d="M105.815 67.8896C105.34 67.0483 105.64 65.9717 106.481 65.4971L109.288 63.9138L105.33 62.2754C105.052 62.1595 104.731 62.1795 104.463 62.3305L94.513 67.9434C93.794 68.349 93.8546 69.4037 94.6175 69.7194L98.4839 71.3191C98.9056 71.4946 99.1515 71.9306 99.0836 72.3822L98.4529 76.5187C98.3286 77.3349 99.2042 77.9399 99.9231 77.5343L109.873 71.9214C110.141 71.7704 110.317 71.51 110.369 71.2086L111.022 66.9687L108.215 68.5521C107.374 69.0267 106.297 68.7266 105.822 67.8853L105.815 67.8896Z" fill="#475467"/>
<path d="M110.636 64.464L109.295 63.9098L106.488 65.4931C105.646 65.9677 105.346 67.0443 105.821 67.8856C106.295 68.7269 107.372 69.027 108.213 68.5524L111.02 66.9691L111.24 65.5347C111.307 65.0831 111.061 64.6472 110.64 64.4716L110.636 64.464Z" fill="#475467"/>
<path d="M116.111 22.5702C116.111 22.5702 116.057 22.5808 116.025 22.5784C116.152 22.5878 116.274 22.5896 116.4 22.599C116.301 22.5843 116.202 22.5696 116.104 22.5745L116.111 22.5702Z" fill="#475467"/>
<path d="M117.899 26.3106C116.722 26.1375 115.549 26.0231 114.384 26.0145L114.627 60.9024L118.129 58.9265L117.906 26.3063L117.899 26.3106Z" fill="#475467"/>
<path d="M117.881 24.314C117.873 23.4415 117.239 22.7301 116.407 22.5947C116.281 22.5853 116.159 22.5836 116.032 22.5741C115.103 22.6245 114.367 23.3927 114.375 24.336L114.387 26.0025C115.551 26.0111 116.725 26.1255 117.901 26.2986L117.888 24.3097L117.881 24.314Z" fill="#475467"/>
<path d="M115.444 62.4974C115.444 62.175 115.518 61.8411 115.696 61.5491C116.209 60.7252 117.281 60.4632 118.113 60.9721L118.121 60.9874L118.121 58.931L114.618 60.907L114.616 61.029C114.624 61.6499 114.949 62.1919 115.444 62.4974Z" fill="#475467"/>
<path d="M147.548 83.1632L146.128 82.2905C145.446 83.4413 144.671 84.5338 143.813 85.5321C143.181 86.2715 143.26 87.3763 144 88.0078C144.571 88.5022 145.38 88.5601 146.007 88.2063C146.183 88.1071 146.341 87.9772 146.475 87.8211C147.82 86.2558 148.956 84.5162 149.916 82.6437C149.755 82.8759 149.56 83.0665 149.331 83.196C148.795 83.498 148.108 83.5127 147.548 83.1632Z" fill="#475467"/>
<path d="M150.093 82.3124C154.606 73.2634 154.708 61.1283 150.047 49.6126C149.679 48.7109 148.659 48.2783 147.757 48.6458C146.851 49.0056 146.423 50.0336 146.79 50.9353C150.804 60.8398 151.006 71.1707 147.692 79.1295L149.388 80.1693C150.13 80.6276 150.412 81.5376 150.097 82.3201L150.093 82.3124Z" fill="#475467"/>
<path d="M146.124 82.2828C146.719 81.2819 147.228 80.2184 147.688 79.122L119.809 62.0119L116.306 63.9879L146.116 82.2871L146.124 82.2828Z" fill="#475467"/>
<path d="M149.966 82.5862C150.016 82.4971 150.059 82.4124 150.098 82.32C150.04 82.433 149.979 82.5383 149.925 82.6393C149.936 82.623 149.955 82.6024 149.973 82.5818L149.966 82.5862Z" fill="#475467"/>
<path d="M118.13 61.0026C118.132 61.667 117.772 62.2434 117.236 62.5454C116.984 62.6878 116.697 62.769 116.386 62.7727C116.037 62.7784 115.717 62.6764 115.445 62.4973C115.458 63.0747 115.746 63.6383 116.273 63.9658L116.301 63.9801L119.804 62.0042L118.133 60.9711L118.141 60.9863L118.13 61.0026Z" fill="#475467"/>
<path d="M115.701 61.5565C115.516 61.8528 115.437 62.1791 115.45 62.5049C115.726 62.672 116.05 62.7816 116.392 62.7802C116.702 62.7765 116.989 62.6953 117.241 62.5529C117.777 62.2509 118.145 61.6703 118.135 61.0102L118.127 60.9949L118.118 60.9796C117.287 60.4707 116.214 60.7327 115.701 61.5565Z" fill="#475467"/>
<path d="M147.548 83.1631C148.116 83.5083 148.795 83.4979 149.331 83.1959C149.56 83.0664 149.763 82.8715 149.917 82.6436C149.974 82.5307 150.04 82.433 150.089 82.3244C150.404 81.5419 150.123 80.632 149.38 80.1737L147.685 79.1339C147.224 80.2303 146.715 81.2938 146.121 82.2947L147.54 83.1674L147.548 83.1631Z" fill="#475467"/>
<path d="M15.5982 50.6648L42.2217 136.103L48.0392 134.401L24.4316 48.0814L18.0306 42.6186C17.5396 44.2739 16.7722 46.7882 15.5982 50.6648Z" fill="#1D2939"/>
<path d="M29.2689 52.3557L34.7273 71.0196L52.8676 69.5518C53.3093 58.644 50.1006 47.4888 43.9322 38.4784L29.2713 52.3639L29.2689 52.3557Z" fill="#666666"/>
<path d="M9.27246 62.3179L12.0727 71.893L17.5313 69.5452L15.2491 61.7418L9.27246 62.3179Z" fill="#666666"/>
<path d="M31.8233 73.3268L25.6781 52.3145C25.4974 51.6964 25.6772 51.0267 26.1473 50.585L28.158 48.6821L27.603 46.6619C27.5066 46.3323 27.3219 46.0374 27.0587 45.8103L18.2805 38.3055C17.6984 37.8138 16.869 37.7612 16.2371 38.1696C15.8835 38.3982 15.6344 38.7394 15.5224 39.121C15.4299 39.4164 12.1688 50.1649 12.1688 50.1649C12.0694 50.4981 12.0728 50.8459 12.1692 51.1755L14.4062 58.366L16.3367 58.1771C17.1547 58.0989 17.9126 58.6107 18.144 59.4018L21.2527 70.0316C21.4961 70.8638 21.0829 71.745 20.282 72.0955L18.8683 72.7057L39.4392 138.732C39.7183 139.625 40.6613 140.128 41.5595 139.865L50.6154 137.217C51.5136 136.954 52.0373 136.023 51.7911 135.12L35.1971 74.4333L33.6058 74.5587C32.7937 74.6263 32.044 74.1121 31.815 73.3293L31.8233 73.3268ZM48.0364 134.393L42.2189 136.094L15.5953 50.6566C16.7694 46.78 17.5368 44.2656 18.0277 42.6104L24.4288 48.0732L48.0364 134.393Z" fill="#475467"/>
<path d="M6.87979 59.0909C6.36712 59.1424 5.90885 59.4106 5.62138 59.8346C5.33391 60.2586 5.24879 60.7933 5.39097 61.2795L9.31905 74.711C9.45641 75.1806 9.79495 75.5736 10.2326 75.7855C10.617 75.9683 11.0453 75.9951 11.449 75.877C11.515 75.8577 11.5809 75.8385 11.6444 75.8109L18.8672 72.7057L14.3969 58.3684L6.87155 59.0933L6.87979 59.0909ZM12.0705 71.8847L9.27022 62.3097L15.2469 61.7336L17.529 69.537L12.0705 71.8847Z" fill="#475467"/>
<path d="M21.2557 70.0397L18.1469 59.4099C17.9156 58.6189 17.1577 58.107 16.3397 58.1852L14.4092 58.3741L18.8795 72.7115L20.2932 72.1012C21.0883 71.7614 21.5097 70.8778 21.2639 70.0373L21.2557 70.0397Z" fill="#475467"/>
<path d="M44.3317 34.1574C43.8444 34.1121 43.3596 34.2897 42.9996 34.6186L28.1476 48.6763L35.1867 74.4275L54.6271 72.8478C54.7497 72.8387 54.8593 72.8156 54.9746 72.7819C55.6503 72.5843 56.1537 71.9809 56.2023 71.26C57.1119 58.4353 53.2296 45.1605 45.5531 34.8468C45.2581 34.45 44.8108 34.2052 44.3235 34.1599L44.3317 34.1574ZM52.8648 69.5437L34.7244 71.0115L29.266 52.3476L43.9269 38.4621C50.0953 47.4725 53.304 58.6277 52.8623 69.5354L52.8648 69.5437Z" fill="#475467"/>
<path d="M26.147 50.585C25.6768 51.0266 25.497 51.6964 25.6777 52.3144L31.8229 73.3268C32.0518 74.1096 32.8015 74.6238 33.6136 74.5562L35.2049 74.4308L28.1659 48.6796L26.1552 50.5825L26.147 50.585Z" fill="#475467"/>
<path d="M86.0283 131.733L85.6266 134.656C85.6962 134.666 85.7595 134.657 85.8291 134.667L89.6134 135.187L90.0103 132.298L86.226 131.778C86.1564 131.769 86.0967 131.752 86.0283 131.733Z" fill="#E1322D"/>
<path d="M85.1533 138.101L84.754 141.007L88.7384 141.555L89.1353 138.666L85.351 138.146C85.2814 138.137 85.2217 138.12 85.1533 138.101Z" fill="#E1322D"/>
<path d="M66.2939 142.016L64.5889 141.781L64.0796 145.487L91.1956 149.214L91.7049 145.508L89.9998 145.273L82.5357 144.248L73.7667 143.043L66.2939 142.016Z" fill="#E1322D"/>
<path d="M87.1207 128.365L90.496 128.828L90.8929 125.94C89.3582 126.208 87.9944 127.102 87.1207 128.365Z" fill="#E1322D"/>
<path d="M70.6592 123.151L70.2623 126.039L73.6376 126.503C73.1381 125.043 72.0735 123.824 70.6592 123.151Z" fill="#E1322D"/>
<path d="M94.0268 106.233C93.0699 106.101 92.3945 105.211 92.526 104.254L95.443 83.0271C95.5769 82.0528 94.8952 81.1436 93.9122 81.0086C92.9292 80.8735 92.0287 81.5563 91.8936 82.5394L89.0185 103.461C88.887 104.418 87.9965 105.094 87.0395 104.962C86.0826 104.831 85.4073 103.94 85.5388 102.983L88.9351 78.2682C89.069 77.2939 88.3873 76.3848 87.4043 76.2497C86.4213 76.1146 85.5208 76.7974 85.3857 77.7805L84.9625 80.8601C84.9554 80.9123 84.9569 80.9657 84.9497 81.0179C84.9449 81.0526 84.9402 81.0874 84.9255 81.1297L81.9894 102.495C81.8579 103.452 80.9674 104.128 80.0104 103.996C79.0535 103.865 78.3781 102.974 78.5096 102.017L81.4684 80.4863C81.5139 79.7037 80.2088 78.5582 79.0779 78.4028C78.1036 78.2689 77.1945 78.9505 77.0594 79.9336L74.0061 102.152C73.8746 103.109 72.9841 103.784 72.0271 103.653C71.0702 103.521 70.3949 102.631 70.5264 101.674L71.3381 95.7667C71.6549 93.4614 70.4462 91.2921 68.4836 90.2867L66.1238 107.459L70.3837 118.708C70.3837 118.708 70.4066 118.8 70.418 118.845C70.6325 119.026 70.7976 119.243 70.9045 119.497C75.1736 120.811 78.0104 125.065 77.3827 129.632L75.9852 139.802L81.2745 140.529L82.672 130.359C83.2841 125.905 86.971 122.618 91.2888 122.352C91.3298 122.118 91.413 121.899 91.5572 121.688L98.767 110.89L101.77 89.0375C101.904 88.0632 101.222 87.1541 100.239 87.019C99.2562 86.8839 98.3558 87.5667 98.2207 88.5498L95.9983 104.722C95.8668 105.679 94.9763 106.354 94.0193 106.223L94.0268 106.233Z" fill="#E1322D"/>
<path d="M72.7018 136.408L68.9175 135.888L68.5206 138.776L72.505 139.324L72.9043 136.418C72.8347 136.409 72.7714 136.418 72.7018 136.408Z" fill="#E1322D"/>
<path d="M73.3766 132.982L73.7783 130.059C73.7087 130.049 73.6454 130.058 73.5758 130.049L69.7916 129.529L69.3947 132.417L73.1789 132.937C73.2485 132.947 73.3082 132.964 73.3766 132.982Z" fill="#E1322D"/>
<path d="M89.9995 145.273L91.7045 145.508L91.1965 149.205L64.0804 145.479L64.5885 141.781L66.2936 142.016C65.3366 141.884 64.6613 140.994 64.7928 140.037L65.0319 138.297L63.3268 138.063C62.3699 137.931 61.4793 138.606 61.3478 139.563L60.3616 146.74C60.23 147.697 60.9054 148.588 61.8623 148.719L92.4581 152.924C93.4151 153.055 94.3056 152.38 94.4371 151.423L95.4234 144.246C95.5549 143.289 94.8795 142.399 93.9226 142.267L92.2175 142.033L91.9784 143.773C91.8469 144.73 90.9564 145.405 89.9995 145.273Z" fill="#475467"/>
<path d="M84.9707 80.8612L84.9336 81.1309C84.9336 81.1309 84.9519 81.0625 84.9579 81.019C84.9651 80.9668 84.9635 80.9134 84.9707 80.8612Z" fill="#475467"/>
<path d="M74.8269 96.2462L77.0684 79.9348C77.2023 78.9605 78.1039 78.2689 79.0869 78.404C80.2266 78.5606 81.5316 79.7061 81.4774 80.4875L81.915 77.3035C81.9783 76.8424 82.099 76.4158 82.2707 76.0051C81.4344 75.447 80.4861 75.0596 79.5552 74.9317C76.6583 74.5336 73.9768 76.5672 73.5787 79.4641L72.296 88.7986C74.1813 90.6886 75.2079 93.409 74.817 96.2537L74.8269 96.2462Z" fill="#475467"/>
<path d="M72.036 103.654C72.9929 103.785 73.8835 103.11 74.015 102.153L74.596 97.9252C74.4645 98.8821 73.5739 99.5574 72.617 99.4259C71.6601 99.2944 70.9847 98.4039 71.1162 97.447L70.5352 101.675C70.4037 102.632 71.0791 103.522 72.036 103.654Z" fill="#475467"/>
<path d="M80.0185 103.997C80.9755 104.129 81.866 103.454 81.9975 102.497L84.9336 81.1309C84.7484 82.0273 83.901 82.6465 82.9789 82.5198C82.0567 82.3931 81.3466 81.4978 81.4781 80.5408C81.4805 80.5234 81.4742 80.5048 81.4766 80.4874L78.5178 102.018C78.3863 102.975 79.0616 103.866 80.0185 103.997Z" fill="#475467"/>
<path d="M84.9702 80.8612L85.3934 77.7816C85.5273 76.8073 86.4289 76.1157 87.4119 76.2508C88.395 76.3859 89.0778 77.2863 88.9427 78.2694L88.4215 82.0623C88.7275 79.8353 90.39 78.1226 92.4525 77.626C92.2731 75.1904 90.4042 73.1166 87.8901 72.7711C85.376 72.4256 83.1717 73.8245 82.278 76.0062C83.9418 77.1212 85.1636 78.9378 84.9789 80.8624L84.9702 80.8612Z" fill="#475467"/>
<path d="M87.0475 104.963C88.0045 105.095 88.895 104.42 89.0265 103.463L91.9016 82.5405C91.7701 83.4975 90.8796 84.1728 89.9227 84.0413C88.9657 83.9098 88.2904 83.0193 88.4219 82.0623L85.5468 102.984C85.4153 103.941 86.0906 104.832 87.0475 104.963Z" fill="#475467"/>
<path d="M81.4764 80.4874C81.4764 80.4874 81.4804 80.5234 81.478 80.5408C81.3465 81.4978 82.0218 82.3883 82.9788 82.5198C83.9357 82.6513 84.7483 82.0273 84.9335 81.1309L84.9706 80.8612C85.1553 78.9366 83.9335 77.1201 82.2697 76.0051C82.098 76.4158 81.9762 76.8511 81.914 77.3034L81.4764 80.4874Z" fill="#475467"/>
<path d="M96.2488 90.0605C95.2919 89.929 94.6165 89.0384 94.748 88.0815L92.5257 104.254C92.3942 105.211 93.0695 106.101 94.0264 106.233C94.9834 106.364 95.8739 105.689 96.0054 104.732L98.2278 88.5597C98.0963 89.5166 97.2058 90.192 96.2488 90.0605Z" fill="#475467"/>
<path d="M91.9018 82.5405C92.0357 81.5662 92.9373 80.8746 93.9203 81.0097C94.9034 81.1448 95.5862 82.0452 95.4511 83.0283L94.7566 88.0826C95.0686 85.8121 96.788 84.0718 98.9153 83.6196L98.9309 83.5065C99.329 80.6096 97.2954 77.928 94.3985 77.53C93.7287 77.4379 93.0757 77.4811 92.4617 77.6272C92.491 77.9946 92.4843 78.366 92.4317 78.7488L91.9105 82.5417L91.9018 82.5405Z" fill="#475467"/>
<path d="M88.4217 82.0623C88.2902 83.0193 88.9655 83.9098 89.9225 84.0413C90.8794 84.1728 91.7699 83.4974 91.9014 82.5405L92.4227 78.7476C92.4741 78.3735 92.482 77.9934 92.4527 77.626C90.3814 78.1214 88.7289 79.8266 88.4217 82.0623Z" fill="#475467"/>
<path d="M69.5327 118.449C69.8719 118.496 70.1708 118.643 70.4177 118.845C70.4063 118.8 70.3949 118.754 70.3835 118.708L66.1235 107.459L68.4834 90.2867C70.4459 91.2921 71.6546 93.4614 71.3378 95.7667L72.2966 88.7898C70.9794 87.4743 69.2458 86.5447 67.2623 86.2721C66.3054 86.1406 65.4149 86.8159 65.2834 87.7729L62.5828 107.425C62.5433 107.712 62.5735 108.009 62.6768 108.289L67.0917 119.957C67.1761 120.182 67.31 120.368 67.4736 120.533L67.5537 119.95C67.6852 118.993 68.5757 118.318 69.5327 118.449Z" fill="#475467"/>
<path d="M71.1162 97.4469C70.9847 98.4039 71.66 99.2944 72.617 99.4259C73.5739 99.5574 74.4644 98.8821 74.5959 97.9251L74.8267 96.2461C75.2176 93.4014 74.191 90.681 72.3057 88.791L71.1162 97.4469Z" fill="#475467"/>
<path d="M100.724 83.5491C100.098 83.463 99.4907 83.4948 98.9065 83.6184L98.2275 88.5596C98.3614 87.5853 99.263 86.8937 100.246 87.0288C101.229 87.1639 101.912 88.0644 101.777 89.0474L98.7738 110.9L91.564 121.698C91.4297 121.901 91.3365 122.128 91.2955 122.362C91.4122 122.351 91.5265 122.358 91.642 122.356C92.0158 121.893 92.6105 121.629 93.2456 121.717C94.0546 121.828 94.6566 122.478 94.744 123.261L101.919 112.52C102.065 112.301 102.161 112.048 102.197 111.787L105.255 89.5343C105.653 86.6374 103.62 83.9559 100.723 83.5578L100.724 83.5491Z" fill="#475467"/>
<path d="M94.7477 88.0815C94.6162 89.0384 95.2916 89.929 96.2485 90.0605C97.2054 90.192 98.096 89.5166 98.2275 88.5597L98.9065 83.6184C96.7791 84.0706 95.0609 85.8022 94.7477 88.0815Z" fill="#475467"/>
<path d="M94.641 124.399L94.739 123.686C94.7593 123.538 94.7523 123.395 94.7367 123.251L94.5358 123.551C94.6329 123.813 94.6816 124.103 94.641 124.399Z" fill="#475467"/>
<path d="M67.4736 120.533L67.4545 120.672C67.4545 120.672 67.4752 120.586 67.4799 120.551L67.4712 120.55L67.4736 120.533Z" fill="#475467"/>
<path d="M70.418 118.845C70.4735 119.022 70.5018 119.203 70.4953 119.379C70.6321 119.416 70.7677 119.461 70.9045 119.497C70.7976 119.243 70.6337 119.017 70.418 118.845Z" fill="#475467"/>
<path d="M75.7459 141.542C75.6144 142.499 74.7239 143.174 73.7669 143.043L82.5359 144.248C81.579 144.116 80.9036 143.226 81.0351 142.269L81.2742 140.529L75.985 139.802L75.7459 141.542Z" fill="#475467"/>
<path d="M69.4338 119.162C69.7992 119.213 70.1436 119.287 70.4943 119.379C70.5008 119.203 70.4725 119.021 70.4169 118.845C70.17 118.643 69.8712 118.496 69.5319 118.449C68.5749 118.318 67.6844 118.993 67.5529 119.95L67.4728 120.533L67.4815 120.534C67.6643 119.655 68.5105 119.044 69.4326 119.171L69.4338 119.162Z" fill="#475467"/>
<path d="M93.2386 121.707C92.6035 121.619 92.0088 121.883 91.635 122.346C92.1329 122.335 92.6273 122.35 93.1405 122.42C93.8017 122.511 94.3244 122.964 94.5362 123.551L94.737 123.251C94.6497 122.468 94.0476 121.818 93.2386 121.707Z" fill="#475467"/>
<path d="M70.9043 119.497C71.025 119.78 71.0789 120.097 71.0334 120.428L70.6593 123.151C72.0649 123.823 73.137 125.051 73.6377 126.503L74.0553 126.56C75.0122 126.692 75.6876 127.582 75.5561 128.539C75.433 129.435 74.6639 130.065 73.7796 130.05L73.3779 132.973C74.2248 133.196 74.8041 134.011 74.681 134.907C74.5579 135.803 73.7888 136.433 72.9045 136.418L72.5052 139.324L75.985 139.802L77.3825 129.632C78.0101 125.065 75.1821 120.812 70.9043 119.497Z" fill="#475467"/>
<path d="M68.9083 135.887L68.369 135.813C67.412 135.681 66.7367 134.791 66.8682 133.834C66.9997 132.877 67.8902 132.201 68.8472 132.333L69.3865 132.407L69.7834 129.519L69.2441 129.445C68.2871 129.313 67.6118 128.423 67.7433 127.466C67.8748 126.509 68.7653 125.833 69.7223 125.965L70.2616 126.039L71.0339 120.419C71.0793 120.089 71.0255 119.771 70.9048 119.489C70.7691 119.443 70.6323 119.407 70.4955 119.37C70.4806 120.06 70.0544 120.71 69.3628 120.97C69.0815 121.082 68.7861 121.103 68.5077 121.065C68.1162 121.011 67.7624 120.812 67.4902 120.535C67.4843 120.579 67.4708 120.612 67.4648 120.656L65.0416 138.289L68.5213 138.768L68.9182 135.879L68.9083 135.887Z" fill="#475467"/>
<path d="M66.2939 142.016L73.758 143.041C74.7149 143.173 75.6055 142.498 75.737 141.541L75.9761 139.801L65.0322 138.297L64.7931 140.037C64.6616 140.994 65.337 141.884 66.2939 142.016Z" fill="#475467"/>
<path d="M67.4895 120.544C67.7605 120.829 68.1154 121.02 68.5069 121.074C68.7853 121.112 69.0819 121.082 69.362 120.978C70.0449 120.718 70.4786 120.077 70.4948 119.379C70.1528 119.288 69.7997 119.213 69.4343 119.162C68.5122 119.036 67.6747 119.647 67.4808 120.543L67.4895 120.544Z" fill="#475467"/>
<path d="M73.7789 130.05L73.9021 129.154C74.0288 128.232 73.9222 127.331 73.6371 126.503L70.2617 126.039L69.7835 129.519L73.5678 130.039C73.6374 130.048 73.6995 130.048 73.7702 130.049L73.7789 130.05Z" fill="#475467"/>
<path d="M73.7796 130.05C74.6551 130.064 75.4329 129.435 75.5561 128.539C75.6876 127.582 75.0122 126.692 74.0553 126.56L73.6377 126.503C73.9228 127.331 74.0294 128.232 73.9027 129.154L73.7796 130.05Z" fill="#475467"/>
<path d="M69.7213 125.974C68.7644 125.842 67.8739 126.518 67.7424 127.474C67.6108 128.431 68.2862 129.322 69.2431 129.453L69.7825 129.528L70.2607 126.048L69.7213 125.974Z" fill="#475467"/>
<path d="M72.9043 136.418L73.3765 132.982C73.3069 132.972 73.2484 132.947 73.1788 132.937L69.3945 132.417L68.9163 135.897L72.7006 136.417C72.7702 136.426 72.8323 136.426 72.9031 136.427L72.9043 136.418Z" fill="#475467"/>
<path d="M74.681 134.907C74.8042 134.011 74.2335 133.197 73.3779 132.973L72.9057 136.409C73.7813 136.423 74.5591 135.795 74.6822 134.899L74.681 134.907Z" fill="#475467"/>
<path d="M68.8473 132.333C67.8904 132.201 66.9998 132.877 66.8683 133.834C66.7368 134.791 67.4122 135.681 68.3691 135.813L68.9085 135.887L69.3867 132.407L68.8473 132.333Z" fill="#475467"/>
<path d="M82.6704 130.368L81.2729 140.537L84.7527 141.016L85.152 138.11C84.2964 137.886 83.7258 137.072 83.8489 136.176C83.972 135.28 84.7498 134.651 85.6254 134.665L86.0271 131.742C85.1715 131.518 84.6009 130.704 84.724 129.808C84.8555 128.851 85.746 128.176 86.703 128.307L87.1205 128.365C87.9955 127.093 89.3493 126.207 90.8928 125.94L91.267 123.217C91.2753 123.156 91.2912 123.105 91.3083 123.046C91.2587 122.826 91.255 122.595 91.2959 122.362C86.977 122.637 83.2912 125.915 82.6791 130.369L82.6704 130.368Z" fill="#475467"/>
<path d="M91.6443 122.347C91.5288 122.349 91.4145 122.342 91.2978 122.353C91.2581 122.578 91.2618 122.809 91.3102 123.037C91.3721 122.78 91.4839 122.547 91.6443 122.347Z" fill="#475467"/>
<path d="M94.4774 123.65C94.088 124.226 93.4202 124.506 92.7764 124.418C92.5241 124.383 92.2703 124.295 92.0435 124.14C91.6459 123.872 91.3991 123.475 91.3074 123.046C91.2991 123.107 91.2745 123.156 91.2661 123.217L90.4939 128.837L91.0332 128.911C91.9902 129.043 92.6655 129.933 92.534 130.89C92.4025 131.847 91.512 132.523 90.555 132.391L90.0157 132.317L89.6188 135.205L90.1581 135.279C91.1151 135.411 91.7904 136.301 91.6589 137.258C91.5274 138.215 90.6369 138.891 89.6799 138.759L89.1406 138.685L88.7437 141.573L92.2234 142.051L94.6467 124.418C94.6873 124.122 94.6473 123.833 94.5416 123.57L94.475 123.667L94.4774 123.65Z" fill="#475467"/>
<path d="M84.7532 141.007L81.2734 140.529L81.0343 142.269C80.9028 143.226 81.5782 144.116 82.5351 144.248L89.9992 145.273C90.9562 145.405 91.8467 144.73 91.9782 143.773L92.2173 142.033L84.7532 141.007Z" fill="#475467"/>
<path d="M92.0454 124.131C92.2723 124.286 92.5261 124.374 92.7784 124.409C93.4221 124.497 94.0888 124.226 94.4793 123.641L94.5459 123.544C94.3254 122.955 93.8114 122.503 93.1502 122.413C92.6456 122.343 92.1426 122.327 91.6447 122.339C91.4843 122.538 91.3725 122.771 91.3106 123.028C91.4023 123.458 91.6577 123.856 92.0466 124.122L92.0454 124.131Z" fill="#475467"/>
<path d="M86.1502 130.846L86.027 131.742C86.0966 131.752 86.1551 131.777 86.2247 131.787L90.009 132.307L90.4872 128.827L87.1118 128.363C86.6139 129.084 86.2682 129.923 86.1415 130.845L86.1502 130.846Z" fill="#475467"/>
<path d="M87.1203 128.365L86.7028 128.307C85.7458 128.176 84.8553 128.851 84.7238 129.808C84.6007 130.704 85.18 131.519 86.0269 131.742L86.15 130.846C86.2767 129.924 86.6225 129.085 87.1203 128.365Z" fill="#475467"/>
<path d="M90.5485 132.381C91.5054 132.513 92.3959 131.837 92.5274 130.88C92.659 129.923 91.9836 129.033 91.0267 128.901L90.4873 128.827L90.0091 132.307L90.5485 132.381Z" fill="#475467"/>
<path d="M85.6253 134.665L85.1531 138.101C85.2227 138.111 85.2812 138.137 85.3508 138.146L89.135 138.666L89.6132 135.187L85.829 134.667C85.7594 134.657 85.6973 134.657 85.6265 134.656L85.6253 134.665Z" fill="#475467"/>
<path d="M83.8504 136.167C83.7273 137.063 84.3066 137.879 85.1535 138.101L85.6257 134.665C84.7414 134.65 83.9724 135.28 83.8492 136.176L83.8504 136.167Z" fill="#475467"/>
<path d="M89.6744 138.74C90.6314 138.872 91.5219 138.197 91.6534 137.24C91.7849 136.283 91.1096 135.392 90.1526 135.261L89.6133 135.187L89.1351 138.666L89.6744 138.74Z" fill="#475467"/>
<path d="M141.837 85.0824C120.434 88.4285 105.735 108.564 109.082 129.976C112.43 151.388 132.564 166.078 153.976 162.731C175.388 159.383 190.078 139.249 186.731 117.837C183.383 96.4252 163.249 81.735 141.837 85.0824ZM152.47 153.101C136.368 155.618 121.228 144.564 118.712 128.471C116.196 112.377 127.249 97.2285 143.342 94.7125C159.436 92.1966 174.584 103.249 177.1 119.343C179.616 135.436 168.564 150.585 152.47 153.101Z" fill="#E1322D"/>
<path d="M149.635 120.41L146.347 113.929L145.193 121.104C145.07 121.853 144.478 122.443 143.732 122.559L136.549 123.682L143.022 126.999C143.698 127.346 144.072 128.088 143.959 128.843L142.805 136.018L147.958 130.884C148.227 130.62 148.565 130.452 148.93 130.395C149.294 130.338 149.668 130.395 150.005 130.564L156.478 133.881L153.19 127.4C152.845 126.725 152.981 125.895 153.52 125.358L158.672 120.224L151.488 121.347C150.733 121.465 149.998 121.082 149.653 120.407L149.635 120.41Z" fill="#D0D5DD"/>
<path d="M143.883 98.1742C129.698 100.392 119.963 113.735 122.181 127.919C124.398 142.104 137.741 151.839 151.926 149.622C166.111 147.404 175.846 134.061 173.628 119.876C171.41 105.691 158.068 95.9566 143.883 98.1742ZM164.961 118.903L156.887 126.946L162.041 137.117C162.386 137.792 162.249 138.622 161.711 139.16C161.441 139.424 161.103 139.592 160.739 139.649C160.375 139.706 160.001 139.649 159.664 139.48L149.519 134.284L141.445 142.328C140.906 142.865 140.082 142.994 139.406 142.647C138.729 142.299 138.356 141.558 138.469 140.802L140.272 129.544L130.128 124.348C129.452 124.001 129.078 123.259 129.191 122.504C129.304 121.749 129.906 121.166 130.652 121.049L141.913 119.289L143.719 108.039C143.842 107.291 144.434 106.7 145.18 106.584C145.926 106.467 146.67 106.849 147.015 107.523L152.168 117.685L163.429 115.925C164.184 115.807 164.919 116.19 165.265 116.864C165.61 117.539 165.473 118.369 164.935 118.907L164.961 118.903Z" fill="#1632A6"/>
<path d="M141.294 81.6121C117.974 85.2579 101.966 107.198 105.612 130.519C109.258 153.839 131.198 169.847 154.519 166.201C177.839 162.555 193.847 140.615 190.201 117.294C186.555 93.9739 164.615 77.9663 141.294 81.6121ZM153.975 162.722C132.572 166.068 112.428 151.379 109.081 129.967C105.734 108.556 120.424 88.4211 141.836 85.0737C163.247 81.7263 183.382 96.4165 186.729 117.828C190.077 139.24 175.387 159.375 153.975 162.722Z" fill="#475467"/>
<path d="M143.34 94.7039C127.238 97.2212 116.195 112.368 118.711 128.462C121.227 144.556 136.375 155.608 152.469 153.092C168.562 150.576 179.615 135.427 177.099 119.334C174.583 103.24 159.434 92.1879 143.34 94.7039ZM151.927 149.63C137.742 151.848 124.4 142.113 122.182 127.928C119.965 113.743 129.699 100.4 143.884 98.1829C158.069 95.9653 171.412 105.7 173.63 119.885C175.847 134.07 166.112 147.413 151.927 149.63Z" fill="#475467"/>
<path d="M163.458 115.929L152.196 117.69L147.044 107.528C146.698 106.853 145.954 106.472 145.208 106.588C144.462 106.705 143.87 107.295 143.747 108.043L141.942 119.293L130.681 121.054C129.926 121.172 129.342 121.76 129.219 122.509C129.096 123.257 129.48 124.005 130.156 124.353L140.301 129.548L138.497 140.807C138.374 141.555 138.758 142.304 139.434 142.651C140.111 142.999 140.935 142.87 141.473 142.332L149.548 134.289L159.692 139.484C160.03 139.654 160.403 139.711 160.767 139.654C161.132 139.597 161.47 139.428 161.74 139.164C162.278 138.627 162.407 137.807 162.069 137.122L156.915 126.951L164.99 118.907C165.528 118.37 165.657 117.55 165.319 116.865C164.981 116.18 164.23 115.809 163.484 115.925L163.458 115.929ZM153.512 125.368C152.974 125.905 152.845 126.725 153.183 127.41L156.471 133.891L149.998 130.574C149.66 130.405 149.287 130.348 148.923 130.405C148.558 130.462 148.22 130.63 147.95 130.894L142.798 136.028L143.952 128.853C144.075 128.105 143.691 127.356 143.015 127.009L136.541 123.692L143.725 122.569C144.48 122.451 145.063 121.862 145.186 121.114L146.34 113.939L149.628 120.42C149.974 121.095 150.718 121.476 151.464 121.36L158.647 120.237L153.495 125.37L153.512 125.368Z" fill="#475467"/>
</svg>
