<svg width="105" height="134" viewBox="0 0 105 134" fill="none" xmlns="http://www.w3.org/2000/svg">
<path d="M40.2135 131C37.788 123.092 34.13 117.194 29.2369 113.311C21.8985 107.487 10.2388 111.108 5.9323 105.099C1.6258 99.0898 8.94933 88.0414 11.5184 81.5223C14.0899 75.0031 1.66788 72.6989 3.11823 70.8476C4.08348 69.6126 10.3626 66.0535 21.9505 60.1655C25.2423 41.3902 37.4019 32 58.4345 32C89.9808 32 101.999 58.7449 101.999 75.758C101.999 92.7662 87.4464 111.091 66.7158 115.044C64.8621 117.741 67.5351 123.063 74.7348 131" fill="#F2F4F7"/>
<path d="M40.2135 131C37.788 123.092 34.13 117.194 29.2369 113.311C21.8985 107.487 10.2388 111.108 5.9323 105.099C1.6258 99.0898 8.94933 88.0414 11.5184 81.5223C14.0899 75.0031 1.66788 72.6989 3.11823 70.8476C4.08348 69.6126 10.3626 66.0535 21.9505 60.1655C25.2423 41.3902 37.4019 32 58.4345 32C89.9808 32 101.999 58.7449 101.999 75.758C101.999 92.7662 87.4464 111.091 66.7158 115.044C64.8621 117.741 67.5351 123.063 74.7348 131" stroke="#475467" stroke-width="4.667" stroke-linecap="round" stroke-linejoin="round"/>
<path d="M41.3609 57.9875C39.7423 64.2592 40.2224 68.6647 42.8038 71.2015C45.3828 73.7359 49.7784 75.3967 55.9906 76.1763C54.5799 84.2671 56.3 88.0612 61.1461 87.5613C65.9921 87.0638 68.9052 85.0492 69.8828 81.5223C77.4563 83.6508 81.5623 81.8688 82.1984 76.1763C83.1513 67.6375 78.5478 60.8288 76.6594 60.8288C74.7734 60.8288 69.8828 60.5986 69.8828 57.9875C69.8828 55.3764 64.1705 53.9038 59.0151 53.9038C53.8597 53.9038 56.9608 50.4264 49.8823 51.8C45.1625 52.7158 42.3212 54.7774 41.3609 57.9875Z" fill="#02F1CF" stroke="#475467" stroke-width="4" stroke-linejoin="round"/>
<path d="M68.5875 85.2125C66.0705 86.7742 62.6178 89.3705 61.1625 91.4C57.5268 96.4737 54.579 99.5625 53.9355 102.805" stroke="#475467" stroke-width="4" stroke-linecap="round"/>
<path d="M57.5468 16.7686C58.7531 16.7686 59.7322 15.797 59.7322 14.5999V2.16873C59.7322 0.971591 58.7531 0 57.5468 0C56.3404 0 55.3613 0.971591 55.3613 2.16873V14.5999C55.3613 15.797 56.3404 16.7686 57.5468 16.7686Z" fill="#475467"/>
<path d="M73.4486 19.5273C73.7895 19.7268 74.1654 19.8135 74.5413 19.8135C75.2931 19.8135 76.0361 19.4232 76.4382 18.7292L82.6885 7.95492C83.2917 6.91393 82.9333 5.58666 81.8843 4.99677C80.8353 4.3982 79.4978 4.75387 78.9034 5.79486L72.6531 16.5691C72.0499 17.6101 72.4083 18.9374 73.4573 19.5273H73.4486Z" fill="#475467"/>
<path d="M38.5343 18.7292C38.9364 19.4232 39.6707 19.8135 40.4312 19.8135C40.7984 19.8135 41.1743 19.7181 41.524 19.5273C42.573 18.9287 42.9314 17.6014 42.3282 16.5691L36.0779 5.79486C35.4747 4.75387 34.1372 4.3982 33.097 4.99677C32.048 5.59534 31.6896 6.9226 32.2927 7.95492L38.543 18.7292H38.5343Z" fill="#475467"/>
</svg>
