<svg width="72" height="140" viewBox="0 0 72 140" fill="none" xmlns="http://www.w3.org/2000/svg">
<g clip-path="url(#clip0_1323_4096)">
<path d="M4.24316 124.091C4.24316 126.31 6.05907 128.115 8.29078 128.115H63.7185C65.9502 128.115 67.7661 126.31 67.7661 124.091V108.435H4.24316V124.091Z" fill="#F2F4F7"/>
<path d="M36.3942 71.4804C36.793 71.9696 36.9627 72.6023 36.8439 73.2181L34.8668 83.4753L44.8543 67.0941H37.7858C37.1324 67.0941 36.5045 66.7904 36.1057 66.2758C35.7068 65.7613 35.5711 65.0865 35.7323 64.4538L38.6938 53.2096H30.7343L26.1182 70.7128H34.7565C35.3929 70.7128 35.9869 70.9911 36.3942 71.4804Z" fill="#FA9200"/>
<path d="M4.24316 104.218H67.7576V39.9072H4.24316V104.218ZM27.0524 50.561C27.2984 49.6331 28.1385 48.9836 29.1059 48.9836H41.4524C42.1057 48.9836 42.7337 49.2872 43.1325 49.8018C43.5313 50.3163 43.6671 50.9912 43.5059 51.6238L40.5444 62.868H48.6311C49.3948 62.868 50.1076 63.2813 50.481 63.9393C50.8544 64.6057 50.8459 65.4154 50.4471 66.065L32.3728 95.6896C31.9825 96.3391 31.2782 96.7018 30.5569 96.7018C30.3023 96.7018 30.0478 96.6597 29.7932 96.5584C28.8343 96.1957 28.2743 95.1919 28.4694 94.1966L32.1946 74.9136H23.3781C22.7247 74.9136 22.0968 74.6099 21.698 74.0953C21.2991 73.5808 21.1634 72.906 21.3246 72.2733L27.0524 50.5525V50.561Z" fill="#3157DD"/>
<path d="M61.1301 10.485H10.8617C10.5816 10.485 10.3525 10.7128 10.3525 10.9911V13.3193H61.6393V10.9911C61.6393 10.7128 61.4102 10.485 61.1301 10.485Z" fill="#D0D5DD"/>
<path d="M52.8482 4.21762C51.8979 4.21762 51.1172 4.98523 51.1172 5.93841V6.26739H54.5708V5.93841C54.5708 4.99366 53.7986 4.21762 52.8398 4.21762H52.8482Z" fill="#E6FFB9"/>
<path d="M10.8617 135.782H61.1301C61.4102 135.782 61.6393 135.555 61.6393 135.276V132.332H10.3525V135.276C10.3525 135.555 10.5816 135.782 10.8617 135.782Z" fill="#D0D5DD"/>
<path d="M67.7576 21.5521C67.7576 19.3336 65.9417 17.5285 63.71 17.5285H8.29078C6.05907 17.5285 4.24316 19.3336 4.24316 21.5521V35.6896H67.7576V21.5521Z" fill="#F2F4F7"/>
<path d="M65.8904 13.6145V15.0907H61.6476V13.3109H10.3524V15.0907H6.10961V13.6145C2.59658 14.5677 0 17.7647 0 21.5521V124.083C0 127.879 2.59658 131.067 6.10961 132.02V131.16H10.3524V132.315H61.6391V131.16H65.8819V132.02C69.3949 131.067 71.9915 127.87 71.9915 124.083V21.5521C71.9915 17.7562 69.3949 14.5677 65.8819 13.6145H65.8904ZM69.8786 39.9072H67.7572V104.218H69.8786V108.435H67.7572V124.091C67.7572 126.31 65.9413 128.115 63.7096 128.115H8.2904C6.05869 128.115 4.24278 126.31 4.24278 124.091V108.435H2.12139V104.218H4.24278V39.9072H2.12139V35.6896H4.24278V21.5521C4.24278 19.3336 6.05869 17.5285 8.2904 17.5285H63.7181C65.9498 17.5285 67.7657 19.3336 67.7657 21.5521V35.6896H69.8871V39.9072H69.8786Z" fill="#475467"/>
<path d="M61.6474 132.332V135.276C61.6474 135.555 61.4183 135.782 61.1383 135.782H10.8613C10.5813 135.782 10.3522 135.555 10.3522 135.276V132.332H8.28168C7.52646 132.332 6.79671 132.223 6.10938 132.037V135.276C6.10938 137.883 8.23925 140 10.8613 140H61.1298C63.7518 140 65.8817 137.883 65.8817 135.276V132.037C65.1859 132.223 64.4561 132.332 63.7094 132.332H61.6389H61.6474Z" fill="#475467"/>
<path d="M10.3522 132.332V131.177H6.10938V132.037C6.80519 132.223 7.53495 132.332 8.28168 132.332H10.3522Z" fill="#475467"/>
<path d="M61.6475 131.168V132.324H63.7179C64.4731 132.324 65.2029 132.214 65.8902 132.029V131.168H61.6475Z" fill="#475467"/>
<path d="M10.3522 13.3193V10.9911C10.3522 10.7128 10.5813 10.485 10.8613 10.485H61.1298C61.4098 10.485 61.6389 10.7128 61.6389 10.9911V13.3193H63.7094C64.4646 13.3193 65.1944 13.4289 65.8817 13.6145V10.9911C65.8817 8.38465 63.7518 6.2674 61.1298 6.2674H58.8132V8.67144H54.5704V6.2674H51.1168V8.67144H46.874V6.2674H10.8613C8.23925 6.2674 6.10938 8.38465 6.10938 10.9911V13.6145C6.80519 13.4289 7.53495 13.3193 8.28168 13.3193H10.3522Z" fill="#475467"/>
<path d="M61.6475 13.3193V15.0991H65.8902V13.6229C65.1944 13.4374 64.4647 13.3277 63.7179 13.3277H61.6475V13.3193Z" fill="#475467"/>
<path d="M10.3522 15.0907V13.3109H8.28168C7.52646 13.3109 6.79671 13.4205 6.10938 13.6061V15.0823H10.3522V15.0907Z" fill="#475467"/>
<path d="M67.7576 35.6896H4.24316V39.9072H67.7576V35.6896Z" fill="#475467"/>
<path d="M69.8782 35.6896H67.7568V39.9072H69.8782V35.6896Z" fill="#475467"/>
<path d="M4.24248 35.6896H2.12109V39.9072H4.24248V35.6896Z" fill="#475467"/>
<path d="M67.7576 104.218H4.24316V108.435H67.7576V104.218Z" fill="#475467"/>
<path d="M4.24248 104.218H2.12109V108.435H4.24248V104.218Z" fill="#475467"/>
<path d="M69.8782 104.218H67.7568V108.435H69.8782V104.218Z" fill="#475467"/>
<path d="M51.1256 5.93842C51.1256 4.99367 51.8978 4.21763 52.8566 4.21763C53.8155 4.21763 54.5877 4.98524 54.5877 5.93842V6.2674H58.8305V5.93842C58.8305 2.66554 56.149 0 52.8566 0C49.5643 0 46.8828 2.66554 46.8828 5.93842V6.2674H51.1256V5.93842Z" fill="#475467"/>
<path d="M58.8219 6.2674H54.5791V8.67144H58.8219V6.2674Z" fill="#475467"/>
<path d="M51.1256 6.2674H46.8828V8.67144H51.1256V6.2674Z" fill="#475467"/>
<path d="M21.6973 74.1122C22.0961 74.6267 22.724 74.9304 23.3774 74.9304H32.1939L28.4688 94.2134C28.2736 95.2172 28.8337 96.2126 29.7925 96.5753C30.0386 96.6681 30.3017 96.7187 30.5562 96.7187C31.2775 96.7187 31.9733 96.3475 32.3721 95.7065L50.4464 66.0818C50.8452 65.4323 50.8537 64.6141 50.4803 63.9561C50.107 63.2898 49.3942 62.8849 48.6305 62.8849H40.5437L43.5052 51.6407C43.6749 51.008 43.5306 50.3332 43.1318 49.8186C42.733 49.3041 42.1051 49.0004 41.4517 49.0004H29.1052C28.1378 49.0004 27.2978 49.6499 27.0517 50.5778L21.3239 72.2986C21.1542 72.9313 21.2985 73.6061 21.6973 74.1206V74.1122ZM30.7429 53.2096H38.7024L35.7409 64.4538C35.5712 65.0865 35.7154 65.7613 36.1143 66.2758C36.5131 66.7904 37.141 67.0941 37.7944 67.0941H44.8629L34.8754 83.4753L36.8525 73.2181C36.9713 72.6023 36.8101 71.9612 36.4028 71.4804C35.9955 70.9996 35.4015 70.7128 34.7651 70.7128H26.1268L30.7429 53.2096Z" fill="#475467"/>
</g>
<defs>
<clipPath id="clip0_1323_4096">
<rect width="72" height="140" fill="white"/>
</clipPath>
</defs>
</svg>
