<svg width="92" height="119" viewBox="0 0 92 119" fill="none" xmlns="http://www.w3.org/2000/svg">
<path d="M27.5714 17.2857H15.2857C12.0273 17.2857 8.90242 18.5801 6.5984 20.8841C4.29438 23.1882 3 26.3131 3 29.5715V103.286C3 106.544 4.29438 109.669 6.5984 111.973C8.90242 114.277 12.0273 115.571 15.2857 115.571H76.7143C79.9727 115.571 83.0976 114.277 85.4016 111.973C87.7056 109.669 89 106.544 89 103.286V29.5715C89 26.3131 87.7056 23.1882 85.4016 20.8841C83.0976 18.5801 79.9727 17.2857 76.7143 17.2857H64.4286" fill="#F2F4F7"/>
<path d="M27.5714 17.2857H15.2857C12.0273 17.2857 8.90242 18.5801 6.5984 20.8841C4.29438 23.1882 3 26.3131 3 29.5715V103.286C3 106.544 4.29438 109.669 6.5984 111.973C8.90242 114.277 12.0273 115.571 15.2857 115.571H76.7143C79.9727 115.571 83.0976 114.277 85.4016 111.973C87.7056 109.669 89 106.544 89 103.286V29.5715C89 26.3131 87.7056 23.1882 85.4016 20.8841C83.0976 18.5801 79.9727 17.2857 76.7143 17.2857H64.4286" stroke="#475467" stroke-width="6" stroke-linecap="round" stroke-linejoin="round"/>
<path d="M45.9536 89.4643L62.8281 72.1722C64.9154 69.9985 66.081 67.1017 66.081 64.0882C66.081 61.0746 64.9154 58.1778 62.8281 56.0042C61.8106 54.9451 60.5896 54.1025 59.2385 53.5269C57.8873 52.9513 56.4338 52.6546 54.9652 52.6546C53.4966 52.6546 52.0431 52.9513 50.6919 53.5269C49.3408 54.1025 48.1198 54.9451 47.1024 56.0042L45.9782 57.159L44.8541 55.998C43.8366 54.9389 42.6156 54.0963 41.2645 53.5207C39.9133 52.9452 38.4598 52.6485 36.9912 52.6485C35.5226 52.6485 34.0691 52.9452 32.7179 53.5207C31.3668 54.0963 30.1458 54.9389 29.1283 55.998C27.0396 58.1709 25.873 61.068 25.873 64.082C25.873 67.096 27.0396 69.9931 29.1283 72.166L45.9475 89.5196L45.9536 89.4643Z" fill="#FF7EFA"/>
<path d="M31.1668 7.0984C28.8627 9.40242 27.5684 12.5273 27.5684 15.7857C27.5684 19.0441 28.8627 22.169 31.1668 24.473C33.4708 26.777 36.5957 28.0714 39.8541 28.0714H52.1398C55.3982 28.0714 58.5231 26.777 60.8271 24.473C63.1311 22.169 64.4255 19.0441 64.4255 15.7857C64.4255 12.5273 63.1311 9.40242 60.8271 7.0984C58.5231 4.79438 55.3982 3.5 52.1398 3.5H39.8541C36.5957 3.5 33.4708 4.79438 31.1668 7.0984Z" fill="#58F8E1"/>
<path d="M45.9536 89.4643L62.8281 72.1722C64.9154 69.9985 66.081 67.1017 66.081 64.0882C66.081 61.0746 64.9154 58.1778 62.8281 56.0042C61.8106 54.9451 60.5896 54.1025 59.2385 53.5269C57.8873 52.9513 56.4338 52.6546 54.9652 52.6546C53.4966 52.6546 52.0431 52.9513 50.6919 53.5269C49.3408 54.1025 48.1198 54.9451 47.1024 56.0042L45.9782 57.159L44.8541 55.998C43.8366 54.9389 42.6156 54.0963 41.2645 53.5207C39.9133 52.9452 38.4598 52.6485 36.9912 52.6485C35.5226 52.6485 34.0691 52.9452 32.7179 53.5207C31.3668 54.0963 30.1458 54.9389 29.1283 55.998C27.0396 58.1709 25.873 61.068 25.873 64.082C25.873 67.096 27.0396 69.9931 29.1283 72.166L45.9475 89.5196L45.9536 89.4643Z" stroke="#475467" stroke-width="6" stroke-linecap="round" stroke-linejoin="round"/>
<path d="M31.1668 7.0984C28.8627 9.40242 27.5684 12.5273 27.5684 15.7857C27.5684 19.0441 28.8627 22.169 31.1668 24.473C33.4708 26.777 36.5957 28.0714 39.8541 28.0714H52.1398C55.3982 28.0714 58.5231 26.777 60.8271 24.473C63.1311 22.169 64.4255 19.0441 64.4255 15.7857C64.4255 12.5273 63.1311 9.40242 60.8271 7.0984C58.5231 4.79438 55.3982 3.5 52.1398 3.5H39.8541C36.5957 3.5 33.4708 4.79438 31.1668 7.0984Z" stroke="#475467" stroke-width="6" stroke-linecap="round" stroke-linejoin="round"/>
</svg>
