<svg width="272" height="236" viewBox="0 0 272 236" fill="none" xmlns="http://www.w3.org/2000/svg">
<path d="M111.692 178.173L111.692 178.173C107.417 178.229 102.883 180.472 99.4602 183.325C97.7372 184.762 96.2545 186.386 95.1998 188.03C94.1548 189.658 93.4771 191.39 93.4985 193.019C93.5209 194.717 94.2981 196.035 95.5215 197.003C96.7078 197.942 98.3079 198.553 100.055 198.963C103.552 199.783 108.01 199.877 111.974 199.826C116.114 199.773 119.892 198.577 122.653 196.634C125.409 194.695 127.234 191.94 127.193 188.8C127.152 185.66 125.255 182.953 122.45 181.086C119.639 179.216 115.832 178.119 111.692 178.173Z" fill="#FF7EFA" stroke="#1D2939" stroke-width="2"/>
<path d="M123.404 197.702L123.404 197.702C120.314 199.876 116.256 201.077 111.991 201.133C111.991 201.133 111.99 201.133 111.99 201.133L111.977 200.133L123.404 197.702ZM123.404 197.702C126.659 195.412 128.546 192.256 128.5 188.783C128.454 185.31 126.49 182.204 123.174 179.998L123.404 197.702ZM111.735 181.479L111.735 181.479C108.694 181.518 104.878 183.115 101.578 185.865C100.069 187.124 98.8496 188.481 98.0192 189.757C97.174 191.057 96.7947 192.174 96.8053 192.975L96.8054 192.977L96.8055 192.986C96.8084 193.233 96.8126 193.595 97.1824 194.034C97.589 194.517 98.5462 195.213 100.809 195.745C104.074 196.51 108.413 196.566 111.931 196.519L111.931 196.519C115.342 196.475 118.468 195.535 120.752 193.929L111.735 181.479ZM111.735 181.479L111.744 181.479M111.735 181.479L111.744 181.479M111.744 181.479C111.82 181.477 111.896 181.477 111.987 181.477M111.744 181.479L111.987 181.477M111.944 197.519C108.435 197.566 103.98 197.516 100.581 196.718L111.944 197.519ZM111.944 197.519C115.519 197.473 118.851 196.489 121.327 194.747L111.944 197.519ZM111.987 181.477C115.3 181.477 118.353 182.333 120.621 183.841C122.805 185.295 123.865 187.091 123.889 188.843M111.987 181.477L123.889 188.843M123.889 188.843C123.91 190.596 122.897 192.42 120.752 193.929L123.889 188.843ZM99.754 200.236L99.7541 200.236L111.674 176.866C107.41 176.922 102.668 178.951 98.6224 182.321L98.6221 182.321C94.6985 185.593 92.1456 189.566 92.19 193.036L92.19 193.036C92.2139 194.858 92.9124 196.418 94.25 197.646C95.5579 198.847 97.4286 199.69 99.754 200.236ZM123.174 179.998C120.029 177.905 115.96 176.807 111.674 176.866L123.174 179.998Z" fill="#1D2939" stroke="#1D2939" stroke-width="2"/>
<path d="M155.693 190.095C155.78 195.521 162.279 199.819 170.211 199.691C178.142 199.564 187.585 198.794 187.498 193.367C187.411 187.941 177.829 179.912 169.898 180.039C161.967 180.167 155.606 184.666 155.693 190.095Z" fill="#3157DD"/>
<path d="M169.875 201C161.397 201 154.483 196.168 154.387 190.114C154.288 183.975 161.237 178.869 169.875 178.732C178.09 178.611 188.699 186.796 188.803 193.346C188.853 196.438 186.63 198.602 182.194 199.78C178.546 200.749 173.884 200.94 170.23 200.998C170.112 201 169.993 201 169.875 201ZM157 190.074C157.074 194.701 162.816 198.388 169.867 198.388C169.975 198.388 170.082 198.386 170.19 198.386C173.695 198.33 178.15 198.151 181.526 197.255C186.234 196.006 186.201 194.037 186.191 193.388C186.118 188.749 177.15 181.344 170.078 181.344C170.024 181.344 169.972 181.344 169.918 181.346C162.72 181.46 156.925 185.375 157 190.074Z" fill="#3157DD"/>
<path d="M202.405 176.425C202.953 177.443 202.951 178.576 202.403 179.576C201.934 180.432 201.15 181.039 200.414 181.48C198.915 182.376 196.705 183.102 194.183 183.716C189.066 184.962 181.895 185.922 174.463 186.595C167.009 187.269 159.204 187.664 152.777 187.761C149.565 187.81 146.679 187.785 144.345 187.681C142.193 187.585 140.352 187.418 139.159 187.129C138.2 187.052 137.233 186.963 136.26 186.858C130.258 187.624 114.438 187.232 100.588 185.877C93.541 185.187 86.8552 184.234 82.1162 183.015C79.7841 182.415 77.729 181.703 76.3353 180.819C75.6465 180.382 74.9104 179.774 74.4832 178.922C73.9891 177.937 74.0227 176.851 74.5421 175.886L74.5424 175.886C75.3086 174.464 75.7306 172.035 75.8096 168.931C75.8748 166.368 75.7044 163.552 75.4312 160.861C70.2206 159.726 64.1774 157.434 60.1221 155C59.0003 154.326 57.9813 153.613 57.1577 152.875C56.3619 152.161 55.6067 151.301 55.2125 150.304C54.772 149.19 54.7988 147.903 55.6266 146.777C56.3447 145.801 57.4887 145.2 58.7019 144.795L58.7021 144.795C65.5878 142.501 69.6305 138.946 71.1675 137.381C71.0696 136.203 71.0159 135.003 71.0159 133.776C71.0159 115.557 82.1861 96.3698 97.0124 81.8416C111.826 67.3253 130.803 56.9597 147.018 56.9597C180.303 56.9597 208.489 89.9109 208.489 125.703C208.489 129.673 208.141 133.52 207.48 137.225C207.525 137.272 207.572 137.321 207.623 137.372C208.133 137.893 208.923 138.636 210.006 139.482C212.17 141.171 215.499 143.265 220.096 144.797C221.372 145.223 222.591 145.872 223.298 146.963C224.117 148.224 223.96 149.587 223.425 150.665C222.934 151.657 222.086 152.529 221.18 153.27C220.246 154.034 219.103 154.778 217.85 155.48C213.351 157.999 206.82 160.319 201.534 161.215M202.405 176.425C202.405 176.425 202.405 176.425 202.405 176.425L200.644 177.373L202.405 176.425ZM202.405 176.425C201.627 174.98 201.206 172.502 201.135 169.341C201.077 166.753 201.255 163.916 201.534 161.215M201.534 161.215C200.993 161.307 200.464 161.384 199.953 161.445L199.717 159.459L201.703 159.694C201.644 160.195 201.587 160.703 201.534 161.215Z" fill="#3157DD" stroke="#1D2939" stroke-width="4"/>
<path d="M149.855 187.095C144.863 187.095 141.026 186.88 139.273 186.444C138.258 186.363 137.243 186.269 136.255 186.162C130.813 186.877 116.651 186.581 103.815 185.479C86.9 184.025 77.3144 181.84 75.3262 178.983C74.7221 178.116 74.6622 177.134 75.1545 176.217C76.5655 173.595 76.8859 167.958 76.0694 160.285C68.7653 158.75 55.9717 153.81 55.6319 149.08C55.5509 147.953 56.0547 146.409 58.923 145.453C66.2927 142.996 70.5122 139.079 71.8866 137.633C71.7688 136.334 71.7109 135.038 71.7109 133.774C71.7109 117.386 81.3506 98.1572 97.499 82.3333C113.034 67.1118 132.008 57.6526 147.016 57.6526C162.531 57.6526 178.093 65.2026 189.713 78.3682C201.203 91.3871 207.793 108.64 207.793 125.703C207.793 129.67 207.436 133.616 206.734 137.442C207.936 138.747 212.202 142.897 219.877 145.455C222.805 146.432 223.278 148.015 223.16 149.169C222.654 154.107 208.805 159.374 200.902 160.615C200.057 168.396 200.37 174.107 201.794 176.755C202.317 177.724 202.207 178.794 201.497 179.69C198.621 183.315 183.312 185.228 170.976 186.193C163.351 186.79 155.789 187.095 149.855 187.095ZM136.216 183.529L136.378 183.547C137.428 183.662 138.509 183.763 139.59 183.848L139.829 183.89C143.223 184.809 158.213 184.626 171.906 183.498C193.307 181.738 199.034 178.979 199.497 178.008C197.702 174.64 197.347 168.362 198.42 159.308L198.542 158.285L199.563 158.163C208.324 157.123 220.299 151.445 220.558 148.905C220.581 148.681 220.07 148.275 219.049 147.936C211.552 145.436 207.097 141.567 205.276 139.71C204.651 140.301 203.636 139.745 203.796 138.9L204.039 137.619C204.796 133.747 205.178 129.739 205.178 125.703C205.178 90.8447 177.998 60.2664 147.014 60.2664C132.664 60.2664 114.391 69.438 99.3231 84.2039C83.6668 99.5452 74.3186 118.077 74.3186 133.778C74.3186 135.145 74.392 136.548 74.5368 137.955L74.5947 138.521L74.2202 138.949C73.0157 140.326 68.416 145.044 59.7434 147.936C58.6103 148.314 58.2185 148.716 58.232 148.895C58.396 151.165 68.5665 156.298 77.4881 157.903L78.4436 158.074L78.5556 159.038C79.5941 167.972 79.2215 174.168 77.4514 177.456C77.4495 177.46 77.4476 177.464 77.4457 177.464C77.9321 178.58 83.8695 181.079 103.149 182.798C116.045 183.946 130.803 184.286 136.054 183.552L136.216 183.529Z" fill="#1D2939"/>
<path d="M187.433 131.587C187.352 129.741 187.192 127.923 186.962 126.135C186.925 125.813 186.895 125.498 186.854 125.172L186.835 125.187C183.368 101.194 166.743 83.0071 146.755 83.0071C142.563 83.0071 138.517 83.8082 134.71 85.2947C130.904 83.8082 126.858 83.0071 122.666 83.0071C100.163 83.0071 81.9199 106.059 81.9199 134.496C81.9199 159.115 95.5938 179.693 113.867 184.776C123.094 189.253 136.963 193.091 155.211 190.166C184.43 185.483 183.401 179.711 181.862 173.439C180.447 167.671 188.761 154.978 187.433 131.587Z" fill="white" stroke="#1D2939" stroke-width="2"/>
<path d="M142.779 192.481C129.958 192.481 120.035 189.203 113.402 186C104.218 183.411 95.8892 176.904 89.9421 167.667C83.9256 158.323 80.6133 146.542 80.6133 134.494C80.6133 105.383 99.4776 81.6982 122.666 81.6982C126.765 81.6982 130.815 82.4376 134.71 83.8932C138.606 82.4357 142.653 81.6982 146.755 81.6982C166.527 81.6982 183.513 98.8927 187.786 122.882L187.856 122.832L188.151 125.01C188.176 125.21 188.198 125.409 188.219 125.606L188.261 125.987C188.497 127.805 188.659 129.674 188.74 131.523C189.568 146.156 186.636 156.825 184.694 163.887C183.565 167.999 182.671 171.246 183.133 173.126C183.735 175.585 184.486 178.645 182.561 181.545C179.708 185.848 171.337 188.904 155.418 191.454C150.94 192.17 146.72 192.481 142.779 192.481ZM122.666 84.3121C100.919 84.3121 83.2268 106.823 83.2268 134.494C83.2268 157.905 96.2618 178.522 114.219 183.516L114.439 183.599C122.762 187.637 136.556 191.83 155.005 188.873C169.731 186.512 178.033 183.643 180.384 180.099C181.584 178.288 181.247 176.408 180.594 173.748C179.971 171.207 180.895 167.846 182.175 163.192C184.185 155.881 186.937 145.87 186.13 131.66L186.128 131.643C186.051 129.865 185.895 128.068 185.667 126.301L185.541 125.373C182.104 101.58 165.791 84.3121 146.755 84.3121C142.814 84.3121 138.922 85.0514 135.185 86.5108L134.71 86.6962L134.236 86.5108C130.499 85.0514 126.605 84.3121 122.666 84.3121Z" fill="#1D2939" stroke="#1D2939" stroke-width="2"/>
<path d="M137.321 134.83C143.383 134.83 148.296 131.419 148.296 127.212C148.296 123.005 143.383 119.595 137.321 119.595C131.26 119.595 126.346 123.005 126.346 127.212C126.346 131.419 131.26 134.83 137.321 134.83Z" fill="#02F1CF"/>
<path d="M126.147 122.951C126.147 122.951 126.146 122.952 126.143 122.953C126.145 122.952 126.147 122.951 126.147 122.951ZM133.557 121.108C133.557 121.108 133.559 121.107 133.562 121.107C133.559 121.108 133.557 121.108 133.557 121.108Z" fill="#1D2939" stroke="#1D2939" stroke-width="4"/>
<path d="M108.802 112.109L108.802 112.109C108.704 111.899 108.691 111.704 108.722 111.565C108.75 111.444 108.816 111.336 108.963 111.25L108.963 111.25L108.965 111.249C109.056 111.196 109.235 111.159 109.427 111.204C109.613 111.247 109.679 111.331 109.697 111.37L109.697 111.37C110.358 112.79 111.614 113.457 112.833 113.854C114.242 114.315 115.709 114.538 117.158 114.587L117.158 114.587C120.248 114.691 123.323 114.005 126.062 112.539C126.258 112.434 126.395 112.447 126.498 112.485C126.623 112.53 126.759 112.639 126.854 112.802C126.949 112.965 126.965 113.116 126.946 113.212C126.933 113.277 126.896 113.38 126.702 113.484L126.701 113.484C123.676 115.102 120.221 115.908 116.807 115.705C115.281 115.614 113.554 115.376 112.055 114.806C110.558 114.237 109.394 113.379 108.802 112.109Z" fill="#1D2939" stroke="#1D2939" stroke-width="2"/>
<path d="M140.624 112.299L140.624 112.3C141.402 113.826 142.72 114.645 144.359 115.089C146.031 115.542 147.937 115.577 149.756 115.578C153.438 115.578 157.008 115.302 160.069 113.599L160.069 113.599C160.261 113.492 160.304 113.385 160.318 113.31C160.338 113.206 160.319 113.05 160.224 112.887C160.129 112.725 159.996 112.62 159.878 112.578C159.784 112.545 159.653 112.531 159.458 112.639L159.458 112.639C156.543 114.26 153.198 114.423 150.208 114.439L140.624 112.299ZM140.624 112.299C140.535 112.124 140.52 111.943 140.554 111.8C140.587 111.666 140.663 111.553 140.801 111.473L140.801 111.473L140.803 111.471C140.904 111.412 141.073 111.38 141.251 111.424C141.425 111.466 141.515 111.554 141.55 111.624L141.551 111.625M140.624 112.299L141.551 111.625M141.551 111.625C142.44 113.369 144.127 114.035 145.712 114.293M141.551 111.625L145.712 114.293M145.712 114.293C146.968 114.498 148.341 114.471 149.451 114.45M145.712 114.293L149.451 114.45M149.451 114.45C149.721 114.445 149.975 114.44 150.208 114.439L149.451 114.45Z" fill="#1D2939" stroke="#1D2939" stroke-width="2"/>
<path d="M38.0648 114.271L29.6937 121.141L33.0811 142.874L43.1459 146.87L53.2108 150.867L61.5819 143.997L69.9531 137.127L66.5657 115.394L56.5008 111.398L46.436 107.401L38.0648 114.271ZM66.5657 115.394L49.8234 129.134L66.5657 115.394ZM29.6937 121.141L49.8234 129.134L29.6937 121.141ZM53.2108 150.867L49.8234 129.134L53.2108 150.867ZM57.6523 122.349L61.0397 144.081L57.6523 122.349ZM68.2594 126.261L51.5171 140.001L68.2594 126.261ZM51.5171 140.001L31.3874 132.008L51.5171 140.001ZM43.6882 146.786L40.3008 125.053L43.6882 146.786ZM55.9586 111.482L40.3008 125.053L55.9586 111.482ZM57.6523 122.349L38.6071 114.187L57.6523 122.349Z" fill="#CFFF83"/>
<path d="M29.6937 121.141L38.0648 114.271L46.436 107.401L56.5008 111.398L66.5657 115.394M29.6937 121.141L33.0811 142.874L43.1459 146.87L53.2108 150.867M29.6937 121.141L49.8234 129.134M53.2108 150.867L61.5819 143.997L69.9531 137.127L66.5657 115.394M53.2108 150.867L49.8234 129.134M66.5657 115.394L49.8234 129.134M61.0397 144.081L57.6523 122.349L38.6071 114.187M68.2594 126.261L51.5171 140.001L31.3874 132.008M43.6882 146.786L40.3008 125.053L55.9586 111.482" stroke="#1D2939" stroke-width="4" stroke-linecap="round" stroke-linejoin="round"/>
<path d="M244.361 56.8298C244.361 68.3324 233.66 77.655 220.46 77.655C215.572 77.655 211.024 76.3779 207.239 74.1795C205.745 73.313 196.084 79.6207 194.853 78.4942C193.53 77.281 200.658 68.6107 199.699 67.1512C197.705 64.109 196.563 60.5834 196.563 56.8252C196.559 45.3271 207.26 36 220.46 36C233.66 36 244.361 45.3271 244.361 56.8298Z" fill="#FFF8B9" stroke="#1D2939" stroke-width="4" stroke-miterlimit="10" stroke-linecap="round" stroke-linejoin="round"/>
<path d="M217.577 60.8958H213.673L212.111 45.1245H219.138L217.577 60.8958Z" fill="#1D2939"/>
<path d="M215.624 68.5473C217.284 68.5473 218.63 67.219 218.63 65.5804C218.63 63.9418 217.284 62.6135 215.624 62.6135C213.964 62.6135 212.618 63.9418 212.618 65.5804C212.618 67.219 213.964 68.5473 215.624 68.5473Z" fill="#1D2939"/>
<path d="M227.023 62.1534H223.761L222.456 48.9741H228.328L227.023 62.1534Z" fill="#1D2939"/>
<path d="M225.392 68.5474C226.779 68.5474 227.904 67.4374 227.904 66.0681C227.904 64.6989 226.779 63.5889 225.392 63.5889C224.004 63.5889 222.88 64.6989 222.88 66.0681C222.88 67.4374 224.004 68.5474 225.392 68.5474Z" fill="#1D2939"/>
<rect x="138" y="23" width="69" height="22" rx="11" fill="#58F8E1"/>
<path d="M151.975 38L152.332 35.8086H150.504L150.146 38H148.986L149.344 35.8086H148.154L148.342 34.6602H149.537L149.83 32.8555H148.646L148.834 31.707H150.023L150.381 29.5156H151.541L151.184 31.707H153.012L153.369 29.5156H154.518L154.16 31.707H155.361L155.162 32.8555H153.967L153.674 34.6602H154.869L154.682 35.8086H153.48L153.123 38H151.975ZM150.697 34.6602H152.525L152.818 32.8555H150.99L150.697 34.6602ZM158.35 28.8477V29.9961H162.92V28.8477H164.209V33.1484H161.279V34.1211H165.463V35.1758H155.807V34.1211H159.967V33.1484H157.061V28.8477H158.35ZM157.002 38.832V35.8555H158.303V37.7773H164.373V38.832H157.002ZM158.35 32.1055H162.92V31.0039H158.35V32.1055ZM174.979 28.4492V33.9102H173.689V28.4492H174.979ZM166.26 32.9609C167.906 32.4746 168.814 31.2793 168.879 30.0312H166.6V28.9766H172.424V30.0312H170.203C170.262 31.2031 171.158 32.3164 172.799 32.7617L172.166 33.7695C170.93 33.4121 170.045 32.6621 169.564 31.7012C169.084 32.7617 168.164 33.5996 166.857 33.9922L166.26 32.9609ZM167.971 35.3516V34.3555H175.002V37.0859H169.271V37.9414H175.318V38.9492H167.994V36.1367H173.701V35.3516H167.971ZM182.596 29.4805V30.5469H181.576V35.3105C182.057 35.2754 182.531 35.2344 182.982 35.1758L183.041 36.1133C180.855 36.4941 178.395 36.5352 176.561 36.5352L176.408 35.4688C176.807 35.4688 177.234 35.4629 177.686 35.4629V30.5469H176.678V29.4805H182.596ZM178.951 35.4395C179.402 35.4277 179.859 35.4102 180.322 35.3867V30.5469H178.951V35.4395ZM183.545 39.043V28.4492H184.846V32.5508H186.475V33.6172H184.846V39.043H183.545ZM189.896 29.0586C191.525 29.0469 192.744 30.1133 192.756 31.6016C192.744 33.1133 191.525 34.1621 189.896 34.168C188.262 34.1621 187.031 33.1133 187.037 31.6016C187.031 30.1133 188.262 29.0469 189.896 29.0586ZM188.221 36.1953V35.1406H195.275V39.0547H193.975V36.1953H188.221ZM188.314 31.6016C188.309 32.5039 188.982 33.0605 189.896 33.0547C190.799 33.0605 191.473 32.5039 191.479 31.6016C191.473 30.7168 190.799 30.166 189.896 30.1602C188.982 30.166 188.309 30.7168 188.314 31.6016ZM193.975 34.6602V28.4492H195.275V31.0273H196.752V32.0938H195.275V34.6602H193.975Z" fill="#1D2939"/>
<rect x="17" y="66" width="80" height="22" rx="11" fill="#58F8E1"/>
<path d="M31.2891 81L31.6465 78.8086H29.8184L29.4609 81H28.3008L28.6582 78.8086H27.4688L27.6562 77.6602H28.8516L29.1445 75.8555H27.9609L28.1484 74.707H29.3379L29.6953 72.5156H30.8555L30.498 74.707H32.3262L32.6836 72.5156H33.832L33.4746 74.707H34.6758L34.4766 75.8555H33.2812L32.9883 77.6602H34.1836L33.9961 78.8086H32.7949L32.4375 81H31.2891ZM30.0117 77.6602H31.8398L32.1328 75.8555H30.3047L30.0117 77.6602ZM39.293 77.1211V78.8379C40.2129 78.7852 41.1387 78.7031 42.0117 78.5742L42.1172 79.5352C39.7441 79.9746 37.2012 79.998 35.332 79.9922L35.168 78.9375C35.9941 78.9316 36.9668 78.9258 37.9922 78.8965V77.1211H39.293ZM35.4141 76.4766C37.0078 76.0371 37.8867 74.9883 37.9629 73.8047H35.7305V72.75H37.9922V71.543H39.293V72.75H41.5781V73.8047H39.3105C39.3809 74.9355 40.2773 75.9492 41.8711 76.3594L41.2734 77.3789C40.0195 77.0391 39.123 76.3066 38.6426 75.3691C38.1797 76.3535 37.2949 77.1211 36.0352 77.4609L35.4141 76.4766ZM42.6445 82.0547V71.4492H43.9453V82.0547H42.6445ZM49.3477 73.3242C49.3418 74.7305 50.1855 76.1016 51.832 76.6641L51.1172 77.6836C49.9746 77.2559 49.1602 76.4297 48.709 75.3867C48.2578 76.5527 47.3906 77.4668 46.1484 77.9297L45.457 76.8984C47.1621 76.3242 48.0293 74.8594 48.0352 73.3125V72.1055H49.3477V73.3242ZM47.3789 81.832V78.4688H48.7031V80.7773H54.5977V81.832H47.3789ZM50.9531 74.8594V73.793H53.0625V71.4609H54.3633V79.3242H53.0625V74.8594H50.9531ZM59.2969 72.1875C60.9785 72.1816 62.2031 73.2422 62.2148 74.7422C62.2031 76.248 60.9785 77.3027 59.2969 77.3086C57.6328 77.3027 56.3848 76.248 56.3906 74.7422C56.3848 73.2422 57.6328 72.1816 59.2969 72.1875ZM55.9102 78.7734C57.8203 78.7734 60.4629 78.75 62.7539 78.4219L62.8594 79.3711C60.4863 79.8223 57.9434 79.8398 56.0742 79.8398L55.9102 78.7734ZM57.6797 74.7422C57.6738 75.627 58.3711 76.1719 59.2969 76.1719C60.2344 76.1719 60.9316 75.627 60.9375 74.7422C60.9316 73.8633 60.2402 73.3125 59.2969 73.3125C58.3711 73.3125 57.6738 73.8633 57.6797 74.7422ZM63.3867 82.0547V71.4492H64.6875V82.0547H63.3867ZM70.0898 73.3242C70.084 74.7305 70.9277 76.1016 72.5742 76.6641L71.8594 77.6836C70.7168 77.2559 69.9023 76.4297 69.4512 75.3867C69 76.5527 68.1328 77.4668 66.8906 77.9297L66.1992 76.8984C67.9043 76.3242 68.7715 74.8594 68.7773 73.3125V72.1055H70.0898V73.3242ZM68.1211 81.832V78.4688H69.4453V80.7773H75.3398V81.832H68.1211ZM71.6953 74.8594V73.793H73.8047V71.4609H75.1055V79.3242H73.8047V74.8594H71.6953ZM81.1641 72.1875V73.2305H78.2578V74.2617H81.0586V75.2578H78.2578V76.3711C79.5469 76.3594 80.4492 76.3066 81.4805 76.1133L81.6211 77.168C80.373 77.4023 79.3535 77.4434 77.707 77.4375H77.0039V72.1875H81.1641ZM78.4102 79.4297V78.375H85.6641V82.043H84.3633V79.4297H78.4102ZM82.1016 77.8242V71.6602H83.3203V74.1094H84.4219V71.4609H85.6641V77.9062H84.4219V75.1523H83.3203V77.8242H82.1016Z" fill="#1D2939"/>
<rect x="190" y="171" width="69" height="22" rx="11" fill="#58F8E1"/>
<path d="M203.975 186L204.332 183.809H202.504L202.146 186H200.986L201.344 183.809H200.154L200.342 182.66H201.537L201.83 180.855H200.646L200.834 179.707H202.023L202.381 177.516H203.541L203.184 179.707H205.012L205.369 177.516H206.518L206.16 179.707H207.361L207.162 180.855H205.967L205.674 182.66H206.869L206.682 183.809H205.48L205.123 186H203.975ZM202.697 182.66H204.525L204.818 180.855H202.99L202.697 182.66ZM217.475 181.746V182.789H213.385V184.734H212.096V182.789H207.795V181.746H217.475ZM208.967 186.832V183.762H210.268V185.777H216.408V186.832H208.967ZM209.025 180.762V176.93H216.232V180.762H209.025ZM210.291 179.742H214.943V177.949H210.291V179.742ZM227.295 176.449V187.043H226.053V176.449H227.295ZM217.99 184.031C219.52 183.1 220.193 181.189 220.193 179.344V178.641H218.354V177.586H223.158V178.641H221.447V179.344C221.447 181.131 222.086 182.924 223.604 183.797L222.83 184.758C221.852 184.178 221.201 183.17 220.832 181.963C220.457 183.27 219.783 184.383 218.787 185.004L217.99 184.031ZM222.385 181.195V180.141H223.908V176.648H225.139V186.527H223.908V181.195H222.385ZM233.717 178.137V179.18H228.525V178.137H230.494V176.754H231.783V178.137H233.717ZM228.83 182.203C228.818 180.762 229.797 179.736 231.139 179.742C232.486 179.736 233.447 180.762 233.447 182.203C233.447 183.674 232.486 184.699 231.139 184.699C229.797 184.699 228.818 183.674 228.83 182.203ZM229.979 182.203C229.973 183.059 230.453 183.592 231.139 183.586C231.818 183.592 232.299 183.059 232.299 182.203C232.299 181.371 231.818 180.82 231.139 180.82C230.453 180.82 229.973 181.371 229.979 182.203ZM234.162 186.562V176.672H235.381V180.809H236.412V176.449H237.654V187.043H236.412V181.863H235.381V186.562H234.162ZM247.791 176.449V181.816H246.49V180.891H243.936V179.895H246.49V178.852H244.07C243.414 180.469 241.861 181.523 239.518 182.051L239.061 180.984C241.551 180.463 242.793 179.367 242.975 177.961H239.646V176.906H244.428C244.428 177.24 244.398 177.557 244.352 177.855H246.49V176.449H247.791ZM240.818 183.258V182.227H247.791V185.016H242.131V185.895H248.072V186.938H240.83V184.043H246.49V183.258H240.818Z" fill="#1D2939"/>
</svg>
