<svg width="272" height="236" viewBox="0 0 272 236" fill="none" xmlns="http://www.w3.org/2000/svg">
<ellipse cx="136" cy="220" rx="50" ry="10" fill="#1D2939"/>
<g clip-path="url(#clip0_1283_6727)">
<path d="M125.298 108.091C125.247 108.12 120.373 111.007 117.932 114.66C119.855 117.136 121.703 120.052 123.356 123.206L123.92 121.024C124.048 120.525 124.558 120.223 125.058 120.354C125.557 120.482 125.859 120.992 125.728 121.492L124.743 125.3C124.708 125.431 124.646 125.546 124.566 125.645C126.981 130.743 128.834 136.287 129.659 141.49C129.761 142.128 129.582 142.782 129.168 143.282C128.954 143.541 128.687 143.741 128.388 143.88C128.516 144.606 128.636 145.346 128.748 146.102C128.791 146.398 128.69 146.697 128.476 146.906C128.262 147.114 127.961 147.207 127.667 147.159C127.605 147.149 125.082 146.727 121.645 146.398C121.698 146.564 121.706 146.743 121.658 146.922C120.05 152.899 120.587 159.255 121.108 165.403C121.199 166.489 121.292 167.576 121.372 168.661C121.444 169.507 121.53 170.522 121.631 171.566C121.96 173.965 122.229 176.379 122.488 178.71C122.75 181.06 123.02 183.491 123.348 185.865L123.741 188.707C123.856 189.5 123.971 190.336 124.08 191.188C124.187 192.01 124.288 192.838 124.387 193.666C124.919 196.612 124.889 199.774 124.297 204.207C124.51 204.207 124.732 204.207 124.964 204.207C125.48 204.207 125.899 204.626 125.899 205.142C125.899 205.657 125.48 206.076 124.964 206.076C124.142 206.076 123.469 206.087 122.844 206.108C122.077 206.135 121.388 206.178 120.739 206.242C120.715 206.242 120.691 206.245 120.667 206.247C119.973 206.263 119.27 206.338 118.584 206.469C117.89 206.603 117.214 206.795 116.576 207.038C116.554 207.046 116.533 207.054 116.509 207.059C115.836 207.259 115.2 207.54 114.618 207.892C111.194 210.203 109.95 214.713 111.654 218.634C113.074 221.449 116.33 222.159 119.543 222.645C120.098 222.72 120.707 222.771 121.337 222.797C121.861 222.819 122.408 222.819 122.961 222.803C123.693 222.773 124.459 222.706 125.229 222.61C126.131 222.495 127.029 222.426 127.897 222.357C129.793 222.21 131.598 222.068 133.291 221.486C133.056 221.141 132.864 220.776 132.725 220.391C131.435 216.852 131.889 213.017 133.94 210.138C135.219 208.341 137.497 206.322 141.522 205.283C141.474 204.525 141.418 203.769 141.359 203.016C140.908 194.967 140.347 184.973 139.546 175.703C139.546 175.69 139.546 175.679 139.546 175.666C139.49 174.464 139.444 173.607 139.407 173.049C139.135 171.022 138.822 169.505 138.633 168.687C138.622 168.687 138.614 168.687 138.603 168.687C135.046 168.46 133.537 166.639 133.473 166.562C133.15 166.161 133.211 165.571 133.612 165.248C134.01 164.924 134.592 164.986 134.92 165.378C134.979 165.448 136.058 166.652 138.723 166.823C138.827 166.829 138.924 166.858 139.017 166.895C139.052 166.882 139.084 166.866 139.121 166.855C139.621 166.719 140.133 167.01 140.27 167.51C140.291 167.592 140.83 169.569 141.266 172.835C141.268 172.856 141.271 172.875 141.271 172.896C141.308 173.465 141.357 174.338 141.413 175.564C142.217 184.858 142.777 194.86 143.229 202.896C143.279 203.553 143.327 204.228 143.373 204.904C144.775 204.677 146.353 204.562 148.129 204.591C148.645 204.6 149.056 205.024 149.048 205.542C149.04 206.052 148.623 206.461 148.113 206.461H148.097C143.934 206.386 138.36 207.163 135.465 211.228C133.745 213.642 133.387 216.751 134.482 219.755C135.083 221.406 137.164 222.338 138.803 222.827C145.424 224.808 156.419 223.382 159.795 220.872C161.373 219.699 162.425 217.758 162.925 215.103C163.339 212.908 163.21 210.528 162.553 208.221C161.851 205.748 160.796 201.024 159.768 192.566C159.498 190.352 159.234 188.09 158.985 185.844C158.905 185.136 158.831 184.439 158.756 183.758C157.538 172.987 156.849 163.963 156.593 155.358C156.55 154.747 156.504 154.14 156.456 153.532C155.97 147.456 155.319 141.596 155.052 139.257C154.007 140.047 152.835 140.761 151.532 141.46C150.202 142.173 148.148 142.355 146.861 142.355C146.631 142.355 146.428 142.35 146.255 142.339C143.095 142.163 140.518 140.91 138.595 138.611C134.194 133.347 134.549 124.168 134.781 121.313C132.202 120.683 130.37 119.39 129.331 117.467C127.696 114.441 128.535 110.727 129.09 108.98C128.214 108.705 126.908 108.235 125.701 107.589C125.632 107.794 125.496 107.978 125.293 108.096L125.298 108.091Z" fill="#FCFCFD"/>
<path d="M134.395 81.8195C134.395 81.7847 134.395 81.75 134.393 81.7153C134.393 81.6939 134.393 81.6726 134.393 81.6485C134.395 81.1358 134.347 80.6257 134.251 80.1289C133.621 77.0711 131.132 74.7877 128.587 74.9479C128.544 74.9506 128.499 74.9479 128.456 74.9479C128.159 74.9239 127.868 74.9372 127.577 74.98C130.905 75.8586 133.53 78.4865 134.401 81.8168L134.395 81.8195Z" fill="#FCFCFD"/>
<path d="M122.855 79.7899C122.74 80.2974 122.679 80.8235 122.676 81.3549C122.676 81.3763 122.676 81.4003 122.673 81.4217C122.633 81.9265 122.657 82.4285 122.735 82.9226C122.767 82.5727 122.82 82.2229 122.906 81.8677C123.565 79.1703 125.643 77.2662 127.903 77.0525C127.043 76.7187 126.108 76.5344 125.133 76.5344C125 76.5344 124.869 76.5371 124.738 76.5451C124.244 77.0392 123.779 77.6374 123.36 78.3264C123.138 78.7911 122.967 79.2825 122.852 79.7899H122.855Z" fill="#FCFCFD"/>
<path d="M147.627 53.8179C147.384 54.2745 146.818 54.4481 146.364 54.2051C142.871 52.349 140.948 52.4078 138.411 52.7069C134.95 53.1181 133.088 54.6137 133.069 54.6297C132.896 54.7713 132.685 54.8407 132.477 54.8407C132.207 54.8407 131.937 54.7232 131.753 54.4989C131.427 54.0983 131.486 53.5107 131.884 53.1822C131.929 53.1448 132.474 52.7095 133.47 52.2155C133.417 52.1487 133.366 52.0739 133.331 51.9911C133.288 51.8896 128.877 41.629 119.281 40.8145C116.381 40.5688 113.755 40.8679 110.772 41.7839C106.499 43.0952 104.016 46.7914 103.992 46.8288C103.984 46.8421 103.973 46.8582 103.962 46.8715C100.119 52.0606 99.9028 58.9401 101.673 63.0556C105.215 71.2812 112.364 76.3153 112.58 76.4649C112.58 76.4649 112.58 76.4649 112.583 76.4649C112.583 76.4649 112.588 76.4676 112.588 76.4702C112.602 76.4782 112.61 76.4889 112.623 76.4996C112.658 76.5263 112.695 76.5557 112.727 76.5877C112.749 76.6091 112.765 76.6331 112.783 76.6572C112.802 76.6812 112.823 76.7026 112.839 76.7293C112.858 76.756 112.869 76.7854 112.885 76.8121C112.898 76.8388 112.914 76.8628 112.925 76.8895C112.936 76.9162 112.944 76.9456 112.952 76.9723C112.96 77.0017 112.97 77.0311 112.978 77.0604C112.984 77.0898 112.986 77.1219 112.989 77.1512C112.992 77.1806 112.997 77.21 112.997 77.2394C112.997 77.2821 112.992 77.3248 112.986 77.3702C112.986 77.3863 112.986 77.4023 112.981 77.4183C112.981 77.4183 112.981 77.4236 112.981 77.4263C112.941 77.64 112.156 82.0599 113.221 87.4038C114.447 93.5383 117.51 98.3695 122.328 101.812C122.411 101.462 122.542 101.123 122.723 100.8C123.658 99.136 125.669 98.26 128.107 98.4603C131.504 98.7354 138.251 101.702 140.563 102.824C141.137 103.102 142.524 103.329 142.905 103.211C143.199 102.971 143.544 102.608 143.907 102.223C145.256 100.802 147.291 98.6526 150.397 99.1787C151.46 99.3603 152.261 99.857 152.776 100.658C153.257 101.406 153.454 102.381 153.374 103.569C153.441 103.513 153.513 103.462 153.596 103.425L156.539 102.138C159.487 100.565 161.693 98.5271 163.915 95.3356C165.998 92.3445 167.32 88.3065 167.844 83.3391C167.94 82.4338 167.961 81.5204 167.94 80.6498L156.705 83.2777C156.635 83.7237 156.531 84.1643 156.39 84.597C156.2 89.7086 151.983 93.8107 146.826 93.8107C141.669 93.8107 137.77 90.013 137.3 85.1738H135.657C135.281 86.0925 134.744 86.9498 134.066 87.6923C132.677 91.2682 129.2 93.8107 125.14 93.8107C119.863 93.8107 115.569 89.5163 115.569 84.2391C115.569 79.3705 119.222 75.3432 123.933 74.745C124.644 74.1334 125.477 73.6153 126.446 73.3215C127.127 73.1132 127.832 73.0331 128.54 73.0812C132.025 72.8942 135.262 75.7625 136.09 79.7631C136.21 80.38 136.272 81.005 136.269 81.6272C136.304 82.1881 136.269 82.7489 136.183 83.3044H137.302C137.684 79.3866 140.435 76.1578 144.099 75.0655C144.879 74.3177 145.832 73.6687 146.967 73.3215C147.649 73.1132 148.354 73.0331 149.061 73.0812C152.541 72.8942 155.783 75.7625 156.611 79.7631C156.713 80.2839 156.769 80.8127 156.785 81.3415L167.833 78.7563C167.646 76.7587 167.307 75.3032 167.302 75.2791C167.198 74.8358 167.427 74.3845 167.844 74.2055C173.004 71.9969 177.918 65.8437 179.528 59.5731C180.468 55.9116 180.764 50.4929 176.833 45.4641C170.215 36.9955 160.321 39.4925 157.447 40.4593C150.025 42.9564 146.751 49.8359 145.918 51.8977C146.345 52.0873 146.789 52.3036 147.259 52.552C147.715 52.795 147.886 53.3612 147.646 53.8152L147.627 53.8179ZM141.012 96.5187C141.236 97.2612 141.194 98.0437 140.892 98.7193C140.574 99.4324 139.984 99.9639 139.273 100.178C139.038 100.25 138.795 100.284 138.552 100.284C138.058 100.284 137.561 100.14 137.121 99.8624C136.493 99.4671 136.026 98.8422 135.802 98.0997C135.321 96.5187 136.101 94.8763 137.537 94.441C138.974 94.0083 140.534 94.9377 141.012 96.5214V96.5187ZM134.255 91.351C134.309 90.9291 134.605 90.5579 135.03 90.3816C135.257 90.2881 135.468 90.2668 135.663 90.2561C135.761 90.2507 135.922 90.2454 136.103 90.2748C136.523 90.2908 136.918 90.4457 137.217 90.7128C137.457 90.9291 137.529 91.1774 137.548 91.3484C137.564 91.5086 137.551 91.741 137.399 91.9893C137.268 92.203 136.998 92.4861 136.464 92.6116C136.272 92.657 136.074 92.681 135.879 92.681C135.548 92.681 135.222 92.6142 134.926 92.4861C134.859 92.4567 134.637 92.3632 134.466 92.1389C134.293 91.9145 134.218 91.6341 134.255 91.351ZM126.035 55.7434C119.161 59.1992 115.897 64.5164 114.733 66.8506C114.418 67.4809 113.614 67.6811 113.04 67.2752C111.811 66.4073 109.843 64.7515 108.257 62.1876C105.418 57.6048 107.156 49.2697 114.319 47.4323C121.498 45.5896 125.306 51.6573 126.558 54.1998C126.839 54.7713 126.604 55.4576 126.035 55.7434ZM152.691 53.9407C153.412 52.1994 155.156 49.3365 159.191 47.5018C166.167 44.3317 171.89 48.5513 173.113 53.5508C174.344 58.5849 169.537 63.5016 167.101 65.6087C166.402 66.215 165.341 66.1375 164.741 65.4351C160.195 60.1019 155.564 57.2122 153.43 56.0558C152.677 55.6472 152.362 54.7339 152.688 53.9407H152.691ZM152.987 68.8215C153.353 69.1874 153.353 69.7776 152.987 70.1435C152.806 70.3251 152.565 70.4186 152.325 70.4186C152.084 70.4186 151.847 70.3277 151.665 70.1435C150.445 68.923 149.243 68.3461 148.095 68.4289C146.431 68.5491 145.314 70.0233 145.304 70.0367C144.997 70.4479 144.412 70.5387 143.998 70.2316C143.584 69.9272 143.493 69.345 143.797 68.931C143.862 68.8429 145.411 66.7624 147.937 66.5648C149.657 66.434 151.358 67.1897 152.99 68.8215H152.987Z" fill="#FCFCFD"/>
<path d="M100.474 133.948C100.68 133.16 100.613 132.5 100.271 131.934C99.5582 130.751 97.8757 130.324 97.857 130.321C97.6113 130.262 97.4003 130.11 97.2721 129.894C97.1412 129.68 97.1039 129.421 97.1679 129.178C97.5766 127.584 97.4751 126.366 96.8608 125.559C95.9875 124.408 94.2783 124.36 94.2596 124.36C93.9685 124.355 93.6934 124.211 93.5198 123.976C93.3489 123.741 93.2928 123.436 93.3783 123.156C93.64 122.277 93.9338 120.242 93.178 119.558C91.9041 118.41 89.9545 118.733 89.4044 118.856C85.2489 122.037 83.975 123.909 84.1272 129.095C84.1699 130.561 84.8216 135.63 91.3646 139.236C95.5175 141.524 100.616 140.058 102.549 139.356C101.988 137.836 101.339 136.322 100.6 134.842C100.549 134.741 100.522 134.634 100.509 134.53C100.439 134.351 100.418 134.151 100.472 133.95L100.474 133.948Z" fill="#FCFCFD"/>
<path d="M88.6707 117.12C88.6921 117.112 88.7081 117.101 88.7295 117.096C88.7348 117.096 88.7455 117.091 88.7589 117.088C89.1221 116.987 92.2494 116.201 94.4287 118.17C95.7132 119.331 95.6198 121.382 95.4061 122.643C96.2847 122.846 97.4919 123.316 98.3331 124.411C99.1877 125.525 99.4655 126.999 99.1557 128.793C99.9702 129.13 101.161 129.795 101.869 130.967C102.433 131.902 102.585 132.97 102.339 134.143C103.223 135.921 103.99 137.748 104.62 139.578C105.45 141.986 105.87 143.888 106.073 145.012C112.455 143.263 123.037 144.572 126.703 145.111C124.78 133.36 120.518 125.543 117.223 121.009C113.895 116.428 110.88 114.212 110.292 113.801C99.3773 110.633 86.139 111.199 80.2021 111.683C83.3936 113.392 86.0535 115.149 88.5479 117.168C88.5559 117.166 88.5639 117.16 88.5693 117.158C88.6013 117.141 88.636 117.131 88.6681 117.117L88.6707 117.12Z" fill="#98A2B3"/>
<path d="M147.312 90.0051C146.626 89.8208 145.947 89.5217 145.306 89.1238C142.652 87.4733 141.092 84.4101 141.325 81.3095C141.333 80.6552 141.407 80.0062 141.549 79.3786C141.626 79.0341 141.725 78.6976 141.843 78.3665C140.176 79.7819 139.113 81.889 139.113 84.2419C139.113 88.4909 142.569 91.944 146.815 91.944C149.147 91.944 151.238 90.9024 152.653 89.26C151.534 89.9143 150.319 90.2588 149.101 90.2588C148.498 90.2588 147.897 90.176 147.309 90.0051H147.312Z" fill="#FCFCFD"/>
<path d="M137.592 97.5576C137.685 97.8647 137.878 98.1291 138.121 98.2814C138.238 98.3561 138.476 98.4683 138.735 98.3882C138.996 98.3081 139.13 98.0837 139.186 97.9555C139.304 97.6938 139.317 97.368 139.224 97.0609C139.071 96.5561 138.657 96.2009 138.262 96.2009C138.201 96.2009 138.139 96.2089 138.078 96.2276C137.634 96.3612 137.41 96.9701 137.589 97.5549L137.592 97.5576Z" fill="#C1272D"/>
<path d="M136.525 33.155C136.84 33.2058 137.11 33.4141 137.236 33.7105L139.343 38.6298L141.45 33.7105C141.576 33.4167 141.845 33.2058 142.16 33.155C149.24 32.0147 154.379 26.7455 154.379 20.6271C154.379 13.5926 147.635 7.87207 139.346 7.87207C131.056 7.87207 124.312 13.5953 124.312 20.6271C124.312 26.7455 129.451 32.0147 136.531 33.155H136.525ZM141.437 28.4494C141.338 28.7111 141.194 28.9381 141.004 29.133C140.814 29.328 140.585 29.4802 140.32 29.5897C140.053 29.6992 139.759 29.7526 139.434 29.7526C139.108 29.7526 138.809 29.6992 138.539 29.5897C138.267 29.4802 138.04 29.328 137.855 29.133C137.671 28.9381 137.527 28.7111 137.423 28.4494C137.319 28.1876 137.268 27.9072 137.268 27.6028C137.268 27.2983 137.316 27.0339 137.415 26.7722C137.513 26.5105 137.655 26.2861 137.847 26.0965C138.037 25.9069 138.261 25.7547 138.523 25.6398C138.785 25.525 139.076 25.4689 139.402 25.4689C139.727 25.4689 140.043 25.525 140.312 25.6398C140.585 25.7547 140.812 25.9069 140.996 26.0965C141.18 26.2861 141.324 26.5105 141.429 26.7722C141.533 27.0339 141.584 27.309 141.584 27.6028C141.584 27.8965 141.535 28.1876 141.437 28.4494ZM137.719 12.105H141.081C141.624 12.105 142.054 12.5617 142.024 13.1039L141.437 23.2336C141.407 23.733 140.993 24.1229 140.494 24.1229H138.184C137.679 24.1229 137.265 23.7277 137.241 23.2229L136.774 13.0932C136.75 12.5564 137.177 12.105 137.716 12.105H137.719Z" fill="#EFD622"/>
<path d="M143.374 79.7897C143.259 80.2971 143.197 80.8232 143.195 81.3547C143.195 81.3761 143.195 81.4001 143.192 81.4215C143.152 81.9262 143.176 82.4283 143.253 82.9224C143.285 82.5725 143.339 82.22 143.424 81.8675C144.217 78.62 147.067 76.5208 149.815 77.1431C148.894 76.7532 147.882 76.5369 146.819 76.5369C146.218 76.5369 145.633 76.609 145.072 76.7398C144.647 77.1938 144.247 77.7253 143.881 78.3289C143.659 78.7909 143.488 79.285 143.374 79.7924V79.7897Z" fill="#FCFCFD"/>
<path d="M152.835 79.4373C152.835 79.4373 152.841 79.4453 152.841 79.4479C153.618 80.7913 153.887 82.5432 153.455 84.3192C153.102 85.7667 152.339 86.9872 151.358 87.8391C151.743 87.6495 152.114 87.4118 152.467 87.126C153.404 86.3702 154.112 85.3687 154.52 84.2711C154.52 84.2604 154.52 84.2524 154.52 84.2417C154.52 82.4257 153.887 80.7566 152.833 79.4373H152.835Z" fill="#FCFCFD"/>
<path d="M149.131 74.9532C150.923 75.3992 152.517 76.3526 153.751 77.6532C152.651 75.944 150.91 74.8544 149.131 74.9532Z" fill="#FCFCFD"/>
<path d="M126.794 90.0052C126.108 89.821 125.429 89.5218 124.788 89.1239C122.134 87.4735 120.574 84.4102 120.806 81.3096C120.814 80.6553 120.889 80.0064 121.031 79.3788C121.18 78.7164 121.405 78.0755 121.698 77.4746C121.712 77.4506 121.725 77.4238 121.738 77.3998C121.76 77.3651 121.781 77.3304 121.803 77.2957C119.217 78.5402 117.431 81.1868 117.431 84.242C117.431 88.491 120.886 91.9441 125.133 91.9441C127.058 91.9441 128.821 91.2311 130.175 90.0586C129.652 90.1868 129.117 90.2563 128.586 90.2563C127.982 90.2563 127.381 90.1735 126.794 90.0026V90.0052Z" fill="#FCFCFD"/>
<path d="M125.434 104.798C125.381 104.896 125.311 104.979 125.234 105.049C126.639 106.248 129.446 107.167 130.546 107.45C130.81 107.516 131.032 107.698 131.152 107.941C131.272 108.187 131.28 108.47 131.173 108.721C131.155 108.766 129.243 113.36 130.987 116.578C131.852 118.178 133.526 119.208 135.965 119.644C136.453 119.732 136.787 120.186 136.728 120.677C136.715 120.789 135.414 131.878 140.04 137.406C141.616 139.292 143.744 140.32 146.364 140.464C147.729 140.541 149.705 140.312 150.653 139.804C155.052 137.444 157.656 135.101 158.823 129.504C162.318 112.705 158.518 109.172 153.185 106.301C153.027 106.216 152.904 106.093 152.822 105.949C152.619 106.21 151.177 108.123 150.461 110.994C150.186 112.099 150.103 113.424 150.017 114.826C149.913 116.514 149.796 118.415 149.323 120.429L150.934 125.706C151.083 126.2 150.805 126.724 150.311 126.873C149.817 127.023 149.296 126.745 149.144 126.251L147.459 120.728C147.408 120.565 147.406 120.394 147.446 120.229C147.929 118.29 148.041 116.468 148.151 114.708C148.244 113.218 148.33 111.811 148.647 110.54C149.395 107.543 150.819 105.495 151.267 104.899C151.628 103.438 151.604 102.295 151.201 101.67C151.059 101.449 150.787 101.142 150.079 101.021C147.958 100.658 146.524 102.175 145.258 103.508C144.834 103.956 144.431 104.381 144.025 104.704C142.924 105.577 140.339 104.795 139.744 104.504C136.651 103.006 130.714 100.546 127.953 100.322C127.774 100.308 127.6 100.3 127.429 100.3C125.987 100.3 124.855 100.813 124.347 101.713C124.131 102.098 124.054 102.525 124.096 102.968C124.411 103.155 124.729 103.342 125.058 103.521C125.512 103.767 125.68 104.333 125.434 104.787V104.798Z" fill="#FCFCFD"/>
<path d="M108.583 108.98C102.94 106.916 87.1913 106.181 80.2637 105.954C82.0744 107.327 83.7088 108.884 84.3711 109.533C91.2907 109.22 101.805 109.362 110.963 112.051C111.048 112.075 111.131 112.113 111.206 112.161C111.35 112.254 114.782 114.492 118.673 119.82C121.194 123.273 124.257 128.556 126.498 135.924C125.045 130.855 122.772 125.607 119.941 120.902C116.189 114.666 111.943 110.208 108.583 108.977V108.98Z" fill="#98A2B3"/>
<path d="M130.84 87.8391C131.224 87.6495 131.596 87.4118 131.948 87.1261C132.119 86.9899 132.279 86.843 132.434 86.6881C132.643 86.0685 132.773 85.4169 132.819 84.7385C132.429 86.0017 131.724 87.0673 130.84 87.8365V87.8391Z" fill="#FCFCFD"/>
<path d="M122.905 81.8703C122.82 82.2229 122.766 82.5754 122.734 82.9252C123.028 84.8 124.131 86.5173 125.776 87.5374C126.262 87.8392 126.772 88.0636 127.296 88.2051C128.463 88.5389 129.702 88.4027 130.842 87.8392C131.726 87.0701 132.431 86.0045 132.821 84.7413C132.832 84.5757 132.84 84.4101 132.84 84.2419C132.84 80.9703 130.789 78.1715 127.907 77.0552C125.648 77.2662 123.568 79.1703 122.911 81.8703H122.905Z" fill="#1D2939"/>
<path d="M133.297 221.483C131.601 222.063 129.798 222.204 127.902 222.354C127.034 222.421 126.137 222.49 125.234 222.608C124.465 222.707 123.698 222.771 122.967 222.8C122.414 222.816 121.866 222.816 121.343 222.795C120.713 222.768 120.104 222.717 119.548 222.642C116.335 222.156 113.08 221.446 111.659 218.631C109.955 214.711 111.2 210.2 114.624 207.89C115.206 207.537 115.841 207.26 116.514 207.057C116.536 207.051 116.56 207.043 116.581 207.035C117.219 206.792 117.895 206.6 118.59 206.466C119.276 206.333 119.978 206.261 120.673 206.245C120.697 206.245 120.721 206.245 120.745 206.239C121.394 206.175 122.083 206.133 122.849 206.106C123.474 206.084 124.147 206.074 124.97 206.074C125.485 206.074 125.904 205.655 125.904 205.139C125.904 204.624 125.485 204.204 124.97 204.204C124.735 204.204 124.516 204.204 124.302 204.204C124.297 204.247 124.291 204.287 124.286 204.33C124.222 204.797 123.821 205.139 123.362 205.139C123.319 205.139 123.276 205.139 123.234 205.131C122.78 205.07 122.449 204.693 122.427 204.252C121.776 204.279 121.172 204.319 120.598 204.375C119.81 204.394 119.017 204.479 118.24 204.629C117.452 204.781 116.683 204.998 115.951 205.275C115.131 205.524 114.354 205.868 113.641 206.301C113.63 206.309 113.617 206.317 113.606 206.322C109.413 209.137 107.88 214.636 109.963 219.398C109.969 219.411 109.977 219.427 109.985 219.44C111.801 223.072 115.735 223.948 119.295 224.488C119.922 224.571 120.587 224.627 121.276 224.656C121.586 224.667 121.904 224.675 122.227 224.675C122.494 224.675 122.766 224.669 123.041 224.661C123.837 224.629 124.657 224.56 125.48 224.456C126.337 224.346 127.21 224.28 128.057 224.213C130.271 224.042 132.557 223.86 134.734 222.934C134.146 222.498 133.671 222.012 133.307 221.481L133.297 221.483Z" fill="#1D2939"/>
<path d="M124.297 204.207C124.892 199.774 124.919 196.612 124.387 193.666C124.289 192.838 124.187 192.01 124.08 191.188C123.971 190.336 123.856 189.497 123.741 188.706L123.349 185.865C123.02 183.491 122.75 181.06 122.489 178.71C122.23 176.376 121.963 173.965 121.631 171.566C121.53 170.522 121.444 169.507 121.372 168.661C121.292 167.576 121.199 166.489 121.108 165.402C120.587 159.255 120.05 152.899 121.658 146.922C121.706 146.743 121.698 146.561 121.645 146.398C121.095 146.345 120.518 146.294 119.928 146.249C119.898 146.307 119.871 146.369 119.853 146.436C118.16 152.73 118.71 159.252 119.244 165.56C119.335 166.642 119.425 167.721 119.508 168.808C119.58 169.676 119.668 170.704 119.773 171.764C119.773 171.777 119.775 171.788 119.778 171.801C120.106 174.184 120.374 176.59 120.63 178.916C120.892 181.279 121.164 183.72 121.495 186.121L121.89 188.968C122.005 189.759 122.117 190.584 122.227 191.428C122.334 192.253 122.435 193.081 122.534 193.914C122.534 193.933 122.539 193.952 122.542 193.973C123.047 196.75 123.012 199.774 122.427 204.081C122.419 204.14 122.419 204.196 122.422 204.255C122.539 204.25 122.657 204.244 122.78 204.239C123.247 204.223 123.741 204.212 124.297 204.21V204.207Z" fill="#1D2939"/>
<path d="M123.228 205.131C123.271 205.136 123.314 205.139 123.357 205.139C123.816 205.139 124.219 204.8 124.281 204.33C124.286 204.287 124.291 204.247 124.297 204.204C123.741 204.21 123.247 204.218 122.78 204.234C122.657 204.239 122.539 204.244 122.422 204.25C122.443 204.69 122.774 205.067 123.228 205.128V205.131Z" fill="#1D2939"/>
<path d="M88.7287 117.096C88.7073 117.101 88.6886 117.112 88.6699 117.12C88.6993 117.109 88.7287 117.096 88.7581 117.088C88.7447 117.091 88.734 117.096 88.7287 117.096Z" fill="#1D2939"/>
<path d="M101.874 130.97C101.169 129.797 99.9777 129.135 99.1605 128.796C99.4676 126.999 99.1925 125.527 98.3379 124.413C97.4967 123.319 96.2895 122.846 95.4109 122.646C95.6245 121.385 95.718 119.334 94.4334 118.172C92.2515 116.204 89.1242 116.989 88.7637 117.091C89.1162 117 89.5034 117.123 89.7385 117.43C90.0509 117.841 89.9708 118.426 89.5595 118.741C89.5088 118.781 89.458 118.818 89.4073 118.859C89.9574 118.736 91.907 118.413 93.1809 119.561C93.9394 120.245 93.6429 122.282 93.3812 123.158C93.2957 123.439 93.3518 123.74 93.5228 123.978C93.6937 124.216 93.9687 124.357 94.2625 124.363C94.2785 124.363 95.9878 124.411 96.8637 125.562C97.4753 126.368 97.5795 127.586 97.1708 129.181C97.1094 129.424 97.1468 129.683 97.275 129.896C97.4059 130.11 97.6168 130.265 97.8599 130.324C97.8759 130.326 99.5611 130.754 100.274 131.937C100.616 132.503 100.683 133.162 100.477 133.95C100.426 134.151 100.445 134.351 100.514 134.53C100.472 134.151 100.661 133.769 101.022 133.59C101.484 133.357 102.045 133.547 102.277 134.006C102.301 134.054 102.323 134.103 102.347 134.151C102.595 132.976 102.44 131.907 101.877 130.975L101.874 130.97Z" fill="#1D2939"/>
<path d="M88.572 117.16C88.572 117.16 88.5553 117.166 88.5498 117.171C88.5581 117.169 88.5637 117.163 88.572 117.157V117.16Z" fill="#1D2939"/>
<path d="M102.552 139.353C100.619 140.058 95.5207 141.522 91.3678 139.233C84.8248 135.628 84.1731 130.559 84.1304 129.093C83.9755 123.906 85.2521 122.034 89.4076 118.853C89.3141 118.875 89.258 118.888 89.2554 118.891C89.1619 118.917 89.0657 118.925 88.9723 118.923C88.6331 119.217 88.123 119.235 87.7651 118.939C87.5248 118.739 87.2818 118.544 87.0361 118.349C83.5482 121.244 82.1007 123.746 82.2609 129.146C82.3117 130.863 83.0541 136.784 90.4652 140.867C92.4628 141.968 94.602 142.342 96.5836 142.342C99.3824 142.342 101.858 141.599 103.164 141.121C103.068 140.819 102.966 140.51 102.857 140.186C102.761 139.909 102.657 139.628 102.552 139.351V139.353Z" fill="#1D2939"/>
<path d="M89.7358 117.427C89.5008 117.12 89.1136 116.997 88.761 117.088C88.7317 117.096 88.7023 117.109 88.6729 117.12C88.6382 117.133 88.6061 117.144 88.5741 117.16C88.5661 117.163 88.5607 117.168 88.5527 117.173C88.6863 117.283 88.8225 117.39 88.956 117.499C89.3539 117.828 89.41 118.418 89.0815 118.816C89.0495 118.856 89.0094 118.891 88.972 118.923C89.0655 118.923 89.159 118.917 89.2551 118.891C89.2578 118.891 89.3165 118.875 89.4073 118.853C89.4581 118.813 89.5088 118.776 89.5596 118.736C89.9708 118.423 90.051 117.836 89.7385 117.424L89.7358 117.427Z" fill="#1D2939"/>
<path d="M112.973 77.063C112.968 77.0336 112.957 77.0042 112.946 76.9749C112.954 77.0042 112.965 77.0336 112.973 77.063Z" fill="#1D2939"/>
<path d="M122.321 101.817C117.503 98.3748 114.44 93.5463 113.214 87.4092C112.146 82.0652 112.934 77.6453 112.974 77.4316C112.95 77.5491 112.901 77.6667 112.829 77.7735C112.648 78.0379 112.357 78.1794 112.058 78.1794C111.876 78.1794 111.692 78.126 111.529 78.0138C111.486 77.9845 111.315 77.8643 111.043 77.6613C110.837 79.1141 110.444 83.0346 111.366 87.7056C112.354 92.7184 115.097 99.4751 122.446 104.159C122.182 103.372 122.137 102.57 122.318 101.815L122.321 101.817Z" fill="#1D2939"/>
<path d="M112.981 77.3728C112.981 77.3915 112.981 77.4102 112.976 77.4289C112.976 77.4262 112.976 77.4209 112.976 77.4209C112.978 77.4048 112.976 77.3888 112.981 77.3728Z" fill="#1D2939"/>
<path d="M112.621 76.5024C112.658 76.5291 112.693 76.5585 112.725 76.5906C112.693 76.5585 112.658 76.5318 112.621 76.5024Z" fill="#1D2939"/>
<path d="M134.555 52.4987C134.163 52.6616 133.725 52.5361 133.471 52.2209C132.472 52.715 131.927 53.1503 131.884 53.1877C131.484 53.5135 131.425 54.1037 131.754 54.5043C131.938 54.7286 132.208 54.8462 132.477 54.8462C132.686 54.8462 132.894 54.7767 133.07 54.6352C133.089 54.6192 134.95 53.1236 138.412 52.7123C140.949 52.4132 142.871 52.3518 146.365 54.2105C146.821 54.4536 147.388 54.28 147.628 53.8233C147.871 53.3666 147.697 52.8004 147.241 52.5601C146.773 52.3117 146.327 52.0954 145.9 51.9058C145.753 52.269 145.681 52.4853 145.676 52.5013C145.518 52.9927 144.992 53.2625 144.501 53.1049C144.009 52.9473 143.739 52.4212 143.894 51.9298C143.913 51.8711 143.996 51.6227 144.145 51.2381C141.87 50.5277 140.107 50.6292 138.185 50.8589C137.001 51.0004 135.979 51.2541 135.116 51.5479C135.156 51.9458 134.94 52.3438 134.55 52.504L134.555 52.4987Z" fill="#1D2939"/>
<path d="M134.058 87.6947C134.733 86.9522 135.273 86.095 135.649 85.1763H134.659C134.573 86.0549 134.365 86.9015 134.058 87.6947Z" fill="#1D2939"/>
<path d="M127.57 74.9853C127.862 74.9426 128.155 74.9293 128.449 74.9533C128.492 74.956 128.537 74.956 128.58 74.9533C131.125 74.7931 133.614 77.0738 134.244 80.1343C134.341 80.6311 134.389 81.1412 134.386 81.6539C134.386 81.6753 134.386 81.6967 134.386 81.7207C134.386 81.7554 134.386 81.7901 134.389 81.8249C134.514 82.3056 134.602 82.8023 134.653 83.3097H136.167C136.255 82.7542 136.287 82.1934 136.253 81.6326C136.253 81.0076 136.194 80.3827 136.074 79.7685C135.249 75.7678 132.012 72.9022 128.524 73.0865C127.816 73.0384 127.111 73.1186 126.43 73.3269C125.461 73.6233 124.625 74.1387 123.917 74.7503C124.312 74.6996 124.716 74.6702 125.127 74.6702C125.971 74.6702 126.785 74.7797 127.565 74.9853H127.57Z" fill="#1D2939"/>
<path d="M130.84 87.8393C129.6 88.9156 128.017 89.407 126.47 89.0304C124 88.4269 122.467 85.8096 122.732 82.9253C122.654 82.4313 122.63 81.9292 122.67 81.4244C122.67 81.4031 122.673 81.379 122.673 81.3577C122.675 80.8262 122.737 80.3001 122.852 79.7927C122.967 79.2853 123.137 78.7939 123.359 78.3292C123.778 77.6401 124.243 77.0419 124.737 76.5479C123.69 76.6013 122.697 76.863 121.802 77.2956C121.781 77.3303 121.759 77.3651 121.738 77.3998C121.725 77.4238 121.711 77.4479 121.698 77.4746C121.404 78.0781 121.18 78.7191 121.03 79.3787C120.889 80.0063 120.814 80.6553 120.806 81.3096C120.574 84.4102 122.133 87.4761 124.788 89.1239C125.429 89.5218 126.107 89.8183 126.794 90.0052C127.384 90.1735 127.985 90.2589 128.586 90.2589C129.117 90.2589 129.648 90.1895 130.175 90.0613C131.203 89.1693 131.993 88.0102 132.437 86.6909C132.282 86.8432 132.121 86.9901 131.951 87.1289C131.598 87.4147 131.224 87.6524 130.842 87.842L130.84 87.8393Z" fill="#1D2939"/>
<path d="M127.296 88.2049C126.773 88.0634 126.26 87.839 125.777 87.5372C124.131 86.5144 123.031 84.7972 122.735 82.925C122.47 85.8093 124.001 88.4266 126.474 89.0301C128.02 89.4067 129.604 88.918 130.843 87.839C129.702 88.4025 128.463 88.5387 127.296 88.2049Z" fill="#1D2939"/>
<path d="M143.424 81.8701C143.338 82.2227 143.285 82.5752 143.253 82.9251C143.547 84.7972 144.65 86.5171 146.295 87.5372C146.781 87.839 147.291 88.0634 147.814 88.2049C148.981 88.5387 150.221 88.4025 151.361 87.839C152.341 86.9871 153.102 85.7666 153.457 84.3191C153.89 82.5432 153.62 80.7912 152.843 79.4479C152.843 79.4452 152.838 79.4399 152.838 79.4372C152.042 78.441 151.006 77.6479 149.817 77.1431C147.069 76.5235 144.22 78.62 143.427 81.8675L143.424 81.8701Z" fill="#1D2939"/>
<path d="M156.393 84.2417C156.393 84.3619 156.387 84.4821 156.385 84.5996C156.526 84.1669 156.63 83.7263 156.7 83.2803L156.353 83.3604C156.379 83.6488 156.395 83.9426 156.395 84.239L156.393 84.2417Z" fill="#1D2939"/>
<path d="M152.469 87.1259C152.117 87.4116 151.743 87.6493 151.361 87.8389C150.122 88.9152 148.538 89.4066 146.992 89.03C144.521 88.4265 142.988 85.8092 143.253 82.925C143.175 82.4309 143.151 81.9288 143.191 81.4241C143.191 81.4027 143.194 81.3787 143.194 81.3573C143.197 80.8258 143.258 80.2997 143.373 79.7923C143.488 79.2849 143.659 78.7935 143.88 78.3288C144.246 77.7279 144.647 77.1964 145.071 76.7397C143.862 77.0202 142.761 77.589 141.843 78.3662C141.725 78.6973 141.626 79.0338 141.549 79.3783C141.407 80.0059 141.333 80.6549 141.325 81.3092C141.092 84.4098 142.652 87.4757 145.306 89.1235C145.947 89.5214 146.626 89.8179 147.312 90.0048C147.902 90.1731 148.503 90.2585 149.104 90.2585C150.319 90.2585 151.537 89.9167 152.656 89.2597C153.812 87.9164 154.515 86.1751 154.523 84.2709C154.114 85.3686 153.407 86.3727 152.469 87.1259Z" fill="#1D2939"/>
<path d="M149.131 74.9533C150.909 74.8545 152.65 75.9441 153.751 77.6533C154.779 78.7349 155.559 80.0569 155.994 81.5257L156.769 81.3441C156.753 80.8153 156.699 80.2865 156.595 79.7658C155.77 75.7652 152.525 72.8996 149.045 73.0838C148.337 73.0358 147.632 73.1159 146.951 73.3242C145.816 73.6687 144.863 74.3203 144.083 75.0681C144.948 74.8091 145.864 74.6702 146.812 74.6702C147.611 74.6702 148.385 74.769 149.125 74.9533H149.131Z" fill="#1D2939"/>
<path d="M147.814 88.2049C147.29 88.0634 146.777 87.839 146.294 87.5372C144.649 86.5144 143.549 84.7972 143.252 82.925C142.988 85.8093 144.518 88.4266 146.991 89.0301C148.537 89.4067 150.121 88.918 151.36 87.839C150.22 88.4025 148.981 88.5387 147.814 88.2049Z" fill="#1D2939"/>
<path d="M134.929 92.4889C135.225 92.6171 135.551 92.6838 135.882 92.6838C136.077 92.6838 136.272 92.6625 136.467 92.6144C137.001 92.4889 137.271 92.2031 137.402 91.9921C137.554 91.7464 137.567 91.5114 137.551 91.3512C137.533 91.1803 137.46 90.9346 137.22 90.7156C136.924 90.4458 136.528 90.2909 136.106 90.2776C135.925 90.2482 135.765 90.2562 135.666 90.2589C135.471 90.2669 135.26 90.2883 135.033 90.3844C134.608 90.5607 134.312 90.9319 134.258 91.3539C134.224 91.6369 134.298 91.9174 134.469 92.1417C134.643 92.366 134.862 92.4595 134.929 92.4889Z" fill="#1D2939"/>
<path d="M112.991 77.2419C112.991 77.2847 112.986 77.3274 112.98 77.3728C112.986 77.3301 112.991 77.2873 112.991 77.2419Z" fill="#1D2939"/>
<path d="M112.882 76.812C112.869 76.7853 112.856 76.756 112.837 76.7292C112.853 76.756 112.866 76.7853 112.882 76.812Z" fill="#1D2939"/>
<path d="M112.58 76.4702C112.594 76.481 112.607 76.4945 112.621 76.5026C112.607 76.4945 112.599 76.481 112.585 76.4729C112.585 76.4729 112.58 76.4702 112.58 76.4675V76.4702Z" fill="#1D2939"/>
<path d="M112.236 76.3258C112.362 76.3498 112.476 76.4006 112.578 76.4673C112.364 76.3178 105.212 71.2836 101.671 63.058C99.9003 58.9426 100.117 52.063 103.96 46.874C103.97 46.8606 103.981 46.8446 103.989 46.8312C104.013 46.7938 106.497 43.0977 110.77 41.7864C113.753 40.8704 116.378 40.5712 119.279 40.8169C128.874 41.6315 133.286 51.8894 133.329 51.9936C133.363 52.0764 133.412 52.1511 133.468 52.2179C133.924 51.9936 134.474 51.7559 135.118 51.5396C135.11 51.4514 135.091 51.3606 135.054 51.2752C134.859 50.8105 130.175 39.8662 119.436 38.9555C116.285 38.6884 113.443 39.0116 110.22 39.9997C105.426 41.4712 102.696 45.3998 102.44 45.779C98.1911 51.5342 97.9695 59.1963 99.9511 63.7951C103.236 71.4225 109.28 76.3418 111.04 77.6611C111.09 77.3112 111.128 77.1029 111.136 77.0629C111.235 76.5555 111.726 76.2243 112.231 76.3231L112.236 76.3258Z" fill="#1D2939"/>
<path d="M112.058 78.1795C112.354 78.1795 112.648 78.0379 112.829 77.7735C112.901 77.6667 112.95 77.5519 112.974 77.4317C112.976 77.413 112.976 77.3943 112.979 77.3756C112.984 77.3329 112.99 77.2875 112.99 77.2448C112.99 77.2154 112.984 77.186 112.982 77.1566C112.979 77.1273 112.976 77.0952 112.971 77.0658C112.966 77.0365 112.955 77.0071 112.944 76.9777C112.936 76.951 112.928 76.9216 112.917 76.8949C112.907 76.8682 112.891 76.8442 112.877 76.8175C112.864 76.7908 112.851 76.7614 112.832 76.7347C112.816 76.7106 112.795 76.6866 112.776 76.6626C112.757 76.6385 112.741 76.6145 112.72 76.5931C112.688 76.5611 112.653 76.5344 112.616 76.505C112.602 76.4943 112.589 76.481 112.576 76.4729C112.576 76.4729 112.576 76.4729 112.573 76.4729C112.472 76.4062 112.357 76.3554 112.231 76.3314C111.724 76.2326 111.235 76.5637 111.136 77.0712C111.128 77.1086 111.088 77.3169 111.04 77.6694C111.31 77.8724 111.483 77.9925 111.526 78.0219C111.689 78.1341 111.873 78.1875 112.055 78.1875L112.058 78.1795Z" fill="#1D2939"/>
<path d="M134.555 52.4986C134.945 52.3357 135.161 51.9404 135.121 51.5425C134.478 51.7588 133.927 51.9965 133.471 52.2208C133.724 52.536 134.162 52.6615 134.555 52.4986Z" fill="#1D2939"/>
<path d="M114.319 47.435C107.157 49.2724 105.421 57.6048 108.257 62.1903C109.843 64.7541 111.812 66.4073 113.04 67.2779C113.614 67.6838 114.418 67.4835 114.733 66.8533C115.898 64.5218 119.161 59.2019 126.035 55.7461C126.604 55.4603 126.839 54.7739 126.559 54.2024C125.306 51.66 121.495 45.5949 114.319 47.435Z" fill="#FF7EFA"/>
<path d="M156.836 38.6887C148.562 41.4715 145.061 48.9146 144.15 51.2327C144.701 51.4036 145.283 51.6226 145.902 51.9004C146.736 49.8386 150.01 42.9564 157.431 40.462C160.305 39.4952 170.2 36.9982 176.818 45.4668C180.749 50.4983 180.455 55.917 179.512 59.5758C177.902 65.8464 172.988 71.9996 167.828 74.2082C167.412 74.3871 167.182 74.8412 167.286 75.2818C167.291 75.3059 167.631 76.7613 167.818 78.759L169.658 78.329C169.54 77.1806 169.383 76.2246 169.262 75.605C174.727 72.9343 179.622 66.6556 181.323 60.0405C182.367 55.9731 182.69 49.9454 178.289 44.3131C170.916 34.8777 160.003 37.6204 156.833 38.686L156.836 38.6887Z" fill="#1D2939"/>
<path d="M167.838 83.3419C167.315 88.312 165.993 92.3473 163.91 95.3384C161.688 98.5299 159.479 100.568 156.534 102.141L153.591 103.428C153.508 103.465 153.436 103.516 153.369 103.572C153.345 103.909 153.305 104.261 153.235 104.632C153.492 104.515 153.802 104.515 154.069 104.659C154.274 104.768 154.477 104.881 154.677 104.995L157.316 103.842C157.337 103.831 157.359 103.823 157.38 103.81C160.58 102.109 163.066 99.8251 165.446 96.4094C167.71 93.1565 169.142 88.8274 169.697 83.5396C169.817 82.4072 169.831 81.2749 169.791 80.2173L167.932 80.6526C167.953 81.5259 167.932 82.4393 167.836 83.3419H167.838Z" fill="#1D2939"/>
<path d="M144.503 53.0968C144.994 53.2543 145.52 52.9846 145.678 52.4932C145.683 52.4798 145.755 52.2635 145.902 51.8976C145.28 51.6199 144.7 51.4036 144.15 51.23C143.998 51.6146 143.918 51.8629 143.899 51.9217C143.742 52.4131 144.014 52.9392 144.505 53.0968H144.503Z" fill="#1D2939"/>
<path d="M153.433 56.056C155.566 57.2124 160.197 60.102 164.743 65.4353C165.344 66.1376 166.404 66.2151 167.104 65.6089C169.539 63.499 174.346 58.5851 173.115 53.5509C171.892 48.5515 166.169 44.3319 159.193 47.5019C155.158 49.3366 153.414 52.1969 152.693 53.9408C152.364 54.734 152.679 55.6474 153.435 56.056H153.433Z" fill="#FF7EFA"/>
<path d="M134.28 83.3071C134.379 82.8183 134.419 82.3189 134.397 81.8222C133.527 78.4919 130.901 75.864 127.574 74.9854C127.376 75.0147 127.179 75.0548 126.984 75.1135C126.209 75.3486 125.445 75.8426 124.74 76.5504C124.871 76.545 125.002 76.5397 125.135 76.5397C126.113 76.5397 127.045 76.7239 127.905 77.0578C128.391 77.0124 128.882 77.0444 129.371 77.1619C130.64 77.4717 131.665 78.313 132.322 79.4507C133.099 80.794 133.369 82.5459 132.936 84.3219C132.902 84.4661 132.862 84.605 132.819 84.7439C132.776 85.4222 132.643 86.0739 132.434 86.6934C132.99 86.146 133.441 85.5077 133.77 84.816V83.3097H134.277L134.28 83.3071Z" fill="#68D3FF"/>
<path d="M133.123 88.5815C132.215 89.3106 131.211 89.8046 130.175 90.0583C128.824 91.2307 127.061 91.9438 125.133 91.9438C120.884 91.9438 117.431 88.488 117.431 84.2417C117.431 81.1865 119.22 78.5399 121.803 77.2953C122.31 76.4728 123.01 75.5327 123.923 74.7476C119.215 75.3431 115.559 79.3731 115.559 84.2417C115.559 89.5189 119.853 93.8133 125.13 93.8133C129.192 93.8133 132.667 91.2708 134.055 87.6948C133.767 88.0126 133.455 88.3117 133.118 88.5815H133.123Z" fill="#68D3FF"/>
<path d="M132.837 84.2419C132.837 84.4101 132.829 84.5757 132.818 84.7413C132.861 84.6024 132.901 84.4635 132.936 84.3193C133.368 82.5433 133.099 80.7914 132.322 79.448C131.662 78.313 130.639 77.4691 129.37 77.1593C128.882 77.0391 128.388 77.0098 127.904 77.0552C130.786 78.1715 132.837 80.9703 132.837 84.2419Z" fill="#68D3FF"/>
<path d="M134.279 83.3071H134.661C134.61 82.7997 134.522 82.303 134.397 81.8223C134.421 82.319 134.381 82.8184 134.279 83.3071Z" fill="#68D3FF"/>
<path d="M121.802 77.2954C122.699 76.8627 123.69 76.601 124.737 76.5476C125.442 75.8426 126.206 75.3485 126.98 75.1108C127.175 75.0521 127.37 75.012 127.57 74.9826C126.791 74.777 125.973 74.6675 125.132 74.6675C124.723 74.6675 124.32 74.6969 123.922 74.7476C123.009 75.5328 122.307 76.4728 121.802 77.2954Z" fill="#68D3FF"/>
<path d="M133.772 85.1764V84.8132C133.441 85.5049 132.99 86.1432 132.437 86.6907C131.994 88.0073 131.203 89.1664 130.175 90.061C131.211 89.8073 132.215 89.3159 133.123 88.5842C133.46 88.3118 133.772 88.0127 134.061 87.6975C134.368 86.9043 134.576 86.0578 134.661 85.1791H133.772V85.1764Z" fill="#68D3FF"/>
<path d="M153.642 88.5816C153.324 88.8379 152.996 89.0596 152.656 89.2599C151.244 90.9023 149.15 91.9439 146.818 91.9439C142.569 91.9439 139.116 88.4881 139.116 84.2418C139.116 81.8889 140.177 79.7818 141.846 78.3664C141.955 78.0619 142.078 77.7628 142.22 77.4717C142.233 77.4477 142.246 77.4236 142.26 77.3996C142.706 76.6598 143.312 75.8159 144.092 75.0681C140.428 76.1604 137.674 79.3919 137.295 83.307H138.184V85.1765H137.295C137.768 90.0184 141.859 93.8133 146.821 93.8133C151.783 93.8133 156.195 89.7112 156.385 84.5996C155.88 86.1352 154.932 87.5453 153.642 88.5816Z" fill="#68D3FF"/>
<path d="M149.131 74.9533C149.131 74.9533 149.109 74.9533 149.101 74.9533C149.059 74.9559 149.013 74.9533 148.97 74.9533C148.474 74.9132 147.98 74.9693 147.502 75.1135C146.658 75.3699 145.827 75.9334 145.071 76.7426C145.632 76.6117 146.217 76.5396 146.818 76.5396C147.881 76.5396 148.893 76.7559 149.814 77.1459C149.838 77.1512 149.865 77.1565 149.889 77.1619C151.155 77.4717 152.175 78.3076 152.835 79.4399C153.89 80.7592 154.523 82.4284 154.523 84.2444C154.523 84.2551 154.523 84.2631 154.523 84.2738C154.827 83.4539 154.969 82.5833 154.913 81.7207C154.913 81.6993 154.913 81.6779 154.913 81.6566C154.913 81.1438 154.867 80.6337 154.771 80.137C154.584 79.2263 154.226 78.385 153.756 77.656C152.522 76.358 150.928 75.4019 149.136 74.9559L149.131 74.9533Z" fill="#68D3FF"/>
<path d="M152.835 79.4374C152.175 78.3077 151.155 77.4691 149.889 77.1593C149.865 77.154 149.838 77.1487 149.814 77.1433C151.003 77.6481 152.039 78.4412 152.835 79.4374Z" fill="#68D3FF"/>
<path d="M142.22 77.4717C142.078 77.7601 141.955 78.0619 141.846 78.3663C142.762 77.5892 143.865 77.0203 145.075 76.7399C145.83 75.9307 146.661 75.3699 147.505 75.1108C147.983 74.9639 148.477 74.9105 148.974 74.9506C149.016 74.9532 149.062 74.9532 149.105 74.9506C149.115 74.9506 149.126 74.9506 149.134 74.9506C148.394 74.7663 147.62 74.6675 146.821 74.6675C145.873 74.6675 144.957 74.809 144.092 75.0654C143.312 75.8132 142.706 76.6598 142.26 77.3969C142.246 77.4209 142.233 77.4449 142.22 77.469V77.4717Z" fill="#68D3FF"/>
<path d="M156.349 83.3631L156.323 83.3685C156.25 83.3845 156.178 83.3925 156.109 83.3925C155.684 83.3925 155.3 83.1014 155.198 82.6714C155.081 82.1694 155.393 81.6673 155.895 81.5471L155.994 81.5231C155.559 80.0542 154.779 78.7322 153.751 77.6506C154.221 78.3797 154.576 79.221 154.766 80.1317C154.862 80.6284 154.91 81.1385 154.907 81.6512C154.907 81.6726 154.907 81.694 154.907 81.7154C154.963 82.578 154.822 83.4486 154.517 84.2685C154.509 86.1726 153.807 87.9166 152.65 89.2572C152.99 89.0596 153.318 88.8353 153.636 88.5789C154.926 87.54 155.874 86.1326 156.379 84.597C156.384 84.4768 156.387 84.3593 156.387 84.2391C156.387 83.9427 156.371 83.6489 156.344 83.3605L156.349 83.3631Z" fill="#68D3FF"/>
<path d="M137.292 83.3069H136.173C136.071 83.9452 135.895 84.5728 135.649 85.1763H137.292C137.262 84.8692 137.246 84.5567 137.246 84.2416C137.246 83.9265 137.262 83.614 137.292 83.3069Z" fill="#68D3FF"/>
<path d="M134.659 83.3069C134.689 83.614 134.705 83.9265 134.705 84.2416C134.705 84.5567 134.689 84.8692 134.659 85.1763H135.65C135.898 84.5728 136.075 83.9452 136.173 83.3069H134.659Z" fill="#68D3FF"/>
<path d="M133.772 83.3071V84.8134C134.002 84.33 134.173 83.8252 134.28 83.3071H133.772Z" fill="#68D3FF"/>
<path d="M133.772 84.8134V85.1766H134.662C134.691 84.8695 134.707 84.557 134.707 84.2419C134.707 83.9267 134.691 83.6143 134.662 83.3071H134.28C134.176 83.8252 134.002 84.33 133.772 84.8134Z" fill="#68D3FF"/>
<path d="M138.182 83.3071H137.292C137.263 83.6143 137.247 83.9267 137.247 84.2419C137.247 84.557 137.263 84.8695 137.292 85.1766H138.182V83.3071Z" fill="#68D3FF"/>
<path d="M170.775 79.9875C171.277 79.87 171.589 79.3679 171.472 78.8631C171.354 78.361 170.852 78.0486 170.347 78.1661L169.658 78.3263C169.717 78.9112 169.765 79.5495 169.792 80.2145L170.775 79.9848V79.9875Z" fill="#68D3FF"/>
<path d="M156.78 81.63C156.812 82.1828 156.78 82.7356 156.697 83.2831L167.933 80.6552C167.917 79.9929 167.874 79.3519 167.818 78.7617L156.769 81.3469C156.769 81.443 156.775 81.5365 156.775 81.6327L156.78 81.63Z" fill="#68D3FF"/>
<path d="M156.78 81.6298C156.78 81.5336 156.777 81.4401 156.774 81.344L156 81.5256C156.176 82.1158 156.294 82.7301 156.353 83.363L156.7 83.2829C156.783 82.7354 156.815 82.1826 156.783 81.6298H156.78Z" fill="#68D3FF"/>
<path d="M167.933 80.6526L169.792 80.2172C169.765 79.5496 169.72 78.914 169.658 78.3291L167.818 78.7591C167.874 79.3493 167.915 79.9902 167.933 80.6526Z" fill="#68D3FF"/>
<path d="M155.202 82.6713C155.303 83.1013 155.688 83.3924 156.112 83.3924C156.182 83.3924 156.254 83.3844 156.326 83.3684L156.353 83.363C156.294 82.7301 156.174 82.1158 156 81.5256L155.901 81.5497C155.399 81.6672 155.087 82.1693 155.204 82.674L155.202 82.6713Z" fill="#68D3FF"/>
<path d="M153.965 105.22C153.604 105.22 153.262 105.011 153.107 104.659C152.937 104.269 153.057 103.831 153.367 103.572C153.447 102.386 153.249 101.409 152.768 100.661C152.253 99.8598 151.452 99.3631 150.389 99.1815C147.283 98.6553 145.248 100.805 143.899 102.226C143.536 102.611 143.191 102.971 142.898 103.214C142.516 103.332 141.127 103.105 140.555 102.827C138.243 101.705 131.497 98.7381 128.1 98.4631C125.661 98.2654 123.648 99.1414 122.716 100.803C122.534 101.126 122.406 101.465 122.32 101.815C122.886 102.221 123.477 102.608 124.094 102.974C124.051 102.53 124.131 102.1 124.345 101.719C124.852 100.816 125.982 100.306 127.427 100.306C127.597 100.306 127.771 100.314 127.95 100.327C130.711 100.552 136.648 103.011 139.741 104.509C140.336 104.798 142.922 105.583 144.022 104.71C144.428 104.387 144.831 103.962 145.256 103.513C146.519 102.178 147.953 100.664 150.076 101.027C150.784 101.147 151.056 101.454 151.198 101.676C151.601 102.301 151.625 103.444 151.265 104.905C150.816 105.5 149.39 107.549 148.645 110.545C148.327 111.816 148.242 113.224 148.148 114.714C148.039 116.474 147.926 118.295 147.443 120.234C147.403 120.397 147.406 120.571 147.456 120.734L149.142 126.256C149.291 126.75 149.815 127.028 150.309 126.879C150.803 126.729 151.08 126.206 150.931 125.712L149.32 120.434C149.793 118.423 149.911 116.519 150.015 114.831C150.1 113.429 150.183 112.105 150.458 110.999C151.174 108.128 152.613 106.216 152.819 105.954C152.902 106.098 153.025 106.221 153.182 106.307C158.516 109.18 162.316 112.714 158.82 129.509C157.656 135.107 155.049 137.449 150.65 139.81C149.702 140.32 147.723 140.55 146.361 140.47C143.742 140.325 141.613 139.294 140.037 137.412C135.412 131.881 136.712 120.792 136.726 120.683C136.787 120.191 136.451 119.735 135.962 119.649C133.524 119.214 131.849 118.18 130.984 116.583C129.24 113.365 131.152 108.769 131.171 108.726C131.278 108.475 131.27 108.19 131.149 107.947C131.029 107.701 130.808 107.522 130.543 107.455C129.443 107.172 126.636 106.253 125.231 105.054C125.06 105.206 124.839 105.292 124.609 105.292C124.459 105.292 124.307 105.254 124.166 105.18C123.565 104.857 122.996 104.517 122.449 104.168C122.614 104.659 122.865 105.145 123.202 105.61C123.458 105.962 123.792 106.288 124.168 106.592C124.267 106.531 124.331 106.494 124.35 106.483C124.796 106.224 125.368 106.371 125.629 106.817C125.771 107.06 125.787 107.34 125.704 107.589C126.911 108.238 128.217 108.705 129.093 108.98C128.538 110.727 127.699 114.442 129.333 117.467C130.372 119.393 132.204 120.683 134.784 121.313C134.552 124.168 134.199 133.347 138.598 138.611C140.521 140.91 143.098 142.165 146.257 142.339C146.431 142.35 146.634 142.355 146.863 142.355C148.151 142.355 150.204 142.173 151.534 141.46C152.838 140.761 154.01 140.048 155.054 139.257C154.977 138.589 154.932 138.208 154.929 138.192C154.867 137.679 155.233 137.214 155.746 137.153C156.195 137.097 156.606 137.369 156.745 137.783C158.606 135.889 159.907 133.47 160.649 129.897C164.271 112.5 160.198 108.107 154.678 105.001L154.339 105.148C154.216 105.201 154.09 105.225 153.965 105.225V105.22Z" fill="#1D2939"/>
<path d="M124.612 105.286C124.839 105.286 125.06 105.201 125.234 105.049C125.028 104.872 124.852 104.691 124.716 104.504C124.35 103.999 124.144 103.478 124.094 102.976C123.477 102.61 122.889 102.221 122.32 101.817C122.139 102.573 122.184 103.374 122.449 104.162C122.996 104.512 123.568 104.848 124.166 105.174C124.307 105.252 124.46 105.286 124.609 105.286H124.612Z" fill="#1D2939"/>
<path d="M153.236 104.632C153.303 104.261 153.345 103.908 153.369 103.572C153.06 103.831 152.939 104.271 153.11 104.659C153.265 105.009 153.607 105.22 153.968 105.22C154.093 105.22 154.219 105.196 154.341 105.142L154.681 104.995C154.48 104.883 154.277 104.771 154.072 104.659C153.802 104.515 153.495 104.515 153.238 104.632H153.236Z" fill="#1D2939"/>
<path d="M121.001 145.773C121.322 145.859 121.554 146.102 121.647 146.396C125.082 146.724 127.608 147.149 127.67 147.157C127.964 147.207 128.265 147.114 128.479 146.903C128.693 146.692 128.794 146.396 128.751 146.099C128.642 145.343 128.522 144.604 128.391 143.877C128.126 144 127.841 144.069 127.544 144.08H127.485C126.97 144.08 126.551 143.663 126.551 143.145C126.551 142.627 126.97 142.211 127.485 142.211C127.608 142.208 127.686 142.141 127.731 142.088C127.803 142.002 127.833 141.89 127.817 141.781C127.518 139.887 127.069 137.919 126.497 135.924C124.257 128.556 121.193 123.273 118.672 119.82C114.781 114.492 111.349 112.254 111.205 112.161C111.13 112.113 111.048 112.075 110.962 112.051C101.805 109.362 91.2903 109.22 84.3706 109.533C84.5442 109.704 84.6564 109.816 84.6804 109.84C85.0436 110.208 85.0383 110.799 84.6697 111.162C84.3012 111.525 83.711 111.52 83.3478 111.151C83.3318 111.135 82.7148 110.51 81.7961 109.677C78.9092 109.872 77.0504 110.11 76.8154 110.142C76.4068 110.195 76.081 110.513 76.0142 110.919C75.9474 111.327 76.1584 111.728 76.5296 111.91C80.7599 113.958 84.0395 115.966 87.0386 118.348C87.4713 117.991 87.9333 117.625 88.43 117.248C88.4487 117.235 88.4701 117.224 88.4888 117.211C88.5101 117.197 88.5288 117.181 88.5529 117.168C86.0585 115.149 83.3985 113.392 80.2071 111.683C86.1439 111.199 99.3823 110.636 110.297 113.8C110.887 114.212 113.9 116.428 117.228 121.008C120.523 125.543 124.783 133.36 126.708 145.111C123.044 144.571 112.46 143.266 106.078 145.012C105.875 143.89 105.455 141.986 104.625 139.577C103.995 137.748 103.228 135.921 102.344 134.143C102.325 134.233 102.309 134.324 102.285 134.415C102.176 134.834 101.797 135.115 101.383 135.115C101.305 135.115 101.225 135.104 101.148 135.085C100.848 135.008 100.621 134.792 100.517 134.525C100.528 134.631 100.557 134.736 100.608 134.837C101.348 136.317 102 137.831 102.558 139.35C103.049 139.171 103.34 139.041 103.354 139.035C103.821 138.819 104.376 139.025 104.595 139.492C104.812 139.959 104.609 140.515 104.139 140.734C104.077 140.763 103.73 140.918 103.172 141.124C104.168 144.262 104.39 146.307 104.392 146.329C104.422 146.615 104.582 146.874 104.825 147.026C104.975 147.119 105.148 147.17 105.322 147.17C105.429 147.17 105.538 147.151 105.64 147.114C109.272 145.797 115.158 145.875 119.936 146.246C120.133 145.864 120.574 145.656 121.006 145.773H121.001Z" fill="#1D2939"/>
<path d="M121.001 145.773C120.568 145.656 120.127 145.864 119.93 146.246C120.523 146.291 121.097 146.342 121.647 146.396C121.553 146.102 121.318 145.861 121.001 145.773Z" fill="#1D2939"/>
<path d="M101.019 133.584C100.659 133.763 100.469 134.145 100.512 134.525C100.619 134.792 100.843 135.008 101.142 135.085C101.222 135.107 101.3 135.115 101.377 135.115C101.791 135.115 102.17 134.837 102.28 134.415C102.304 134.324 102.32 134.233 102.339 134.143C102.314 134.095 102.293 134.046 102.269 133.998C102.039 133.536 101.476 133.349 101.014 133.582L101.019 133.584Z" fill="#1D2939"/>
<path d="M88.5504 117.171C88.5291 117.184 88.5077 117.2 88.4863 117.214C88.5077 117.2 88.5291 117.187 88.5504 117.174V117.171Z" fill="#1D2939"/>
<path d="M88.9726 118.923C88.5774 118.912 88.2141 118.653 88.0993 118.253C87.9818 117.847 88.1527 117.433 88.4892 117.214C88.4705 117.227 88.4492 117.235 88.4305 117.251C87.9337 117.628 87.4717 117.993 87.0391 118.351C87.2821 118.546 87.5251 118.741 87.7681 118.942C88.126 119.238 88.6361 119.219 88.9753 118.926L88.9726 118.923Z" fill="#1D2939"/>
<path d="M104.588 139.495C104.371 139.027 103.816 138.822 103.346 139.038C103.332 139.043 103.041 139.174 102.55 139.353C102.651 139.631 102.758 139.911 102.854 140.189C102.966 140.512 103.065 140.822 103.161 141.124C103.72 140.918 104.067 140.763 104.128 140.734C104.596 140.518 104.801 139.962 104.585 139.492L104.588 139.495Z" fill="#1D2939"/>
<path d="M88.0966 118.252C88.2114 118.653 88.5746 118.912 88.9699 118.923C89.0073 118.891 89.0447 118.856 89.0794 118.816C89.4079 118.418 89.3518 117.828 88.9539 117.499C88.8203 117.39 88.6841 117.283 88.5506 117.173C88.5292 117.187 88.5079 117.2 88.4865 117.213C88.15 117.432 87.9791 117.849 88.0966 118.252Z" fill="#1D2939"/>
<path d="M80.2604 105.954C87.188 106.181 102.939 106.916 108.58 108.98C111.94 110.208 116.186 114.666 119.938 120.904C122.769 125.61 125.042 130.855 126.494 135.927C127.232 138.349 127.878 140.996 128.391 143.88C128.687 143.744 128.954 143.541 129.17 143.282C129.584 142.782 129.763 142.128 129.662 141.49C128.839 136.287 126.983 130.743 124.569 125.645C124.393 125.866 124.126 126 123.84 126C123.762 126 123.685 125.989 123.605 125.971C123.105 125.842 122.804 125.332 122.935 124.833L123.354 123.206C121.703 120.052 119.853 117.136 117.93 114.66C117.906 114.698 117.879 114.735 117.855 114.77C117.676 115.045 117.377 115.195 117.07 115.195C116.896 115.195 116.717 115.146 116.56 115.042C116.127 114.762 116.004 114.182 116.287 113.75C116.418 113.547 116.557 113.349 116.701 113.152C114.199 110.225 111.616 108.101 109.221 107.225C101.642 104.453 77.9529 104.013 76.9488 103.994C76.9434 103.994 76.9381 103.994 76.9327 103.994C76.5001 103.994 76.1262 104.29 76.0247 104.71C75.9232 105.134 76.1289 105.575 76.5241 105.767C78.2707 106.619 80.3859 108.398 81.7933 109.677C82.5785 109.624 83.4411 109.573 84.3678 109.533C83.7055 108.881 82.0711 107.327 80.2604 105.954Z" fill="#1D2939"/>
<path d="M83.3475 111.154C83.7107 111.522 84.301 111.525 84.6695 111.165C85.0381 110.801 85.0407 110.211 84.6802 109.843C84.6562 109.819 84.544 109.706 84.3704 109.536C83.4437 109.578 82.5837 109.626 81.7959 109.68C82.7146 110.516 83.3315 111.138 83.3475 111.154Z" fill="#1D2939"/>
<path d="M127.814 141.781C127.83 141.89 127.801 142.002 127.729 142.088C127.683 142.141 127.606 142.208 127.483 142.211C126.968 142.211 126.548 142.63 126.548 143.145C126.548 143.661 126.968 144.08 127.483 144.08H127.542C127.838 144.07 128.124 144 128.388 143.877C127.878 140.993 127.229 138.346 126.492 135.924C127.064 137.919 127.512 139.885 127.811 141.781H127.814Z" fill="#1D2939"/>
<path d="M125.298 108.091C125.5 107.973 125.637 107.789 125.706 107.583C125.156 107.289 124.63 106.956 124.17 106.587C123.249 107.148 119.184 109.741 116.706 113.151C117.117 113.632 117.526 114.137 117.932 114.66C120.37 111.007 125.247 108.12 125.298 108.091Z" fill="#1D2939"/>
<path d="M125.629 106.811C125.367 106.365 124.796 106.216 124.35 106.478C124.328 106.488 124.267 106.526 124.168 106.587C124.627 106.956 125.153 107.289 125.704 107.583C125.786 107.335 125.77 107.054 125.629 106.811Z" fill="#1D2939"/>
<path d="M116.565 115.042C116.722 115.144 116.899 115.195 117.075 115.195C117.379 115.195 117.681 115.045 117.86 114.77C117.884 114.733 117.911 114.695 117.935 114.66C117.529 114.137 117.12 113.635 116.709 113.151C116.565 113.349 116.426 113.547 116.295 113.75C116.012 114.182 116.135 114.762 116.567 115.042H116.565Z" fill="#1D2939"/>
<path d="M141.413 175.556C141.357 174.33 141.309 173.457 141.271 172.888C141.271 172.867 141.269 172.848 141.266 172.827C140.831 169.558 140.294 167.584 140.27 167.502C140.134 167.005 139.618 166.711 139.122 166.847C139.084 166.858 139.052 166.874 139.017 166.887C139.378 167.034 139.624 167.397 139.597 167.809C139.565 168.303 139.154 168.685 138.665 168.685C138.654 168.685 138.643 168.685 138.633 168.685C138.82 169.505 139.135 171.019 139.407 173.046C139.445 173.604 139.49 174.461 139.546 175.663C139.546 175.676 139.546 175.687 139.546 175.7C140.347 184.97 140.908 194.964 141.36 203.013C141.418 203.766 141.472 204.522 141.522 205.28C142.102 205.131 142.716 205.003 143.371 204.899C143.325 204.223 143.277 203.547 143.226 202.89C142.775 194.854 142.214 184.853 141.41 175.559L141.413 175.556Z" fill="#1D2939"/>
<path d="M156.463 153.526C156.511 154.132 156.556 154.741 156.599 155.353C156.855 163.955 157.544 172.982 158.762 183.752C158.837 184.433 158.912 185.13 158.992 185.838C159.243 188.084 159.504 190.344 159.774 192.56C160.802 201.018 161.857 205.74 162.56 208.215C163.214 210.523 163.342 212.902 162.931 215.098C162.431 217.752 161.379 219.694 159.801 220.866C156.425 223.377 145.43 224.803 138.81 222.821C137.17 222.33 135.089 221.398 134.489 219.75C133.394 216.746 133.751 213.637 135.471 211.223C138.366 207.158 143.94 206.381 148.103 206.456H148.119C148.63 206.456 149.046 206.047 149.054 205.537C149.062 205.021 148.651 204.594 148.136 204.586C146.357 204.557 144.781 204.674 143.379 204.899C143.387 205.013 143.395 205.126 143.403 205.238C143.435 205.753 143.045 206.197 142.53 206.231C142.508 206.231 142.49 206.231 142.468 206.231C141.98 206.231 141.568 205.852 141.536 205.358C141.536 205.331 141.534 205.307 141.531 205.28C137.506 206.319 135.228 208.338 133.949 210.136C131.898 213.015 131.444 216.847 132.734 220.388C132.875 220.773 133.065 221.139 133.3 221.483C133.562 221.395 133.818 221.296 134.075 221.184C134.547 220.978 135.097 221.192 135.306 221.665C135.511 222.138 135.298 222.688 134.825 222.896C134.793 222.909 134.761 222.923 134.729 222.936C135.645 223.614 136.828 224.175 138.278 224.611C140.532 225.286 143.376 225.599 146.314 225.599C152.072 225.599 158.19 224.397 160.92 222.367C162.885 220.904 164.183 218.575 164.771 215.445C165.236 212.967 165.094 210.291 164.362 207.705C163.679 205.297 162.648 200.674 161.633 192.336C161.363 190.127 161.101 187.873 160.853 185.635C160.776 184.928 160.698 184.236 160.623 183.549C159.411 172.819 158.725 163.837 158.471 155.281C158.471 155.267 158.471 155.257 158.471 155.243C158.428 154.624 158.38 154.004 158.332 153.385C157.704 145.533 156.802 138.042 156.794 137.967C156.786 137.903 156.772 137.841 156.751 137.78C156.233 138.309 155.669 138.795 155.06 139.257C155.33 141.596 155.979 147.456 156.465 153.531L156.463 153.526Z" fill="#1D2939"/>
<path d="M135.303 221.665C135.097 221.192 134.544 220.976 134.071 221.184C133.815 221.296 133.559 221.395 133.297 221.483C133.66 222.017 134.135 222.501 134.723 222.936C134.755 222.923 134.787 222.909 134.819 222.896C135.292 222.688 135.508 222.138 135.3 221.665H135.303Z" fill="#1D2939"/>
<path d="M155.746 137.147C155.233 137.209 154.867 137.673 154.929 138.186C154.929 138.202 154.977 138.584 155.054 139.252C155.66 138.792 156.224 138.304 156.745 137.775C156.606 137.364 156.194 137.088 155.746 137.145V137.147Z" fill="#1D2939"/>
<path d="M141.533 205.358C141.565 205.852 141.976 206.231 142.465 206.231C142.486 206.231 142.505 206.231 142.526 206.231C143.042 206.199 143.432 205.753 143.399 205.238C143.391 205.123 143.383 205.011 143.375 204.899C142.721 205.003 142.107 205.131 141.527 205.281C141.527 205.307 141.53 205.331 141.533 205.358Z" fill="#1D2939"/>
<path d="M139.017 166.887C138.926 166.85 138.828 166.823 138.723 166.815C136.061 166.644 134.982 165.44 134.92 165.371C134.595 164.978 134.012 164.917 133.612 165.24C133.211 165.563 133.147 166.153 133.473 166.554C133.534 166.631 135.046 168.452 138.603 168.679C138.614 168.679 138.622 168.679 138.633 168.679C138.531 168.241 138.467 167.998 138.464 167.993C138.339 167.531 138.582 167.061 139.014 166.885L139.017 166.887Z" fill="#1D2939"/>
<path d="M139.599 167.809C139.626 167.397 139.38 167.037 139.02 166.887C138.587 167.064 138.344 167.534 138.47 167.996C138.47 168.001 138.536 168.244 138.638 168.682C138.648 168.682 138.659 168.682 138.67 168.682C139.159 168.682 139.57 168.303 139.602 167.806L139.599 167.809Z" fill="#1D2939"/>
<path d="M125.728 121.492C125.856 120.992 125.557 120.482 125.058 120.354C124.558 120.226 124.048 120.525 123.92 121.024L123.356 123.206C123.776 124.005 124.179 124.819 124.572 125.645C124.652 125.546 124.713 125.431 124.748 125.3L125.733 121.492H125.728Z" fill="#1D2939"/>
<path d="M122.935 124.833C122.807 125.332 123.106 125.842 123.605 125.971C123.683 125.992 123.763 126 123.84 126C124.126 126 124.393 125.864 124.569 125.645C124.179 124.819 123.774 124.005 123.354 123.206L122.935 124.833Z" fill="#1D2939"/>
<path d="M143.797 68.9309C143.493 69.3476 143.584 69.9271 143.998 70.2315C144.412 70.5387 144.997 70.4479 145.304 70.0366C145.314 70.0206 146.431 68.549 148.094 68.4288C149.243 68.3461 150.445 68.9229 151.665 70.1434C151.847 70.325 152.087 70.4185 152.325 70.4185C152.562 70.4185 152.803 70.3277 152.987 70.1434C153.353 69.7775 153.353 69.1873 152.987 68.8214C151.358 67.1923 149.657 66.4339 147.934 66.5647C145.408 66.7597 143.859 68.8401 143.795 68.9309H143.797Z" fill="#1D2939"/>
<path d="M135.802 98.0998C136.026 98.8422 136.496 99.4698 137.121 99.8624C137.562 100.14 138.061 100.284 138.553 100.284C138.796 100.284 139.039 100.25 139.274 100.178C139.984 99.9612 140.575 99.4297 140.892 98.7193C141.194 98.0437 141.237 97.2612 141.013 96.5187C140.532 94.9377 138.975 94.0057 137.538 94.4383C136.101 94.8736 135.324 96.5161 135.802 98.0971V98.0998ZM138.08 96.2303C138.142 96.2116 138.203 96.2036 138.264 96.2036C138.66 96.2036 139.071 96.5561 139.226 97.0636C139.319 97.3707 139.306 97.6965 139.188 97.9582C139.132 98.0864 138.999 98.3107 138.737 98.3909C138.475 98.471 138.24 98.3588 138.123 98.284C137.88 98.1318 137.688 97.8674 137.594 97.5603C137.418 96.9754 137.64 96.3665 138.083 96.233L138.08 96.2303Z" fill="#1D2939"/>
<path d="M138.187 24.1177H140.497C140.996 24.1177 141.41 23.7278 141.44 23.2284L142.027 13.0987C142.059 12.5565 141.626 12.0999 141.084 12.0999H137.722C137.185 12.0999 136.755 12.5485 136.779 13.088L137.247 23.2177C137.271 23.7225 137.685 24.1177 138.189 24.1177H138.187Z" fill="black"/>
<path d="M140.997 26.0966C140.812 25.907 140.585 25.7548 140.313 25.6399C140.041 25.5251 139.739 25.469 139.402 25.469C139.066 25.469 138.783 25.5251 138.524 25.6399C138.262 25.7548 138.038 25.907 137.848 26.0966C137.658 26.2862 137.514 26.5105 137.415 26.7723C137.317 27.034 137.269 27.3091 137.269 27.6028C137.269 27.8966 137.319 28.1877 137.423 28.4494C137.528 28.7112 137.669 28.9382 137.856 29.1331C138.04 29.3281 138.267 29.4803 138.54 29.5898C138.812 29.6993 139.109 29.7527 139.434 29.7527C139.76 29.7527 140.057 29.6993 140.321 29.5898C140.588 29.4803 140.815 29.3281 141.005 29.1331C141.194 28.9382 141.339 28.7112 141.437 28.4494C141.536 28.1877 141.584 27.9073 141.584 27.6028C141.584 27.2984 141.534 27.034 141.429 26.7723C141.325 26.5105 141.184 26.2862 140.997 26.0966Z" fill="black"/>
<path d="M135.716 34.9097L138.483 41.3726C138.63 41.7171 138.969 41.9388 139.343 41.9388C139.717 41.9388 140.056 41.7171 140.203 41.3726L142.97 34.9097C150.693 33.4515 156.248 27.5147 156.248 20.6244C156.248 12.5591 148.666 6 139.346 6C130.025 6 122.443 12.5618 122.443 20.6244C122.443 27.5147 127.996 33.4515 135.722 34.9097H135.716ZM139.341 7.86945C147.63 7.86945 154.374 13.5926 154.374 20.6244C154.374 26.7429 149.235 32.012 142.155 33.1524C141.84 33.2031 141.57 33.4115 141.445 33.7079L139.338 38.6272L137.231 33.7079C137.105 33.4141 136.835 33.2031 136.52 33.1524C129.44 32.012 124.302 26.7429 124.302 20.6244C124.302 13.59 131.045 7.86945 139.335 7.86945H139.341Z" fill="#1D2939"/>
</g>
<rect x="165" y="29" width="92" height="22" rx="11" fill="#58F8E1"/>
<path d="M178.971 44L179.331 41.816H177.507L177.147 44H175.995L176.355 41.816H175.155L175.347 40.664H176.547L176.835 38.864H175.635L175.827 37.712H177.027L177.387 35.504H178.539L178.179 37.712H180.003L180.363 35.504H181.515L181.155 37.712H182.355L182.163 38.864H180.963L180.675 40.664H181.875L181.683 41.816H180.483L180.123 44H178.971ZM177.699 40.664H179.523L179.811 38.864H177.987L177.699 40.664ZM191.621 34.472V42.104H190.325V34.472H191.621ZM183.005 37.808C182.993 36.26 184.241 35.156 185.861 35.168C187.457 35.156 188.705 36.26 188.693 37.808C188.705 39.368 187.457 40.46 185.861 40.448C184.241 40.46 182.993 39.368 183.005 37.808ZM184.277 37.808C184.265 38.744 184.949 39.32 185.861 39.32C186.737 39.32 187.421 38.744 187.421 37.808C187.421 36.884 186.737 36.296 185.861 36.296C184.949 36.296 184.265 36.884 184.277 37.808ZM184.613 44.84V41.336H185.933V43.784H191.909V44.84H184.613ZM201.728 34.448V38.48H203.048V39.584H201.728V45.032H200.408V34.448H201.728ZM192.944 41.768C194.288 40.724 194.54 38.9 194.552 37.352V35.336H195.776V37.352C195.764 38.516 195.896 39.968 196.628 41.06C197.336 39.98 197.456 38.54 197.48 37.352V35.336H198.704V37.352C198.692 38.924 198.944 40.76 200.288 41.768L199.496 42.704C198.776 42.152 198.344 41.312 198.092 40.352C197.84 41.348 197.384 42.224 196.616 42.776C195.86 42.224 195.416 41.36 195.164 40.388C194.912 41.312 194.504 42.128 193.832 42.656L192.944 41.768ZM208.595 35.072V38.264H205.259V39.584C206.963 39.572 207.935 39.524 209.075 39.32L209.195 40.376C207.935 40.58 206.831 40.616 204.755 40.616H203.963V37.304H207.299V36.104H203.963V35.072H208.595ZM205.187 42.536V41.48H212.411V45.056H211.115V42.536H205.187ZM209.243 39.224V38.192H211.115V36.992H209.243V35.96H211.115V34.472H212.411V40.976H211.115V39.224H209.243ZM220.578 35.504V44H219.042V36.992H218.994L217.002 38.264V36.872L219.114 35.504H220.578ZM225.762 44.12C223.71 44.12 222.498 42.536 222.498 39.752C222.498 36.992 223.722 35.396 225.762 35.408C227.79 35.396 229.014 36.992 229.026 39.752C229.014 42.536 227.79 44.12 225.762 44.12ZM224.034 39.752C224.034 41.792 224.694 42.836 225.762 42.824C226.818 42.836 227.478 41.792 227.466 39.752C227.478 37.736 226.818 36.668 225.762 36.656C224.694 36.668 224.034 37.736 224.034 39.752ZM233.414 44.12C231.362 44.12 230.15 42.536 230.15 39.752C230.15 36.992 231.374 35.396 233.414 35.408C235.442 35.396 236.666 36.992 236.678 39.752C236.666 42.536 235.442 44.12 233.414 44.12ZM231.686 39.752C231.686 41.792 232.346 42.836 233.414 42.824C234.47 42.836 235.13 41.792 235.118 39.752C235.13 37.736 234.47 36.668 233.414 36.656C232.346 36.668 231.686 37.736 231.686 39.752ZM242.459 41.96C242.459 40.976 243.107 40.136 244.259 40.136C245.423 40.136 246.047 40.976 246.035 41.96V42.416C246.047 43.388 245.411 44.228 244.259 44.24C243.083 44.228 242.459 43.388 242.459 42.416V41.96ZM238.139 37.544V37.112C238.151 36.116 238.799 35.276 239.939 35.288C241.115 35.276 241.727 36.116 241.739 37.112V37.544C241.727 38.54 241.103 39.368 239.939 39.368C238.775 39.368 238.151 38.54 238.139 37.544ZM238.619 44L244.451 35.504H245.483L239.651 44H238.619ZM239.243 37.544C239.231 37.988 239.411 38.432 239.939 38.432C240.479 38.432 240.647 37.988 240.635 37.544V37.112C240.647 36.668 240.491 36.224 239.939 36.224C239.423 36.224 239.231 36.668 239.243 37.112V37.544ZM243.539 42.416C243.539 42.848 243.719 43.28 244.259 43.28C244.787 43.28 244.955 42.848 244.955 42.416V41.96C244.955 41.516 244.799 41.084 244.259 41.072C243.731 41.084 243.539 41.516 243.539 41.96V42.416Z" fill="#1D2939"/>
<rect x="21" y="86" width="83" height="22" rx="11" fill="#58F8E1"/>
<path d="M35.3573 101L35.7173 98.816H33.8933L33.5333 101H32.3813L32.7413 98.816H31.5413L31.7333 97.664H32.9333L33.2213 95.864H32.0213L32.2133 94.712H33.4133L33.7733 92.504H34.9253L34.5653 94.712H36.3893L36.7493 92.504H37.9013L37.5413 94.712H38.7413L38.5493 95.864H37.3493L37.0613 97.664H38.2613L38.0693 98.816H36.8693L36.5093 101H35.3573ZM34.0853 97.664H35.9093L36.1973 95.864H34.3733L34.0853 97.664ZM48.8718 96.752V97.784H44.7678V99.728H43.4718V97.784H39.1758V96.752H48.8718ZM40.3518 101.84V98.768H41.6478V100.784H47.7918V101.84H40.3518ZM40.3998 95.768V91.928H47.6238V95.768H40.3998ZM41.6718 94.736H46.3278V92.96H41.6718V94.736ZM58.6669 91.448V102.032H57.4429V91.448H58.6669ZM49.3789 99.032C50.9029 98.096 51.5749 96.188 51.5869 94.352V93.632H49.7389V92.576H54.5389V93.632H52.8349V94.352C52.8349 96.128 53.4709 97.928 54.9949 98.792L54.2269 99.752C53.2309 99.176 52.5829 98.156 52.2229 96.944C51.8509 98.252 51.1669 99.368 50.1709 99.992L49.3789 99.032ZM53.7709 96.2V95.144H55.3069V91.664H56.5309V101.528H55.3069V96.2H53.7709ZM67.9614 93.128V94.184H62.7774V93.128H64.7454V91.76H66.0174V93.128H67.9614ZM63.0654 97.208C63.0654 95.756 64.0374 94.736 65.3934 94.736C66.7254 94.736 67.6854 95.756 67.6974 97.208C67.6854 98.672 66.7254 99.704 65.3934 99.704C64.0374 99.704 63.0654 98.672 63.0654 97.208ZM64.2174 97.208C64.2174 98.06 64.6974 98.588 65.3934 98.576C66.0654 98.588 66.5454 98.06 66.5454 97.208C66.5454 96.368 66.0654 95.828 65.3934 95.816C64.6974 95.828 64.2174 96.368 64.2174 97.208ZM68.3934 101.552V91.664H69.6174V95.816H70.6494V91.448H71.8974V102.032H70.6494V96.872H69.6174V101.552H68.3934ZM82.0285 91.448V96.8H80.7325V95.888H78.1885V94.904H80.7325V93.848H78.3085C77.6605 95.468 76.1005 96.512 73.7485 97.04L73.3165 95.984C75.8005 95.468 77.0365 94.376 77.2285 92.96H73.8925V91.904H78.6685C78.6685 92.24 78.6445 92.564 78.5845 92.864H80.7325V91.448H82.0285ZM75.0685 101.936V99.032H80.7325V98.264H75.0685V97.232H82.0285V100.016H76.3645V100.904H82.3165V101.936H75.0685ZM87.3116 93.992C87.3116 95.888 88.2596 97.796 89.9036 98.6L89.1116 99.632C87.9476 99.056 87.1316 97.928 86.6756 96.572C86.2076 98.024 85.3436 99.212 84.1436 99.824L83.3276 98.768C85.0436 97.976 86.0156 95.948 86.0156 93.992V92.312H87.3116V93.992ZM90.5276 102.032V91.448H91.8236V95.6H93.4556V96.704H91.8236V102.032H90.5276Z" fill="#1D2939"/>
<rect x="169" y="164" width="59" height="22" rx="11" fill="#58F8E1"/>
<path d="M183.158 179L183.518 176.816H181.694L181.334 179H180.182L180.542 176.816H179.342L179.534 175.664H180.734L181.022 173.864H179.822L180.014 172.712H181.214L181.574 170.504H182.726L182.366 172.712H184.19L184.55 170.504H185.702L185.342 172.712H186.542L186.35 173.864H185.15L184.862 175.664H186.062L185.87 176.816H184.67L184.31 179H183.158ZM181.886 175.664H183.71L183.998 173.864H182.174L181.886 175.664ZM195.857 169.448V174.872H194.561V172.208H192.449V171.152H194.561V169.448H195.857ZM186.929 173.888C188.633 173.372 189.521 172.076 189.521 170.648V169.808H190.841V170.648C190.829 171.944 191.681 173.192 193.337 173.696L192.641 174.704C191.489 174.32 190.661 173.564 190.193 172.604C189.737 173.684 188.873 174.512 187.625 174.92L186.929 173.888ZM188.897 179.912V177.104H194.561V176.36H188.897V175.328H195.857V178.064H190.193V178.88H196.193V179.912H188.897ZM207.02 174.512V175.544H197.372V174.512H207.02ZM198.428 177.632V176.576H205.844V180.056H204.572V177.632H198.428ZM198.548 173.552V169.832H205.868V170.864H199.844V172.496H205.964V173.552H198.548ZM212.783 170.072V173.264H209.447V174.584C211.151 174.572 212.123 174.524 213.263 174.32L213.383 175.376C212.123 175.58 211.019 175.616 208.943 175.616H208.151V172.304H211.487V171.104H208.151V170.072H212.783ZM209.375 177.536V176.48H216.599V180.056H215.303V177.536H209.375ZM213.431 174.224V173.192H215.303V171.992H213.431V170.96H215.303V169.472H216.599V175.976H215.303V174.224H213.431Z" fill="#1D2939"/>
<defs>
<clipPath id="clip0_1283_6727">
<rect width="105.984" height="219.599" fill="white" transform="translate(76 6)"/>
</clipPath>
</defs>
</svg>
