<svg width="71" height="131" viewBox="0 0 71 131" fill="none" xmlns="http://www.w3.org/2000/svg">
<g clip-path="url(#clip0_750_3358)">
<path d="M30.1064 123.192H40.9024C42.0214 123.192 42.9392 122.299 42.9655 121.188H28.0347C28.0696 122.299 28.9788 123.192 30.0977 123.192H30.1064Z" fill="white"/>
<path d="M27.886 99.5532V89.9587C27.886 88.9004 27.5887 87.8594 27.0293 86.9572L22.7721 80.104C22.2126 79.2018 22.3874 78.0307 23.1917 77.3367C23.9959 76.6427 25.1848 76.6167 26.0152 77.2847C26.4261 77.6143 36.2692 85.2829 45.1508 77.3541C45.9638 76.634 47.1789 76.608 48.0093 77.302C48.8398 77.996 49.0408 79.1845 48.4726 80.104L44.2154 86.9572C43.656 87.8594 43.3587 88.9004 43.3587 89.9587V99.5532C43.3587 99.692 43.3413 99.8221 43.315 99.9522H45.9201C48.0006 90.9216 52.0829 86.2459 57.6601 79.8438L59.1375 78.1435C63.9716 72.5568 66.6379 65.4174 66.6379 58.0437C66.6379 49.5076 63.0275 41.2664 56.7248 35.4368C50.3433 29.5292 41.995 26.6144 33.2446 27.2304C18.4537 28.2627 5.25372 41.5613 4.42326 56.2653C3.97743 64.1161 6.51252 71.7501 11.5477 77.7618C12.3869 78.7594 13.1912 79.705 13.9604 80.5985C19.2317 86.7577 23.0868 91.2773 25.0886 99.9522H27.9297C27.9034 99.8221 27.886 99.692 27.886 99.5532Z" fill="#02F1CF"/>
<path d="M25.6919 114.795C25.6919 115.932 26.6185 116.851 27.7637 116.851H43.2365C44.3816 116.851 45.3082 115.932 45.3082 114.795C45.3082 113.659 44.3816 112.739 43.2365 112.739H27.7637C26.6185 112.739 25.6919 113.659 25.6919 114.795Z" fill="white"/>
<path d="M23.5762 106.346C23.5762 107.482 24.5028 108.402 25.648 108.402H45.3517C46.4969 108.402 47.4235 107.482 47.4235 106.346C47.4235 105.21 46.4969 104.29 45.3517 104.29H25.648C24.5028 104.29 23.5762 105.21 23.5762 106.346Z" fill="white"/>
<path d="M38.9794 89.9592C38.9794 88.1114 39.4864 86.307 40.4568 84.7282C36.9688 85.613 33.5508 85.2834 30.5874 84.4072L30.7535 84.6761C31.7413 86.2637 32.2658 88.0854 32.2658 89.9505V99.545C32.2658 99.6838 32.2483 99.8139 32.2221 99.944H39.0231C38.9969 99.8139 38.9794 99.6838 38.9794 99.545V89.9505V89.9592Z" fill="#58F8E1"/>
<path d="M59.6972 32.2623C52.4154 25.5219 42.8957 22.208 32.9302 22.902C16.0587 24.0818 1.00552 39.2543 0.0526736 56.0229C-0.454344 64.9667 2.43041 73.6764 8.1737 80.5295C9.02165 81.5445 9.83462 82.4901 10.6126 83.4009C15.8402 89.5168 19.2931 93.5506 21.0065 101.774C21.0065 101.809 21.024 101.835 21.0327 101.87C22.2041 100.681 23.8301 99.9353 25.6396 99.9353H25.0801C23.0783 91.2604 19.2145 86.7495 13.952 80.5816C13.1827 79.6794 12.3785 78.7425 11.5393 77.7449C6.50404 71.7332 3.96895 64.0992 4.41478 56.2484C5.24524 41.5444 18.4364 28.2458 33.2361 27.2135C41.9866 26.5976 50.3349 29.5123 56.7163 35.4199C63.0191 41.2495 66.6294 49.482 66.6294 58.0268C66.6294 65.4005 63.9632 72.5399 59.129 78.1266L57.6517 79.8269C52.0745 86.229 48.0008 90.9048 45.9116 99.9353H45.3521C47.1529 99.9353 48.7876 100.673 49.959 101.87C49.959 101.835 49.9765 101.809 49.9852 101.774C51.7685 93.221 55.2302 89.2478 60.956 82.6723L62.4421 80.9633C67.9581 74.5872 71.0002 66.4415 71.0002 58.0355C71.0002 48.2935 66.8829 38.8986 59.6972 32.2623Z" fill="#475467"/>
<path d="M46.8904 104.29H45.3518C46.497 104.29 47.4236 105.21 47.4236 106.346C47.4236 107.482 46.497 108.402 45.3518 108.402H43.2363C45.6578 108.402 47.7645 109.738 48.866 111.698C50.6231 110.553 51.7944 108.584 51.7944 106.346C51.7944 104.611 51.0951 103.032 49.9587 101.878C49.6178 103.275 48.3502 104.281 46.8904 104.281V104.29Z" fill="#475467"/>
<path d="M27.7637 108.402H25.6482C24.503 108.402 23.5764 107.482 23.5764 106.346C23.5764 105.209 24.503 104.29 25.6482 104.29H24.1097C22.6498 104.29 21.3822 103.283 21.0413 101.887C19.9049 103.04 19.2056 104.611 19.2056 106.354C19.2056 108.592 20.3682 110.562 22.134 111.707C23.2355 109.746 25.3422 108.41 27.7637 108.41V108.402Z" fill="#475467"/>
<path d="M45.3517 99.9526H43.3061C43.1138 100.959 42.2309 101.722 41.1644 101.722C40.0979 101.722 39.2063 100.959 39.0227 99.9526H32.2217C32.0294 100.959 31.1465 101.722 30.08 101.722C29.0135 101.722 28.1218 100.959 27.9383 99.9526H25.6567C23.8559 99.9526 22.2212 100.69 21.0498 101.887C21.3907 103.284 22.6583 104.29 24.1181 104.29H46.899C48.3588 104.29 49.6264 103.284 49.9673 101.887C48.7959 100.699 47.17 99.9526 45.3604 99.9526H45.3517Z" fill="#475467"/>
<path d="M43.2362 112.739C44.3814 112.739 45.308 113.659 45.308 114.795C45.308 115.932 44.3814 116.851 43.2362 116.851H27.7634C26.6183 116.851 25.6916 115.932 25.6916 114.795C25.6916 113.659 26.6183 112.739 27.7634 112.739H25.6479C24.3542 112.739 23.1478 112.358 22.1338 111.698C21.618 112.618 21.3208 113.676 21.3208 114.795C21.3208 116.929 22.3785 118.812 24.0045 119.974C24.3891 119.367 25.071 118.959 25.849 118.959C27.0553 118.959 28.0344 119.931 28.0344 121.128C28.0344 121.145 28.0344 121.163 28.0344 121.18H42.9652C42.9652 121.18 42.9652 121.145 42.9652 121.128C42.9652 119.931 43.9443 118.959 45.1506 118.959C45.9287 118.959 46.6018 119.367 46.9951 119.974C48.6124 118.812 49.6788 116.929 49.6788 114.795C49.6788 113.667 49.3816 112.618 48.8659 111.698C47.8518 112.358 46.6455 112.739 45.3517 112.739H43.2362Z" fill="#475467"/>
<path d="M43.2362 108.402H27.7634C25.342 108.402 23.2352 109.738 22.1338 111.698C23.1478 112.358 24.3542 112.739 25.6479 112.739H45.3517C46.6455 112.739 47.8518 112.358 48.8659 111.698C47.7644 109.738 45.6577 108.402 43.2362 108.402Z" fill="#475467"/>
<path d="M42.9653 121.189C42.9303 122.299 42.0212 123.193 40.9022 123.193H30.1062C28.9873 123.193 28.0694 122.299 28.0432 121.189H27.7722C26.3648 121.189 25.071 120.738 24.0133 119.974C23.7947 120.312 23.6724 120.703 23.6724 121.128C23.6724 124.65 26.5659 127.521 30.115 127.521H30.1237C30.1062 127.391 30.08 127.252 30.08 127.122H41.1732C41.1732 127.252 41.147 127.383 41.1295 127.513C44.5737 127.391 47.3449 124.581 47.3449 121.128C47.3449 120.703 47.2137 120.304 47.0039 119.974C45.9462 120.738 44.6437 121.189 43.245 121.189H42.974H42.9653Z" fill="#475467"/>
<path d="M45.1595 118.968C43.9532 118.968 42.9741 119.939 42.9741 121.136C42.9741 121.154 42.9741 121.171 42.9741 121.188H43.2451C44.6525 121.188 45.9463 120.737 47.004 119.974C46.6194 119.367 45.9376 118.959 45.1595 118.959V118.968Z" fill="#475467"/>
<path d="M28.0348 121.189C28.0348 121.189 28.0348 121.154 28.0348 121.137C28.0348 119.939 27.0557 118.968 25.8494 118.968C25.0714 118.968 24.3983 119.375 24.0049 119.983C25.0626 120.746 26.3651 121.197 27.7638 121.197H28.0348V121.189Z" fill="#475467"/>
<path d="M30.1152 127.53C30.325 129.482 31.9597 131.009 33.979 131.009H37.2484C39.2677 131.009 40.9199 129.473 41.121 127.521C41.0423 127.521 40.9724 127.53 40.8937 127.53H30.1064H30.1152Z" fill="#475467"/>
<path d="M30.0713 127.122C30.0713 127.261 30.0975 127.391 30.115 127.521H40.9022C40.9809 127.521 41.0508 127.521 41.1295 127.512C41.147 127.382 41.1732 127.252 41.1732 127.122H30.08H30.0713Z" fill="#475467"/>
<path d="M43.3499 89.9587C43.3499 88.9004 43.6471 87.8594 44.2066 86.9572L48.4638 80.104C49.032 79.1845 48.8397 77.996 48.0005 77.302C47.17 76.608 45.9462 76.634 45.142 77.354C36.2517 85.2829 26.4173 77.6056 26.0064 77.2846C25.176 76.6167 23.9871 76.6427 23.1828 77.3367C22.3786 78.0307 22.2038 79.2018 22.7632 80.104L27.0204 86.9572C27.5799 87.8594 27.8771 88.9004 27.8771 89.9587V99.5532C27.8771 99.692 27.8946 99.8221 27.9208 99.9522H32.213C32.2392 99.8221 32.2567 99.692 32.2567 99.5532V89.9587C32.2567 88.0936 31.7322 86.2719 30.7444 84.6844L30.5783 84.4154C33.5505 85.2916 36.9685 85.6212 40.4477 84.7364C39.4774 86.3152 38.9703 88.1196 38.9703 89.9674V99.5618C38.9703 99.7006 38.9878 99.8308 39.014 99.9609H43.3062C43.3324 99.8308 43.3499 99.7006 43.3499 99.5618V89.9674V89.9587Z" fill="#475467"/>
<path d="M41.1646 101.722C42.2311 101.722 43.1228 100.959 43.3063 99.9526H39.0142C39.2065 100.959 40.0894 101.722 41.1559 101.722H41.1646Z" fill="#475467"/>
<path d="M30.0714 101.722C31.1378 101.722 32.0295 100.959 32.2131 99.9526H27.9209C28.1132 100.959 28.9961 101.722 30.0626 101.722H30.0714Z" fill="#475467"/>
<path d="M36.1732 16.7686C37.3796 16.7686 38.3586 15.797 38.3586 14.5999V2.16873C38.3586 0.971591 37.3796 0 36.1732 0C34.9669 0 33.9878 0.971591 33.9878 2.16873V14.5999C33.9878 15.797 34.9669 16.7686 36.1732 16.7686Z" fill="#475467"/>
<path d="M52.0741 19.5271C52.415 19.7266 52.7909 19.8133 53.1668 19.8133C53.9186 19.8133 54.6616 19.423 55.0637 18.729L61.314 7.9547C61.9172 6.91371 61.5588 5.58645 60.5098 4.99656C59.4608 4.39799 58.1233 4.75366 57.5289 5.79465L51.2786 16.5689C50.6754 17.6099 51.0338 18.9372 52.0828 19.5271H52.0741Z" fill="#475467"/>
<path d="M17.1598 18.729C17.5619 19.423 18.2962 19.8133 19.0567 19.8133C19.4239 19.8133 19.7998 19.7179 20.1494 19.5271C21.1985 18.9285 21.5569 17.6012 20.9537 16.5689L14.7034 5.79465C14.1002 4.75366 12.7627 4.39799 11.7225 4.99656C10.6735 5.59513 10.315 6.92239 10.9182 7.9547L17.1685 18.729H17.1598Z" fill="#475467"/>
<g clip-path="url(#clip1_750_3358)">
<path d="M13.4241 49.4287C12.8544 49.4287 12.3203 49.0867 12.0996 48.531C11.8076 47.7972 12.1636 46.9707 12.8971 46.6786L14.3498 46.1015C15.5817 45.6099 16.5716 44.6267 17.0701 43.3941L17.6825 41.8908C17.9815 41.1641 18.8076 40.8079 19.5339 41.1071C20.2603 41.3992 20.6163 42.2328 20.3173 42.9595L19.7048 44.4628C18.9144 46.4079 17.3478 47.9682 15.3966 48.7448L13.9439 49.3219C13.773 49.3931 13.595 49.4216 13.4169 49.4216L13.4241 49.4287Z" fill="#475467"/>
<path d="M24.5689 49.4284C24.3909 49.4284 24.2128 49.3928 24.0419 49.3287L22.5892 48.7516C20.6381 47.975 19.0714 46.4147 18.281 44.4696L17.6686 42.9663C17.3695 42.2396 17.7255 41.406 18.4519 41.1139C19.1854 40.8218 20.0114 41.1709 20.3034 41.8976L20.9158 43.4009C21.4142 44.6264 22.4041 45.6167 23.636 46.1083L25.0887 46.6854C25.8222 46.9775 26.1782 47.804 25.8863 48.5378C25.6655 49.0935 25.1314 49.4355 24.5618 49.4355L24.5689 49.4284Z" fill="#475467"/>
<path d="M18.9999 55.0001C18.4373 55.0001 17.9032 54.6653 17.6825 54.1095L17.07 52.6062C16.5716 51.3808 15.5817 50.3905 14.3498 49.8989L12.8971 49.3218C12.1636 49.0297 11.8076 48.2032 12.0996 47.4693C12.3915 46.7355 13.2176 46.3793 13.951 46.6714L15.4037 47.2485C17.3549 48.0251 18.9215 49.5854 19.712 51.5304L20.3244 53.0337C20.6235 53.7604 20.2674 54.594 19.5411 54.8861C19.363 54.9574 19.185 54.993 19.007 54.993L18.9999 55.0001Z" fill="#475467"/>
<path d="M19.0001 54.9998C18.8221 54.9998 18.6441 54.9642 18.466 54.893C17.7397 54.6009 17.3836 53.7673 17.6827 53.0406L18.2951 51.5373C19.0856 49.5922 20.6522 48.0319 22.6034 47.2553L24.0561 46.6782C24.7895 46.3861 25.6156 46.7423 25.9076 47.4762C26.1995 48.21 25.8435 49.0365 25.11 49.3286L23.6573 49.9057C22.4254 50.3973 21.4355 51.3805 20.9371 52.6131L20.3246 54.1164C20.1039 54.6721 19.5698 55.007 19.0072 55.007L19.0001 54.9998Z" fill="#475467"/>
</g>
</g>
<defs>
<clipPath id="clip0_750_3358">
<rect width="71" height="131" fill="white"/>
</clipPath>
<clipPath id="clip1_750_3358">
<rect width="14" height="14" fill="white" transform="translate(12 41)"/>
</clipPath>
</defs>
</svg>
