<svg width="272" height="236" viewBox="0 0 272 236" fill="none" xmlns="http://www.w3.org/2000/svg">
<g clip-path="url(#clip0_1283_6723)">
<path d="M162.745 67.8888C162.479 68.2149 162.093 68.3864 161.703 68.3864C161.403 68.3864 161.104 68.2889 160.855 68.0838C155.816 63.9826 152.549 63.4481 148.488 63.1388C142.824 62.7085 139.257 64.5406 139.22 64.5574C138.564 64.9003 137.751 64.6516 137.405 63.9994C137.058 63.3439 137.304 62.5337 137.956 62.1841C138.04 62.1371 139.119 61.5723 140.998 61.0849C140.877 60.9269 140.786 60.7453 140.743 60.5369C140.706 60.3587 136.857 42.4277 121.632 38.0676C117.04 36.7532 112.72 36.4002 107.627 36.9314C100.299 37.6911 95.1149 42.8748 95.0611 42.9252C95.0443 42.942 95.0241 42.9588 95.0073 42.9756C87.1646 50.1225 84.6332 61.1521 86.183 68.3494C89.269 82.6768 99.1926 93.0677 99.4749 93.3568C99.4749 93.3568 99.4749 93.3568 99.4749 93.3601L99.4817 93.3668C99.4985 93.3837 99.5086 93.4005 99.522 93.4173C99.5657 93.4677 99.6094 93.5148 99.643 93.5719C99.6632 93.6055 99.68 93.6391 99.6968 93.6728C99.7203 93.7165 99.7439 93.7568 99.7641 93.8005C99.7775 93.8375 99.7876 93.8778 99.801 93.9148C99.8145 93.9585 99.8313 94.0056 99.838 94.0493C99.8447 94.0829 99.8447 94.1199 99.8515 94.1568C99.8582 94.2073 99.8649 94.2577 99.8649 94.3115C99.8649 94.3451 99.8582 94.3821 99.8548 94.4157C99.8515 94.4661 99.8481 94.5165 99.838 94.567C99.8279 94.6174 99.8111 94.6611 99.7943 94.7115C99.7842 94.7451 99.7775 94.7787 99.7641 94.8124C99.7372 94.8829 96.9604 101.835 96.984 110.945C97.0142 123.04 101.707 133.034 110.935 140.652C111.506 141.126 111.59 141.973 111.116 142.545C110.851 142.867 110.468 143.032 110.078 143.032C109.775 143.032 109.473 142.931 109.224 142.723C107.012 140.897 105.119 138.988 103.492 137.035C103.448 137.415 103.247 137.774 102.904 138C102.786 138.077 90.933 145.967 85.635 155.554C85.6148 155.594 85.5879 155.631 85.5644 155.668C85.4468 155.836 73.9801 172.732 83.4365 183.641C87.3192 188.122 96.1536 189.5 108.978 187.634C118.912 186.189 127.713 183.278 127.8 183.247C128.136 183.137 128.506 183.16 128.822 183.318C128.893 183.352 136.003 186.841 143.156 187.123C147.402 187.292 151.456 185.416 153.994 182.108C155.971 179.529 156.932 176.79 156.932 173.731V173.294C156.932 168.759 156.932 164.842 156.569 161.511C156.26 158.67 154.848 156.139 152.586 154.388C150.323 152.636 147.52 151.9 144.686 152.31L139.297 153.093C138.561 153.198 137.879 152.69 137.774 151.957C137.667 151.221 138.178 150.539 138.911 150.434L143.425 149.779C143.62 146.995 143.761 139.331 139.956 134.9C138.998 133.784 137.754 133.33 136.631 133.68C135.572 134.009 133.021 135.63 132.201 143.506C130.906 155.907 129.192 157.763 125.44 160.778C121.938 163.592 115.258 163.746 108.797 163.898L107.482 163.928C102.205 164.062 93.2929 164.51 93.2021 164.513C93.1819 164.513 93.1618 164.513 93.1416 164.513C92.5197 164.513 91.9986 164.025 91.9684 163.397C91.9348 162.748 92.4356 162.197 93.0844 162.163C93.1752 162.16 102.117 161.709 107.422 161.575L108.74 161.545C114.525 161.41 121.084 161.259 123.965 158.946C127.155 156.381 128.614 155.211 129.858 143.264C130.742 134.779 133.646 132.15 135.929 131.438C137.946 130.806 140.175 131.545 141.738 133.371C145.963 138.289 146.01 146.148 145.805 149.527C147.752 149.466 149.661 149.829 151.423 150.599L156.858 149.527L161.955 148.397C167.206 146.797 171.408 144.219 175.996 139.785C180.296 135.63 183.701 129.552 186.118 121.729C188.028 115.544 187.789 108.652 187.789 108.585C187.765 107.933 188.213 107.355 188.851 107.22C197.864 105.297 207.727 96.9504 212.306 87.3663C214.981 81.7624 217.18 73.1196 212.433 63.754C204.449 47.9946 187.712 48.8787 182.773 49.5241C169.781 51.2251 162.321 61.5555 160.472 64.4364C161.138 64.9003 161.827 65.418 162.546 66.003C163.121 66.4702 163.209 67.3174 162.741 67.8956L162.745 67.8888ZM154.142 100.184C154.73 98.4732 154.566 95.3771 154.451 94.3283C154.381 93.6828 154.848 93.1013 155.494 93.0307C156.132 92.9567 156.721 93.4274 156.791 94.0728C156.811 94.2476 157.248 98.3892 156.368 100.951C156.2 101.438 155.742 101.744 155.255 101.744C155.127 101.744 154.999 101.724 154.872 101.68C154.257 101.468 153.93 100.799 154.142 100.184ZM132.258 89.7665C132.742 89.1849 137.109 84.1156 140.985 84.4719C141.993 84.566 143.412 85.0703 144.44 86.9192C147.711 92.7987 153.268 98.4732 153.322 98.5303C153.843 99.0581 153.836 99.912 153.309 100.433C153.046 100.692 152.707 100.82 152.364 100.82C152.021 100.82 151.668 100.685 151.406 100.42C151.167 100.178 145.536 94.4258 142.091 88.2302C141.59 87.3327 141.075 87.1848 140.733 87.1511C138.863 86.973 135.808 89.7194 134.322 91.491C133.845 92.0592 132.997 92.1365 132.429 91.6591C131.861 91.1818 131.784 90.3346 132.258 89.7665ZM106.091 78.505C105.388 79.416 104.037 79.4832 103.247 78.6495C101.552 76.8712 98.9236 73.6003 97.189 68.9948C94.0896 60.7588 99.4985 47.9576 111.55 47.2718C123.628 46.586 127.817 57.5047 129.024 61.9723C129.293 62.9741 128.701 63.9994 127.699 64.2784C115.597 67.6468 108.693 75.1366 106.094 78.505H106.091ZM124.624 109.062C124.035 108.787 123.78 108.088 124.052 107.499C124.328 106.911 125.027 106.655 125.615 106.928C125.642 106.941 126.294 107.244 127.313 107.708C126.482 106.232 126.099 104.467 126.328 102.628C126.523 101.065 127.138 99.6632 128.039 98.5236C126.946 98.8463 126.264 99.122 126.24 99.1321C125.686 99.3573 125.05 99.1321 124.761 98.6077L123.413 96.1436C123.101 95.5721 123.312 94.8594 123.881 94.5468C124.452 94.2341 125.165 94.4459 125.477 95.0141L126.338 96.5907C128.758 95.7671 135.095 94.0123 140.242 96.11C146.928 98.8396 146.397 110.837 146.37 111.348C146.34 111.977 145.819 112.464 145.197 112.464C145.177 112.464 145.157 112.464 145.136 112.464C144.488 112.431 143.987 111.879 144.02 111.231C144.158 108.444 143.694 101.22 140.235 98.7825C141.365 100.379 141.926 102.42 141.66 104.558C141.233 107.956 138.837 110.599 135.825 111.395C137.583 112.101 139.166 112.683 140.168 112.935C140.8 113.093 141.183 113.732 141.025 114.36C140.891 114.895 140.413 115.251 139.885 115.251C139.791 115.251 139.694 115.241 139.6 115.214C135.821 114.27 125.081 109.278 124.627 109.066L124.624 109.062ZM154.139 136.894C154.001 137.425 153.524 137.774 152.999 137.774C152.902 137.774 152.804 137.761 152.703 137.737C146.73 136.191 142.733 133.253 142.565 133.129C142.044 132.742 141.936 132.002 142.323 131.481C142.709 130.96 143.445 130.849 143.966 131.239C144.003 131.266 147.785 134.036 153.292 135.458C153.92 135.619 154.3 136.262 154.135 136.89L154.139 136.894ZM163.225 131.707C162.849 132.308 161.827 134.312 162.079 135.566C162.207 136.204 161.793 136.823 161.155 136.951C161.077 136.968 161 136.974 160.923 136.974C160.375 136.974 159.881 136.588 159.77 136.03C159.639 135.377 159.675 134.695 159.797 134.036C150.249 133.286 141.079 126.267 138.057 123.736C137.667 124.439 137.405 125.242 137.509 126.072C137.589 126.718 137.136 127.306 136.49 127.387C136.44 127.394 136.389 127.397 136.339 127.397C135.754 127.397 135.25 126.963 135.172 126.368C134.692 122.583 138.474 119.638 138.632 119.514C139.149 119.12 139.885 119.218 140.282 119.732C140.675 120.247 140.581 120.986 140.067 121.38C140.054 121.39 139.825 121.571 139.512 121.877C142.346 124.237 151.53 131.286 160.55 131.723C160.859 131.048 161.151 130.574 161.225 130.453C161.571 129.905 162.298 129.737 162.849 130.083C163.397 130.429 163.565 131.155 163.219 131.703L163.225 131.707ZM176.897 115.167L174.729 116.011C174.591 116.065 174.447 116.092 174.302 116.092C174.08 116.092 173.858 116.028 173.663 115.903C173.347 115.698 173.146 115.355 173.125 114.979C173.119 114.885 172.534 105.66 167.451 105.391C169.155 106.864 170.218 109.546 170.06 112.555C169.945 114.764 169.192 116.576 168.07 117.816C169.996 117.816 171.522 117.789 172.019 117.715C172.662 117.618 173.26 118.062 173.357 118.704C173.455 119.346 173.011 119.944 172.369 120.042C171.74 120.136 170.036 120.166 168.066 120.166C165.565 120.166 162.634 120.116 160.926 120.082C161.06 120.405 161.138 120.734 161.138 121.064C161.138 123.679 155.914 126.103 152.794 127.313C152.653 127.367 152.508 127.394 152.367 127.394C151.897 127.394 151.453 127.108 151.271 126.644C151.036 126.039 151.335 125.356 151.94 125.121C155.628 123.686 158.576 121.8 158.781 121.057C158.694 120.469 157.003 118.976 156.092 118.169C155.077 117.272 154.119 116.424 153.524 115.608C152.031 113.557 154.159 106.645 155.561 102.712C155.779 102.1 156.452 101.781 157.063 102C157.675 102.218 157.995 102.89 157.776 103.502C156.058 108.33 154.966 113.349 155.436 114.243C155.867 114.834 156.774 115.634 157.648 116.408C158.176 116.875 158.697 117.335 159.168 117.793C159.306 117.735 159.46 117.702 159.618 117.702C159.628 117.702 159.639 117.702 159.645 117.702C159.773 117.702 159.904 117.709 160.039 117.712C158.926 116.371 158.28 114.414 158.375 112.074C158.089 112.387 157.645 112.538 157.208 112.424C156.583 112.259 156.206 111.621 156.368 110.992C156.388 110.911 158.536 103.042 167.206 103.025H167.219C169.448 103.025 172.48 104.091 174.295 109.157C174.84 110.673 175.136 112.182 175.297 113.261L176.037 112.972C176.642 112.737 177.324 113.036 177.56 113.641C177.795 114.246 177.496 114.929 176.891 115.164L176.897 115.167ZM170.967 69.7949C172.672 67.23 176.366 63.196 183.409 61.532C195.581 58.6544 203.417 67.2165 203.801 75.6106C204.187 84.0651 194.936 90.422 190.371 93.0307C189.06 93.7803 187.382 93.3231 186.646 92.0054C181.049 82.0313 174.541 75.94 171.488 73.4154C170.409 72.5212 170.194 70.9614 170.967 69.7949ZM169.972 97.7336C170.866 97.4613 171.69 97.1588 172.416 96.8932C173.64 96.4428 174.608 96.0898 175.442 96.0394C176.346 95.9889 177.193 96.2915 177.892 96.9201C180.044 98.8564 180.316 103.603 180.34 104.141C180.373 104.884 179.798 105.513 179.055 105.546C179.035 105.546 179.015 105.546 178.995 105.546C178.279 105.546 177.684 104.985 177.654 104.262C177.573 102.554 177.038 99.7674 176.094 98.9203C175.889 98.7354 175.737 98.7152 175.603 98.7253C175.166 98.7522 174.279 99.0749 173.344 99.4212C172.584 99.7002 171.72 100.016 170.756 100.309C166.197 101.694 160.395 103.381 160.338 103.398C159.625 103.606 158.879 103.196 158.67 102.484C158.59 102.211 158.603 101.932 158.687 101.68C158.573 101.717 158.455 101.741 158.334 101.741C158.112 101.741 157.89 101.68 157.689 101.549C157.144 101.193 156.993 100.463 157.349 99.9187C158.842 97.6429 159.168 94.8594 159.168 94.8325C159.238 94.1871 159.823 93.7198 160.469 93.7938C161.114 93.8644 161.578 94.4493 161.508 95.0947C161.494 95.2258 161.145 98.1774 159.551 100.83C159.561 100.826 159.571 100.82 159.581 100.816C159.639 100.799 165.424 99.1153 169.966 97.7336H169.972Z" fill="#FCFCFD"/>
<path d="M146.346 197.144V189.792C146.346 189.725 146.357 189.658 146.367 189.594C145.284 189.779 144.175 189.86 143.055 189.816C136.372 189.55 129.965 186.814 128.136 185.974C125.195 186.915 111.331 191.134 98.974 191.134C97.9957 191.134 97.0309 191.104 96.0796 191.05L94.7383 197.296C99.4816 198.345 117.809 201.602 146.346 197.148V197.144Z" fill="#FCFCFD"/>
<path d="M129.018 61.9724C127.814 57.5047 123.622 46.5861 111.544 47.2718C99.4924 47.9576 94.0801 60.7588 97.1829 68.9949C98.9175 73.6003 101.546 76.8712 103.241 78.6495C104.034 79.4799 105.385 79.4126 106.085 78.505C108.683 75.1366 115.588 67.6468 127.69 64.2785C128.692 63.9994 129.287 62.9741 129.014 61.9724H129.018Z" fill="#FF7EFA"/>
<path d="M171.479 73.4153C174.531 75.9399 181.04 82.0312 186.637 92.0052C187.376 93.323 189.054 93.7802 190.361 93.0305C194.927 90.4185 204.178 84.0616 203.791 75.6104C203.408 67.213 195.572 58.6542 183.399 61.5318C176.357 63.1958 172.659 67.2332 170.958 69.7948C170.181 70.9613 170.4 72.5244 171.479 73.4153Z" fill="#FF7EFA"/>
<path d="M141.745 133.364C140.178 131.542 137.953 130.799 135.936 131.431C133.656 132.143 130.752 134.772 129.864 143.257C128.617 155.204 127.162 156.374 123.971 158.939C121.094 161.252 114.535 161.403 108.747 161.538L107.429 161.568C102.124 161.702 93.1821 162.153 93.0913 162.156C92.4425 162.19 91.9416 162.741 91.9752 163.39C92.0055 164.019 92.5265 164.506 93.1484 164.506C93.1686 164.506 93.1888 164.506 93.209 164.506C93.2997 164.503 102.211 164.056 107.489 163.921L108.804 163.891C115.265 163.74 121.944 163.585 125.447 160.771C129.199 157.756 130.913 155.9 132.208 143.499C133.028 135.626 135.579 134.006 136.638 133.673C137.761 133.323 139.005 133.777 139.963 134.893C143.772 139.324 143.627 146.988 143.432 149.772L144.309 149.644C144.814 149.57 145.315 149.53 145.816 149.513C146.021 146.135 145.974 138.275 141.748 133.357L141.745 133.364Z" fill="#1D2939"/>
<path d="M99.8516 94.1567C99.8583 94.2075 99.8651 94.2582 99.8651 94.3123C99.8651 94.2616 99.8583 94.2108 99.8516 94.1567Z" fill="#1D2939"/>
<path d="M99.6471 93.5728C99.6099 93.5187 99.5694 93.468 99.5254 93.4172C99.5694 93.468 99.6133 93.5153 99.6471 93.5728Z" fill="#1D2939"/>
<path d="M99.8419 94.0532C99.8317 94.0059 99.8182 93.9619 99.8047 93.918C99.8182 93.9619 99.8351 94.0093 99.8419 94.0532Z" fill="#1D2939"/>
<path d="M103.29 136.14C103.472 136.416 103.532 136.732 103.495 137.038C105.122 138.991 107.015 140.901 109.227 142.726C109.479 142.934 109.782 143.035 110.081 143.035C110.467 143.035 110.854 142.867 111.12 142.548C111.594 141.976 111.513 141.129 110.938 140.655C101.71 133.041 97.0174 123.047 96.9872 110.948C96.9636 101.838 99.7404 94.8862 99.7673 94.8156C99.7807 94.782 99.7874 94.7483 99.7975 94.7147C99.7337 94.9198 99.6261 95.1114 99.4614 95.2728C99.1992 95.5283 98.8596 95.656 98.5201 95.656C98.1806 95.656 97.8242 95.5215 97.5587 95.2526C97.5049 95.1955 97.2965 94.9837 96.9704 94.6206C96.2073 96.7822 94.2945 102.984 94.2979 110.854C94.2979 117.772 95.8644 127.007 102.315 135.552C102.699 135.596 103.062 135.794 103.29 136.144V136.14Z" fill="#1D2939"/>
<path d="M99.7678 93.8011C99.7509 93.7572 99.7239 93.7132 99.7002 93.6726C99.7239 93.7166 99.7475 93.7572 99.7678 93.8011Z" fill="#1D2939"/>
<path d="M142.326 61.5856C141.808 61.6898 141.301 61.478 140.995 61.0847C139.116 61.5721 138.036 62.1369 137.952 62.1839C137.3 62.5336 137.055 63.3437 137.401 63.9992C137.747 64.6548 138.561 64.9035 139.216 64.5573C139.253 64.5405 142.82 62.705 148.484 63.1387C152.549 63.4479 155.813 63.9858 160.852 68.0837C161.101 68.2853 161.4 68.3862 161.699 68.3862C162.089 68.3862 162.476 68.2181 162.741 67.8887C163.209 67.3138 163.124 66.4667 162.546 65.9961C161.827 65.4111 161.138 64.8901 160.472 64.4295C160.18 64.8867 160.025 65.159 160.015 65.1758C159.655 65.8246 158.838 66.0633 158.19 65.7036C157.541 65.3439 157.302 64.527 157.662 63.8782C157.706 63.7975 157.88 63.4849 158.19 63.0008C154.727 61.088 151.86 60.6981 148.686 60.4561C146.656 60.3014 144.861 60.4023 143.348 60.6174C143.22 61.0948 142.837 61.4814 142.323 61.5889L142.326 61.5856Z" fill="#1D2939"/>
<path d="M99.7006 93.6735C99.6837 93.6397 99.6668 93.6025 99.6465 93.572C99.6668 93.6058 99.6837 93.6397 99.7006 93.6735Z" fill="#1D2939"/>
<path d="M99.8514 94.1574C99.848 94.1202 99.848 94.0864 99.8379 94.0492C99.8447 94.083 99.8447 94.1202 99.8514 94.1574Z" fill="#1D2939"/>
<path d="M99.4756 93.3601C99.4925 93.377 99.506 93.4007 99.5229 93.4176C99.5094 93.4007 99.4993 93.3838 99.4823 93.3669L99.4756 93.3601Z" fill="#1D2939"/>
<path d="M99.8646 94.3114C99.8646 94.3452 99.8579 94.3824 99.8545 94.4162C99.8545 94.3824 99.8646 94.3452 99.8646 94.3114Z" fill="#1D2939"/>
<path d="M99.8009 93.9153C99.7907 93.8781 99.7806 93.8375 99.7637 93.8003C99.7772 93.8375 99.7873 93.8781 99.8009 93.9153Z" fill="#1D2939"/>
<path d="M99.7979 94.7123C99.8114 94.665 99.8317 94.6176 99.8418 94.5669C99.8317 94.6142 99.8148 94.6616 99.7979 94.7123Z" fill="#1D2939"/>
<path d="M99.0278 93.0609C99.1993 93.1315 99.3472 93.2323 99.4716 93.3534C99.1926 93.0642 89.269 82.67 86.1796 68.346C84.6299 61.1453 87.1612 50.1191 95.0039 42.9722C95.0208 42.9554 95.0409 42.9386 95.0577 42.9218C95.1082 42.868 100.295 37.6877 107.624 36.9279C112.717 36.4002 117.036 36.7498 121.628 38.0642C136.85 42.4243 140.702 60.3553 140.739 60.5335C140.783 60.7419 140.874 60.9235 140.995 61.0814C141.677 60.9066 142.464 60.7386 143.351 60.6142C143.405 60.4192 143.419 60.2108 143.375 59.999C143.21 59.1956 139.179 40.293 122.371 35.4791C117.43 34.0638 112.794 33.684 107.345 34.2521C99.243 35.0925 93.6694 40.5048 93.1685 41.009C84.5963 48.8417 81.8397 60.9705 83.5508 68.9141C86.425 82.2565 94.6678 92.0793 96.9705 94.6173C97.1386 94.1366 97.2529 93.8542 97.2764 93.8005C97.5554 93.1113 98.3421 92.7819 99.0278 93.0609Z" fill="#1D2939"/>
<path d="M98.5205 95.6528C98.8601 95.6528 99.1996 95.525 99.4618 95.2695C99.6265 95.1082 99.7341 94.9166 99.798 94.7115C99.8148 94.6644 99.8316 94.6174 99.8417 94.5669C99.8518 94.5165 99.8551 94.4661 99.8585 94.4157C99.8585 94.3821 99.8686 94.3451 99.8686 94.3115C99.8686 94.261 99.8618 94.2106 99.8551 94.1568C99.8518 94.1198 99.8518 94.0862 99.8417 94.0492C99.8316 94.0022 99.8181 93.9585 99.8047 93.9148C99.7946 93.8778 99.7845 93.8375 99.7677 93.8005C99.7509 93.7568 99.724 93.7131 99.7005 93.6727C99.6837 93.6391 99.6669 93.6021 99.6467 93.5719C99.6131 93.5181 99.5694 93.4677 99.5257 93.4173C99.5089 93.3971 99.4954 93.3769 99.4786 93.3601C99.4786 93.3601 99.4786 93.3601 99.4786 93.3567C99.3542 93.2324 99.2063 93.1315 99.0349 93.0643C98.3491 92.7853 97.5625 93.1147 97.2834 93.8038C97.2599 93.8576 97.149 94.14 96.9775 94.6207C97.3036 94.9804 97.512 95.1956 97.5658 95.2527C97.828 95.5217 98.1777 95.6561 98.5273 95.6561L98.5205 95.6528Z" fill="#1D2939"/>
<path d="M142.326 61.5858C142.841 61.4816 143.224 61.0916 143.352 60.6143C142.468 60.742 141.678 60.9067 140.995 61.0815C141.298 61.4748 141.805 61.6866 142.326 61.5824V61.5858Z" fill="#1D2939"/>
<path d="M182.431 46.8481C168.181 48.7105 160.241 59.7502 158.193 62.9975C158.926 63.4009 159.683 63.8749 160.479 64.4262C162.328 61.5419 169.791 51.2115 182.78 49.5139C187.719 48.8685 204.456 47.9844 212.44 63.7438C217.187 73.1094 214.989 81.7522 212.313 87.3561C207.734 96.9368 197.868 105.287 188.858 107.21C188.22 107.348 187.769 107.923 187.796 108.575C187.796 108.645 188.035 115.533 186.125 121.719C183.708 129.545 180.303 135.619 176.003 139.774C171.415 144.208 167.213 146.787 161.962 148.387L156.865 149.516L151.43 150.589C152.418 151.022 153.363 151.581 154.243 152.26C154.418 152.394 154.586 152.532 154.751 152.673L157.417 152.145L162.594 150.999C162.627 150.992 162.661 150.982 162.695 150.972C168.325 149.264 173.008 146.407 177.872 141.704C182.501 137.23 186.146 130.772 188.697 122.506C190.29 117.342 190.492 111.876 190.499 109.577C200.086 107.079 209.933 98.5706 214.743 88.5091C217.681 82.3607 220.085 72.8606 214.844 62.5235C206.06 45.1908 187.82 46.1388 182.434 46.8414L182.431 46.8481Z" fill="#1D2939"/>
<path d="M158.193 65.7037C158.845 66.0634 159.662 65.8248 160.018 65.176C160.028 65.1558 160.183 64.8869 160.476 64.4297C159.682 63.875 158.922 63.4044 158.19 63.001C157.884 63.4884 157.706 63.8011 157.662 63.8784C157.302 64.5272 157.541 65.3474 158.19 65.7037H158.193Z" fill="#1D2939"/>
<path d="M151.248 153.342C150.619 153.342 150.058 152.898 149.93 152.256C149.786 151.527 150.26 150.821 150.989 150.676L151.426 150.589C149.665 149.819 147.755 149.453 145.809 149.517C145.752 150.441 145.678 151.033 145.664 151.133C145.58 151.779 144.982 152.229 144.343 152.145C143.698 152.061 143.247 151.47 143.331 150.824C143.331 150.804 143.382 150.421 143.429 149.775L138.914 150.431C138.178 150.538 137.67 151.221 137.778 151.954C137.885 152.687 138.564 153.194 139.301 153.09L144.689 152.307C147.52 151.897 150.327 152.633 152.589 154.384C154.848 156.136 156.263 158.664 156.573 161.508C156.936 164.839 156.936 168.755 156.936 173.29V173.727C156.936 176.786 155.974 179.529 153.998 182.104C151.46 185.412 147.406 187.288 143.16 187.12C136.006 186.838 128.896 183.348 128.826 183.315C128.51 183.157 128.14 183.133 127.804 183.244C127.716 183.274 118.919 186.185 108.982 187.631C96.1537 189.5 87.3226 188.118 83.4399 183.637C73.9836 172.725 85.4502 155.833 85.5679 155.665C85.5947 155.628 85.6183 155.591 85.6384 155.551C90.9364 145.963 102.79 138.073 102.907 137.996C103.25 137.768 103.452 137.411 103.496 137.031C103.085 136.537 102.692 136.043 102.316 135.545C102.013 135.512 101.7 135.572 101.428 135.754C100.921 136.09 88.953 144.047 83.3155 154.199C82.9256 154.774 80.048 159.124 78.3067 164.883C75.8191 173.099 76.8914 180.195 81.4095 185.406C84.1425 188.559 88.4522 190.159 93.3803 190.791L93.656 189.507C93.8106 188.781 94.53 188.32 95.2528 188.475C95.9789 188.629 96.4428 189.345 96.2848 190.072L96.0764 191.043C97.0277 191.1 97.9959 191.127 98.9708 191.127C111.328 191.127 125.192 186.908 128.133 185.967C129.959 186.811 136.369 189.547 143.052 189.809C144.175 189.853 145.281 189.772 146.363 189.587C146.461 188.942 147.012 188.441 147.688 188.441C148.128 188.441 148.518 188.656 148.764 188.986C151.661 188.007 154.243 186.206 156.132 183.745C158.482 180.679 159.625 177.405 159.625 173.731V173.294C159.625 168.681 159.625 164.698 159.249 161.218C158.886 157.864 157.292 154.851 154.747 152.676L151.51 153.315C151.423 153.332 151.335 153.342 151.248 153.342Z" fill="#1D2939"/>
<path d="M143.429 149.779C143.385 150.424 143.335 150.807 143.331 150.828C143.247 151.473 143.698 152.065 144.343 152.149C144.982 152.233 145.58 151.782 145.664 151.137C145.678 151.036 145.752 150.444 145.809 149.52C145.308 149.537 144.807 149.577 144.303 149.651L143.425 149.779H143.429Z" fill="#1D2939"/>
<path d="M103.29 136.14C103.062 135.794 102.699 135.593 102.315 135.549C102.692 136.046 103.085 136.544 103.495 137.035C103.532 136.732 103.472 136.413 103.29 136.137V136.14Z" fill="#1D2939"/>
<path d="M151.426 150.592L150.989 150.68C150.26 150.824 149.786 151.53 149.93 152.26C150.058 152.902 150.619 153.345 151.248 153.345C151.335 153.345 151.423 153.335 151.51 153.318L154.747 152.68C154.583 152.539 154.411 152.401 154.24 152.266C153.362 151.587 152.418 151.029 151.426 150.596V150.592Z" fill="#1D2939"/>
<path d="M146.347 189.793V197.145C117.81 201.599 99.482 198.341 94.7387 197.292L96.08 191.047C95.1656 190.993 94.2647 190.909 93.3839 190.794L91.8376 198.009C91.6896 198.701 92.1031 199.39 92.7855 199.585C93.3301 199.74 102.124 202.15 118.018 202.15C126.167 202.15 136.185 201.515 147.91 199.619C148.562 199.515 149.039 198.95 149.039 198.291V189.793C149.039 189.49 148.935 189.214 148.771 188.993C147.991 189.255 147.191 189.453 146.37 189.594C146.36 189.662 146.35 189.725 146.35 189.793H146.347Z" fill="#1D2939"/>
<path d="M147.691 188.448C147.015 188.448 146.464 188.946 146.366 189.594C147.183 189.453 147.987 189.255 148.766 188.993C148.521 188.663 148.134 188.448 147.691 188.448Z" fill="#1D2939"/>
<path d="M96.2844 190.075C96.439 189.349 95.9784 188.633 95.2523 188.478C94.5296 188.323 93.8102 188.784 93.6555 189.51L93.3799 190.794C94.2606 190.909 95.1616 190.989 96.0759 191.046L96.2844 190.075Z" fill="#1D2939"/>
<path d="M134.991 95.5989C137.176 95.8712 139.025 97.0747 140.229 98.779C143.691 101.216 144.152 108.44 144.014 111.227C143.98 111.876 144.481 112.431 145.13 112.461C145.15 112.461 145.17 112.461 145.191 112.461C145.812 112.461 146.333 111.974 146.364 111.345C146.391 110.834 146.918 98.8395 140.235 96.1065C135.092 94.0055 128.755 95.7603 126.332 96.5872L125.471 95.0106C125.158 94.4391 124.446 94.2307 123.874 94.5433C123.303 94.856 123.094 95.5686 123.407 96.1401L124.755 98.6042C125.041 99.1286 125.679 99.3539 126.234 99.1286C126.258 99.1186 126.943 98.8429 128.033 98.5202C129.67 96.446 132.255 95.2526 134.991 95.5955V95.5989Z" fill="#1D2939"/>
<path d="M176.034 112.972L175.294 113.261C175.136 112.179 174.837 110.673 174.293 109.156C172.477 104.09 169.445 103.025 167.216 103.025H167.203C158.533 103.038 156.385 110.911 156.365 110.992C156.2 111.621 156.577 112.259 157.205 112.424C157.646 112.542 158.086 112.387 158.372 112.074C158.372 112.031 158.372 111.99 158.372 111.947C158.604 107.506 161.407 104.04 164.631 104.208C165.67 104.262 166.628 104.689 167.438 105.391C172.521 105.66 173.109 114.885 173.113 114.979C173.133 115.355 173.335 115.698 173.65 115.903C173.842 116.028 174.064 116.092 174.289 116.092C174.434 116.092 174.578 116.065 174.716 116.011L176.884 115.167C177.49 114.932 177.789 114.249 177.553 113.644C177.318 113.039 176.636 112.74 176.031 112.975L176.034 112.972Z" fill="#1D2939"/>
<path d="M139.876 115.248C140.403 115.248 140.884 114.891 141.015 114.357C141.173 113.725 140.79 113.086 140.158 112.932C139.156 112.679 137.573 112.101 135.815 111.392C134.914 111.631 133.959 111.705 132.984 111.584C130.513 111.274 128.469 109.778 127.306 107.711C126.288 107.247 125.636 106.944 125.609 106.931C125.02 106.659 124.321 106.911 124.046 107.503C123.77 108.091 124.025 108.79 124.617 109.066C125.071 109.277 135.815 114.27 139.59 115.214C139.687 115.238 139.781 115.251 139.876 115.251V115.248Z" fill="#1D2939"/>
<path d="M158.439 118.852C158.449 118.371 158.748 117.964 159.165 117.793C158.695 117.335 158.174 116.875 157.646 116.408C156.772 115.634 155.864 114.831 155.434 114.243C154.963 113.349 156.056 108.326 157.774 103.502C157.992 102.89 157.673 102.218 157.061 102C156.449 101.781 155.777 102.1 155.558 102.712C154.156 106.649 152.029 113.557 153.521 115.608C154.116 116.424 155.074 117.272 156.089 118.169C157 118.976 158.691 120.469 158.779 121.057C158.574 121.803 155.629 123.686 151.938 125.121C151.333 125.356 151.033 126.039 151.269 126.644C151.45 127.108 151.894 127.394 152.365 127.394C152.506 127.394 152.65 127.367 152.792 127.313C155.908 126.103 161.139 123.679 161.135 121.064C161.135 120.734 161.058 120.408 160.923 120.082C160.268 120.068 159.794 120.058 159.596 120.055C158.947 120.042 158.432 119.5 158.446 118.852H158.439Z" fill="#1D2939"/>
<path d="M163.793 119.655C162.311 119.578 161 118.872 160.035 117.709C159.9 117.709 159.769 117.702 159.641 117.698C159.631 117.698 159.625 117.698 159.615 117.698C159.457 117.698 159.302 117.729 159.164 117.789C159.954 118.556 160.599 119.312 160.919 120.082C162.623 120.116 165.555 120.166 168.059 120.166C170.029 120.166 171.733 120.136 172.362 120.042C173.004 119.944 173.448 119.346 173.35 118.704C173.253 118.062 172.654 117.618 172.012 117.715C171.518 117.789 169.989 117.816 168.062 117.816C166.926 119.07 165.413 119.742 163.793 119.658V119.655Z" fill="#1D2939"/>
<path d="M159.165 117.793C158.748 117.967 158.452 118.371 158.439 118.851C158.425 119.5 158.94 120.041 159.588 120.055C159.787 120.058 160.261 120.072 160.916 120.082C160.6 119.312 159.951 118.556 159.161 117.789L159.165 117.793Z" fill="#1D2939"/>
<path d="M136.961 121.181C137.398 120.704 138.145 120.67 138.622 121.111C138.639 121.127 138.955 121.413 139.51 121.874C139.822 121.571 140.051 121.386 140.064 121.376C140.579 120.979 140.676 120.243 140.279 119.729C139.883 119.215 139.147 119.117 138.629 119.51C138.468 119.635 134.686 122.58 135.17 126.365C135.244 126.96 135.751 127.394 136.336 127.394C136.387 127.394 136.437 127.394 136.487 127.383C137.133 127.303 137.587 126.711 137.506 126.069C137.402 125.239 137.664 124.435 138.054 123.733C137.466 123.238 137.109 122.916 137.032 122.845C136.555 122.405 136.521 121.662 136.961 121.185V121.181Z" fill="#1D2939"/>
<path d="M162.849 130.083C162.298 129.736 161.571 129.901 161.225 130.453C161.151 130.57 160.859 131.048 160.549 131.723C160.812 131.737 161.071 131.75 161.333 131.75C161.982 131.75 162.506 132.281 162.503 132.933C162.503 133.582 161.971 134.103 161.326 134.103H161.319C160.808 134.103 160.301 134.073 159.793 134.033C159.672 134.692 159.635 135.377 159.766 136.026C159.877 136.584 160.368 136.971 160.919 136.971C160.997 136.971 161.074 136.964 161.151 136.947C161.79 136.82 162.2 136.201 162.076 135.562C161.827 134.312 162.845 132.308 163.222 131.703C163.568 131.152 163.4 130.429 162.852 130.083H162.849Z" fill="#1D2939"/>
<path d="M139.513 121.874C139.082 122.291 138.491 122.946 138.054 123.729C141.072 126.261 150.246 133.28 159.794 134.029C159.952 133.172 160.257 132.359 160.55 131.72C151.531 131.28 142.347 124.234 139.513 121.874Z" fill="#1D2939"/>
<path d="M139.512 121.874C138.958 121.41 138.642 121.127 138.625 121.111C138.148 120.674 137.401 120.704 136.964 121.181C136.524 121.659 136.557 122.405 137.035 122.842C137.112 122.912 137.469 123.235 138.057 123.729C138.49 122.946 139.082 122.291 139.516 121.874H139.512Z" fill="#1D2939"/>
<path d="M161.326 134.103C161.971 134.103 162.499 133.582 162.502 132.933C162.502 132.285 161.981 131.754 161.333 131.75C161.074 131.75 160.812 131.737 160.549 131.723C160.257 132.359 159.951 133.176 159.793 134.033C160.301 134.073 160.812 134.1 161.319 134.103H161.326Z" fill="#1D2939"/>
<path d="M153.285 135.458C147.779 134.033 144 131.266 143.96 131.239C143.439 130.853 142.702 130.96 142.316 131.481C141.929 132.002 142.037 132.739 142.558 133.128C142.726 133.253 146.723 136.194 152.697 137.737C152.794 137.764 152.895 137.774 152.993 137.774C153.517 137.774 153.994 137.421 154.132 136.894C154.293 136.265 153.917 135.623 153.288 135.461L153.285 135.458Z" fill="#1D2939"/>
<path d="M154.868 101.677C154.996 101.72 155.124 101.741 155.252 101.741C155.739 101.741 156.196 101.435 156.364 100.947C157.245 98.3857 156.805 94.2441 156.788 94.0693C156.717 93.4239 156.129 92.9532 155.49 93.0272C154.845 93.0978 154.377 93.6793 154.448 94.3248C154.562 95.3736 154.727 98.4697 154.139 100.181C153.927 100.796 154.253 101.465 154.868 101.677Z" fill="#1D2939"/>
<path d="M159.545 100.826C161.135 98.174 161.485 95.2225 161.502 95.0914C161.572 94.4459 161.108 93.8644 160.463 93.7904C159.817 93.7165 159.236 94.1837 159.162 94.8292C159.162 94.8561 158.832 97.6395 157.343 99.9154C156.987 100.46 157.138 101.189 157.683 101.546C157.881 101.677 158.106 101.737 158.328 101.737C158.449 101.737 158.567 101.714 158.681 101.677C158.812 101.284 159.125 100.961 159.549 100.826H159.545Z" fill="#1D2939"/>
<path d="M134.319 91.4909C135.804 89.7193 138.86 86.9729 140.729 87.151C141.072 87.1846 141.586 87.3292 142.087 88.2301C145.536 94.4256 151.167 100.177 151.403 100.419C151.665 100.688 152.014 100.82 152.361 100.82C152.707 100.82 153.043 100.692 153.305 100.433C153.836 99.9119 153.84 99.0614 153.319 98.5302C153.262 98.4731 147.708 92.802 144.437 86.9191C143.408 85.0668 141.99 84.5659 140.981 84.4718C137.109 84.1154 132.742 89.1848 132.255 89.7664C131.777 90.3379 131.854 91.1816 132.426 91.659C132.994 92.1364 133.845 92.059 134.319 91.4909Z" fill="#1D2939"/>
<path d="M159.544 100.826C159.467 100.954 159.39 101.082 159.309 101.206C159.154 101.441 158.929 101.599 158.677 101.677C158.593 101.929 158.58 102.205 158.66 102.48C158.869 103.193 159.615 103.603 160.328 103.395C160.385 103.378 166.187 101.69 170.745 100.305C171.71 100.013 172.574 99.6967 173.334 99.4177C174.272 99.0748 175.156 98.7487 175.593 98.7218C175.724 98.7117 175.879 98.7319 176.084 98.9168C177.028 99.7639 177.566 102.551 177.644 104.258C177.677 104.981 178.272 105.543 178.985 105.543C179.005 105.543 179.025 105.543 179.045 105.543C179.788 105.509 180.363 104.88 180.33 104.137C180.306 103.603 180.03 98.8529 177.882 96.9166C177.183 96.2846 176.333 95.9854 175.432 96.0359C174.601 96.0863 173.633 96.4393 172.406 96.8897C171.68 97.1553 170.853 97.4578 169.962 97.7301C165.421 99.1118 159.635 100.796 159.578 100.813C159.568 100.813 159.558 100.823 159.548 100.826H159.544Z" fill="#1D2939"/>
<path d="M159.309 101.21C159.393 101.085 159.467 100.957 159.544 100.83C159.12 100.964 158.811 101.287 158.677 101.68C158.926 101.603 159.154 101.445 159.309 101.21Z" fill="#1D2939"/>
<path d="M141.654 104.551C141.923 102.416 141.358 100.376 140.228 98.7757C139.953 98.5807 139.66 98.4126 139.344 98.2849C135.502 96.715 130.618 97.7537 128.032 98.5202C127.135 99.6598 126.52 101.062 126.321 102.625C126.089 104.464 126.476 106.228 127.306 107.704C129.333 108.625 132.829 110.185 135.815 111.385C138.827 110.589 141.224 107.943 141.65 104.548L141.654 104.551ZM132.497 107.324C131.666 107.324 130.991 106.649 130.991 105.818C130.991 104.988 131.666 104.312 132.497 104.312C133.327 104.312 134.003 104.988 134.003 105.818C134.003 106.649 133.327 107.324 132.497 107.324ZM132.648 103.102C131.444 103.102 130.47 101.905 130.47 100.433C130.47 98.9606 131.444 97.7638 132.648 97.7638C133.851 97.7638 134.826 98.9606 134.826 100.433C134.826 101.905 133.851 103.102 132.648 103.102ZM136.971 102.107C137.906 102.107 138.662 102.937 138.662 103.963C138.662 104.988 137.906 105.818 136.971 105.818C136.037 105.818 135.28 104.988 135.28 103.963C135.28 102.937 136.037 102.107 136.971 102.107Z" fill="#1D2939"/>
<path d="M139.348 98.2882C139.664 98.4159 139.957 98.584 140.232 98.779C139.029 97.0746 137.176 95.8745 134.995 95.5989C132.262 95.256 129.677 96.4494 128.036 98.5235C130.625 97.7571 135.506 96.7183 139.348 98.2882Z" fill="#1D2939"/>
<path d="M132.987 111.58C133.962 111.701 134.917 111.627 135.818 111.389C132.829 110.189 129.337 108.629 127.31 107.708C128.473 109.775 130.517 111.271 132.987 111.58Z" fill="#1D2939"/>
<path d="M167.209 105.378C164.775 105.381 163 106.141 161.716 107.129C161.878 107.082 162.046 107.055 162.22 107.055C163.424 107.055 164.399 108.252 164.399 109.725C164.399 111.197 163.424 112.394 162.22 112.394C161.017 112.394 160.042 111.197 160.042 109.725C160.042 109.301 160.123 108.904 160.267 108.548C159.087 110.017 158.677 111.466 158.644 111.587C158.593 111.775 158.496 111.937 158.371 112.071C158.277 114.411 158.923 116.367 160.035 117.709C162.476 117.762 165.596 117.809 168.06 117.813C169.182 116.572 169.935 114.764 170.05 112.552C170.208 109.543 169.145 106.857 167.441 105.388C167.367 105.385 167.293 105.375 167.216 105.375H167.209V105.378ZM161.323 116.169C160.493 116.169 159.817 115.493 159.817 114.663C159.817 113.833 160.493 113.157 161.323 113.157C162.153 113.157 162.829 113.833 162.829 114.663C162.829 115.493 162.153 116.169 161.323 116.169ZM167.777 112.219C167.777 113.244 167.021 114.075 166.086 114.075C165.152 114.075 164.395 113.244 164.395 112.219C164.395 111.194 165.152 110.363 166.086 110.363C167.021 110.363 167.777 111.194 167.777 112.219Z" fill="#1D2939"/>
<path d="M158.375 111.943C158.375 111.987 158.375 112.027 158.375 112.071C158.499 111.937 158.597 111.775 158.647 111.587C158.681 111.466 159.091 110.014 160.271 108.548C160.553 107.842 161.081 107.314 161.72 107.129C163.004 106.144 164.779 105.385 167.213 105.378H167.22C167.297 105.378 167.371 105.388 167.445 105.391C166.635 104.689 165.677 104.262 164.638 104.208C161.414 104.04 158.61 107.503 158.378 111.947L158.375 111.943Z" fill="#1D2939"/>
<path d="M163.794 119.655C165.414 119.739 166.927 119.067 168.063 117.813C165.596 117.813 162.476 117.762 160.039 117.708C161.004 118.872 162.312 119.578 163.797 119.655H163.794Z" fill="#1D2939"/>
<path d="M132.644 97.7638C131.441 97.7638 130.466 98.9605 130.466 100.433C130.466 101.905 131.441 103.102 132.644 103.102C133.848 103.102 134.823 101.905 134.823 100.433C134.823 98.9605 133.848 97.7638 132.644 97.7638Z" fill="white"/>
<path d="M162.22 112.391C163.424 112.391 164.399 111.194 164.399 109.721C164.399 108.249 163.424 107.052 162.22 107.052C162.046 107.052 161.877 107.079 161.716 107.126C161.138 107.57 160.661 108.057 160.267 108.545C160.126 108.901 160.042 109.298 160.042 109.721C160.042 111.197 161.017 112.391 162.22 112.391Z" fill="white"/>
<path d="M161.716 107.126C161.078 107.311 160.553 107.839 160.268 108.545C160.661 108.057 161.138 107.57 161.716 107.126Z" fill="#FCFCFD"/>
<path d="M136.967 105.818C137.902 105.818 138.658 104.988 138.658 103.963C138.658 102.938 137.902 102.107 136.967 102.107C136.033 102.107 135.276 102.938 135.276 103.963C135.276 104.988 136.033 105.818 136.967 105.818Z" fill="white"/>
<path d="M164.398 112.216C164.398 113.241 165.155 114.071 166.089 114.071C167.024 114.071 167.78 113.241 167.78 112.216C167.78 111.19 167.024 110.36 166.089 110.36C165.155 110.36 164.398 111.19 164.398 112.216Z" fill="white"/>
<path d="M132.492 104.312C131.662 104.312 130.986 104.988 130.986 105.818C130.986 106.649 131.662 107.324 132.492 107.324C133.323 107.324 133.998 106.649 133.998 105.818C133.998 104.988 133.323 104.312 132.492 104.312Z" fill="white"/>
<path d="M161.326 113.153C160.496 113.153 159.82 113.829 159.82 114.659C159.82 115.49 160.496 116.165 161.326 116.165C162.157 116.165 162.832 115.49 162.832 114.659C162.832 113.829 162.157 113.153 161.326 113.153Z" fill="white"/>
<path d="M171.164 164.254C171.164 164.254 171.164 171.186 162.901 172.493C162.901 172.493 170.576 176.864 171.164 181.318C171.164 181.318 170.858 177.785 178.093 173.3C178.093 173.3 171.84 171.398 171.164 164.254Z" fill="#FFD731"/>
<path d="M171.164 182.494C170.582 182.494 170.078 182.064 169.997 181.473C169.577 178.299 164.313 174.652 162.316 173.515C161.882 173.267 161.65 172.773 161.741 172.282C161.832 171.791 162.222 171.408 162.716 171.33C169.839 170.204 169.984 164.489 169.987 164.247C169.994 163.622 170.488 163.108 171.113 163.081C171.732 163.064 172.277 163.518 172.334 164.143C172.922 170.379 178.213 172.104 178.435 172.174C178.876 172.312 179.195 172.692 179.252 173.149C179.309 173.606 179.097 174.053 178.707 174.299C172.374 178.225 172.33 181.187 172.334 181.217C172.388 181.856 171.924 182.42 171.288 182.488C171.245 182.491 171.201 182.494 171.161 182.494H171.164ZM165.785 172.964C166.337 173.357 166.945 173.815 167.564 174.329C169.107 175.606 170.287 176.864 171.09 178.084C171.9 176.79 173.299 175.206 175.705 173.478C174.24 172.615 172.32 171.072 171.107 168.517C170.186 170.181 168.582 171.936 165.785 172.968V172.964Z" fill="#FF9C00"/>
<path d="M118.983 121.369C118.983 121.369 118.983 128.301 110.72 129.609C110.72 129.609 118.394 133.979 118.983 138.433C118.983 138.433 118.677 134.9 125.911 130.416C125.911 130.416 119.658 128.513 118.983 121.369Z" fill="#FFD731"/>
<path d="M118.979 139.61C118.398 139.61 117.894 139.18 117.813 138.588C117.393 135.414 112.128 131.767 110.131 130.631C109.698 130.382 109.466 129.888 109.557 129.397C109.647 128.906 110.037 128.523 110.531 128.446C117.655 127.32 117.799 121.605 117.803 121.363C117.809 120.737 118.304 120.223 118.929 120.196C119.547 120.179 120.092 120.633 120.149 121.259C120.737 127.494 126.029 129.219 126.251 129.29C126.691 129.427 127.01 129.807 127.067 130.264C127.125 130.722 126.913 131.169 126.523 131.414C120.19 135.341 120.146 138.302 120.149 138.332C120.203 138.971 119.739 139.536 119.104 139.603C119.06 139.606 119.016 139.61 118.976 139.61H118.979ZM113.601 130.08C114.152 130.473 114.76 130.93 115.379 131.444C116.922 132.722 118.102 133.979 118.905 135.199C119.716 133.905 121.114 132.322 123.521 130.594C122.055 129.73 120.136 128.187 118.922 125.632C118.001 127.296 116.398 129.051 113.601 130.083V130.08Z" fill="#FF9C00"/>
<path d="M184.867 149.611C184.867 149.611 184.867 154.657 178.853 155.608C178.853 155.608 184.44 158.788 184.867 162.032C184.867 162.032 184.645 159.461 189.909 156.196C189.909 156.196 185.357 154.811 184.867 149.611Z" fill="#FFD731"/>
<path d="M184.863 162.886C184.44 162.886 184.073 162.573 184.016 162.143C183.71 159.834 179.878 157.178 178.426 156.351C178.11 156.169 177.942 155.81 178.009 155.453C178.076 155.097 178.358 154.818 178.718 154.761C183.905 153.941 184.009 149.782 184.009 149.608C184.013 149.154 184.376 148.777 184.83 148.76C185.28 148.747 185.677 149.08 185.717 149.534C186.147 154.072 189.996 155.329 190.158 155.38C190.477 155.48 190.713 155.756 190.753 156.089C190.793 156.422 190.642 156.748 190.356 156.926C185.744 159.783 185.714 161.941 185.717 161.962C185.757 162.426 185.421 162.836 184.957 162.886C184.927 162.886 184.893 162.889 184.863 162.889V162.886ZM180.947 155.948C181.347 156.233 181.791 156.566 182.241 156.939C183.364 157.87 184.221 158.785 184.809 159.672C185.398 158.731 186.416 157.578 188.168 156.321C187.102 155.692 185.704 154.569 184.82 152.707C184.151 153.917 182.981 155.195 180.947 155.948Z" fill="#FF9C00"/>
</g>
<rect x="173" y="31" width="80" height="22" rx="11" fill="#58F8E1"/>
<path d="M187.287 46L187.647 43.816H185.823L185.463 46H184.311L184.671 43.816H183.471L183.663 42.664H184.863L185.151 40.864H183.951L184.143 39.712H185.343L185.703 37.504H186.855L186.495 39.712H188.319L188.679 37.504H189.831L189.471 39.712H190.671L190.479 40.864H189.279L188.991 42.664H190.191L189.999 43.816H188.799L188.439 46H187.287ZM186.015 42.664H187.839L188.127 40.864H186.303L186.015 42.664ZM199.482 36.448V38.584H200.97V39.664H199.482V41.776H198.162V36.448H199.482ZM191.25 39.184C191.226 37.768 192.438 36.796 194.058 36.784C195.666 36.796 196.854 37.768 196.866 39.184C196.854 40.564 195.666 41.548 194.058 41.56C192.438 41.548 191.226 40.564 191.25 39.184ZM192.522 39.184C192.498 39.976 193.158 40.516 194.058 40.504C194.946 40.516 195.594 39.976 195.594 39.184C195.594 38.38 194.946 37.852 194.058 37.864C193.158 37.852 192.498 38.38 192.522 39.184ZM192.546 43.24V42.232H199.482V45.016H193.842V45.88H199.818V46.912H192.57V44.056H198.186V43.24H192.546ZM207.477 36.976V38.008H205.269C205.281 39.148 206.157 40.288 207.813 40.768L207.213 41.752C205.989 41.416 205.125 40.696 204.645 39.784C204.177 40.828 203.277 41.632 201.981 42.016L201.333 40.984C203.037 40.492 203.937 39.268 203.949 38.008H201.717V36.976H207.477ZM202.917 43.336V42.328H209.853V45.04H204.213V45.928H210.189V46.936H202.941V44.104H208.557V43.336H202.917ZM208.533 41.896V36.448H209.853V38.608H211.341V39.664H209.853V41.896H208.533ZM220.44 36.448V39.16H221.712V40.264H220.44V42.784H219.12V36.448H220.44ZM212.16 42.136V37.288H214.872V38.344H213.408V41.044C213.924 41.02 214.44 40.972 215.016 40.84L215.136 41.944C214.212 42.112 213.48 42.124 212.688 42.136H212.16ZM213.192 44.272V43.216H220.44V47.056H219.12V44.272H213.192ZM215.448 42.136V37.288H218.28V38.344H216.696V41.044C217.44 41.032 217.944 40.984 218.544 40.84L218.688 41.92C217.86 42.1 217.236 42.124 216.024 42.136H215.448ZM230.595 36.448V38.608H232.083V39.664H230.595V41.824H229.275V36.448H230.595ZM222.147 40.792C223.299 40.048 223.911 39.304 224.091 38.032H222.507V36.976H225.339C225.339 39.112 224.679 40.432 223.011 41.608L222.147 40.792ZM223.611 43.288V42.28H230.595V45.04H224.907V45.88H230.979V46.912H223.635V44.056H229.299V43.288H223.611ZM225.171 41.176C226.383 40.3 226.947 39.4 227.115 38.032H225.747V36.976H228.363C228.363 39.16 227.787 40.648 226.083 41.944L225.171 41.176ZM241.662 36.448V44.392H240.438V36.448H241.662ZM232.542 41.968C233.946 41.284 234.606 39.88 234.606 38.608V37.168H235.878V38.608C235.878 39.856 236.478 41.08 237.846 41.68L237.102 42.688C236.214 42.28 235.602 41.572 235.254 40.708C234.87 41.68 234.222 42.496 233.262 42.952L232.542 41.968ZM234.558 46.84V43.432H235.878V45.784H241.95V46.84H234.558ZM236.886 40.024V38.968H238.302V36.64H239.55V44.08H238.302V40.024H236.886Z" fill="#1D2939"/>
<rect x="27" y="96" width="59" height="22" rx="11" fill="#58F8E1"/>
<path d="M41.1581 111L41.5181 108.816H39.6941L39.3341 111H38.1821L38.5421 108.816H37.3421L37.5341 107.664H38.7341L39.0221 105.864H37.8221L38.0141 104.712H39.2141L39.5741 102.504H40.7261L40.3661 104.712H42.1901L42.5501 102.504H43.7021L43.3421 104.712H44.5421L44.3501 105.864H43.1501L42.8621 107.664H44.0621L43.8701 108.816H42.6701L42.3101 111H41.1581ZM39.8861 107.664H41.7101L41.9981 105.864H40.1741L39.8861 107.664ZM48.2646 103.824C48.2646 104.952 48.9486 106.056 50.2806 106.512L49.6806 107.496C48.7206 107.136 48.0486 106.476 47.6766 105.66C47.2926 106.548 46.6206 107.28 45.6246 107.664L45.0246 106.704C46.3566 106.188 47.0166 105.036 47.0406 103.824V103.752H45.2886V102.72H47.0406V101.568H48.2646V102.72H49.9686V103.752H48.2646V103.824ZM46.8006 109.488V108.432H54.0486V112.032H52.7526V109.488H46.8006ZM50.5446 107.904V101.64H51.7926V104.184H52.8246V101.472H54.0486V107.928H52.8246V105.24H51.7926V107.904H50.5446ZM64.1797 101.472V107.472H62.8837V101.472H64.1797ZM55.5637 104.496C55.5517 102.996 56.7757 101.964 58.4197 101.976C60.0397 101.964 61.2637 102.996 61.2517 104.496C61.2637 105.96 60.0397 107.004 58.4197 107.016C56.7757 107.004 55.5517 105.96 55.5637 104.496ZM56.8357 104.496C56.8237 105.348 57.4837 105.912 58.4197 105.912C59.3197 105.912 59.9797 105.348 59.9797 104.496C59.9797 103.62 59.3197 103.068 58.4197 103.08C57.4837 103.068 56.8237 103.62 56.8357 104.496ZM57.1477 111.912V107.976H64.1797V111.912H57.1477ZM58.4437 110.856H62.9077V109.008H58.4437V110.856ZM74.0948 101.448V103.872H75.5828V104.928H74.0948V107.4H72.7748V101.448H74.0948ZM65.6468 106.56C68.1068 105.936 69.4988 104.676 69.7148 103.152H66.1508V102.096H71.1428C71.1428 104.844 69.3428 106.752 66.1748 107.592L65.6468 106.56ZM67.2308 111.912V107.832H74.0948V111.912H67.2308ZM68.5268 110.88H72.7988V108.888H68.5268V110.88Z" fill="#1D2939"/>
<rect x="191" y="173" width="59" height="22" rx="11" fill="#58F8E1"/>
<path d="M205.158 188L205.518 185.816H203.694L203.334 188H202.182L202.542 185.816H201.342L201.534 184.664H202.734L203.022 182.864H201.822L202.014 181.712H203.214L203.574 179.504H204.726L204.366 181.712H206.19L206.55 179.504H207.702L207.342 181.712H208.542L208.35 182.864H207.15L206.862 184.664H208.062L207.87 185.816H206.67L206.31 188H205.158ZM203.886 184.664H205.71L205.998 182.864H204.174L203.886 184.664ZM218.649 184.808V185.888H214.449V189.056H213.153V185.888H209.001V184.808H218.649ZM209.529 183.128C211.641 182.876 213.033 181.784 213.141 180.728H209.889V179.696H213.153V178.448H214.449V179.696H217.737V180.728H214.485C214.581 181.784 215.973 182.876 218.097 183.128L217.617 184.16C215.865 183.944 214.509 183.176 213.813 182.156C213.129 183.188 211.761 183.932 209.985 184.16L209.529 183.128ZM223.38 180.608C223.38 181.928 224.28 183.212 225.972 183.728L225.3 184.76C224.1 184.364 223.224 183.572 222.744 182.564C222.276 183.656 221.376 184.532 220.116 184.952L219.444 183.92C221.148 183.368 222.06 182 222.06 180.608V180.296H219.78V179.264H225.612V180.296H223.38V180.608ZM221.172 188.84V185.432H222.492V187.784H228.468V188.84H221.172ZM226.884 186.152V178.472H228.18V186.152H226.884ZM234.783 179.072V182.264H231.447V183.584C233.151 183.572 234.123 183.524 235.263 183.32L235.383 184.376C234.123 184.58 233.019 184.616 230.943 184.616H230.151V181.304H233.487V180.104H230.151V179.072H234.783ZM231.375 186.536V185.48H238.599V189.056H237.303V186.536H231.375ZM235.431 183.224V182.192H237.303V180.992H235.431V179.96H237.303V178.472H238.599V184.976H237.303V183.224H235.431Z" fill="#1D2939"/>
<defs>
<clipPath id="clip0_1283_6723">
<rect width="140.924" height="168.15" fill="white" transform="translate(77 34)"/>
</clipPath>
</defs>
</svg>
