<svg width="272" height="236" viewBox="0 0 272 236" fill="none" xmlns="http://www.w3.org/2000/svg">
<path d="M221.018 131.036C236.492 131.036 249.036 118.492 249.036 103.018C249.036 87.5441 236.492 75 221.018 75C205.544 75 193 87.5441 193 103.018C193 118.492 205.544 131.036 221.018 131.036Z" fill="#D0D5DD" stroke="#1D2939" stroke-width="4" stroke-linecap="round" stroke-linejoin="round"/>
<path d="M221.017 130.402V126.021V130.402ZM207.339 126.736L209.528 122.943L207.339 126.736ZM197.326 116.724L201.12 114.535L197.326 116.724ZM193.661 103.046H198.042H193.661ZM197.326 89.3679L201.12 91.5573L197.326 89.3679ZM207.339 79.3544L209.528 83.1492L207.339 79.3544ZM221.017 75.6899V80.0712V75.6899ZM234.695 79.3544L232.506 83.1492L234.695 79.3544ZM244.707 89.3679L240.914 91.5573L244.707 89.3679ZM248.373 103.046H243.992H248.373ZM244.707 116.724L240.914 114.535L244.707 116.724ZM234.695 126.736L232.506 122.943L234.695 126.736Z" fill="#D0D5DD"/>
<path d="M221.017 130.402V126.021M207.339 126.736L209.528 122.943M197.326 116.724L201.12 114.535M193.661 103.046H198.042M197.326 89.3679L201.12 91.5572M207.339 79.3544L209.528 83.1492M221.017 75.6899V80.0712M234.695 79.3544L232.506 83.1492M244.707 89.3679L240.914 91.5572M248.373 103.046H243.992M244.707 116.724L240.914 114.535M234.695 126.736L232.506 122.943" stroke="#1D2939" stroke-width="4" stroke-linecap="round" stroke-linejoin="round"/>
<path d="M221.018 106.273C222.816 106.273 224.273 104.816 224.273 103.018C224.273 101.22 222.816 99.7625 221.018 99.7625C219.22 99.7625 217.763 101.22 217.763 103.018C217.763 104.816 219.22 106.273 221.018 106.273Z" fill="#D0D5DD" stroke="#1D2939" stroke-width="4" stroke-linecap="round" stroke-linejoin="round"/>
<path d="M221.018 106.269V115.474V106.269ZM239.145 103.018H224.446H239.145ZM218.351 100.35L206.956 88.9556L218.351 100.35Z" fill="#D0D5DD"/>
<path d="M221.018 106.269V115.474M239.145 103.018H224.446M218.351 100.35L206.956 88.9556" stroke="#1D2939" stroke-width="4" stroke-linecap="round" stroke-linejoin="round"/>
<path d="M127.756 183.115C127.826 188.407 121.61 192.781 113.876 192.88C106.143 192.98 96.9148 192.496 96.8451 187.204C96.7755 181.912 105.891 173.814 113.626 173.713C121.359 173.613 127.686 177.821 127.756 183.115Z" fill="#FF7EFA" stroke="#1D2939" stroke-width="2"/>
<path d="M112.208 194.166C108.97 194.166 105.236 194.019 102.193 193.306C97.8372 192.283 95.6084 190.237 95.5688 187.221C95.5312 184.278 97.745 180.656 101.491 177.532C105.315 174.347 109.731 172.489 113.609 172.438C117.622 172.383 121.391 173.413 124.271 175.33C127.302 177.346 128.991 180.104 129.03 183.098C129.07 186.091 127.451 188.893 124.475 190.986C121.645 192.976 117.886 194.102 113.891 194.155C113.351 194.162 112.786 194.166 112.208 194.166ZM113.901 174.985C113.814 174.985 113.729 174.985 113.643 174.987C110.388 175.028 106.457 176.713 103.125 179.49C100.057 182.049 98.0914 185.069 98.1196 187.187C98.1272 187.818 98.1516 189.738 102.777 190.824C106.092 191.602 110.437 191.651 113.859 191.606C117.346 191.56 120.595 190.6 123.01 188.902C125.277 187.307 126.51 185.257 126.483 183.132C126.455 181.006 125.169 178.99 122.861 177.453C120.463 175.859 117.289 174.985 113.901 174.985Z" fill="#1D2939" stroke="#1D2939" stroke-width="2"/>
<path d="M156.525 184.365C156.61 189.657 162.948 193.848 170.684 193.724C178.419 193.599 187.628 192.848 187.543 187.556C187.459 182.264 178.114 174.433 170.379 174.558C162.643 174.682 156.441 179.071 156.525 184.365Z" fill="#4747F4"/>
<path d="M170.356 195C162.088 195 155.345 190.288 155.251 184.384C155.155 178.397 161.932 173.417 170.356 173.283C178.368 173.165 188.714 181.147 188.816 187.535C188.865 190.551 186.696 192.662 182.37 193.81C178.812 194.755 174.266 194.942 170.703 194.998C170.588 195 170.471 195 170.356 195ZM157.8 184.344C157.871 188.857 163.472 192.453 170.349 192.453C170.454 192.453 170.558 192.451 170.663 192.451C174.082 192.396 178.427 192.221 181.719 191.348C186.31 190.13 186.279 188.209 186.269 187.577C186.198 183.052 177.451 175.83 170.554 175.83C170.501 175.83 170.45 175.83 170.398 175.832C163.378 175.943 157.727 179.762 157.8 184.344Z" fill="#4747F4"/>
<path d="M218.716 142.038C209.268 138.888 204.953 133.406 204.953 133.406L204.927 133.43C205.669 129.635 206.062 125.672 206.062 121.565C206.062 87.4998 179.225 56.4729 148.062 56.4729C117.882 56.4729 75.8905 95.3752 75.8905 129.439C75.8905 130.873 75.9696 132.272 76.1108 133.643C75.162 134.729 70.8247 139.278 62.5473 142.036C54.2831 144.79 69.7102 152.365 80.0301 154.221C80.7455 160.377 81.0523 167.803 79.0964 171.433C75.6439 177.845 126.731 180.756 137.546 179.244C138.61 179.361 139.668 179.458 140.718 179.541C148.077 181.533 203.969 178.656 200.362 171.958C198.38 168.275 198.722 160.692 199.458 154.486C209.643 153.28 227.47 144.956 218.716 142.038Z" fill="#4747F4" stroke="#1D2939" stroke-width="4"/>
<path d="M150.829 181.439C145.961 181.439 142.219 181.23 140.509 180.805C139.519 180.725 138.529 180.633 137.565 180.53C132.258 181.226 118.446 180.938 105.928 179.863C89.4312 178.446 80.0826 176.314 78.1436 173.528C77.5544 172.683 77.4961 171.724 77.9761 170.83C79.3522 168.273 79.6647 162.776 78.8684 155.292C71.745 153.795 59.2677 148.978 58.9364 144.365C58.8574 143.265 59.3487 141.759 62.1461 140.827C69.3335 138.431 73.4487 134.611 74.789 133.2C74.6742 131.933 74.6177 130.67 74.6177 129.437C74.6177 113.455 84.019 94.7011 99.768 79.2686C114.918 64.4235 133.424 55.1982 148.06 55.1982C163.192 55.1982 178.368 62.5615 189.701 75.4015C200.908 88.0985 207.335 104.924 207.335 121.565C207.335 125.434 206.986 129.283 206.301 133.014C207.474 134.287 211.634 138.335 219.119 140.829C221.975 141.782 222.436 143.326 222.321 144.451C221.828 149.267 208.321 154.403 200.614 155.614C199.789 163.203 200.094 168.772 201.484 171.355C201.994 172.3 201.887 173.343 201.194 174.217C198.389 177.753 183.459 179.618 171.428 180.56C163.992 181.142 156.616 181.439 150.829 181.439ZM137.527 177.962L137.686 177.979C138.71 178.092 139.764 178.19 140.818 178.272L141.051 178.314C144.361 179.21 158.98 179.031 172.335 177.932C193.206 176.215 198.792 173.524 199.244 172.577C197.493 169.292 197.146 163.169 198.193 154.339L198.312 153.342L199.308 153.223C207.852 152.208 219.531 146.671 219.784 144.194C219.806 143.975 219.307 143.58 218.311 143.248C211 140.81 206.655 137.037 204.88 135.226C204.27 135.802 203.28 135.26 203.436 134.437L203.673 133.187C204.411 129.411 204.784 125.502 204.784 121.565C204.784 87.5694 178.276 57.7474 148.058 57.7474C134.064 57.7474 116.242 66.6921 101.547 81.0929C86.278 96.0548 77.161 114.129 77.161 129.441C77.161 130.774 77.2325 132.142 77.3737 133.515L77.4302 134.067L77.065 134.484C75.8903 135.827 71.4043 140.428 62.9462 143.248C61.8411 143.617 61.459 144.009 61.4722 144.184C61.6322 146.398 71.5511 151.404 80.2521 152.969L81.1839 153.136L81.2931 154.076C82.3059 162.789 81.9425 168.832 80.2163 172.039C80.2144 172.042 80.2126 172.046 80.2107 172.046C80.6851 173.134 86.4757 175.573 105.278 177.248C117.855 178.368 132.249 178.7 137.369 177.984L137.527 177.962Z" fill="#1D2939"/>
<path d="M186.479 127.348L186.479 127.361C187.119 138.631 185.438 147.321 183.76 153.911C183.379 155.41 182.987 156.838 182.622 158.167C182.198 159.709 181.812 161.117 181.521 162.348C180.976 164.652 180.665 166.695 181.074 168.359C181.454 169.91 181.75 171.248 181.628 172.513C181.513 173.709 181.016 174.897 179.638 176.107C178.222 177.35 175.87 178.621 172.037 179.868C168.216 181.111 162.992 182.31 155.895 183.447C138.326 186.263 125.007 182.567 116.168 178.278L116.087 178.239L116 178.215C98.7294 173.411 85.5742 153.839 85.5742 130.141C85.5742 102.729 103.124 80.9258 124.312 80.9258C128.272 80.9258 132.094 81.6821 135.695 83.0883L136.059 83.2303L136.423 83.0883C140.024 81.6821 143.846 80.9258 147.806 80.9258C166.632 80.9258 182.567 98.1075 185.904 121.206L185.996 121.839C186.005 121.923 186.015 122.009 186.025 122.1L186.026 122.107L186.027 122.115C186.247 123.831 186.401 125.577 186.479 127.348Z" fill="white" stroke="#1D2939" stroke-width="2"/>
<path d="M115.713 179.471L115.634 179.433L115.549 179.409C106.862 176.961 98.9279 170.787 93.2387 161.95L93.2387 161.95C87.4837 153.013 84.2998 141.714 84.2998 130.139C84.2998 102.076 102.45 79.6494 124.312 79.6494C128.189 79.6494 132.02 80.3483 135.709 81.7268L136.059 81.8577L136.409 81.7266C140.098 80.3465 143.927 79.6494 147.806 79.6494C166.454 79.6494 182.726 95.9066 186.838 118.99L187.117 120.558L187.123 120.554L187.186 121.014C187.186 121.015 187.186 121.017 187.186 121.019C187.208 121.195 187.227 121.371 187.247 121.555L187.25 121.579L187.25 121.582L187.292 121.953L187.293 121.962L187.294 121.971C187.52 123.716 187.675 125.51 187.753 127.286L187.754 127.298C188.552 141.399 185.73 151.675 183.842 158.54L183.842 158.541L183.828 158.594C183.286 160.566 182.787 162.382 182.482 163.934C182.18 165.471 182.031 166.908 182.312 168.054C182.912 170.503 183.497 173.057 181.893 175.474L181.893 175.474C180.681 177.302 178.193 179.003 173.926 180.56C169.685 182.108 163.835 183.463 156.096 184.703C151.781 185.393 147.719 185.692 143.928 185.692C131.599 185.692 122.069 182.541 115.713 179.471ZM181.436 175.169L181.436 175.169C182.88 172.992 182.403 170.729 181.779 168.184L181.779 168.184C181.525 167.146 181.571 165.87 181.867 164.225C182.163 162.583 182.686 160.677 183.314 158.393L183.314 158.393L183.318 158.38C185.283 151.229 188.002 141.339 187.205 127.319L187.204 127.292L187.203 127.282C187.126 125.53 186.971 123.76 186.747 122.021L186.746 122.015L186.624 121.11L186.623 121.101C183.226 97.5892 167.034 80.1986 147.806 80.1986C143.835 80.1986 139.917 80.9437 136.158 82.4114C136.158 82.4115 136.158 82.4115 136.158 82.4115L136.059 82.4503L135.96 82.4115C132.201 80.9437 128.281 80.1986 124.312 80.1986C102.34 80.1986 84.8487 102.838 84.8487 130.139C84.8487 153.25 97.7093 173.852 115.763 178.9L115.894 178.949C124.166 182.955 137.81 187.078 156.01 184.161L155.852 183.173L156.01 184.161C163.215 183.006 168.894 181.719 173.08 180.273C177.209 178.845 180.093 177.194 181.436 175.169Z" fill="#1D2939" stroke="#1D2939" stroke-width="2"/>
<path d="M138.607 130.467C144.519 130.467 149.311 127.141 149.311 123.038C149.311 118.935 144.519 115.608 138.607 115.608C132.696 115.608 127.903 118.935 127.903 123.038C127.903 127.141 132.696 130.467 138.607 130.467Z" fill="#02F1CF"/>
<path d="M128.001 119.217C126.278 119.937 124.936 120.715 124.113 121.988L128.001 119.217ZM128.001 119.217C128.002 119.218 128.003 119.219 128.004 119.22M128.001 119.217L128.004 119.22M128.004 119.22C127.999 119.224 127.994 119.229 127.987 119.234C127.951 119.263 127.899 119.295 127.831 119.323L128.004 119.22ZM124.029 125.839L124.029 125.839C124.941 127.159 126.348 127.78 128.187 128.045C129.549 128.242 130.94 128.224 132.375 128.206C132.963 128.199 133.558 128.192 134.162 128.199L124.029 125.839ZM124.029 125.839C123.285 124.762 123.319 123.217 124.113 121.988L124.029 125.839ZM140.444 128.241L140.445 128.241C142.302 128.171 144.011 127.861 145.273 126.985L145.274 126.985C146.56 126.092 147.392 124.881 147.531 123.511L140.444 128.241ZM140.444 128.241C138.992 128.297 137.555 128.266 136.07 128.234M140.444 128.241L136.07 128.234M146.036 120.045L146.036 120.045C144.766 118.824 143.036 118.025 141.142 117.4L141.142 117.4C139.108 116.728 136.963 116.417 134.911 116.632L134.755 115.14L134.912 116.631C134.849 116.638 134.799 116.653 134.762 116.669C134.754 116.672 134.747 116.675 134.741 116.678C134.744 116.682 134.746 116.686 134.749 116.69C138.038 116.381 141.512 117.18 144.346 118.854L144.347 118.854C144.989 119.234 145.546 119.626 146.11 120.199M146.036 120.045L145.483 121.767M146.036 120.045C147.069 121.038 147.651 122.316 147.532 123.511L146.036 120.045ZM146.11 120.199C146.111 120.2 146.111 120.201 146.112 120.201L145.043 121.253L146.108 120.198C146.109 120.198 146.11 120.199 146.11 120.199ZM146.11 120.199C146.317 120.408 146.541 120.649 146.73 120.933M146.73 120.933C146.729 120.932 146.728 120.93 146.727 120.929L145.483 121.767M146.73 120.933C146.943 121.249 147.168 121.647 147.29 122.024M146.73 120.933C146.731 120.935 146.732 120.936 146.733 120.938L145.483 121.767M145.483 121.767L147.29 122.024M147.29 122.024C147.395 122.345 147.485 122.693 147.501 123.085C147.518 123.487 147.452 123.84 147.365 124.165L147.365 124.167C147.155 124.947 146.7 125.628 146.2 126.144L146.197 126.147C144.804 127.573 142.942 128.03 141.287 128.178C140.111 128.283 138.834 128.239 137.761 128.201C137.364 128.188 136.994 128.175 136.668 128.171L136.668 128.171L133.87 128.137L131.071 128.103C131.071 128.103 131.071 128.103 131.071 128.103C130.916 128.102 130.75 128.101 130.575 128.1C130.019 128.098 129.379 128.096 128.768 128.053C127.951 127.996 127.033 127.862 126.175 127.496L126.173 127.495C125.409 127.168 124.641 126.639 124.125 125.88C123.58 125.075 123.353 124.047 123.71 122.96L123.71 122.958C124.074 121.854 124.822 121.074 125.575 120.524C126.321 119.98 127.155 119.601 127.83 119.323L147.29 122.024ZM136.07 128.234C135.444 128.22 134.81 128.206 134.162 128.199L136.07 128.234ZM128.034 119.257C128.034 119.257 128.034 119.256 128.033 119.255L128.034 119.257Z" fill="#1D2939" stroke="#1D2939" stroke-width="3"/>
<path d="M118.942 107.491C118.942 109.359 118.942 111.23 118.942 113.099C118.942 114.042 119.772 114.945 120.744 114.9C121.72 114.856 122.546 114.108 122.546 113.099C122.546 111.23 122.546 109.359 122.546 107.491C122.546 106.548 121.716 105.645 120.744 105.689C119.768 105.733 118.942 106.481 118.942 107.491Z" fill="#1D2939"/>
<path d="M142.374 106.892C142.374 108.76 142.374 110.631 142.374 112.5C142.374 113.443 143.204 114.346 144.176 114.301C145.152 114.257 145.977 113.509 145.977 112.5C145.977 110.631 145.977 108.76 145.977 106.892C145.977 105.949 145.148 105.046 144.176 105.09C143.202 105.132 142.374 105.88 142.374 106.892Z" fill="#1D2939"/>
<path d="M63.6074 67.9225V41.3298H80.7976L76.4347 45.6927H67.9703V63.5596H85.8372V55.0951L90.2 50.7323V67.9225H63.6074Z" fill="#475467"/>
<path d="M87.7898 41.3298L78.1681 50.953L74.7304 47.5153L71.2051 51.0423L78.168 58.0036L81.6933 54.4783L91.315 44.8551L87.7898 41.3298Z" fill="#FDFF90" stroke="#FFD809" stroke-width="3"/>
<g opacity="0.4">
<path d="M53.6348 27.6672L62.4033 35.8824" stroke="#475467" stroke-width="4" stroke-linecap="round"/>
<path d="M64.291 24.812L66.5039 33.0706" stroke="#475467" stroke-width="4" stroke-linecap="round"/>
<path d="M51 38.0813L59.2586 40.2942" stroke="#475467" stroke-width="4" stroke-linecap="round"/>
</g>
<rect x="166" y="33" width="59" height="22" rx="11" fill="#58F8E1"/>
<path d="M180.16 48L180.518 45.8086H178.689L178.332 48H177.172L177.529 45.8086H176.34L176.527 44.6602H177.723L178.016 42.8555H176.832L177.02 41.707H178.209L178.566 39.5156H179.727L179.369 41.707H181.197L181.555 39.5156H182.703L182.346 41.707H183.547L183.348 42.8555H182.152L181.859 44.6602H183.055L182.867 45.8086H181.666L181.309 48H180.16ZM178.883 44.6602H180.711L181.004 42.8555H179.176L178.883 44.6602ZM192.57 41.4375V42.4688H185.258V38.7773H186.57V41.4375H192.57ZM183.992 44.5547V43.5234H193.66V44.5547H189.57V46.5352H188.281V44.5547H183.992ZM185.164 48.832V45.6797H186.453V47.7773H192.652V48.832H185.164ZM203.164 38.4492V49.043H201.863V38.4492H203.164ZM194.469 46.0312C196.156 45.2871 197.129 43.5059 197.129 41.8125V41.2617H194.797V40.2188H197.129V38.6719H198.418V40.2188H200.703V41.2617H198.43V41.8125C198.424 43.4238 199.414 45.1523 201.125 45.8672L200.41 46.8633C199.197 46.3477 198.283 45.293 197.797 44.0156C197.322 45.3691 196.408 46.5 195.172 47.0391L194.469 46.0312ZM213.125 38.4609V41.25H214.555V42.3281H213.125V45.1406H211.824V38.4609H213.125ZM204.711 43.5938C205.479 43.5938 206.369 43.5879 207.301 43.5645V42.75C206.082 42.5625 205.279 41.8184 205.285 40.793C205.279 39.6035 206.363 38.7949 207.934 38.7891C209.486 38.7949 210.582 39.6035 210.594 40.793C210.582 41.8066 209.797 42.5391 208.613 42.7441V43.5117C209.498 43.4648 210.383 43.3887 211.203 43.2773L211.32 44.1914C209.111 44.5723 206.662 44.6074 204.852 44.6133L204.711 43.5938ZM206.047 47.1562C206.041 45.9551 207.4 45.2637 209.621 45.2695C211.824 45.2637 213.178 45.9551 213.184 47.1562C213.178 48.3223 211.824 49.0312 209.621 49.0312C207.4 49.0312 206.041 48.3223 206.047 47.1562ZM206.504 40.793C206.492 41.4434 207.066 41.8418 207.934 41.8477C208.783 41.8418 209.357 41.4434 209.363 40.793C209.357 40.1484 208.783 39.7734 207.934 39.7734C207.066 39.7734 206.492 40.1484 206.504 40.793ZM207.324 47.1562C207.318 47.7188 208.15 48.0234 209.621 48.0234C211.051 48.0234 211.883 47.7188 211.895 47.1562C211.883 46.5645 211.051 46.2598 209.621 46.2539C208.15 46.2598 207.318 46.5645 207.324 47.1562Z" fill="#1D2939"/>
<rect x="22" y="86" width="69" height="22" rx="11" fill="#58F8E1"/>
<path d="M35.9746 101L36.332 98.8086H34.5039L34.1465 101H32.9863L33.3438 98.8086H32.1543L32.3418 97.6602H33.5371L33.8301 95.8555H32.6465L32.834 94.707H34.0234L34.3809 92.5156H35.541L35.1836 94.707H37.0117L37.3691 92.5156H38.5176L38.1602 94.707H39.3613L39.1621 95.8555H37.9668L37.6738 97.6602H38.8691L38.6816 98.8086H37.4805L37.123 101H35.9746ZM34.6973 97.6602H36.5254L36.8184 95.8555H34.9902L34.6973 97.6602ZM43.2402 92.1875C44.9219 92.1816 46.1465 93.2422 46.1582 94.7422C46.1465 96.248 44.9219 97.3027 43.2402 97.3086C41.5762 97.3027 40.3281 96.248 40.334 94.7422C40.3281 93.2422 41.5762 92.1816 43.2402 92.1875ZM39.8535 98.7734C41.7637 98.7734 44.4062 98.75 46.6973 98.4219L46.8027 99.3711C44.4297 99.8223 41.8867 99.8398 40.0176 99.8398L39.8535 98.7734ZM41.623 94.7422C41.6172 95.627 42.3145 96.1719 43.2402 96.1719C44.1777 96.1719 44.875 95.627 44.8809 94.7422C44.875 93.8633 44.1836 93.3125 43.2402 93.3125C42.3145 93.3125 41.6172 93.8633 41.623 94.7422ZM47.3301 102.055V91.4492H48.6309V102.055H47.3301ZM53.9629 93.9922C53.9512 95.8848 54.9004 97.7949 56.541 98.5859L55.7441 99.6289C54.5957 99.0488 53.7695 97.9297 53.3184 96.582C52.8555 98.0234 51.9883 99.2188 50.7754 99.8281L49.9785 98.7852C51.6836 97.9766 52.6562 95.9492 52.6621 93.9922V92.3047H53.9629V93.9922ZM57.1738 102.043V91.4492H58.4746V95.5977H60.1035V96.7109H58.4746V102.043H57.1738ZM70.2285 99.6758V100.73H60.5488V99.6758H64.6973V97.2266H65.9863V99.6758H70.2285ZM60.8301 96.4062C63.0449 96.0488 64.6328 94.4609 64.6387 92.8672V92.0938H66.0215V92.8672C66.0215 94.4668 67.6211 96.0488 69.8535 96.4062L69.291 97.4844C67.5039 97.1445 66.0332 96.1191 65.3301 94.7305C64.6328 96.1133 63.1797 97.1504 61.3926 97.4844L60.8301 96.4062ZM80.5762 96.957V97.9883H70.8965V96.957H75.0801V96.1719H72.1387V91.7305H79.416V92.7383H73.4395V93.4648H79.1582V94.4258H73.4395V95.1758H79.498V96.1719H76.3809V96.957H80.5762ZM72.0449 100.297C72.0449 99.1895 73.375 98.5684 75.7363 98.5742C78.0625 98.5684 79.3984 99.1895 79.4043 100.297C79.3984 101.434 78.0625 102.031 75.7363 102.031C73.375 102.031 72.0449 101.434 72.0449 100.297ZM73.3457 100.297C73.3457 100.812 74.1426 101.059 75.7363 101.059C77.3008 101.059 78.0918 100.812 78.1035 100.297C78.0918 99.793 77.3008 99.5469 75.7363 99.5469C74.1426 99.5469 73.3457 99.793 73.3457 100.297Z" fill="#1D2939"/>
<rect x="195" y="171" width="59" height="22" rx="11" fill="#58F8E1"/>
<path d="M209.16 186L209.518 183.809H207.689L207.332 186H206.172L206.529 183.809H205.34L205.527 182.66H206.723L207.016 180.855H205.832L206.02 179.707H207.209L207.566 177.516H208.727L208.369 179.707H210.197L210.555 177.516H211.703L211.346 179.707H212.547L212.348 180.855H211.152L210.859 182.66H212.055L211.867 183.809H210.666L210.309 186H209.16ZM207.883 182.66H209.711L210.004 180.855H208.176L207.883 182.66ZM222.672 184.699V185.766H212.992V184.699H217.176V182.262H218.477V184.699H222.672ZM213.414 181.676C215.523 181.324 217.094 179.895 217.129 178.371H213.801V177.305H221.84V178.371H218.5C218.541 179.895 220.111 181.289 222.285 181.617L221.77 182.648C219.982 182.326 218.512 181.377 217.826 180.053C217.146 181.395 215.693 182.373 213.93 182.707L213.414 181.676ZM228.426 177.082V180.27H225.086V181.57C226.791 181.57 227.758 181.523 228.883 181.312L229.012 182.367C227.746 182.584 226.65 182.613 224.57 182.613H223.797V179.297H227.125V178.113H223.773V177.082H228.426ZM224.992 184.523V183.48H232.234V187.043H230.934V184.523H224.992ZM229.059 181.23V180.188H230.934V179.004H229.059V177.961H230.934V176.461H232.234V182.977H230.934V181.23H229.059ZM237.531 179.461C237.525 181.096 238.51 182.959 240.18 183.738L239.453 184.77C238.258 184.207 237.373 183.07 236.898 181.746C236.418 183.199 235.492 184.441 234.273 185.027L233.512 184.008C235.199 183.205 236.225 181.225 236.23 179.461V178.57H233.922V177.492H239.746V178.57H237.531V179.461ZM240.73 187.043V176.449H242.031V180.574H243.66V181.664H242.031V187.043H240.73Z" fill="#1D2939"/>
</svg>
