<svg width="159" height="164" viewBox="0 0 159 164" fill="none" xmlns="http://www.w3.org/2000/svg">
<path d="M74.72 130.67H64.71V158.5H74.72V130.67Z" fill="#F2F4F7"/>
<path d="M87.1897 150.43C85.8097 150.43 84.6897 149.31 84.6897 147.93V130.67H79.7197V158.5H89.8897V150.43H87.1997H87.1897Z" fill="#F2F4F7"/>
<path d="M100.08 147.93C100.08 149.31 98.9599 150.43 97.5799 150.43H94.8799V158.5H104.72V130.67H100.08V147.93Z" fill="#F2F4F7"/>
<path d="M62.21 125.67H104.72V123.2C104.72 113.43 96.77 105.49 87.01 105.49H70.65C64.4 105.49 59.32 100.41 59.32 94.16C59.32 79.18 47.14 67 32.16 67C17.18 67 5 79.18 5 94.16V125.67H62.21Z" fill="#1632A6"/>
<path d="M11.9 150.43C10.52 150.43 9.4 149.31 9.4 147.93V130.67H5V158.5H14.59V150.43H11.9Z" fill="#F2F4F7"/>
<path d="M95.0804 130.67H89.6904V145.43H95.0804V130.67Z" fill="#475467"/>
<path d="M54.9 130.67V147.93C54.9 149.31 53.78 150.43 52.4 150.43H49.71V158.5H59.72V130.67H54.91H54.9Z" fill="#F2F4F7"/>
<path d="M19.7904 130.67H14.4004V145.43H19.7904V130.67Z" fill="#475467"/>
<path d="M42.0102 150.43C40.6302 150.43 39.5102 149.31 39.5102 147.93V130.67H34.7002V158.5H44.7102V150.43H42.0202H42.0102Z" fill="#F2F4F7"/>
<path d="M49.8998 130.67H44.5098V145.43H49.8998V130.67Z" fill="#475467"/>
<path d="M24.7898 130.67V147.93C24.7898 149.31 23.6698 150.43 22.2898 150.43H19.5898V158.5H29.6998V130.67H24.7898Z" fill="#F2F4F7"/>
<path d="M34.7002 158.5V161C34.7002 162.38 33.5802 163.5 32.2002 163.5H44.7102V158.5H34.7002Z" fill="#475467"/>
<path d="M29.6998 161V158.5H19.5898V163.5H32.1998C30.8198 163.5 29.6998 162.38 29.6998 161Z" fill="#475467"/>
<path d="M59.7102 161V158.5H49.7002V163.5H62.2102C60.8302 163.5 59.7102 162.38 59.7102 161Z" fill="#475467"/>
<path d="M87.01 100.49H70.65C67.16 100.49 64.32 97.65 64.32 94.16C64.32 76.43 49.89 62 32.16 62C14.43 62 0 76.43 0 94.16V161C0 162.38 1.12 163.5 2.5 163.5H14.59V158.5H5V130.67H2.5V125.67H5V94.16C5 79.18 17.18 67 32.16 67C47.14 67 59.32 79.18 59.32 94.16C59.32 100.41 64.4 105.49 70.65 105.49H87.01C96.78 105.49 104.72 113.44 104.72 123.2V125.67H107.22V130.67H104.72V158.5H94.88V163.5H107.22C108.6 163.5 109.72 162.38 109.72 161V123.2C109.72 110.68 99.53 100.49 87.01 100.49Z" fill="#475467"/>
<path d="M74.7102 161V158.5H64.7002V161C64.7002 162.38 63.5802 163.5 62.2002 163.5H77.2102C75.8302 163.5 74.7102 162.38 74.7102 161Z" fill="#475467"/>
<path d="M79.71 158.5V161C79.71 162.38 78.59 163.5 77.21 163.5H89.88V158.5H79.71Z" fill="#475467"/>
<path d="M34.7002 128.17V130.67H39.5102V126.25H44.5102V130.67H49.9002V126.25H54.9002V130.67H59.7102V128.17C59.7102 126.79 60.8302 125.67 62.2102 125.67H32.2002C33.5802 125.67 34.7002 126.79 34.7002 128.17Z" fill="#475467"/>
<path d="M9.4 126.25H14.4V130.67H19.79V126.25H24.79V130.67H29.7V128.17C29.7 126.79 30.82 125.67 32.2 125.67H5V130.67H9.4V126.25Z" fill="#475467"/>
<path d="M64.71 128.17V130.67H74.72V128.17C74.72 126.79 75.84 125.67 77.22 125.67H62.21C63.59 125.67 64.71 126.79 64.71 128.17Z" fill="#475467"/>
<path d="M79.71 128.17V130.67H84.68V126.25H89.68V130.67H95.07V126.25H100.07V130.67H104.71V125.67H77.21C78.59 125.67 79.71 126.79 79.71 128.17Z" fill="#475467"/>
<path d="M5 125.67H2.5V130.67H5V125.67Z" fill="#475467"/>
<path d="M107.22 125.67H104.72V130.67H107.22V125.67Z" fill="#475467"/>
<path d="M34.7002 130.67H29.7002V158.5H34.7002V130.67Z" fill="#475467"/>
<path d="M34.7002 161V158.5H29.7002V161C29.7002 162.38 30.8202 163.5 32.2002 163.5C33.5802 163.5 34.7002 162.38 34.7002 161Z" fill="#475467"/>
<path d="M34.7002 128.17C34.7002 126.79 33.5802 125.67 32.2002 125.67C30.8202 125.67 29.7002 126.79 29.7002 128.17V130.67H34.7002V128.17Z" fill="#475467"/>
<path d="M64.71 130.67H59.71V158.5H64.71V130.67Z" fill="#475467"/>
<path d="M64.71 161V158.5H59.71V161C59.71 162.38 60.83 163.5 62.21 163.5C63.59 163.5 64.71 162.38 64.71 161Z" fill="#475467"/>
<path d="M59.71 128.17V130.67H64.71V128.17C64.71 126.79 63.59 125.67 62.21 125.67C60.83 125.67 59.71 126.79 59.71 128.17Z" fill="#475467"/>
<path d="M79.71 130.67H74.71V158.5H79.71V130.67Z" fill="#475467"/>
<path d="M79.71 161V158.5H74.71V161C74.71 162.38 75.83 163.5 77.21 163.5C78.59 163.5 79.71 162.38 79.71 161Z" fill="#475467"/>
<path d="M74.71 128.17V130.67H79.71V128.17C79.71 126.79 78.59 125.67 77.21 125.67C75.83 125.67 74.71 126.79 74.71 128.17Z" fill="#475467"/>
<path d="M19.5898 150.43H14.5898V158.5H19.5898V150.43Z" fill="#475467"/>
<path d="M19.5898 158.5H14.5898V163.5H19.5898V158.5Z" fill="#475467"/>
<path d="M24.7904 147.93V130.67H19.7904V145.43H14.4004V130.67H9.40039V147.93C9.40039 149.31 10.5204 150.43 11.9004 150.43H14.5904V147.6H19.5904V150.43H22.2904C23.6704 150.43 24.7904 149.31 24.7904 147.93Z" fill="#475467"/>
<path d="M24.79 126.25H19.79V130.67H24.79V126.25Z" fill="#475467"/>
<path d="M14.4004 126.25H9.40039V130.67H14.4004V126.25Z" fill="#475467"/>
<path d="M19.5898 147.6H14.5898V150.43H19.5898V147.6Z" fill="#475467"/>
<path d="M49.7002 150.43H44.7002V158.5H49.7002V150.43Z" fill="#475467"/>
<path d="M49.7002 158.5H44.7002V163.5H49.7002V158.5Z" fill="#475467"/>
<path d="M49.8998 145.43H44.5098V130.67H39.5098V147.93C39.5098 149.31 40.6298 150.43 42.0098 150.43H44.6998V147.6H49.6998V150.43H52.3898C53.7698 150.43 54.8898 149.31 54.8898 147.93V130.67H49.8898V145.43H49.8998Z" fill="#475467"/>
<path d="M44.5098 126.25H39.5098V130.67H44.5098V126.25Z" fill="#475467"/>
<path d="M54.9004 126.25H49.9004V130.67H54.9004V126.25Z" fill="#475467"/>
<path d="M49.7002 147.6H44.7002V150.43H49.7002V147.6Z" fill="#475467"/>
<path d="M94.8799 150.43H89.8799V158.5H94.8799V150.43Z" fill="#475467"/>
<path d="M94.8799 158.5H89.8799V163.5H94.8799V158.5Z" fill="#475467"/>
<path d="M87.1904 150.43H89.8804V147.6H94.8804V150.43H97.5804C98.9604 150.43 100.08 149.31 100.08 147.93V130.67H95.0804V145.43H89.6904V130.67H84.6904V147.93C84.6904 149.31 85.8104 150.43 87.1904 150.43Z" fill="#475467"/>
<path d="M100.08 126.25H95.0801V130.67H100.08V126.25Z" fill="#475467"/>
<path d="M89.6904 126.25H84.6904V130.67H89.6904V126.25Z" fill="#475467"/>
<path d="M94.8799 147.6H89.8799V150.43H94.8799V147.6Z" fill="#475467"/>
<path d="M60.3705 19.86H55.0605V24.85H60.3705V19.86Z" fill="#FFD600"/>
<path d="M50.0506 19.86H45.3906V24.85H50.0506V19.86Z" fill="#FFD600"/>
<path d="M75.5901 24.85C84.4501 24.85 91.7901 31.53 92.8201 40.12H95.6601V5H92.7701C91.5501 13.39 84.3101 19.86 75.5901 19.86H65.3701V24.85H75.5901Z" fill="#FFD600"/>
<path d="M22.1607 19.86C20.7807 19.86 19.6607 18.74 19.6607 17.36V17.02L18.8607 15.1H15.0107V29.6H18.7507L19.8007 26.53C20.1507 25.52 21.1007 24.84 22.1607 24.84H40.3907V19.85H22.1607V19.86Z" fill="#FFD600"/>
<path d="M75.5901 19.86C84.3101 19.86 91.5501 13.39 92.7701 5H95.6601V40.12H92.8201C91.7801 31.53 84.4501 24.85 75.5901 24.85H65.3701V24.97C68.6601 25.43 71.5101 27.25 73.3401 29.85H75.5901C82.4101 29.85 87.9501 35.39 87.9501 42.21V42.62C87.9501 44 89.0701 45.12 90.4501 45.12H98.1601C99.5401 45.12 100.66 44 100.66 42.62V2.5C100.66 1.12 99.5401 0 98.1601 0H90.4501C89.0701 0 87.9501 1.12 87.9501 2.5C87.9501 9.31 82.4101 14.86 75.5901 14.86H65.3701V19.86H75.5901Z" fill="#475467"/>
<path d="M50.0506 14.86H45.3906V19.86H50.0506V14.86Z" fill="#475467"/>
<path d="M60.3705 14.86H55.0605V19.86H60.3705V14.86Z" fill="#475467"/>
<path d="M12.51 34.61H20.53C21.6 34.61 22.55 33.93 22.89 32.92L23.94 29.85H32.39C34.22 27.24 37.09 25.42 40.39 24.97V24.85H22.16C21.09 24.85 20.14 25.53 19.8 26.54L18.75 29.61H15.01V15.11H18.86L19.66 17.03V17.37C19.66 18.75 20.78 19.87 22.16 19.87H40.39V14.87H24.17L22.83 11.65C22.44 10.72 21.53 10.11 20.52 10.11H12.5C11.12 10.11 10 11.23 10 12.61V32.11C10 33.49 11.12 34.61 12.5 34.61H12.51Z" fill="#475467"/>
<path d="M50.0606 43.28H45.4006V47.8C45.4006 47.96 45.3806 48.12 45.3506 48.28H50.1106C50.0806 48.13 50.0606 47.97 50.0606 47.8V43.28Z" fill="#475467"/>
<path d="M65.3701 30.06C68.2901 30.79 70.4701 33.42 70.4701 36.57C70.4701 39.72 68.3001 42.35 65.3701 43.08V47.81C65.3701 47.93 65.3501 48.05 65.3301 48.17C71.0401 47.39 75.4601 42.5 75.4601 36.58C75.4601 34.08 74.6701 31.77 73.3301 29.87H65.3601V30.07L65.3701 30.06Z" fill="#475467"/>
<path d="M40.3907 43.08C37.4507 42.36 35.2707 39.72 35.2707 36.57C35.2707 33.42 37.4607 30.77 40.3907 30.06V29.86H32.3907C31.0507 31.76 30.2607 34.07 30.2607 36.57C30.2607 42.5 34.7007 47.4 40.4207 48.17C40.4007 48.05 40.3807 47.93 40.3807 47.81V43.09L40.3907 43.08Z" fill="#475467"/>
<path d="M60.3707 43.28H55.0607V47.8C55.0607 47.96 55.0407 48.12 55.0107 48.28H60.4207C60.3907 48.13 60.3707 47.97 60.3707 47.8V43.28Z" fill="#475467"/>
<path d="M60.3705 24.85H55.0605V29.85H60.3705V24.85Z" fill="#475467"/>
<path d="M40.3906 24.97C37.0906 25.42 34.2306 27.24 32.3906 29.85H40.3906V24.97Z" fill="#475467"/>
<path d="M65.3701 24.98V29.86H73.3401C71.5101 27.26 68.6601 25.44 65.3701 24.98Z" fill="#475467"/>
<path d="M50.0506 24.85H45.3906V29.85H50.0506V24.85Z" fill="#475467"/>
<path d="M42.8906 5.45998C44.2706 5.45998 45.3906 6.57998 45.3906 7.95998V9.47998H50.0506V7.95998C50.0506 6.57998 51.1706 5.45998 52.5506 5.45998C53.9306 5.45998 55.0506 6.57998 55.0506 7.95998V9.47998H60.3606V7.95998C60.3606 6.57998 61.4806 5.45998 62.8606 5.45998C64.2406 5.45998 65.3606 6.57998 65.3606 7.95998V9.47998H67.7506C69.1306 9.47998 70.2506 8.35998 70.2506 6.97998C70.2506 5.59998 69.1306 4.47998 67.7506 4.47998H37.3506C35.9706 4.47998 34.8506 5.59998 34.8506 6.97998C34.8506 8.35998 35.9706 9.47998 37.3506 9.47998H40.3906V7.95998C40.3906 6.57998 41.5106 5.45998 42.8906 5.45998Z" fill="#475467"/>
<path d="M41.9606 29.85C41.4206 29.85 40.9006 29.92 40.3906 30.05V43.08C40.9006 43.2 41.4306 43.28 41.9806 43.28H45.3906V29.86H41.9606V29.85Z" fill="#475467"/>
<path d="M40.4307 48.16C40.6107 49.37 41.6407 50.3 42.8907 50.3C44.1407 50.3 45.1207 49.43 45.3407 48.28H41.9807C41.4507 48.28 40.9407 48.23 40.4307 48.16Z" fill="#475467"/>
<path d="M45.3906 9.47998H40.3906V14.86H45.3906V9.47998Z" fill="#475467"/>
<path d="M41.9806 24.85H45.3906V19.86H40.3906V24.85H41.9606C41.9606 24.85 41.9706 24.85 41.9806 24.85Z" fill="#475467"/>
<path d="M40.3906 24.85V24.97C40.9006 24.9 41.4306 24.85 41.9606 24.85H40.3906Z" fill="#475467"/>
<path d="M45.3906 14.86H40.3906V19.86H45.3906V14.86Z" fill="#475467"/>
<path d="M45.3906 43.28H41.9806C41.4306 43.28 40.9006 43.21 40.3906 43.08V47.8C40.3906 47.92 40.4106 48.04 40.4306 48.16C40.9406 48.23 41.4506 48.28 41.9806 48.28H45.3406C45.3706 48.13 45.3906 47.97 45.3906 47.8V43.28Z" fill="#475467"/>
<path d="M40.3906 29.85V30.05C40.8906 29.93 41.4206 29.85 41.9606 29.85H40.3906Z" fill="#475467"/>
<path d="M41.9606 29.85C41.9606 29.85 41.9706 29.85 41.9806 29.85H45.3906V24.85H41.9606C41.4306 24.85 40.9106 24.9 40.3906 24.97V29.85H41.9606Z" fill="#475467"/>
<path d="M45.3906 7.96002C45.3906 6.58002 44.2706 5.46002 42.8906 5.46002C41.5106 5.46002 40.3906 6.58002 40.3906 7.96002V9.48002H45.3906V7.96002Z" fill="#475467"/>
<path d="M55.0605 29.85H50.0605V43.27H55.0605V29.85Z" fill="#475467"/>
<path d="M55.0605 9.47998H50.0605V14.86H55.0605V9.47998Z" fill="#475467"/>
<path d="M52.5604 50.3C53.7804 50.3 54.7904 49.43 55.0104 48.28H50.1104C50.3304 49.43 51.3404 50.3 52.5604 50.3Z" fill="#475467"/>
<path d="M55.0605 19.86H50.0605V24.85H55.0605V19.86Z" fill="#475467"/>
<path d="M55.0605 14.86H50.0605V19.86H55.0605V14.86Z" fill="#475467"/>
<path d="M55.0605 43.28H50.0605V47.8C50.0605 47.96 50.0805 48.12 50.1105 48.28H55.0105C55.0405 48.13 55.0605 47.97 55.0605 47.8V43.28Z" fill="#475467"/>
<path d="M55.0605 24.85H50.0605V29.85H55.0605V24.85Z" fill="#475467"/>
<path d="M55.0605 7.96002C55.0605 6.58002 53.9405 5.46002 52.5605 5.46002C51.1805 5.46002 50.0605 6.58002 50.0605 7.96002V9.48002H55.0605V7.96002Z" fill="#475467"/>
<path d="M65.3701 9.47998H60.3701V14.86H65.3701V9.47998Z" fill="#475467"/>
<path d="M60.4202 48.28C60.6402 49.43 61.6502 50.3 62.8702 50.3C64.0902 50.3 65.1602 49.37 65.3302 48.16C64.8102 48.23 64.2902 48.28 63.7502 48.28H60.4102H60.4202Z" fill="#475467"/>
<path d="M63.7501 24.85C63.7501 24.85 63.7601 24.85 63.7701 24.85H65.3701V19.86H60.3701V24.85H63.7501Z" fill="#475467"/>
<path d="M60.3701 29.85V43.27H63.7501C64.3101 43.27 64.8501 43.19 65.3701 43.07V30.06C64.8601 29.93 64.3301 29.86 63.7701 29.86H60.3701V29.85Z" fill="#475467"/>
<path d="M65.3701 14.86H60.3701V19.86H65.3701V14.86Z" fill="#475467"/>
<path d="M65.3705 24.98V24.86H63.7705C64.3105 24.86 64.8405 24.91 65.3705 24.98Z" fill="#475467"/>
<path d="M65.3701 43.07C64.8501 43.2 64.3101 43.27 63.7501 43.27H60.3701V47.79C60.3701 47.95 60.3901 48.11 60.4201 48.27H63.7601C64.3001 48.27 64.8201 48.22 65.3401 48.15C65.3601 48.03 65.3801 47.92 65.3801 47.79V43.06L65.3701 43.07Z" fill="#475467"/>
<path d="M65.3705 30.06V29.86H63.7705C64.3205 29.86 64.8505 29.94 65.3705 30.06Z" fill="#475467"/>
<path d="M60.3701 24.85V29.85H63.7501C63.7501 29.85 63.7601 29.85 63.7701 29.85H65.3701V24.97C64.8501 24.9 64.3201 24.85 63.7701 24.85H60.3701Z" fill="#475467"/>
<path d="M62.8701 5.46002C61.4901 5.46002 60.3701 6.58002 60.3701 7.96002V9.48002H65.3701V7.96002C65.3701 6.58002 64.2501 5.46002 62.8701 5.46002Z" fill="#475467"/>
<path d="M126.958 105.51C131.108 105.51 134.478 102.14 134.478 97.99C134.478 93.84 131.108 90.47 126.958 90.47C122.808 90.47 119.438 93.84 119.438 97.99C119.438 102.14 122.808 105.51 126.958 105.51Z" fill="#475467"/>
<path d="M130.289 85.93V30.05H123.629V85.92C124.689 85.63 125.809 85.46 126.959 85.46C128.109 85.46 129.229 85.63 130.289 85.92V85.93Z" fill="#98A2B3"/>
<path d="M133.149 5.01001H120.769V20.78L122.729 25.05H131.189L133.149 20.78V5.01001Z" fill="#FF3EF8"/>
<path d="M139.479 97.98C139.479 104.88 133.859 110.5 126.959 110.5C120.059 110.5 114.439 104.88 114.439 97.98C114.439 94.28 116.069 90.95 118.629 88.66V70.37H112.579C108.169 70.37 104.429 73.79 104.229 77.99C104.149 79.59 104.549 81.14 105.359 82.5C108.459 87.64 110.029 92.95 110.029 98.29V99.35C110.029 105.52 107.539 111.62 103.019 116.52C100.899 118.82 99.8286 121.81 100.019 124.94C100.369 130.97 105.549 135.69 111.819 135.69H142.099C148.369 135.69 153.549 130.97 153.899 124.94C154.079 121.81 153.019 118.81 150.899 116.52C146.379 111.62 143.889 105.52 143.889 99.34V98.28C143.889 92.94 145.459 87.63 148.569 82.49C149.389 81.14 149.779 79.58 149.699 77.98C149.499 73.78 145.759 70.36 141.349 70.36H135.299V88.65C137.859 90.94 139.489 94.27 139.489 97.97L139.479 97.98ZM137.049 128.08C137.049 129.46 135.929 130.58 134.549 130.58H119.369C117.989 130.58 116.869 129.46 116.869 128.08V118C116.869 116.62 117.989 115.5 119.369 115.5H134.549C135.929 115.5 137.049 116.62 137.049 118V128.08Z" fill="#FF3EF8"/>
<path d="M132.049 120.5H121.869V125.58H132.049V120.5Z" fill="#98A2B3"/>
<path d="M121.129 25.05H122.729L120.769 20.78V5.01H133.139V20.78L131.179 25.05H132.779C134.159 25.05 135.279 26.17 135.279 27.55V28.09L137.909 22.36C138.059 22.03 138.139 21.68 138.139 21.32V19.97H136.979C135.599 19.97 134.479 18.85 134.479 17.47C134.479 16.09 135.599 14.97 136.979 14.97H138.139V9.87H136.979C135.599 9.87 134.479 8.75 134.479 7.37C134.479 5.99 135.599 4.87 136.979 4.87H138.139V2.5C138.139 1.12 137.019 0 135.639 0H118.269C116.889 0 115.769 1.12 115.769 2.5V4.87H117.099C118.479 4.87 119.599 5.99 119.599 7.37C119.599 8.75 118.479 9.87 117.099 9.87H115.769V14.97H117.099C118.479 14.97 119.599 16.09 119.599 17.47C119.599 18.85 118.479 19.97 117.099 19.97H115.769V21.32C115.769 21.68 115.849 22.03 115.999 22.36L118.629 28.09V27.54C118.629 26.16 119.749 25.04 121.129 25.04V25.05Z" fill="#475467"/>
<path d="M132.789 30.05H130.289V65.37H135.289V28.1L135.059 28.6C134.649 29.49 133.769 30.06 132.789 30.06V30.05Z" fill="#475467"/>
<path d="M130.289 85.93C132.169 86.45 133.869 87.4 135.289 88.67V70.38H130.289V85.93Z" fill="#475467"/>
<path d="M123.629 70.37H118.629V88.66C120.049 87.39 121.749 86.44 123.629 85.92V30.05H121.129C120.149 30.05 119.259 29.48 118.859 28.59L118.629 28.09V65.36H123.629V70.36V70.37Z" fill="#475467"/>
<path d="M121.129 30.05H132.789C133.769 30.05 134.659 29.48 135.059 28.59L135.289 28.09V27.55C135.289 26.17 134.169 25.05 132.789 25.05H121.129C119.749 25.05 118.629 26.17 118.629 27.55V28.1L118.859 28.6C119.269 29.49 120.149 30.06 121.129 30.06V30.05Z" fill="#475467"/>
<path d="M148.878 99.34V98.28C148.878 93.87 150.208 89.42 152.838 85.08C154.168 82.88 154.808 80.34 154.688 77.75C154.358 70.81 148.498 65.37 141.348 65.37H135.298V70.37H141.348C145.758 70.37 149.498 73.79 149.698 77.99C149.778 79.58 149.378 81.14 148.568 82.5C145.468 87.64 143.888 92.95 143.888 98.29V99.35C143.888 105.52 146.378 111.62 150.898 116.53C153.018 118.82 154.078 121.82 153.898 124.95C153.548 130.98 148.368 135.7 142.098 135.7H111.818C105.548 135.7 100.368 130.98 100.018 124.95C99.8384 121.82 100.898 118.83 103.018 116.53C107.538 111.63 110.028 105.53 110.028 99.36V98.3C110.028 92.96 108.458 87.65 105.358 82.51C104.538 81.16 104.148 79.6 104.228 78C104.428 73.8 108.168 70.38 112.578 70.38H118.628V65.38H112.578C105.418 65.38 99.5584 70.82 99.2384 77.76C99.1184 80.35 99.7584 82.88 101.088 85.09C103.708 89.44 105.038 93.88 105.038 98.29V99.35C105.038 104.26 103.018 109.16 99.3484 113.13C96.2984 116.43 94.7684 120.73 95.0284 125.23C95.5284 133.9 102.908 140.69 111.818 140.69H142.098C151.008 140.69 158.388 133.9 158.888 125.23C159.148 120.73 157.618 116.43 154.568 113.13C150.898 109.15 148.878 104.26 148.878 99.34Z" fill="#475467"/>
<path d="M123.629 65.37H118.629V70.37H123.629V65.37Z" fill="#475467"/>
<path d="M135.289 65.37H130.289V70.37H135.289V65.37Z" fill="#475467"/>
<path d="M114.438 97.98C114.438 104.88 120.058 110.5 126.958 110.5C133.858 110.5 139.478 104.88 139.478 97.98C139.478 94.28 137.848 90.95 135.288 88.66V90.02H130.288V85.93C129.228 85.64 128.108 85.47 126.958 85.47C125.808 85.47 124.688 85.64 123.628 85.93V90.02H118.628V88.66C116.068 90.95 114.438 94.28 114.438 97.98ZM126.958 90.46C131.108 90.46 134.478 93.83 134.478 97.98C134.478 102.13 131.108 105.5 126.958 105.5C122.808 105.5 119.438 102.13 119.438 97.98C119.438 93.83 122.808 90.46 126.958 90.46Z" fill="#475467"/>
<path d="M135.289 90.02V88.66C133.869 87.39 132.169 86.44 130.289 85.92V90.01H135.289V90.02Z" fill="#475467"/>
<path d="M123.629 90.02V85.93C121.749 86.45 120.049 87.4 118.629 88.67V90.03H123.629V90.02Z" fill="#475467"/>
<path d="M134.549 115.5H119.369C117.989 115.5 116.869 116.62 116.869 118V128.08C116.869 129.46 117.989 130.58 119.369 130.58H134.549C135.929 130.58 137.049 129.46 137.049 128.08V118C137.049 116.62 135.929 115.5 134.549 115.5ZM132.049 125.58H121.869V120.5H132.049V125.58Z" fill="#475467"/>
<path d="M111.789 4.88C110.409 4.88 109.289 6 109.289 7.38C109.289 8.76 110.409 9.88 111.789 9.88H115.779V4.88H111.789Z" fill="#475467"/>
<path d="M119.599 7.38C119.599 6 118.479 4.88 117.099 4.88H115.769V9.88H117.099C118.479 9.88 119.599 8.76 119.599 7.38Z" fill="#475467"/>
<path d="M111.789 14.98C110.409 14.98 109.289 16.1 109.289 17.48C109.289 18.86 110.409 19.98 111.789 19.98H115.779V14.98H111.789Z" fill="#475467"/>
<path d="M119.599 17.48C119.599 16.1 118.479 14.98 117.099 14.98H115.769V19.98H117.099C118.479 19.98 119.599 18.86 119.599 17.48Z" fill="#475467"/>
<path d="M142.299 9.88C143.679 9.88 144.799 8.76 144.799 7.38C144.799 6 143.679 4.88 142.299 4.88H138.139V9.88H142.299Z" fill="#475467"/>
<path d="M134.488 7.38C134.488 8.76 135.608 9.88 136.988 9.88H138.148V4.88H136.988C135.608 4.88 134.488 6 134.488 7.38Z" fill="#475467"/>
<path d="M142.299 19.98C143.679 19.98 144.799 18.86 144.799 17.48C144.799 16.1 143.679 14.98 142.299 14.98H138.139V19.98H142.299Z" fill="#475467"/>
<path d="M134.488 17.48C134.488 18.86 135.608 19.98 136.988 19.98H138.148V14.98H136.988C135.608 14.98 134.488 16.1 134.488 17.48Z" fill="#475467"/>
</svg>
