<svg width="24" height="24" viewBox="0 0 24 24" fill="none" xmlns="http://www.w3.org/2000/svg">
<path fill-rule="evenodd" clip-rule="evenodd" d="M16.875 1.5C17.1734 1.5 17.4595 1.61853 17.6705 1.8295C17.8815 2.04048 18 2.32663 18 2.625V4.5H21C21.3978 4.5 21.7794 4.65804 22.0607 4.93934C22.342 5.22064 22.5 5.60218 22.5 6V21C22.5 21.3978 22.342 21.7794 22.0607 22.0607C21.7794 22.342 21.3978 22.5 21 22.5H3C2.60218 22.5 2.22064 22.342 1.93934 22.0607C1.65804 21.7794 1.5 21.3978 1.5 21V6C1.5 5.60218 1.65804 5.22064 1.93934 4.93934C2.22064 4.65804 2.60218 4.5 3 4.5H6V2.625C6 2.32663 6.11853 2.04048 6.3295 1.8295C6.54048 1.61853 6.82663 1.5 7.125 1.5C7.42337 1.5 7.70952 1.61853 7.9205 1.8295C8.13147 2.04048 8.25 2.32663 8.25 2.625V4.5H15.75V2.625C15.75 2.32663 15.8685 2.04048 16.0795 1.8295C16.2905 1.61853 16.5766 1.5 16.875 1.5ZM3.75 11.25V20.25H20.25V11.25H3.75ZM3.75 9H20.25V6.75H3.75V9ZM15.42 13.455C15.6307 13.6659 15.749 13.9519 15.749 14.25C15.749 14.5481 15.6307 14.8341 15.42 15.045L12.045 18.42C11.8341 18.6307 11.5481 18.749 11.25 18.749C10.9519 18.749 10.6659 18.6307 10.455 18.42L8.58 16.545C8.46947 16.442 8.38082 16.3178 8.31933 16.1798C8.25784 16.0418 8.22478 15.8928 8.22211 15.7418C8.21945 15.5907 8.24723 15.4407 8.30382 15.3006C8.3604 15.1605 8.44461 15.0333 8.55144 14.9264C8.65827 14.8196 8.78552 14.7354 8.9256 14.6788C9.06569 14.6222 9.21573 14.5944 9.36678 14.5971C9.51784 14.5998 9.66681 14.6328 9.80481 14.6943C9.94281 14.7558 10.067 14.8445 10.17 14.955L11.25 16.035L13.83 13.455C14.0409 13.2443 14.3269 13.126 14.625 13.126C14.9231 13.126 15.2091 13.2443 15.42 13.455Z" fill="#3157DD"/>
</svg>
