<svg width="272" height="236" viewBox="0 0 272 236" fill="none" xmlns="http://www.w3.org/2000/svg">
<path d="M116.526 166.378L116.526 166.378C112.289 166.433 107.795 168.657 104.404 171.484C102.696 172.908 101.227 174.517 100.181 176.147C99.1457 177.761 98.4734 179.478 98.4946 181.094C98.5168 182.78 99.2884 184.088 100.502 185.048C101.679 185.979 103.265 186.585 104.996 186.991C108.462 187.804 112.879 187.897 116.806 187.847C120.909 187.794 124.653 186.608 127.39 184.683C130.122 182.761 131.932 180.029 131.891 176.915C131.85 173.8 129.969 171.116 127.188 169.266C124.402 167.412 120.629 166.325 116.526 166.378Z" fill="#FF7EFA" stroke="#1D2939" stroke-width="2"/>
<path d="M128.133 185.741L128.133 185.741C125.071 187.895 121.049 189.085 116.822 189.141C116.822 189.141 116.822 189.141 116.821 189.141L116.808 188.141L128.133 185.741ZM128.133 185.741C131.36 183.471 133.231 180.342 133.185 176.897C133.14 173.453 131.192 170.374 127.906 168.188L128.133 185.741ZM116.569 169.672L116.569 169.672C113.559 169.71 109.781 171.291 106.513 174.014L116.569 169.672ZM116.569 169.672L116.578 169.672M116.569 169.672L116.578 169.672M116.578 169.672C116.653 169.67 116.728 169.67 116.818 169.67M116.578 169.672L116.818 169.67M105.519 184.758C108.886 185.548 113.3 185.598 116.776 185.552C120.317 185.506 123.617 184.531 126.071 182.806M105.519 184.758L105.748 183.785M105.519 184.758L105.748 183.785C105.748 183.785 105.748 183.785 105.748 183.785M105.519 184.758L105.748 183.785M105.748 183.785C108.98 184.543 113.278 184.598 116.763 184.552L116.763 184.552C120.14 184.508 123.235 183.577 125.495 181.988M105.748 183.785C103.507 183.259 102.561 182.569 102.16 182.093C101.796 181.661 101.792 181.306 101.789 181.061L101.789 181.052L101.789 181.051C101.778 180.26 102.153 179.155 102.99 177.868C103.811 176.605 105.018 175.261 106.513 174.015L105.748 183.785ZM125.495 181.988C125.495 181.988 125.495 181.988 125.495 181.988L126.071 182.806M125.495 181.988L126.071 182.806M125.495 181.988C127.618 180.494 128.62 178.689 128.598 176.958C128.575 175.226 127.528 173.449 125.366 172.01L126.071 182.806M116.818 169.67C120.098 169.67 123.121 170.518 125.366 172.01L116.818 169.67ZM104.698 188.252L104.698 188.252L116.508 165.083C112.281 165.139 107.582 167.149 103.573 170.489L103.573 170.49C99.6853 173.731 97.1538 177.67 97.1978 181.111L97.1978 181.111C97.2215 182.919 97.9145 184.466 99.2415 185.685C100.539 186.876 102.394 187.712 104.698 188.252ZM127.906 168.188C124.788 166.113 120.756 165.025 116.508 165.083L127.906 168.188Z" fill="#1D2939" stroke="#1D2939" stroke-width="2"/>
<path d="M160.114 178.197C160.2 183.573 166.638 187.83 174.495 187.703C182.352 187.577 191.706 186.814 191.62 181.439C191.534 176.063 182.042 168.11 174.185 168.236C166.328 168.362 160.028 172.82 160.114 178.197Z" fill="#4747F4"/>
<path d="M174.162 189C165.764 189 158.915 184.213 158.819 178.216C158.722 172.135 165.605 167.077 174.162 166.942C182.3 166.821 192.809 174.929 192.912 181.418C192.962 184.481 190.759 186.625 186.365 187.791C182.751 188.751 178.134 188.941 174.514 188.998C174.397 189 174.279 189 174.162 189ZM161.408 178.176C161.481 182.76 167.17 186.413 174.154 186.413C174.262 186.413 174.367 186.411 174.474 186.411C177.946 186.355 182.359 186.177 185.704 185.29C190.367 184.053 190.335 182.102 190.325 181.46C190.253 176.864 181.369 169.529 174.363 169.529C174.309 169.529 174.258 169.529 174.204 169.531C167.074 169.644 161.334 173.522 161.408 178.176Z" fill="#4747F4"/>
<path d="M223.284 135.205C213.687 132.006 209.305 126.437 209.305 126.437L209.278 126.462C210.031 122.607 210.431 118.581 210.431 114.411C210.431 79.8094 183.172 48.2947 151.519 48.2947C120.864 48.2947 78.2124 87.8086 78.2124 122.408C78.2124 123.865 78.2927 125.286 78.4361 126.678C77.4724 127.781 73.0669 132.402 64.6594 135.203C56.2652 138.001 71.9349 145.694 82.4171 147.58C83.1437 153.833 83.4554 161.375 81.4687 165.062C77.9619 171.575 129.853 174.532 140.838 172.996C141.918 173.115 142.993 173.214 144.06 173.298C151.534 175.321 208.304 172.399 204.641 165.595C202.627 161.855 202.975 154.152 203.723 147.849C214.068 146.623 232.175 138.169 223.284 135.205Z" fill="#4747F4" stroke="#1D2939" stroke-width="4"/>
<path d="M154.33 175.226C149.385 175.226 145.584 175.013 143.848 174.581C142.842 174.501 141.836 174.407 140.857 174.302C135.467 175.01 121.438 174.717 108.722 173.625C91.9664 172.185 82.4709 170.02 80.5014 167.19C79.9029 166.332 79.8437 165.358 80.3313 164.45C81.729 161.853 82.0464 156.269 81.2376 148.668C74.0022 147.147 61.3287 142.254 60.9922 137.569C60.9119 136.452 61.411 134.922 64.2524 133.975C71.5528 131.541 75.7327 127.661 77.0941 126.229C76.9774 124.942 76.92 123.659 76.92 122.406C76.92 106.172 86.4691 87.124 102.466 71.4488C117.854 56.3703 136.65 47 151.517 47C166.887 47 182.302 54.479 193.813 67.5209C205.196 80.4175 211.724 97.5078 211.724 114.411C211.724 118.34 211.37 122.249 210.674 126.039C211.865 127.332 216.091 131.443 223.693 133.977C226.594 134.945 227.063 136.513 226.946 137.657C226.445 142.548 212.726 147.765 204.897 148.995C204.06 156.703 204.37 162.36 205.781 164.983C206.299 165.943 206.19 167.003 205.486 167.89C202.637 171.481 187.472 173.376 175.252 174.333C167.699 174.924 160.208 175.226 154.33 175.226ZM140.819 171.694L140.979 171.711C142.02 171.826 143.09 171.925 144.161 172.009L144.398 172.051C147.76 172.962 162.609 172.78 176.174 171.663C197.373 169.919 203.046 167.186 203.505 166.224C201.727 162.888 201.375 156.669 202.438 147.7L202.559 146.686L203.57 146.566C212.249 145.535 224.112 139.911 224.368 137.395C224.391 137.173 223.885 136.771 222.873 136.435C215.446 133.958 211.033 130.126 209.23 128.286C208.611 128.871 207.605 128.321 207.764 127.484L208.005 126.215C208.754 122.379 209.133 118.409 209.133 114.411C209.133 79.8801 182.208 49.5893 151.515 49.5893C137.301 49.5893 119.199 58.6746 104.273 73.3018C88.7637 88.4989 79.5033 106.857 79.5033 122.41C79.5033 123.764 79.576 125.154 79.7194 126.548L79.7768 127.108L79.4058 127.533C78.2126 128.896 73.6561 133.57 65.065 136.435C63.9426 136.809 63.5544 137.207 63.5678 137.385C63.7303 139.634 73.8053 144.719 82.643 146.308L83.5895 146.478L83.7004 147.432C84.7291 156.282 84.3601 162.421 82.6067 165.678C82.6047 165.681 82.601 165.685 82.601 165.685C83.0828 166.791 88.9644 169.267 108.063 170.969C120.837 172.107 135.457 172.443 140.658 171.717L140.819 171.694Z" fill="#1D2939"/>
<path d="M192.055 120.214C191.974 118.374 191.814 116.561 191.586 114.779C191.573 114.668 191.561 114.554 191.548 114.439C191.526 114.237 191.504 114.03 191.478 113.823L191.368 112.936L191.328 112.969C187.602 89.4726 171.152 71.6162 151.26 71.6162C147.109 71.6162 143.102 72.397 139.328 73.8461C135.555 72.397 131.548 71.6162 127.397 71.6162C104.727 71.6162 86.5342 94.7903 86.5342 123.121C86.5342 147.646 100.148 168.266 118.504 173.399C127.724 177.863 141.552 181.673 159.716 178.762C166.965 177.6 172.357 176.368 176.342 175.071C180.321 173.776 182.933 172.406 184.592 170.949C186.271 169.475 186.968 167.917 187.123 166.304C187.275 164.724 186.901 163.121 186.523 161.579C186.204 160.279 186.425 158.529 186.98 156.183C187.276 154.931 187.653 153.56 188.072 152.036C188.44 150.697 188.842 149.239 189.249 147.639C190.975 140.856 192.716 131.866 192.055 120.214ZM192.055 120.214C192.055 120.213 192.055 120.212 192.055 120.211L191.556 120.239L192.055 120.217C192.055 120.216 192.055 120.215 192.055 120.214Z" fill="white" stroke="#1D2939"/>
<path d="M132.384 99.7429C132.345 98.6353 132.751 97.5574 133.511 96.7463C134.272 95.9351 135.326 95.4572 136.442 95.4176C137.557 95.378 138.642 95.78 139.459 96.5352C140.275 97.2904 140.756 98.3368 140.795 99.4444M161.673 94.5221L163.776 94.4475M161.673 94.5221C162.118 107.05 160.163 111.301 151.753 111.599C143.342 111.898 141.091 107.797 140.647 95.2683C140.647 95.2683 142.675 93.1057 151.086 92.8072C159.496 92.5087 161.673 94.5221 161.673 94.5221ZM111.21 96.3131L109.107 96.3877M111.21 96.3131C111.655 108.841 113.905 112.943 122.316 112.644C130.726 112.346 132.681 108.095 132.236 95.5668C132.236 95.5668 130.06 93.5534 121.649 93.8519C113.238 94.1504 111.21 96.3131 111.21 96.3131Z" stroke="#FF7EFA" stroke-width="4" stroke-linecap="round" stroke-linejoin="round"/>
<path d="M147.321 180.561C134.62 180.561 124.79 177.314 118.22 174.142C109.122 171.577 100.872 165.131 94.9804 155.98C89.0204 146.725 85.7393 135.054 85.7393 123.119C85.7393 94.2819 104.426 70.8198 127.396 70.8198C131.458 70.8198 135.469 71.5522 139.328 72.9941C143.187 71.5503 147.196 70.8198 151.259 70.8198C170.845 70.8198 187.672 87.8527 191.905 111.617L191.974 111.567L192.267 113.724C192.291 113.923 192.312 114.12 192.333 114.315L192.376 114.692C192.609 116.493 192.769 118.344 192.85 120.176C193.67 134.672 190.766 145.241 188.842 152.236C187.723 156.309 186.838 159.526 187.295 161.388C187.892 163.825 188.635 166.856 186.729 169.728C183.903 173.991 175.61 177.018 159.841 179.544C155.405 180.253 151.225 180.561 147.321 180.561ZM127.396 73.4091C105.855 73.4091 88.3282 95.7085 88.3282 123.119C88.3282 146.31 101.241 166.733 119.029 171.68L119.247 171.763C127.492 175.763 141.156 179.917 159.432 176.987C174.019 174.648 182.243 171.807 184.572 168.296C185.762 166.502 185.427 164.639 184.781 162.004C184.163 159.488 185.079 156.158 186.347 151.548C188.337 144.306 191.064 134.389 190.265 120.312L190.263 120.295C190.186 118.534 190.031 116.753 189.806 115.004L189.681 114.084C186.276 90.5146 170.117 73.4091 151.259 73.4091C147.355 73.4091 143.5 74.1415 139.798 75.5872L139.328 75.7708L138.858 75.5872C135.156 74.1415 131.299 73.4091 127.396 73.4091Z" fill="#1D2939" stroke="#1D2939" stroke-width="2"/>
<path d="M141.914 123.452C147.919 123.452 152.786 120.073 152.786 115.906C152.786 111.738 147.919 108.36 141.914 108.36C135.91 108.36 131.042 111.738 131.042 115.906C131.042 120.073 135.91 123.452 141.914 123.452Z" fill="#02F1CF"/>
<path d="M137.396 121.566L137.384 122.672L137.397 121.566L139.941 121.597L139.941 121.597C140.253 121.6 140.614 121.613 141.009 121.626C141.847 121.655 142.834 121.689 143.8 121.655C143.8 121.655 143.8 121.655 143.801 121.655C144.097 121.644 144.392 121.627 144.68 121.602C146.038 121.481 147.583 121.156 148.926 120.26C148.926 120.26 148.926 120.26 148.927 120.26C149.29 120.017 149.639 119.732 149.966 119.397L149.97 119.393C150.52 118.826 151.032 118.066 151.271 117.177L151.272 117.174C151.332 116.949 151.386 116.702 151.412 116.43L152.497 116.539C152.3 118.482 151.13 120.075 149.556 121.167C147.906 122.312 145.806 122.639 143.841 122.714C142.317 122.772 140.786 122.739 139.258 122.706C138.632 122.693 138.007 122.679 137.384 122.672C136.85 122.665 136.294 122.672 135.724 122.679C132.148 122.724 128.037 122.775 125.855 119.618C124.695 117.939 124.829 115.694 125.915 114.013C127.047 112.261 128.856 111.317 130.729 110.548L137.396 121.566ZM137.396 121.566L137.407 120.672C137.407 120.672 137.407 120.672 137.407 120.672C138.076 120.68 138.726 120.694 139.365 120.708C139.561 120.712 139.757 120.716 139.951 120.72C139.951 120.72 139.952 120.72 139.952 120.72C141.243 120.747 142.495 120.764 143.764 120.715L143.765 120.715C145.626 120.645 147.248 120.334 148.416 119.524L148.416 119.524C148.754 119.289 149.055 119.035 149.316 118.763C149.317 118.762 149.318 118.761 149.319 118.76C149.845 118.213 150.212 117.597 150.393 116.941C150.394 116.94 150.394 116.94 150.394 116.939C150.448 116.742 150.486 116.541 150.507 116.338L134.256 121.528L137.396 121.566ZM130.83 111.672C130.824 111.677 130.812 111.688 130.797 111.708L130.95 112.081L130.956 112.096L131.108 112.466C131.211 112.472 131.34 112.459 131.487 112.399L130.83 111.672ZM130.83 111.672C130.832 111.671 130.833 111.67 130.833 111.67C130.833 111.669 130.832 111.67 130.83 111.672ZM130.955 112.097L131.107 112.466C130.954 112.456 130.859 112.403 130.848 112.396C130.825 112.382 130.809 112.367 130.793 112.346C130.778 112.328 130.738 112.272 130.706 112.165C130.706 112.163 130.705 112.161 130.705 112.159C130.704 112.155 130.703 112.151 130.702 112.147C130.693 112.104 130.686 112.037 130.699 111.956C130.713 111.864 130.745 111.79 130.777 111.739C130.783 111.728 130.79 111.718 130.796 111.71L130.948 112.081L130.955 112.097ZM151.412 116.429C151.427 116.273 151.433 116.108 151.426 115.935C151.408 115.475 151.301 115.074 151.188 114.729C151.045 114.286 150.79 113.841 150.563 113.503L151.412 116.429ZM138.196 109.876C138.193 109.877 138.191 109.877 138.191 109.877C138.191 109.877 138.192 109.876 138.196 109.876Z" fill="#1D2939" stroke="#1D2939" stroke-width="4"/>
<path d="M121.573 102.267C121.573 103.534 121.573 104.798 121.573 106.065C121.573 106.534 121.778 107.028 122.11 107.359C122.427 107.677 122.948 107.916 123.403 107.895C124.395 107.85 125.233 107.091 125.233 106.065C125.233 104.798 125.233 103.534 125.233 102.267C125.233 101.798 125.028 101.305 124.697 100.973C124.379 100.656 123.859 100.417 123.403 100.437C122.412 100.48 121.573 101.242 121.573 102.267Z" fill="#1D2939"/>
<path d="M146.194 104.179C149.412 103.922 152.538 102.905 155.222 101.095C156.016 100.561 156.439 99.4588 155.878 98.591C155.369 97.8021 154.222 97.3625 153.374 97.935C152.793 98.3272 152.191 98.6856 151.567 99.0034C151.4 99.0891 151.233 99.1702 151.064 99.2491C150.983 99.2874 150.413 99.5489 150.861 99.3483C150.564 99.4813 150.253 99.5917 149.946 99.6977C149.286 99.9298 148.61 100.119 147.925 100.266C147.605 100.333 147.282 100.387 146.96 100.444C146.753 100.473 146.775 100.471 147.03 100.437C146.938 100.448 146.845 100.46 146.753 100.471C146.568 100.491 146.381 100.507 146.196 100.523C145.243 100.599 144.319 101.312 144.366 102.353C144.404 103.275 145.171 104.26 146.194 104.179Z" fill="#1D2939"/>
<path d="M32.8636 121.748L33.7485 124.869L34.9895 132.027C35.3861 132.869 37.0396 135.377 37.881 135.883C38.5074 136.259 39.1813 136.488 39.8134 136.829C42.2873 138.163 44.8531 138.951 47.567 139.639C49.2191 140.058 50.9513 140.458 52.6248 140.79C54.2493 141.112 56.2266 139 57.8409 139.161C60.219 139.398 62.1993 135.364 64.3814 134.551C65.6278 134.087 66.577 133.343 67.7126 132.688C68.5892 132.183 68.746 131.146 69.2254 130.351C70.9139 127.55 73.4238 123.52 72.4665 120.143L71.4597 116.591C71.3752 116.293 71.3329 115.855 71.0887 115.636C70.0915 114.742 69.0372 114.003 67.9742 113.208C67.3979 112.776 65.8538 112.911 65.1828 113.05C64.0232 113.29 62.5821 112.97 61.4158 112.845C59.4071 112.63 59.2091 110.656 58.3227 109.219C57.4714 107.839 56.7991 106.448 55.4497 105.45C54.1195 104.465 52.8922 103.365 51.5877 102.364C50.7333 101.709 49.6157 101.389 48.5445 101.601C46.7164 101.964 44.8978 102.625 43.1045 103.134C40.3784 103.906 37.6465 105.108 36.1967 107.727C34.6774 110.472 32.6303 114.193 32.6469 117.447C32.6542 118.875 32.4688 120.355 32.8636 121.748Z" fill="#FFD391"/>
<path fill-rule="evenodd" clip-rule="evenodd" d="M60.9669 97.8549C61.7724 95.7411 57.847 94.222 57.0415 96.3357C56.2296 98.4513 60.1582 99.9695 60.9669 97.8549ZM48.6837 98.9666C44.4395 99.7422 40.4723 101.615 37.1736 104.401C33.8681 107.22 31.3195 111.028 30.753 115.544C30.3203 118.997 29.9921 122.166 30.9881 125.885C31.9792 129.575 34.2318 133.653 38.6199 139.149C41.1686 142.338 46.1339 142.582 49.8567 142.431C54.1588 142.258 58.67 141.251 61.2759 140.109C63.4124 139.173 65.7475 137.995 67.3453 135.715C70.0245 131.883 72.2944 127.768 73.2376 123.868C74.193 119.926 73.8317 115.969 70.8879 112.885C70.1097 112.073 69.2609 112.052 68.3161 112.031C67.9533 112.02 67.581 112.012 67.1961 111.96C63.276 111.427 60.6973 110.259 60.2457 109.282C59.8227 108.37 59.8071 107.638 59.7928 106.875C59.786 106.464 59.7764 106.044 59.7071 105.581C59.6153 105.016 59.2442 103.731 57.8508 103.421C56.7708 103.176 55.8916 102.359 55.0725 101.597C54.872 101.41 54.6756 101.224 54.4797 101.053C53.1772 99.9152 51.3474 98.5004 48.6837 98.9666ZM39.3122 106.929C36.4591 109.361 34.4664 112.472 34.0278 115.965C33.5978 119.403 33.3575 122 34.173 125.034C34.9917 128.091 36.9331 131.748 41.1936 137.084C42.9937 139.337 47.1779 139.231 49.7181 139.126C53.7054 138.966 57.7994 138.022 59.954 137.078C62.0393 136.167 63.6159 135.286 64.6477 133.814C67.2311 130.116 69.2331 126.397 70.0343 123.083C70.5181 121.092 70.9063 115.463 67.8143 115.253C61.2649 114.811 59.116 113.177 57.6629 111.339C56.6985 110.112 56.3489 108.649 56.354 107.12C56.3578 106.892 56.3562 106.669 56.4235 106.447C55.6643 106.164 54.9528 105.766 54.3139 105.266C53.9383 104.981 53.5545 104.618 53.1568 104.242C52.0178 103.161 50.7575 101.967 49.2563 102.231C45.5916 102.905 42.166 104.522 39.3145 106.924M66.3951 103.224C66.6361 101.271 62.9756 100.275 62.2134 102.095C61.1919 104.534 66.0688 105.784 66.3919 103.225M68.6966 97.3597C70.613 96.868 70.1629 93.0081 68.1641 93.0036C65.5435 92.9931 66.2217 97.996 68.6966 97.3597ZM70.9956 106.448C72.8368 105.957 72.7657 103.507 70.8873 103.685C68.4249 103.919 68.6094 107.083 70.9956 106.448ZM46.8713 110.521C45.8221 112.126 44.0347 110.861 43.4317 109.604C42.4987 107.666 43.5094 105.563 45.7568 106.106C47.5405 106.536 47.7282 109.205 46.8713 110.521ZM42.0859 117.365C43.1385 115.47 39.7914 113.502 38.7043 115.468C38.0627 116.613 38.9116 117.481 39.8405 118.002C40.0299 118.108 40.2382 118.176 40.4536 118.202C40.669 118.227 40.8872 118.21 41.0958 118.151C41.3044 118.092 41.4992 117.992 41.6691 117.857C41.839 117.722 41.9806 117.555 42.0859 117.365ZM49.2866 118.207C50.9539 120.039 54.1436 117.078 51.9955 115.471C51.8006 115.327 51.5788 115.225 51.3435 115.17C51.1082 115.115 50.8644 115.108 50.6266 115.15C49.288 115.371 48.2216 117.036 49.2866 118.207ZM51.1316 124.582C51.9726 125.699 53.3265 126.003 54.4796 125.14C55.4836 124.391 55.0978 122.329 54.2988 121.444C53.5563 120.626 52.2541 120.662 51.3979 121.303C50.4044 122.053 50.411 123.623 51.1199 124.565L51.1316 124.582ZM62.019 121.895C63.0263 120.976 65.4134 120.888 65.8503 122.429C66.2114 123.703 65.0721 125.763 63.875 126.326C62.7222 126.877 60.8777 126.123 60.7109 124.798C60.5814 123.761 61.2955 122.557 62.0222 121.894M54.8832 130.805C54.625 130.78 54.3646 130.813 54.1211 130.902C53.8777 130.991 53.6576 131.134 53.4772 131.321C52.9336 131.881 52.5368 132.85 52.633 133.649C52.8329 135.381 54.6601 135.276 55.8902 134.841C58.007 134.09 56.6431 130.995 54.8832 130.805ZM46.4068 133.38C46.6479 133.105 46.7907 132.757 46.8127 132.39C46.8348 132.024 46.7349 131.661 46.5288 131.357C45.5759 129.845 43.5814 130.122 42.8193 131.772C42.6447 132.151 42.6195 132.582 42.7487 132.98C42.8778 133.377 43.1518 133.711 43.5157 133.914L43.5288 133.924L43.5419 133.934C44.4952 134.614 45.8975 134.533 46.4068 133.38ZM37.8131 125.22C38.971 125.872 39.8751 125.798 41.0067 125.161C42.8502 124.122 39.8556 119.239 36.9644 122.226C36.0685 123.151 37.0797 124.809 37.8131 125.22Z" fill="#1D2939"/>
<rect x="183.5" y="31" width="59" height="22" rx="11" fill="#58F8E1"/>
<path d="M197.66 46L198.018 43.8086H196.189L195.832 46H194.672L195.029 43.8086H193.84L194.027 42.6602H195.223L195.516 40.8555H194.332L194.52 39.707H195.709L196.066 37.5156H197.227L196.869 39.707H198.697L199.055 37.5156H200.203L199.846 39.707H201.047L200.848 40.8555H199.652L199.359 42.6602H200.555L200.367 43.8086H199.166L198.809 46H197.66ZM196.383 42.6602H198.211L198.504 40.8555H196.676L196.383 42.6602ZM210.363 36.4609V44.5234H209.062V42.4375H207.492V41.3945H209.062V40.2109H207.492V39.1562H209.062V36.4609H210.363ZM201.516 38.6758V37.6328H203.883V36.4492H205.184V37.6328H207.434V38.6758H201.516ZM202.066 41.1719C202.061 39.959 203.086 39.1094 204.516 39.1094C205.957 39.1094 206.994 39.959 207 41.1719C206.994 42.3906 205.957 43.2285 204.516 43.2344C203.086 43.2285 202.061 42.3906 202.066 41.1719ZM203.285 41.1719C203.279 41.834 203.789 42.2266 204.516 42.2266C205.248 42.2266 205.764 41.834 205.77 41.1719C205.764 40.5273 205.248 40.1348 204.516 40.1289C203.789 40.1348 203.279 40.5273 203.285 41.1719ZM203.379 46.832V43.832H204.703V45.7773H210.598V46.832H203.379ZM220.664 36.4492V41.8516H219.375V36.4492H220.664ZM211.852 40.8203C213.568 40.2754 214.471 38.916 214.465 37.5273V36.707H215.812V37.5273C215.807 38.875 216.703 40.1348 218.379 40.6445L217.746 41.6523C216.516 41.2715 215.637 40.4863 215.156 39.4785C214.676 40.5742 213.773 41.4355 212.508 41.8398L211.852 40.8203ZM213.656 43.3516V42.3438H220.688V45.0977H214.957V45.918H221.004V46.9492H213.68V44.125H219.387V43.3516H213.656ZM226.125 38.2656C226.125 39.5605 226.98 40.8555 228.621 41.4062L227.965 42.4141C226.781 42.0273 225.943 41.2246 225.48 40.2285C225.018 41.3359 224.139 42.2266 222.879 42.6484L222.211 41.6172C223.898 41.0605 224.801 39.6543 224.801 38.2773V38.1367H222.598V37.0938H228.316V38.1367H226.125V38.2656ZM223.887 44.3125V43.2695H231.105V47.043H229.805V44.3125H223.887ZM228 40.1406V39.0742H229.805V36.4492H231.105V42.7656H229.805V40.1406H228Z" fill="#1D2939"/>
<rect x="20" y="61" width="69" height="22" rx="11" fill="#58F8E1"/>
<path d="M33.9746 76L34.332 73.8086H32.5039L32.1465 76H30.9863L31.3438 73.8086H30.1543L30.3418 72.6602H31.5371L31.8301 70.8555H30.6465L30.834 69.707H32.0234L32.3809 67.5156H33.541L33.1836 69.707H35.0117L35.3691 67.5156H36.5176L36.1602 69.707H37.3613L37.1621 70.8555H35.9668L35.6738 72.6602H36.8691L36.6816 73.8086H35.4805L35.123 76H33.9746ZM32.6973 72.6602H34.5254L34.8184 70.8555H32.9902L32.6973 72.6602ZM46.6309 66.4609V72.4609H45.3184V66.4609H46.6309ZM37.9941 69.4961C37.9941 68.002 39.2129 66.9707 40.8535 66.9648C42.4883 66.9707 43.707 68.002 43.7012 69.4961C43.707 70.9551 42.4883 72.0039 40.8535 72.0039C39.2129 72.0039 37.9941 70.9551 37.9941 69.4961ZM39.2715 69.4961C39.2656 70.3516 39.9277 70.9082 40.8535 70.9023C41.7617 70.9082 42.4238 70.3516 42.4238 69.4961C42.4238 68.6172 41.7617 68.0664 40.8535 68.0664C39.9277 68.0664 39.2656 68.6172 39.2715 69.4961ZM39.5996 76.9141V72.9766H46.6309V76.9141H39.5996ZM40.8887 75.8594H45.3535V74.0078H40.8887V75.8594ZM57.0254 66.4492V77.043H55.7129V66.4492H57.0254ZM48.248 74.125C51.0254 72.8066 52.3027 71.0137 52.5371 68.6055H48.7871V67.5742H53.8613C53.8613 70.7266 52.6367 73.4043 48.9277 75.168L48.248 74.125ZM68.2051 71.4766V72.5078H58.5488V71.4766H68.2051ZM59.5449 68.7461C59.5449 67.4805 61.0449 66.6953 63.3652 66.6953C65.6914 66.6953 67.1797 67.4805 67.1855 68.7461C67.1797 70.0293 65.6914 70.7969 63.3652 70.7969C61.0449 70.7969 59.5449 70.0293 59.5449 68.7461ZM59.6738 75.1211C59.6738 73.8789 61.0508 73.1934 63.3652 73.1992C65.6445 73.1934 67.0273 73.8789 67.0332 75.1211C67.0273 76.3574 65.6445 77.0488 63.3652 77.043C61.0508 77.0488 59.6738 76.3574 59.6738 75.1211ZM60.9043 68.7461C60.8926 69.4258 61.8184 69.7832 63.3652 69.7773C64.9121 69.7832 65.8379 69.4258 65.8379 68.7461C65.8379 68.0723 64.9121 67.7148 63.3652 67.7148C61.8184 67.7148 60.8926 68.0723 60.9043 68.7461ZM60.998 75.1211C60.9922 75.7246 61.8242 76.041 63.3652 76.0352C64.8828 76.041 65.7207 75.7246 65.7324 75.1211C65.7207 74.5 64.8828 74.1836 63.3652 74.1836C61.8242 74.1836 60.9922 74.5 60.998 75.1211ZM77.791 66.4609V74.2773H76.4902V71.6172H74.3574V72.5547H69.4004V67.1523H70.7012V68.8633H73.0684V67.1523H74.3574V68.2891H76.4902V66.4609H77.791ZM70.7012 71.5234H73.0684V69.8711H70.7012V71.5234ZM70.8066 76.832V73.5039H72.1309V75.7773H78.0254V76.832H70.8066ZM74.3574 70.5625H76.4902V69.3438H74.3574V70.5625Z" fill="#1D2939"/>
<rect x="192" y="164" width="59" height="22" rx="11" fill="#58F8E1"/>
<path d="M206.16 179L206.518 176.809H204.689L204.332 179H203.172L203.529 176.809H202.34L202.527 175.66H203.723L204.016 173.855H202.832L203.02 172.707H204.209L204.566 170.516H205.727L205.369 172.707H207.197L207.555 170.516H208.703L208.346 172.707H209.547L209.348 173.855H208.152L207.859 175.66H209.055L208.867 176.809H207.666L207.309 179H206.16ZM204.883 175.66H206.711L207.004 173.855H205.176L204.883 175.66ZM218.629 169.883V170.469C218.629 171.16 218.629 172.203 218.301 173.551L217.047 173.434C217.305 172.338 217.357 171.523 217.369 170.902H214.902V169.883H218.629ZM210.016 175.25V174.172H214.375V172.332H215.652V174.172H219.625V175.25H210.016ZM210.801 170.902V169.883H214.082V170.305C214.076 170.943 214.076 172.074 213.543 173.551L212.301 173.41C212.664 172.309 212.764 171.5 212.793 170.902H210.801ZM211.176 179.914V176.199H218.441V179.914H211.176ZM212.453 178.859H217.141V177.219H212.453V178.859ZM229 169.883V170.469C229 171.16 229 172.203 228.672 173.551L227.418 173.434C227.676 172.338 227.729 171.523 227.74 170.902H225.273V169.883H229ZM220.387 175.25V174.172H224.746V172.332H226.023V174.172H229.996V175.25H220.387ZM221.172 170.902V169.883H224.453V170.305C224.447 170.943 224.447 172.074 223.914 173.551L222.672 173.41C223.035 172.309 223.135 171.5 223.164 170.902H221.172ZM221.547 179.914V176.199H228.812V179.914H221.547ZM222.824 178.859H227.512V177.219H222.824V178.859ZM239.09 169.449V172.133H240.566V173.223H239.09V175.836H237.789V169.449H239.09ZM230.746 171.512V170.469H233.242V169.379H234.543V170.469H237.027V171.512H230.746ZM231.285 173.797C231.285 172.666 232.34 171.898 233.887 171.898C235.422 171.898 236.471 172.666 236.477 173.797C236.471 174.939 235.416 175.695 233.887 175.695C232.34 175.695 231.285 174.939 231.285 173.797ZM232.246 179.914V176.34H239.09V179.914H232.246ZM232.551 173.797C232.545 174.389 233.084 174.723 233.887 174.723C234.689 174.723 235.234 174.389 235.234 173.797C235.234 173.223 234.689 172.883 233.887 172.883C233.084 172.883 232.545 173.223 232.551 173.797ZM233.535 178.859H237.801V177.371H233.535V178.859Z" fill="#1D2939"/>
</svg>
