<svg width="272" height="236" viewBox="0 0 272 236" fill="none" xmlns="http://www.w3.org/2000/svg">
<path d="M207.608 90.2589C204.658 90.4624 200.499 91.9493 198.73 94.7851C197.655 98.0505 198.364 102.426 198.364 105.861C198.364 112.715 198.917 118.616 202.045 124.872C203.694 128.17 205.943 131.303 208.444 133.99C209.691 135.329 210.685 136.323 212.292 137.127C214.677 138.319 216.555 137.985 219.069 137.671C221.347 137.386 224.527 132.965 224.527 132.965C227.053 129.154 228.001 123.568 228.94 119.225C229.795 110.325 228.603 103.043 224.151 97.767C220.07 92.9311 214.059 89.814 207.608 90.2589Z" fill="#CFFF83"/>
<path d="M197.987 96.6377C198.797 92.5915 204.071 90.5029 207.608 90.2589C214.059 89.814 220.07 92.9311 224.151 97.767C228.603 103.043 229.795 110.325 228.94 119.225C228.001 123.568 227.053 129.154 224.527 132.965C224.527 132.965 221.347 137.386 219.069 137.671C216.555 137.985 214.677 138.319 212.292 137.127C210.685 136.323 209.691 135.329 208.444 133.99C205.943 131.303 203.694 128.17 202.045 124.872C198.917 118.616 198.364 112.715 198.364 105.861C198.364 102.415 197.651 98.024 198.74 94.7554" stroke="#1D2939" stroke-width="4"/>
<ellipse cx="141.644" cy="191.382" rx="48.0892" ry="9.61783" fill="#1D2939"/>
<path d="M126.464 179.362C126.534 184.714 120.248 189.137 112.427 189.238C104.606 189.339 95.274 188.85 95.2035 183.498C95.1331 178.146 104.351 169.957 112.174 169.854C119.995 169.753 126.393 174.008 126.464 179.362Z" fill="#FF7EFA"/>
<path d="M110.741 190.539C107.467 190.539 103.69 190.39 100.613 189.669C96.2076 188.635 93.9535 186.565 93.9136 183.515C93.8755 180.539 96.1143 176.876 99.9029 173.717C103.769 170.495 108.236 168.616 112.158 168.565C116.216 168.51 120.028 169.551 122.941 171.489C126.006 173.529 127.713 176.318 127.753 179.345C127.793 182.373 126.156 185.206 123.146 187.323C120.285 189.335 116.483 190.474 112.443 190.527C111.897 190.535 111.326 190.539 110.741 190.539ZM112.453 171.141C112.365 171.141 112.279 171.141 112.192 171.143C108.9 171.185 104.925 172.889 101.555 175.697C98.4522 178.285 96.4646 181.339 96.4932 183.481C96.5008 184.118 96.5256 186.061 101.203 187.159C104.556 187.945 108.95 187.995 112.411 187.949C115.937 187.904 119.223 186.933 121.665 185.215C123.957 183.602 125.204 181.529 125.178 179.379C125.149 177.23 123.849 175.191 121.515 173.637C119.089 172.024 115.879 171.141 112.453 171.141Z" fill="#1D2939" stroke="#1D2939" stroke-width="4"/>
<path d="M155.56 180.627C155.646 185.979 162.056 190.217 169.879 190.091C177.701 189.966 187.015 189.206 186.929 183.854C186.843 178.502 177.393 170.583 169.57 170.709C161.748 170.834 155.475 175.273 155.56 180.627Z" fill="#4747F4"/>
<path d="M169.548 191.382C161.186 191.382 154.367 186.617 154.272 180.646C154.174 174.591 161.028 169.555 169.548 169.42C177.65 169.3 188.113 177.373 188.216 183.833C188.266 186.883 186.072 189.017 181.698 190.179C178.099 191.135 173.502 191.323 169.898 191.38C169.782 191.382 169.664 191.382 169.548 191.382ZM156.849 180.606C156.922 185.17 162.585 188.806 169.54 188.806C169.647 188.806 169.751 188.804 169.858 188.804C173.315 188.749 177.709 188.572 181.039 187.688C185.682 186.457 185.65 184.515 185.64 183.875C185.568 179.3 176.723 171.996 169.747 171.996C169.694 171.996 169.643 171.996 169.589 171.998C162.49 172.11 156.775 175.971 156.849 180.606Z" fill="#4747F4"/>
<path d="M218.456 137.821C208.901 134.636 204.538 129.091 204.538 129.091L204.511 129.116C205.261 125.278 205.659 121.27 205.659 117.117C205.659 82.6665 178.519 51.2888 147.003 51.2888C116.482 51.2888 74.0161 90.6308 74.0161 125.08C74.0161 126.53 74.0961 127.945 74.2388 129.331C73.2793 130.43 68.893 135.03 60.522 137.819C52.1644 140.605 67.7659 148.264 78.2025 150.142C78.9259 156.368 79.2363 163.877 77.2582 167.548C73.7667 174.033 125.432 176.976 136.369 175.448C137.445 175.566 138.515 175.665 139.577 175.748C147.019 177.763 203.542 174.854 199.895 168.079C197.89 164.355 198.236 156.686 198.981 150.41C209.28 149.19 227.309 140.772 218.456 137.821Z" fill="#4747F4" stroke="#1D2939" stroke-width="4"/>
<path d="M149.801 177.668C144.877 177.668 141.093 177.456 139.364 177.026C138.363 176.946 137.361 176.853 136.387 176.748C131.02 177.453 117.052 177.161 104.391 176.074C87.7086 174.64 78.2544 172.485 76.2935 169.667C75.6976 168.812 75.6386 167.843 76.124 166.939C77.5157 164.353 77.8317 158.794 77.0264 151.225C69.8225 149.712 57.2042 144.839 56.8691 140.175C56.7892 139.063 57.2861 137.539 60.1151 136.597C67.3838 134.173 71.5454 130.31 72.9009 128.884C72.7848 127.603 72.7277 126.325 72.7277 125.078C72.7277 108.915 82.2352 89.9494 98.1623 74.3424C113.484 59.3295 132.198 50 147 50C162.303 50 177.651 57.4465 189.112 70.4316C200.445 83.2721 206.945 100.288 206.945 117.117C206.945 121.03 206.593 124.922 205.9 128.695C207.086 129.983 211.293 134.076 218.862 136.599C221.75 137.562 222.217 139.124 222.101 140.262C221.602 145.133 207.942 150.327 200.148 151.551C199.314 159.226 199.623 164.858 201.028 167.47C201.544 168.426 201.435 169.481 200.735 170.364C197.898 173.94 182.799 175.827 170.632 176.779C163.112 177.367 155.653 177.668 149.801 177.668ZM136.348 174.151L136.508 174.168C137.544 174.282 138.61 174.382 139.676 174.465L139.912 174.507C143.259 175.413 158.044 175.233 171.55 174.121C192.657 172.384 198.305 169.663 198.762 168.706C196.992 165.383 196.641 159.192 197.7 150.262L197.82 149.253L198.827 149.133C207.468 148.107 219.279 142.507 219.534 140.001C219.557 139.78 219.053 139.381 218.046 139.045C210.651 136.58 206.257 132.764 204.462 130.933C203.846 131.515 202.844 130.967 203.002 130.134L203.242 128.871C203.988 125.051 204.365 121.099 204.365 117.117C204.365 82.7371 177.558 52.578 146.998 52.578C132.845 52.578 114.822 61.6238 99.9614 76.1874C84.5197 91.3183 75.2997 109.597 75.2997 125.082C75.2997 126.43 75.3721 127.814 75.5148 129.202L75.572 129.76L75.2026 130.182C74.0146 131.54 69.4779 136.193 60.9242 139.045C59.8067 139.419 59.4202 139.815 59.4335 139.992C59.5954 142.231 69.6264 147.294 78.4257 148.876L79.3681 149.045L79.4785 149.995C80.5028 158.807 80.1353 164.919 78.3895 168.161C78.3876 168.165 78.3858 168.169 78.3839 168.169C78.8636 169.269 84.7197 171.735 103.735 173.43C116.454 174.562 131.01 174.897 136.189 174.174L136.348 174.151Z" fill="#1D2939"/>
<path d="M186.866 122.921C186.786 121.1 186.628 119.307 186.401 117.544C186.365 117.226 186.334 116.915 186.294 116.594L186.275 116.609C182.856 92.9443 166.459 75.0068 146.745 75.0068C142.61 75.0068 138.62 75.797 134.866 77.2631C131.111 75.797 127.121 75.0068 122.986 75.0068C100.792 75.0068 82.7988 97.7423 82.7988 125.79C82.7988 150.071 96.2853 170.368 114.308 175.381C123.409 179.796 137.087 183.581 155.086 180.697C183.903 176.078 182.889 170.385 181.371 164.199C179.976 158.51 188.175 145.991 186.866 122.921Z" fill="white" stroke="#1D2939" stroke-width="4"/>
<mask id="path-11-inside-1_1283_6725" fill="white">
<path d="M142.823 182.98C130.178 182.98 120.391 179.747 113.849 176.588C104.791 174.035 96.5763 167.617 90.7107 158.506C84.7766 149.291 81.5098 137.671 81.5098 125.788C81.5098 97.076 100.115 73.7161 122.986 73.7161C127.029 73.7161 131.023 74.4453 134.865 75.8809C138.707 74.4434 142.699 73.7161 146.745 73.7161C166.245 73.7161 182.999 90.6748 187.214 114.336L187.282 114.286L187.574 116.434C187.598 116.632 187.619 116.828 187.64 117.022L187.682 117.397C187.914 119.191 188.074 121.034 188.154 122.858C188.971 137.29 186.079 147.813 184.164 154.778C183.05 158.834 182.169 162.036 182.624 163.891C183.218 166.316 183.958 169.334 182.06 172.194C179.246 176.438 170.99 179.452 155.289 181.967C150.872 182.673 146.711 182.98 142.823 182.98ZM122.986 76.2941C101.538 76.2941 84.0875 98.4964 84.0875 125.788C84.0875 148.878 96.9437 169.212 114.655 174.138L114.872 174.22C123.081 178.203 136.685 182.338 154.882 179.421C169.406 177.093 177.594 174.264 179.913 170.768C181.097 168.982 180.764 167.127 180.12 164.504C179.505 161.998 180.417 158.683 181.679 154.093C183.661 146.882 186.376 137.008 185.58 122.993L185.578 122.976C185.502 121.222 185.348 119.45 185.123 117.708L185 116.792C181.609 93.3252 165.52 76.2941 146.745 76.2941C142.857 76.2941 139.019 77.0233 135.334 78.4627L134.865 78.6455L134.397 78.4627C130.711 77.0233 126.871 76.2941 122.986 76.2941Z"/>
</mask>
<path d="M142.823 182.98C130.178 182.98 120.391 179.747 113.849 176.588C104.791 174.035 96.5763 167.617 90.7107 158.506C84.7766 149.291 81.5098 137.671 81.5098 125.788C81.5098 97.076 100.115 73.7161 122.986 73.7161C127.029 73.7161 131.023 74.4453 134.865 75.8809C138.707 74.4434 142.699 73.7161 146.745 73.7161C166.245 73.7161 182.999 90.6748 187.214 114.336L187.282 114.286L187.574 116.434C187.598 116.632 187.619 116.828 187.64 117.022L187.682 117.397C187.914 119.191 188.074 121.034 188.154 122.858C188.971 137.29 186.079 147.813 184.164 154.778C183.05 158.834 182.169 162.036 182.624 163.891C183.218 166.316 183.958 169.334 182.06 172.194C179.246 176.438 170.99 179.452 155.289 181.967C150.872 182.673 146.711 182.98 142.823 182.98ZM122.986 76.2941C101.538 76.2941 84.0875 98.4964 84.0875 125.788C84.0875 148.878 96.9437 169.212 114.655 174.138L114.872 174.22C123.081 178.203 136.685 182.338 154.882 179.421C169.406 177.093 177.594 174.264 179.913 170.768C181.097 168.982 180.764 167.127 180.12 164.504C179.505 161.998 180.417 158.683 181.679 154.093C183.661 146.882 186.376 137.008 185.58 122.993L185.578 122.976C185.502 121.222 185.348 119.45 185.123 117.708L185 116.792C181.609 93.3252 165.52 76.2941 146.745 76.2941C142.857 76.2941 139.019 77.0233 135.334 78.4627L134.865 78.6455L134.397 78.4627C130.711 77.0233 126.871 76.2941 122.986 76.2941Z" fill="#1D2939"/>
<path d="M113.849 176.588L115.154 173.887L114.917 173.772L114.663 173.701L113.849 176.588ZM90.7107 158.506L93.2332 156.882L93.233 156.882L90.7107 158.506ZM134.865 75.8809L133.815 78.6911L134.866 79.0838L135.917 78.6906L134.865 75.8809ZM187.214 114.336L184.26 114.862L185.098 119.565L188.971 116.767L187.214 114.336ZM187.282 114.286L190.255 113.883L189.582 108.923L185.525 111.854L187.282 114.286ZM187.574 116.434L190.55 116.062L190.548 116.046L190.546 116.031L187.574 116.434ZM187.64 117.022L184.657 117.344L184.659 117.355L187.64 117.022ZM187.682 117.397L184.701 117.73L184.704 117.756L184.707 117.783L187.682 117.397ZM188.154 122.858L185.157 122.989L185.158 123.008L185.159 123.027L188.154 122.858ZM184.164 154.778L181.271 153.983L181.271 153.984L184.164 154.778ZM182.624 163.891L185.538 163.177L185.537 163.176L182.624 163.891ZM182.06 172.194L179.561 170.535L179.56 170.536L182.06 172.194ZM155.289 181.967L155.763 184.929L155.764 184.929L155.289 181.967ZM114.655 174.138L115.713 171.331L115.588 171.284L115.459 171.248L114.655 174.138ZM114.872 174.22L116.181 171.521L116.058 171.461L115.93 171.413L114.872 174.22ZM154.882 179.421L155.357 182.384L155.357 182.384L154.882 179.421ZM179.913 170.768L182.413 172.426L182.413 172.426L179.913 170.768ZM180.12 164.504L183.034 163.789L183.034 163.789L180.12 164.504ZM181.679 154.093L184.572 154.888L184.572 154.888L181.679 154.093ZM185.58 122.993L188.575 122.823L188.571 122.742L188.562 122.661L185.58 122.993ZM185.578 122.976L182.581 123.106L182.586 123.207L182.597 123.308L185.578 122.976ZM185.123 117.708L188.099 117.324L188.098 117.315L188.096 117.306L185.123 117.708ZM185 116.792L187.973 116.39L187.971 116.376L187.969 116.363L185 116.792ZM135.334 78.4627L136.424 81.2574L136.425 81.2572L135.334 78.4627ZM134.865 78.6455L133.775 81.4402L134.865 81.8658L135.956 81.4402L134.865 78.6455ZM134.397 78.4627L133.306 81.2572L133.306 81.2574L134.397 78.4627ZM142.823 179.98C130.703 179.98 121.359 176.883 115.154 173.887L112.545 179.29C119.422 182.611 129.654 185.98 142.823 185.98V179.98ZM114.663 173.701C106.415 171.376 98.7661 165.476 93.2332 156.882L88.1883 160.13C94.3865 169.757 103.167 176.694 113.035 179.476L114.663 173.701ZM93.233 156.882C87.6372 148.192 84.5098 137.146 84.5098 125.788H78.5098C78.5098 138.196 81.9161 150.39 88.1885 160.13L93.233 156.882ZM84.5098 125.788C84.5098 98.0602 102.373 76.7161 122.986 76.7161V70.7161C97.8578 70.7161 78.5098 96.0918 78.5098 125.788H84.5098ZM122.986 76.7161C126.665 76.7161 130.303 77.3788 133.815 78.6911L135.915 73.0707C131.744 71.5118 127.394 70.7161 122.986 70.7161V76.7161ZM135.917 78.6906C139.427 77.3772 143.063 76.7161 146.745 76.7161V70.7161C142.335 70.7161 137.987 71.5096 133.814 73.0711L135.917 78.6906ZM146.745 76.7161C164.342 76.7161 180.212 92.1387 184.26 114.862L190.167 113.809C185.785 89.2109 168.149 70.7161 146.745 70.7161V76.7161ZM188.971 116.767L189.039 116.718L185.525 111.854L185.457 111.904L188.971 116.767ZM184.309 114.689L184.601 116.837L190.546 116.031L190.255 113.883L184.309 114.689ZM184.597 116.806C184.618 116.974 184.636 117.143 184.658 117.344L190.623 116.701C190.603 116.513 190.579 116.29 190.55 116.062L184.597 116.806ZM184.659 117.355L184.701 117.73L190.664 117.064L190.622 116.689L184.659 117.355ZM184.707 117.783C184.928 119.492 185.081 121.25 185.157 122.989L191.151 122.726C191.068 120.817 190.9 118.89 190.657 117.012L184.707 117.783ZM185.159 123.027C185.947 136.95 183.169 147.082 181.271 153.983L187.057 155.574C188.989 148.545 191.995 137.63 191.149 122.688L185.159 123.027ZM181.271 153.984C180.724 155.976 180.191 157.909 179.862 159.581C179.551 161.164 179.314 162.992 179.71 164.605L185.537 163.176C185.478 162.935 185.455 162.234 185.749 160.739C186.026 159.332 186.49 157.636 187.057 155.573L181.271 153.984ZM179.71 164.604C180.341 167.182 180.64 168.908 179.561 170.535L184.56 173.853C187.276 169.76 186.094 165.45 185.538 163.177L179.71 164.604ZM179.56 170.536C178.691 171.847 176.669 173.381 172.478 174.911C168.365 176.412 162.595 177.758 154.815 179.005L155.764 184.929C163.684 183.66 169.892 182.242 174.536 180.547C179.103 178.88 182.616 176.785 184.561 173.852L179.56 170.536ZM154.815 179.005C150.556 179.686 146.552 179.98 142.823 179.98V185.98C146.869 185.98 151.189 185.661 155.763 184.929L154.815 179.005ZM122.986 73.2941C99.2477 73.2941 81.0875 97.553 81.0875 125.788H87.0875C87.0875 99.4398 103.827 79.2941 122.986 79.2941V73.2941ZM81.0875 125.788C81.0875 149.769 94.4497 171.632 113.851 177.028L115.459 171.248C99.4378 166.792 87.0875 147.986 87.0875 125.788H81.0875ZM113.596 176.945L113.813 177.027L115.93 171.413L115.713 171.331L113.596 176.945ZM113.562 176.919C122.223 181.121 136.449 185.414 155.357 182.384L154.407 176.459C136.922 179.262 123.939 175.285 116.181 171.521L113.562 176.919ZM155.357 182.384C162.691 181.208 168.564 179.885 172.954 178.368C177.176 176.908 180.663 175.065 182.413 172.426L177.413 169.109C176.844 169.967 175.077 171.286 170.994 172.697C167.08 174.05 161.597 175.307 154.407 176.459L155.357 182.384ZM182.413 172.426C184.414 169.407 183.641 166.264 183.034 163.789L177.207 165.218C177.887 167.991 177.78 168.556 177.412 169.11L182.413 172.426ZM183.034 163.789C182.874 163.139 182.867 162.172 183.148 160.612C183.428 159.058 183.929 157.226 184.572 154.888L178.787 153.297C178.167 155.55 177.581 157.671 177.243 159.548C176.907 161.419 176.751 163.362 177.207 165.219L183.034 163.789ZM184.572 154.888C186.572 147.611 189.4 137.347 188.575 122.823L182.585 123.163C183.352 136.67 180.75 146.154 178.787 153.298L184.572 154.888ZM188.562 122.661L188.56 122.644L182.597 123.308L182.599 123.325L188.562 122.661ZM188.576 122.846C188.496 121.005 188.334 119.148 188.099 117.324L182.148 118.091C182.362 119.751 182.509 121.439 182.581 123.106L188.576 122.846ZM188.096 117.306L187.973 116.39L182.027 117.194L182.15 118.109L188.096 117.306ZM187.969 116.363C184.445 91.9746 167.51 73.2941 146.745 73.2941V79.2941C163.53 79.2941 178.773 94.6757 182.03 117.221L187.969 116.363ZM146.745 73.2941C142.477 73.2941 138.27 74.0954 134.242 75.6682L136.425 81.2572C139.769 79.9511 143.237 79.2941 146.745 79.2941V73.2941ZM134.243 75.668L133.775 75.8508L135.956 81.4402L136.424 81.2574L134.243 75.668ZM135.956 75.8507L135.488 75.668L133.306 81.2574L133.775 81.4402L135.956 75.8507ZM135.488 75.6682C131.461 74.0954 127.251 73.2941 122.986 73.2941V79.2941C126.491 79.2941 129.962 79.9512 133.306 81.2572L135.488 75.6682Z" fill="#1D2939" mask="url(#path-11-inside-1_1283_6725)"/>
<path d="M137.44 126.119C143.419 126.119 148.265 122.756 148.265 118.606C148.265 114.457 143.419 111.093 137.44 111.093C131.462 111.093 126.615 114.457 126.615 118.606C126.615 122.756 131.462 126.119 137.44 126.119Z" fill="#02F1CF"/>
<path d="M132.94 124.25L132.951 123.343C132.951 123.343 132.951 123.343 132.951 123.343C133.617 123.35 134.265 123.364 134.901 123.378C135.096 123.382 135.291 123.387 135.484 123.391C135.484 123.391 135.484 123.391 135.485 123.391C136.77 123.417 138.016 123.434 139.28 123.386L139.281 123.386C141.133 123.316 142.746 123.007 143.907 122.201L143.907 122.201C144.243 121.968 144.542 121.715 144.802 121.445C144.803 121.444 144.804 121.443 144.805 121.442C145.328 120.898 145.692 120.286 145.872 119.634C145.873 119.634 145.873 119.633 145.873 119.633C145.927 119.437 145.965 119.238 145.985 119.035C146.027 118.612 145.966 118.165 145.811 117.72L132.94 124.25ZM132.94 124.25L132.928 125.343M132.94 124.25L129.814 124.212L146.681 117.432M146.681 117.432C146.793 117.775 146.899 118.176 146.918 118.635C146.925 118.807 146.919 118.972 146.904 119.128L147.975 119.237M146.681 117.432C146.538 116.99 146.283 116.546 146.057 116.209L146.681 117.432ZM147.975 119.237L146.904 119.129C146.878 119.4 146.824 119.646 146.764 119.871L146.763 119.874C146.525 120.761 146.014 121.519 145.466 122.084L145.461 122.089C145.136 122.422 144.788 122.706 144.425 122.948C144.425 122.948 144.425 122.948 144.425 122.948C143.086 123.842 141.546 124.165 140.193 124.286C139.906 124.311 139.613 124.328 139.317 124.339C139.317 124.339 139.317 124.339 139.317 124.339C138.354 124.373 137.371 124.339 136.536 124.31C136.144 124.297 135.784 124.285 135.474 124.281L135.473 124.281L132.94 124.25L132.928 125.343M147.975 119.237C147.779 121.171 146.614 122.757 145.047 123.844C143.404 124.985 141.314 125.31 139.357 125.384C137.84 125.443 136.315 125.41 134.794 125.377C134.171 125.363 133.549 125.35 132.928 125.343M147.975 119.237L121.45 122.302C123.622 125.445 127.714 125.394 131.275 125.35C131.843 125.343 132.397 125.336 132.928 125.343M126.397 114.384C126.391 114.389 126.38 114.399 126.366 114.418L126.522 114.797L126.528 114.813L126.683 115.19C126.786 115.196 126.914 115.182 127.06 115.122M126.397 114.384L126.714 115.267C126.827 115.219 126.943 115.17 127.06 115.122M126.397 114.384C126.4 114.382 126.401 114.381 126.401 114.381C126.401 114.381 126.399 114.382 126.397 114.384ZM127.06 115.122L126.892 114.712L126.887 114.7L126.302 113.271L126.888 114.7L126.893 114.712L127.061 115.122C127.061 115.122 127.06 115.122 127.06 115.122ZM126.527 114.813L126.682 115.19C126.526 115.181 126.428 115.126 126.416 115.119C126.392 115.104 126.376 115.089 126.358 115.067C126.344 115.049 126.302 114.991 126.271 114.884C126.27 114.882 126.27 114.88 126.269 114.878C126.268 114.874 126.267 114.87 126.266 114.865C126.257 114.822 126.251 114.754 126.263 114.672C126.277 114.579 126.31 114.504 126.342 114.453C126.35 114.44 126.358 114.429 126.365 114.419L126.52 114.798L126.527 114.813ZM123.188 117.807C123.91 116.69 125.087 115.963 126.714 115.267L123.188 117.807ZM145.297 116.723C145.518 117.044 145.69 117.377 145.808 117.712L145.297 116.723ZM133.739 112.61C133.736 112.612 133.734 112.612 133.734 112.612C133.734 112.612 133.735 112.611 133.739 112.61Z" fill="#1D2939" stroke="#1D2939" stroke-width="4"/>
<path d="M116.201 100.156C118.789 103.46 123.907 109.424 132.26 105.595C141.52 101.35 136.395 97.3498 134.075 97.5492C129.537 97.9464 129.006 105.261 140.168 106.456C149.072 107.409 152.386 99.4327 152.386 99.4327" stroke="#1D2939" stroke-width="3" stroke-linecap="round" stroke-linejoin="round"/>
<path d="M205.596 128.269C197.004 127.473 197.529 143.546 198.522 149.221C199.566 151.843 201.959 151.278 202.803 151.092C208.129 149.919 213.713 129.021 205.596 128.269Z" fill="#CFFF83" stroke="#1D2939" stroke-width="4"/>
<path d="M73.3135 125.315V79.0436C73.3129 78.88 73.2692 78.7194 73.1869 78.5779C73.1045 78.4364 72.9863 78.3189 72.844 78.2371C71.9274 77.7017 69.4497 76.6895 63.924 76.6895C56.4124 76.6895 46.9055 82.3001 41.3892 82.3001C38.2747 82.2921 35.1931 81.6654 32.3248 80.4568C32.289 80.442 32.2502 80.4361 32.2117 80.4399C32.1732 80.4436 32.1362 80.4567 32.104 80.4782C32.0718 80.4996 32.0455 80.5285 32.0273 80.5625C32.009 80.5966 31.9996 80.6345 31.9996 80.673V106.314C31.9999 106.404 32.0266 106.493 32.0764 106.569C32.1261 106.644 32.1969 106.704 32.2802 106.741C33.2473 107.163 36.6557 108.483 41.3892 108.483C47.0229 108.483 56.4124 104.743 63.924 104.743C71.4356 104.743 73.3135 106.613 73.3135 106.613" fill="#FDFB7F"/>
<path d="M73.3135 125.315V79.0436C73.3129 78.88 73.2692 78.7194 73.1869 78.5779C73.1045 78.4364 72.9863 78.3189 72.844 78.2371C71.9274 77.7017 69.4497 76.6895 63.924 76.6895C56.4124 76.6895 46.9055 82.3001 41.3892 82.3001C38.2747 82.2921 35.1931 81.6654 32.3248 80.4568C32.289 80.442 32.2502 80.4361 32.2117 80.4399C32.1732 80.4436 32.1362 80.4567 32.104 80.4782C32.0718 80.4996 32.0455 80.5285 32.0273 80.5625C32.009 80.5966 31.9996 80.6345 31.9996 80.673V106.314C31.9999 106.404 32.0266 106.493 32.0764 106.569C32.1261 106.644 32.1969 106.704 32.2802 106.741C33.2473 107.163 36.6557 108.483 41.3892 108.483C47.0229 108.483 56.4124 104.743 63.924 104.743C71.4356 104.743 73.3135 106.613 73.3135 106.613" stroke="#1D2939" stroke-width="4" stroke-miterlimit="10" stroke-linecap="round"/>
<rect x="170" y="33" width="59" height="22" rx="11" fill="#58F8E1"/>
<path d="M184.16 48L184.518 45.8086H182.689L182.332 48H181.172L181.529 45.8086H180.34L180.527 44.6602H181.723L182.016 42.8555H180.832L181.02 41.707H182.209L182.566 39.5156H183.727L183.369 41.707H185.197L185.555 39.5156H186.703L186.346 41.707H187.547L187.348 42.8555H186.152L185.859 44.6602H187.055L186.867 45.8086H185.666L185.309 48H184.16ZM182.883 44.6602H184.711L185.004 42.8555H183.176L182.883 44.6602ZM197.648 43.957V44.9883H187.969V43.957H192.152V43.1719H189.211V38.7305H196.488V39.7383H190.512V40.4648H196.23V41.4258H190.512V42.1758H196.57V43.1719H193.453V43.957H197.648ZM189.117 47.2969C189.117 46.1895 190.447 45.5684 192.809 45.5742C195.135 45.5684 196.471 46.1895 196.477 47.2969C196.471 48.4336 195.135 49.0312 192.809 49.0312C190.447 49.0312 189.117 48.4336 189.117 47.2969ZM190.418 47.2969C190.418 47.8125 191.215 48.0586 192.809 48.0586C194.373 48.0586 195.164 47.8125 195.176 47.2969C195.164 46.793 194.373 46.5469 192.809 46.5469C191.215 46.5469 190.418 46.793 190.418 47.2969ZM202.172 40.4766C202.166 41.4961 203.068 42.4629 204.703 42.8203L204.152 43.8047C202.91 43.5293 202.02 42.8906 201.545 42.0586C201.064 42.9902 200.15 43.7051 198.855 44.0156L198.293 43.0078C199.951 42.6094 200.871 41.5898 200.871 40.4766V40.4648H198.656V39.4336H200.871V38.4141H202.184V39.4336H204.387V40.4648H202.172V40.4766ZM199.793 45.4453V44.4492H206.719V47.1445H201.094V47.9414H207.047V48.9492H199.805V46.1953H205.418V45.4453H199.793ZM205.418 43.9805V38.4492H206.719V40.6641H208.195V41.7305H206.719V43.9805H205.418ZM213.797 39.082V42.2695H210.457V43.5703C212.162 43.5703 213.129 43.5234 214.254 43.3125L214.383 44.3672C213.117 44.584 212.021 44.6133 209.941 44.6133H209.168V41.2969H212.496V40.1133H209.145V39.082H213.797ZM210.363 46.5234V45.4805H217.605V49.043H216.305V46.5234H210.363ZM214.43 43.2305V42.1875H216.305V41.0039H214.43V39.9609H216.305V38.4609H217.605V44.9766H216.305V43.2305H214.43Z" fill="#1D2939"/>
<rect x="27" y="156" width="59" height="22" rx="11" fill="#58F8E1"/>
<path d="M41.1602 171L41.5176 168.809H39.6895L39.332 171H38.1719L38.5293 168.809H37.3398L37.5273 167.66H38.7227L39.0156 165.855H37.832L38.0195 164.707H39.209L39.5664 162.516H40.7266L40.3691 164.707H42.1973L42.5547 162.516H43.7031L43.3457 164.707H44.5469L44.3477 165.855H43.1523L42.8594 167.66H44.0547L43.8672 168.809H42.666L42.3086 171H41.1602ZM39.8828 167.66H41.7109L42.0039 165.855H40.1758L39.8828 167.66ZM54.6484 166.629V167.672H44.9922V166.629H49.1641V165.574H46.1758V161.883H53.4883V162.914H47.4766V164.52H53.582V165.574H50.4648V166.629H54.6484ZM46.0586 169.547V168.504H53.4883V172.078H52.1992V169.547H46.0586ZM64.1875 161.461V167.332H62.875V161.461H64.1875ZM55.9023 162.996V161.941H60.7891V165H57.2031V166.066C59.0137 166.055 60.3086 166.02 61.8203 165.762L61.9844 166.816C60.3145 167.092 58.8789 167.133 56.8281 167.133H55.9258V164.004H59.5V162.996H55.9023ZM57.168 171.914V167.801H58.4688V168.832H62.8867V167.801H64.1875V171.914H57.168ZM58.4688 170.859H62.8867V169.84H58.4688V170.859ZM69.625 163.266C69.625 164.561 70.4805 165.855 72.1211 166.406L71.4648 167.414C70.2812 167.027 69.4434 166.225 68.9805 165.229C68.5176 166.336 67.6387 167.227 66.3789 167.648L65.7109 166.617C67.3984 166.061 68.3008 164.654 68.3008 163.277V163.137H66.0977V162.094H71.8164V163.137H69.625V163.266ZM67.3867 169.312V168.27H74.6055V172.043H73.3047V169.312H67.3867ZM71.5 165.141V164.074H73.3047V161.449H74.6055V167.766H73.3047V165.141H71.5Z" fill="#1D2939"/>
<rect x="180" y="186" width="80" height="22" rx="11" fill="#58F8E1"/>
<path d="M194.289 201L194.646 198.809H192.818L192.461 201H191.301L191.658 198.809H190.469L190.656 197.66H191.852L192.145 195.855H190.961L191.148 194.707H192.338L192.695 192.516H193.855L193.498 194.707H195.326L195.684 192.516H196.832L196.475 194.707H197.676L197.477 195.855H196.281L195.988 197.66H197.184L196.996 198.809H195.795L195.438 201H194.289ZM193.012 197.66H194.84L195.133 195.855H193.305L193.012 197.66ZM202.891 198.07C205.193 198.076 206.646 198.803 206.652 200.062C206.646 201.293 205.193 202.031 202.891 202.031C200.611 202.031 199.141 201.293 199.141 200.062C199.141 198.803 200.611 198.076 202.891 198.07ZM198.145 197.309V196.254H201.871V194.332H203.16V196.254H207.754V197.309H198.145ZM199.246 192.984V191.953H206.582V192.832C206.588 193.67 206.588 194.561 206.289 195.645L205 195.527C205.264 194.502 205.281 193.752 205.281 192.984H199.246ZM200.453 200.062C200.441 200.684 201.361 201.023 202.891 201.023C204.426 201.023 205.352 200.684 205.363 200.062C205.352 199.418 204.426 199.055 202.891 199.055C201.361 199.055 200.441 199.418 200.453 200.062ZM214.41 192.551V193.301C214.41 194.244 214.41 195.58 214.117 197.402L212.828 197.297C213.086 195.691 213.115 194.502 213.121 193.594H208.961V192.551H214.41ZM208.398 198.773C209.025 198.768 209.723 198.762 210.449 198.744V195.574H211.738V198.703C212.816 198.656 213.924 198.58 214.938 198.457L215.008 199.43C212.822 199.787 210.396 199.828 208.527 199.816L208.398 198.773ZM215.488 202.043V191.449H216.801V195.762H218.336V196.863H216.801V202.043H215.488ZM222.648 193.992C222.637 195.885 223.586 197.795 225.227 198.586L224.43 199.629C223.281 199.049 222.455 197.93 222.004 196.582C221.541 198.023 220.674 199.219 219.461 199.828L218.664 198.785C220.369 197.977 221.342 195.949 221.348 193.992V192.305H222.648V193.992ZM225.859 202.043V191.449H227.16V195.598H228.789V196.711H227.16V202.043H225.859ZM237.707 192.094V193.043C237.701 194.033 237.701 195.117 237.426 196.617H238.891V197.672H234.684V202.055H233.371V197.672H229.234V196.617H236.102C236.395 195.176 236.406 194.092 236.406 193.148H230.371V192.094H237.707ZM249.273 196.934V197.977H245.184V199.805H243.895V197.977H239.594V196.934H249.273ZM240.766 201.832V198.914H242.055V200.777H248.207V201.832H240.766ZM240.859 196.102V191.789H242.148V192.984H246.719V191.789H248.008V196.102H240.859ZM242.148 195.07H246.719V193.957H242.148V195.07Z" fill="#1D2939"/>
</svg>
