<svg width="103" height="133" viewBox="0 0 103 133" fill="none" xmlns="http://www.w3.org/2000/svg">
<circle cx="51" cy="81" r="46" fill="#02F1CF"/>
<path d="M51.5 30C23.1037 30 0 53.1037 0 81.5C0 109.896 23.1037 133 51.5 133C79.8963 133 103 109.896 103 81.5C103 53.1037 79.8963 30 51.5 30ZM47.0433 38.1727C47.2017 38.1528 47.376 38.1845 47.5385 38.1727V41.8846H55.4615V38.1687C65.5978 39.0755 75.0933 43.5146 82.2893 50.7107C89.4854 57.9067 93.9245 67.4022 94.8313 77.5385H91.1154V85.4615H94.8313C93.9245 95.5978 89.4854 105.093 82.2893 112.289C75.0933 119.485 65.5978 123.925 55.4615 124.831V121.115H47.5385V124.831C37.4022 123.925 27.9067 119.485 20.7107 112.289C13.5146 105.093 9.07549 95.5978 8.16869 85.4615H11.8846V77.5385H8.16869C10.0385 56.7681 26.3403 40.2604 47.0433 38.1687V38.1727ZM75.6456 57.3584L41.9725 71.9685L27.3544 105.642L61.0275 91.0315L75.6456 57.3584ZM51.5 75.5577C54.6692 75.5577 57.4423 78.3308 57.4423 81.5C57.4423 84.6692 54.6692 87.4423 51.5 87.4423C48.3308 87.4423 45.5577 84.6692 45.5577 81.5C45.5577 78.3308 48.3308 75.5577 51.5 75.5577Z" fill="#475467"/>
<path d="M53.5468 16.7686C54.7531 16.7686 55.7322 15.797 55.7322 14.5999V2.16873C55.7322 0.971591 54.7531 0 53.5468 0C52.3404 0 51.3613 0.971591 51.3613 2.16873V14.5999C51.3613 15.797 52.3404 16.7686 53.5468 16.7686Z" fill="#475467"/>
<path d="M69.4486 19.5273C69.7895 19.7268 70.1654 19.8135 70.5413 19.8135C71.2931 19.8135 72.0361 19.4232 72.4382 18.7292L78.6885 7.95492C79.2917 6.91393 78.9333 5.58666 77.8843 4.99677C76.8353 4.3982 75.4978 4.75387 74.9034 5.79486L68.6531 16.5691C68.0499 17.6101 68.4083 18.9374 69.4573 19.5273H69.4486Z" fill="#475467"/>
<path d="M34.5343 18.7292C34.9364 19.4232 35.6707 19.8135 36.4312 19.8135C36.7984 19.8135 37.1743 19.7181 37.524 19.5273C38.573 18.9287 38.9314 17.6014 38.3282 16.5691L32.0779 5.79486C31.4747 4.75387 30.1372 4.3982 29.097 4.99677C28.048 5.59534 27.6896 6.9226 28.2927 7.95492L34.543 18.7292H34.5343Z" fill="#475467"/>
</svg>
