<svg width="272" height="236" viewBox="0 0 272 236" fill="none" xmlns="http://www.w3.org/2000/svg">
<g clip-path="url(#clip0_1283_5445)">
<path d="M156.242 129.784C155.833 129.784 155.437 129.565 155.226 129.178C154.922 128.616 155.13 127.914 155.688 127.607L159.177 125.708C162.64 123.454 165.146 120.708 167.546 116.533C169.794 112.619 170.999 107.498 171.121 101.311C171.217 96.4373 169.612 91.4679 169.596 91.4183C169.421 90.8823 169.655 90.3 170.15 90.0353C176.271 86.7632 181.675 78.6508 182.999 70.7401C183.771 66.1215 183.563 59.4019 178.192 53.6087C169.147 43.8553 157.226 47.981 153.79 49.4764C144.883 53.354 141.595 62.181 140.793 64.8146C141.341 65.0065 141.909 65.2249 142.513 65.4829C143.1 65.7344 143.371 66.4159 143.123 67.0015C142.873 67.5904 142.196 67.8617 141.608 67.6136C137.109 65.6914 134.745 65.966 131.655 66.6045C127.486 67.468 125.297 69.5259 125.274 69.5458C125.049 69.7608 124.762 69.8667 124.475 69.8667C124.171 69.8667 123.871 69.7476 123.643 69.5127C123.201 69.0528 123.211 68.3249 123.666 67.8816C123.716 67.832 124.343 67.2364 125.518 66.5218C125.446 66.4457 125.376 66.3597 125.323 66.2604C125.261 66.138 118.747 53.9495 106.853 53.9495H106.84C103.242 53.9495 100.039 54.598 96.461 56.0438C91.3375 58.1149 88.6668 62.9387 88.6404 62.985C88.6305 63.0015 88.6206 63.0214 88.6074 63.0413C84.4215 69.8535 84.8804 78.3695 87.4949 83.2595C92.7273 93.046 102.076 98.5084 102.34 98.6606C102.34 98.6606 102.347 98.6639 102.35 98.6672C102.37 98.6771 102.383 98.6903 102.4 98.7036C102.446 98.7334 102.489 98.7631 102.532 98.7962C102.562 98.8194 102.585 98.8492 102.608 98.8756C102.634 98.9021 102.661 98.9286 102.684 98.9583C102.707 98.9881 102.727 99.0212 102.746 99.0543C102.766 99.0841 102.786 99.1138 102.803 99.1469C102.819 99.18 102.829 99.2131 102.846 99.2462C102.859 99.2826 102.875 99.3157 102.885 99.3554C102.895 99.3917 102.902 99.4315 102.908 99.4678C102.915 99.5042 102.925 99.5373 102.928 99.5737C102.931 99.63 102.928 99.6829 102.928 99.7391C102.928 99.759 102.928 99.7755 102.928 99.7954C102.928 99.7954 102.928 99.802 102.928 99.8053C102.928 99.8053 102.928 99.8053 102.928 99.8086C102.902 100.077 102.4 105.615 104.278 112.1C106.817 120.871 112.297 127.143 120.56 130.746C121.144 131.001 121.411 131.683 121.157 132.272C120.969 132.708 120.543 132.966 120.098 132.966C119.942 132.966 119.787 132.937 119.639 132.87C117.76 132.053 116.073 131.12 114.552 130.108C112.406 131.018 110.461 132.371 108.411 133.803C103.819 137.016 98.6134 140.659 89.8718 139.623C85.7453 139.133 82.4243 137.41 77.6276 133.261C74.2901 130.376 70.3386 126.072 68.7936 124.354C68.1499 123.64 67.8891 122.644 68.0938 121.691C68.8893 117.956 68.2786 115.054 68.272 115.024C67.516 111.342 66.5785 106.78 64.4261 105.499C63.7296 105.086 62.8944 105.036 61.8743 105.347C61.4253 105.486 61.0952 105.833 60.8872 106.386C60.501 107.408 60.6528 108.9 61.2405 109.857C61.5574 110.376 61.422 111.051 60.9301 111.405C60.4383 111.759 59.7549 111.67 59.3687 111.203C57.0644 108.421 54.1561 106.512 50.9605 105.678C48.1281 104.89 45.4442 105.172 42.9617 106.515C40.4627 107.868 38.9012 110.072 38.449 112.887C37.6996 117.562 40.0302 123.435 44.5331 128.212C52.5814 136.751 65.1326 147.193 71.3983 150.558C71.4643 150.594 71.527 150.634 71.5831 150.683C71.6194 150.713 75.4917 153.8 82.7907 155.061C89.5516 156.225 100.723 156.02 115.552 148.407C115.931 148.212 116.387 148.242 116.737 148.487C117.087 148.731 117.275 149.148 117.226 149.572C117.199 149.807 114.604 172.764 116.714 189.287C133.649 190.263 150.726 189.466 167.503 186.915C165.69 162.273 159.296 148.116 159.23 147.974C159.029 147.534 159.121 147.014 159.464 146.67C159.808 146.326 160.326 146.237 160.765 146.439C174.848 152.956 185.914 152.358 192.714 150.71C200.086 148.923 204.192 145.552 204.232 145.519C204.265 145.492 204.301 145.466 204.334 145.443C210.785 141.168 222.002 129.274 228.694 120.708C232.738 115.534 234.517 109.473 233.339 104.884C232.629 102.121 230.873 100.073 228.258 98.955C225.663 97.8467 222.966 97.8136 220.236 98.8558C217.11 99.9873 214.39 102.161 212.353 105.142C212.01 105.645 211.339 105.794 210.815 105.486C210.29 105.178 210.095 104.52 210.362 103.974C210.857 102.965 210.874 101.466 210.395 100.484C210.138 99.9542 209.775 99.6366 209.316 99.5406C208.273 99.3223 207.447 99.4513 206.79 99.9277C204.767 101.4 204.255 106.032 203.842 109.754C203.836 109.794 203.535 112.407 204.447 115.752C204.681 116.616 204.638 117.919 204.348 118.786C203.258 122.015 200.7 126.932 197.659 130.098C193.196 134.746 190.905 135.408 186.911 136.262C179.371 137.873 174.234 135.203 169.262 132.619C165.872 130.856 162.67 129.195 158.732 128.818C158.632 128.808 158.54 128.781 158.448 128.748L156.79 129.651C156.615 129.747 156.427 129.794 156.239 129.794L156.242 129.784ZM50.4422 108.599C51.2873 107.901 52.5748 108.067 53.3209 108.97C54.067 109.873 53.9844 111.173 53.1393 111.871C52.2942 112.57 51.0067 112.404 50.2607 111.501C49.5146 110.598 49.5971 109.297 50.4422 108.599ZM44.8434 119.673C43.9983 120.371 42.7108 120.206 41.9647 119.302C41.2187 118.399 41.3012 117.099 42.1463 116.401C42.9914 115.703 44.2789 115.868 45.025 116.771C45.771 117.675 45.6885 118.975 44.8434 119.673ZM44.1171 113.373C43.3711 112.47 43.4536 111.17 44.2987 110.472C45.1438 109.774 46.4313 109.939 47.1773 110.842C47.9234 111.746 47.8409 113.046 46.9958 113.744C46.1507 114.442 44.8632 114.277 44.1171 113.373ZM58.5566 127.137C55.5921 129.592 51.0728 129.009 48.4582 125.84C45.8437 122.67 46.1276 118.108 49.092 115.656C52.0565 113.201 56.5759 113.784 59.1904 116.953C61.805 120.123 61.5211 124.685 58.5566 127.137ZM122.791 85.635C123.376 85.3769 124.056 85.6449 124.313 86.2305C124.571 86.8161 124.303 87.4977 123.719 87.7557C123.663 87.7822 119.394 89.7011 116.608 93.3438C116.38 93.6416 116.037 93.7971 115.69 93.7971C115.446 93.7971 115.199 93.7177 114.987 93.5589C114.482 93.1685 114.386 92.4439 114.773 91.9344C117.939 87.8021 122.593 85.721 122.788 85.635H122.791ZM103.981 86.5614C103.661 87.372 102.69 87.7061 101.941 87.2628C100.337 86.3199 97.7385 84.4836 95.5135 81.4895C91.5356 76.133 92.7966 65.6616 101.426 62.6376C110.072 59.607 115.403 66.6938 117.212 69.698C117.618 70.3729 117.4 71.2463 116.73 71.6566C108.629 76.6491 105.166 83.5573 103.981 86.5614ZM130.483 111.309C128.734 112.986 126.575 113.883 124.386 113.883C123.871 113.883 123.353 113.833 122.838 113.731C121.973 113.575 121.104 113.278 120.276 112.857C116.833 111.101 114.588 107.484 114.548 103.63C114.489 102.819 114.512 102.009 114.621 101.221C114.736 100.391 114.944 99.5737 115.245 98.7995C115.258 98.7664 115.271 98.7367 115.288 98.7036C116.229 96.7847 117.922 94.2702 120.646 93.1784C121.464 92.8508 122.323 92.6755 123.197 92.659C127.469 92.07 131.761 95.2594 133.197 100.11C133.411 100.857 133.55 101.622 133.613 102.393C134.081 105.592 132.883 109.003 130.48 111.306L130.483 111.309ZM149.369 66.6177C150.072 64.3911 151.918 60.6724 156.698 57.9859C164.954 53.3374 172.448 57.9395 174.482 63.9809C176.528 70.0652 171.124 76.6392 168.348 79.501C167.552 80.3215 166.235 80.3381 165.423 79.5341C159.263 73.4333 153.255 70.353 150.505 69.1487C149.534 68.7253 149.049 67.6301 149.369 66.6177ZM147.474 84.2785C147.63 83.6565 148.254 83.2827 148.874 83.4348C149.082 83.4878 154.021 84.745 157.84 88.2785C158.309 88.7119 158.339 89.4464 157.906 89.9162C157.678 90.1643 157.368 90.2868 157.058 90.2868C156.777 90.2868 156.497 90.1842 156.275 89.9791C152.905 86.8591 148.366 85.6946 148.32 85.6813C147.702 85.5258 147.323 84.8972 147.478 84.2785H147.474ZM137.188 112.139C137.462 111.997 137.719 111.948 137.957 111.918C138.125 111.895 138.307 111.881 138.502 111.891C139.02 111.865 139.522 112.014 139.918 112.315C140.242 112.556 140.357 112.864 140.397 113.076C140.43 113.254 140.44 113.542 140.281 113.863C140.139 114.144 139.835 114.525 139.195 114.737C138.878 114.842 138.545 114.895 138.221 114.895C137.898 114.895 137.587 114.846 137.29 114.743C137.204 114.713 136.924 114.621 136.689 114.363C136.452 114.101 136.33 113.764 136.343 113.41C136.363 112.887 136.689 112.397 137.191 112.136L137.188 112.139ZM142.275 122.902C141.958 123.815 141.288 124.533 140.436 124.874C140.07 125.019 139.68 125.092 139.287 125.092C138.766 125.092 138.238 124.963 137.749 124.712C136.937 124.292 136.293 123.567 135.937 122.674C135.58 121.78 135.55 120.811 135.851 119.944C136.168 119.031 136.838 118.313 137.69 117.972C138.541 117.632 139.522 117.691 140.377 118.134C141.189 118.555 141.833 119.279 142.189 120.172C142.546 121.066 142.575 122.035 142.275 122.902ZM148.112 111.564C147.25 111.408 146.382 111.114 145.55 110.69C142.107 108.933 139.862 105.317 139.822 101.463C139.763 100.652 139.786 99.845 139.895 99.0543C140.01 98.2239 140.218 97.4066 140.519 96.6325C140.532 96.5994 140.545 96.5696 140.562 96.5365C141.503 94.6176 143.196 92.1031 145.92 91.0113C146.738 90.6838 147.597 90.5084 148.471 90.4919C152.746 89.9063 157.035 93.0924 158.471 97.9426C158.685 98.6903 158.824 99.4546 158.887 100.225C159.355 103.425 158.157 106.836 155.754 109.139C154.004 110.816 151.845 111.716 149.657 111.716C149.142 111.716 148.623 111.666 148.108 111.564H148.112ZM229.981 108.718C230.886 109.337 231.087 110.624 230.427 111.59C229.77 112.56 228.502 112.844 227.595 112.225C226.69 111.607 226.489 110.32 227.149 109.354C227.806 108.384 229.074 108.1 229.981 108.718ZM224.462 103.646C225.119 102.677 226.386 102.393 227.294 103.011C228.199 103.63 228.4 104.917 227.74 105.883C227.083 106.852 225.815 107.137 224.907 106.518C224.003 105.9 223.802 104.613 224.462 103.646ZM218.17 102.353C218.827 101.383 220.094 101.099 221.002 101.718C221.907 102.336 222.108 103.623 221.448 104.589C220.791 105.559 219.523 105.843 218.615 105.225C217.711 104.606 217.509 103.319 218.17 102.353ZM213.063 110.846C215.374 107.448 219.824 106.449 222.999 108.619C226.175 110.79 226.878 115.302 224.567 118.7C222.257 122.098 217.807 123.097 214.631 120.927C211.455 118.756 210.752 114.244 213.063 110.846Z" fill="#FCFCFD"/>
<path d="M156.597 100.536C156.593 100.51 156.59 100.483 156.587 100.457C156.537 99.8251 156.422 99.1998 156.25 98.5976C155.629 96.51 154.312 94.7862 152.721 93.7639C153.962 94.9384 154.804 96.7019 154.916 98.7101C155.131 102.459 152.741 105.645 149.578 105.823C146.416 106.005 143.682 103.11 143.468 99.3619C143.356 97.3834 143.973 95.567 145.042 94.2602C144.141 95.0575 143.323 96.1626 142.652 97.5124C142.428 98.108 142.269 98.7333 142.18 99.3718C142.091 100.01 142.075 100.665 142.124 101.324C142.124 101.35 142.127 101.38 142.127 101.407C142.147 104.417 143.9 107.253 146.594 108.626C147.225 108.947 147.878 109.168 148.535 109.287C150.503 109.674 152.543 109.009 154.154 107.464C156.032 105.665 156.966 103.008 156.593 100.53L156.597 100.536Z" fill="#FCFCFD"/>
<path d="M140.041 121.033C139.892 120.662 139.628 120.358 139.315 120.196C139.212 120.143 139.037 120.073 138.839 120.073C138.747 120.073 138.648 120.09 138.546 120.129C138.232 120.255 138.09 120.546 138.034 120.708C137.918 121.043 137.935 121.449 138.083 121.817C138.232 122.187 138.496 122.492 138.81 122.654C138.961 122.733 139.265 122.846 139.579 122.723C139.892 122.598 140.034 122.306 140.09 122.144C140.206 121.81 140.19 121.403 140.041 121.036V121.033Z" fill="#C1272D"/>
<path d="M131.315 102.621C131.265 101.989 131.15 101.364 130.978 100.761C130.321 98.5481 128.875 96.7549 127.159 95.759C127.212 95.8054 127.271 95.8484 127.324 95.898C128.585 97.0725 129.44 98.8525 129.555 100.884C129.77 104.632 127.38 107.819 124.217 107.997C121.055 108.179 118.321 105.284 118.107 101.536C118.001 99.6995 118.526 98.0055 119.454 96.7251C118.678 97.4927 117.971 98.4919 117.384 99.6796C117.159 100.275 117.001 100.9 116.912 101.539C116.823 102.178 116.806 102.833 116.856 103.491C116.856 103.517 116.859 103.547 116.859 103.574C116.879 106.584 118.632 109.42 121.325 110.793C121.953 111.114 122.606 111.335 123.267 111.455C125.234 111.842 127.274 111.177 128.885 109.632C130.764 107.832 131.698 105.175 131.325 102.697C131.322 102.67 131.318 102.644 131.315 102.618V102.621Z" fill="#FCFCFD"/>
<path d="M118.108 101.539C118.322 105.287 121.056 108.179 124.218 108C127.381 107.818 129.771 104.636 129.556 100.887C129.441 98.8558 128.586 97.0791 127.325 95.9013C127.272 95.8516 127.216 95.8086 127.16 95.7623C125.998 95.0907 124.714 94.783 123.456 94.9683C123.403 94.9749 123.347 94.9815 123.294 94.9815C122.68 94.9848 122.076 95.1039 121.501 95.3355C120.785 95.6234 120.095 96.0998 119.451 96.7317C118.524 98.0088 118.002 99.706 118.105 101.542L118.108 101.539Z" fill="#1D2939"/>
<path d="M143.47 99.3655C143.685 103.114 146.418 106.006 149.581 105.827C152.744 105.645 155.134 102.462 154.919 98.7137C154.804 96.7054 153.965 94.942 152.724 93.7675C151.489 92.9734 150.093 92.6029 148.729 92.8047C148.676 92.8113 148.624 92.8179 148.568 92.8179C147.95 92.8212 147.349 92.9404 146.775 93.1719C146.174 93.4135 145.593 93.784 145.042 94.2704C143.972 95.5772 143.355 97.3936 143.467 99.3721L143.47 99.3655Z" fill="#1D2939"/>
<path d="M102.912 99.4646C102.919 99.5007 102.928 99.5336 102.932 99.5698C102.932 99.5336 102.919 99.4975 102.912 99.4646Z" fill="#1D2939"/>
<path d="M115.599 128.437C115.83 129.033 115.539 129.704 114.945 129.939C114.81 129.992 114.681 130.052 114.549 130.108C116.071 131.12 117.761 132.053 119.636 132.87C119.785 132.937 119.943 132.966 120.095 132.966C120.541 132.966 120.966 132.705 121.155 132.272C121.409 131.686 121.141 131.004 120.557 130.746C112.294 127.143 106.814 120.871 104.276 112.1C102.397 105.615 102.902 100.077 102.925 99.8086C102.909 99.9575 102.863 100.106 102.783 100.245C102.572 100.619 102.179 100.831 101.777 100.831C101.582 100.831 101.387 100.781 101.209 100.679C101.153 100.649 100.928 100.517 100.575 100.295C100.473 102.108 100.407 106.991 102.034 112.659C103.437 117.549 106.355 123.716 112.406 128.546C112.958 128.265 113.522 128.007 114.103 127.779C114.698 127.544 115.368 127.838 115.602 128.434L115.599 128.437Z" fill="#1D2939"/>
<path d="M102.4 98.7003C102.447 98.7301 102.493 98.7599 102.532 98.793C102.493 98.7566 102.447 98.7301 102.4 98.7003Z" fill="#1D2939"/>
<path d="M102.889 99.3512C102.879 99.3151 102.863 99.2789 102.85 99.2428C102.863 99.2789 102.879 99.3118 102.889 99.3512Z" fill="#1D2939"/>
<path d="M126.878 66.7534C126.413 66.9983 125.858 66.8858 125.515 66.5251C124.34 67.2398 123.712 67.8353 123.663 67.8849C123.207 68.3283 123.197 69.0561 123.64 69.516C123.868 69.7509 124.168 69.87 124.472 69.87C124.775 69.87 125.049 69.7642 125.271 69.5491C125.294 69.5293 127.479 67.4714 131.652 66.6079C134.745 65.9693 137.105 65.6914 141.605 67.617C142.192 67.8684 142.869 67.5938 143.12 67.0049C143.371 66.416 143.097 65.7377 142.509 65.4863C141.905 65.2282 141.334 65.0099 140.789 64.818C140.648 65.2811 140.582 65.5558 140.578 65.5756C140.436 66.1976 139.819 66.5913 139.195 66.4457C138.574 66.3035 138.185 65.6848 138.323 65.0595C138.34 64.9867 138.416 64.6691 138.561 64.1794C135.686 63.5442 133.524 63.8552 131.18 64.3382C129.737 64.636 128.506 65.0595 127.472 65.5127C127.565 66.0024 127.34 66.5119 126.878 66.7534Z" fill="#1D2939"/>
<path d="M133.198 100.113C131.759 95.2627 127.47 92.0766 123.199 92.6622C122.321 92.6788 121.462 92.8541 120.647 93.1817C117.923 94.2735 116.23 96.7912 115.289 98.7069C115.272 98.7366 115.259 98.7697 115.246 98.8028C114.949 99.577 114.738 100.394 114.622 101.225C114.513 102.012 114.49 102.823 114.55 103.633C114.589 107.484 116.834 111.104 120.277 112.861C121.106 113.284 121.974 113.579 122.839 113.734C123.354 113.837 123.872 113.886 124.387 113.886C126.576 113.886 128.735 112.986 130.484 111.312C132.888 109.01 134.086 105.598 133.617 102.399C133.551 101.628 133.413 100.864 133.201 100.116L133.198 100.113ZM128.887 109.638C127.276 111.183 125.232 111.848 123.268 111.461C122.608 111.342 121.954 111.117 121.327 110.799C118.633 109.426 116.88 106.591 116.86 103.58C116.86 103.554 116.86 103.524 116.857 103.498C116.804 102.839 116.824 102.184 116.913 101.546C117.002 100.907 117.161 100.282 117.385 99.6862C117.973 98.4984 118.679 97.4993 119.455 96.7317C120.422 95.3984 121.832 94.5183 123.446 94.429C124.823 94.3496 126.117 94.8591 127.16 95.7656C128.88 96.7582 130.323 98.5547 130.98 100.768C131.151 101.37 131.263 101.996 131.316 102.627C131.316 102.654 131.323 102.68 131.326 102.707C131.699 105.185 130.765 107.842 128.887 109.641V109.638Z" fill="#1D2939"/>
<path d="M121.504 95.3322C122.078 95.1006 122.679 94.9848 123.296 94.9782C123.349 94.9782 123.405 94.9749 123.458 94.9649C124.716 94.7797 126 95.0874 127.162 95.759C126.119 94.8558 124.825 94.3429 123.448 94.4224C121.834 94.515 120.424 95.3917 119.457 96.7251C120.101 96.0898 120.791 95.6167 121.507 95.3289L121.504 95.3322Z" fill="#1D2939"/>
<path d="M158.887 100.229C158.821 99.458 158.683 98.6937 158.471 97.946C157.032 93.0957 152.747 89.9096 148.472 90.4952C147.594 90.5118 146.736 90.6871 145.92 91.0147C143.197 92.1065 141.503 94.6242 140.562 96.5399C140.546 96.5696 140.533 96.6027 140.519 96.6358C140.222 97.4133 140.011 98.2272 139.896 99.0576C139.787 99.8484 139.764 100.656 139.823 101.466C139.863 105.317 142.107 108.937 145.551 110.694C146.382 111.117 147.251 111.412 148.112 111.567C148.627 111.67 149.146 111.719 149.661 111.719C151.849 111.719 154.008 110.819 155.758 109.142C158.161 106.839 159.359 103.428 158.891 100.229H158.887ZM148.538 109.291C147.878 109.172 147.224 108.95 146.597 108.629C143.903 107.256 142.15 104.421 142.13 101.41C142.13 101.384 142.13 101.354 142.127 101.327C142.074 100.669 142.094 100.014 142.183 99.3753C142.272 98.7367 142.431 98.1114 142.655 97.5159C143.326 96.166 144.141 95.061 145.045 94.2636C146.003 93.0957 147.317 92.3348 148.809 92.2487C150.258 92.166 151.618 92.7285 152.684 93.7243C152.698 93.7376 152.708 93.7508 152.721 93.7607C154.312 94.7831 155.632 96.5035 156.25 98.5945C156.421 99.1966 156.534 99.8219 156.586 100.454C156.586 100.48 156.593 100.507 156.596 100.533C156.969 103.011 156.035 105.668 154.157 107.468C152.546 109.013 150.506 109.678 148.538 109.291Z" fill="#1D2939"/>
<path d="M148.568 92.8112C148.621 92.8112 148.677 92.8079 148.73 92.7979C150.09 92.5961 151.489 92.97 152.724 93.7607C152.711 93.7475 152.701 93.7343 152.688 93.7243C151.618 92.7285 150.258 92.166 148.812 92.2487C147.32 92.3348 146.003 93.0957 145.049 94.2636C145.6 93.7773 146.181 93.4067 146.782 93.1652C147.356 92.9336 147.957 92.8178 148.575 92.8112H148.568Z" fill="#1D2939"/>
<path d="M137.288 114.75C137.585 114.849 137.898 114.902 138.219 114.902C138.539 114.902 138.876 114.849 139.192 114.743C139.836 114.531 140.14 114.151 140.279 113.87C140.437 113.552 140.427 113.261 140.394 113.082C140.354 112.871 140.239 112.563 139.915 112.321C139.519 112.02 139.017 111.871 138.499 111.898C138.304 111.885 138.123 111.898 137.954 111.924C137.717 111.954 137.459 112.004 137.185 112.146C136.68 112.407 136.357 112.897 136.337 113.42C136.324 113.774 136.446 114.111 136.684 114.373C136.921 114.631 137.199 114.723 137.284 114.753L137.288 114.75Z" fill="#1D2939"/>
<path d="M101.902 98.5218C102.06 98.5383 102.209 98.5879 102.337 98.6607C102.073 98.5085 92.7242 93.0495 87.4918 83.2596C84.8773 78.3697 84.4184 69.8536 88.6043 63.0414C88.6142 63.0248 88.6274 63.005 88.6373 62.9851C88.6637 62.9355 91.3344 58.1117 96.4579 56.0439C100.036 54.5981 103.239 53.9529 106.837 53.9496H106.85C118.744 53.9496 125.254 66.1381 125.32 66.2606C125.373 66.3598 125.439 66.4458 125.515 66.5219C126.053 66.1944 126.707 65.847 127.476 65.5095C127.456 65.4004 127.423 65.2912 127.37 65.1886C127.083 64.6361 120.164 51.6304 106.853 51.6304H106.837C102.928 51.6304 99.462 52.3318 95.5963 53.8934C89.8489 56.216 86.9009 61.3507 86.6236 61.8503C81.9953 69.4036 82.5334 78.8825 85.455 84.3514C90.3011 93.42 98.2669 98.8526 100.571 100.295C100.594 99.8584 100.621 99.5937 100.627 99.5474C100.697 98.9121 101.264 98.4556 101.898 98.5184L101.902 98.5218Z" fill="#1D2939"/>
<path d="M102.342 98.6605C102.361 98.6737 102.381 98.6868 102.401 98.6999C102.384 98.6901 102.368 98.6737 102.352 98.6638C102.352 98.6638 102.345 98.6605 102.342 98.6572V98.6605Z" fill="#1D2939"/>
<path d="M102.929 99.5737C102.932 99.6267 102.929 99.6829 102.929 99.7392C102.929 99.6829 102.935 99.6267 102.929 99.5737Z" fill="#1D2939"/>
<path d="M102.845 99.2454C102.832 99.2126 102.822 99.1764 102.803 99.1469C102.819 99.1797 102.829 99.2126 102.845 99.2454Z" fill="#1D2939"/>
<path d="M102.532 98.7961C102.562 98.8191 102.585 98.8487 102.607 98.875C102.581 98.8487 102.558 98.8191 102.532 98.7961Z" fill="#1D2939"/>
<path d="M101.78 100.831C102.183 100.831 102.572 100.619 102.787 100.245C102.866 100.106 102.912 99.9575 102.929 99.8086C102.929 99.8086 102.929 99.8086 102.929 99.8053C102.929 99.7821 102.929 99.7623 102.929 99.7391C102.929 99.6829 102.935 99.6266 102.929 99.5737C102.929 99.5373 102.915 99.5009 102.909 99.4678C102.902 99.4314 102.896 99.3917 102.886 99.3553C102.876 99.3189 102.859 99.2825 102.846 99.2461C102.833 99.2131 102.82 99.1767 102.803 99.1469C102.787 99.1138 102.767 99.084 102.747 99.0542C102.727 99.0212 102.707 98.9881 102.684 98.9583C102.661 98.9285 102.635 98.9021 102.608 98.8756C102.582 98.8491 102.559 98.8193 102.532 98.7962C102.493 98.7631 102.447 98.7333 102.4 98.7035C102.381 98.6903 102.361 98.6738 102.341 98.6638C102.209 98.5911 102.064 98.5414 101.905 98.5249C101.271 98.4587 100.7 98.9186 100.634 99.5538C100.628 99.6002 100.601 99.8615 100.578 100.302C100.931 100.523 101.159 100.652 101.212 100.685C101.394 100.788 101.588 100.838 101.78 100.838V100.831Z" fill="#1D2939"/>
<path d="M126.879 66.7534C127.342 66.5119 127.566 65.999 127.474 65.5127C126.704 65.8502 126.051 66.1976 125.513 66.5251C125.859 66.8857 126.411 66.9982 126.876 66.7534H126.879Z" fill="#1D2939"/>
<path d="M117.213 69.7011C115.404 66.697 110.072 59.6102 101.426 62.6408C92.7972 65.6647 91.5361 76.1361 95.514 81.4926C97.7391 84.4901 100.337 86.323 101.941 87.2659C102.691 87.706 103.661 87.3751 103.982 86.5645C105.17 83.5637 108.63 76.6556 116.731 71.6597C117.401 71.2462 117.619 70.376 117.213 69.7011Z" fill="#FF7EFA"/>
<path d="M153.787 49.4799C157.227 47.9844 169.148 43.8587 178.19 53.6122C183.561 59.4054 183.769 66.1282 182.996 70.7436C181.673 78.6509 176.268 86.7667 170.148 90.0388C169.653 90.3034 169.418 90.889 169.593 91.4217C169.61 91.4713 171.214 96.4374 171.119 101.314C170.996 107.504 169.795 112.626 167.543 116.537C165.143 120.712 162.638 123.458 159.175 125.711L155.685 127.61C155.124 127.914 154.916 128.619 155.223 129.182C155.431 129.569 155.831 129.787 156.24 129.787C156.425 129.787 156.616 129.741 156.791 129.645L158.449 128.742C157.967 128.566 157.64 128.083 157.693 127.547C157.752 126.909 158.32 126.446 158.954 126.505C159.835 126.588 160.683 126.733 161.502 126.922C164.721 124.606 167.24 121.711 169.551 117.691C171.997 113.436 173.304 107.941 173.433 101.357C173.512 97.3208 172.555 93.3539 172.066 91.6103C178.513 87.7394 183.884 79.4681 185.281 71.1241C186.139 65.9926 185.901 58.5187 179.887 52.034C169.811 41.1656 156.659 45.7049 152.87 47.3558C142.973 51.6635 139.444 61.2184 138.565 64.1795C139.262 64.335 139.998 64.5401 140.79 64.8181C141.593 62.1878 144.881 53.3574 153.787 49.4799Z" fill="#1D2939"/>
<path d="M139.195 66.4423C139.819 66.5846 140.437 66.1942 140.578 65.5722C140.582 65.5557 140.648 65.2811 140.79 64.8146C139.997 64.5367 139.258 64.3315 138.565 64.176C138.419 64.6657 138.344 64.9833 138.327 65.0561C138.185 65.6781 138.575 66.3001 139.199 66.4423H139.195Z" fill="#1D2939"/>
<path d="M150.505 69.1522C153.255 70.3565 159.263 73.4334 165.423 79.5376C166.235 80.3416 167.553 80.325 168.348 79.5045C171.125 76.6427 176.529 70.0687 174.482 63.9843C172.448 57.9397 164.955 53.3376 156.698 57.9893C151.921 60.6791 150.076 64.3979 149.37 66.6212C149.049 67.6336 149.535 68.7287 150.505 69.1522Z" fill="#FF7EFA"/>
<path d="M148.314 85.6847C148.36 85.6947 152.899 86.8626 156.27 89.9825C156.491 90.1876 156.771 90.2902 157.052 90.2902C157.362 90.2902 157.673 90.1644 157.9 89.9196C158.333 89.4498 158.303 88.7186 157.834 88.2819C154.015 84.7484 149.076 83.4912 148.868 83.4383C148.251 83.2861 147.624 83.6632 147.469 84.2819C147.313 84.9006 147.69 85.5292 148.31 85.6847H148.314Z" fill="#1D2939"/>
<path d="M114.777 91.9346C114.387 92.4408 114.483 93.1686 114.991 93.5591C115.202 93.7212 115.447 93.7973 115.694 93.7973C116.041 93.7973 116.384 93.6418 116.612 93.344C119.402 89.7013 123.667 87.7791 123.723 87.7559C124.307 87.4979 124.571 86.8163 124.317 86.2307C124.06 85.6451 123.379 85.3804 122.795 85.6352C122.597 85.7212 117.942 87.8023 114.78 91.9346H114.777Z" fill="#1D2939"/>
<path d="M140.378 118.138C139.523 117.694 138.542 117.635 137.691 117.976C136.839 118.316 136.169 119.034 135.852 119.947C135.551 120.814 135.581 121.784 135.938 122.677C136.294 123.57 136.938 124.295 137.75 124.715C138.239 124.966 138.767 125.095 139.288 125.095C139.681 125.095 140.071 125.023 140.437 124.877C141.289 124.536 141.959 123.818 142.276 122.905C142.576 122.038 142.547 121.069 142.19 120.176C141.834 119.282 141.19 118.558 140.378 118.138ZM140.094 122.144C140.038 122.306 139.896 122.601 139.582 122.723C139.269 122.849 138.965 122.733 138.813 122.654C138.499 122.492 138.232 122.184 138.087 121.817C137.938 121.446 137.922 121.043 138.037 120.708C138.093 120.546 138.235 120.252 138.549 120.129C138.648 120.09 138.75 120.073 138.843 120.073C139.041 120.073 139.216 120.143 139.318 120.196C139.632 120.358 139.899 120.665 140.044 121.033C140.193 121.403 140.209 121.807 140.094 122.141V122.144Z" fill="#1D2939"/>
<path d="M229.166 96.8178C226.004 95.4679 222.722 95.4216 219.434 96.6755C217.021 97.5489 214.819 98.9617 212.931 100.834C212.832 100.351 212.68 99.888 212.475 99.4612C211.904 98.2867 210.95 97.5059 209.788 97.2644C208.098 96.9104 206.632 97.1751 205.434 98.0452C202.582 100.12 202.03 105.099 201.549 109.473C201.532 109.595 201.179 112.54 202.219 116.354C202.334 116.775 202.304 117.605 202.159 118.035C201.149 121.026 198.789 125.575 195.996 128.483C191.813 132.837 190.014 133.221 186.432 133.989C179.704 135.428 175.152 133.059 170.329 130.555C167.582 129.129 164.763 127.663 161.502 126.918C161.142 127.177 160.775 127.431 160.399 127.676C160.376 127.693 160.35 127.706 160.323 127.722L158.451 128.741C158.54 128.775 158.636 128.801 158.735 128.811C162.677 129.188 165.879 130.852 169.266 132.612C174.238 135.196 179.378 137.866 186.914 136.255C190.905 135.401 193.2 134.74 197.663 130.091C200.703 126.925 203.262 122.009 204.351 118.78C204.645 117.913 204.688 116.609 204.45 115.746C203.539 112.401 203.84 109.787 203.846 109.747C204.259 106.025 204.77 101.393 206.794 99.9211C207.451 99.4447 208.276 99.3157 209.32 99.534C209.778 99.63 210.142 99.9476 210.399 100.477C210.878 101.46 210.861 102.958 210.366 103.967C210.099 104.513 210.297 105.172 210.818 105.479C211.34 105.787 212.013 105.635 212.357 105.135C214.393 102.151 217.114 99.9807 220.24 98.8492C222.97 97.807 225.667 97.8434 228.262 98.9484C230.876 100.063 232.633 102.115 233.342 104.877C234.521 109.463 232.742 115.527 228.698 120.702C222.003 129.271 210.785 141.162 204.338 145.436C204.302 145.459 204.269 145.486 204.236 145.512C204.196 145.545 200.086 148.917 192.718 150.703C185.914 152.351 174.852 152.95 160.769 146.432C160.33 146.23 159.811 146.323 159.468 146.664C159.125 147.008 159.032 147.527 159.234 147.967C159.3 148.109 165.694 162.27 167.507 186.908C150.73 189.459 133.653 190.256 116.718 189.28C114.608 172.761 117.203 149.8 117.229 149.565C117.279 149.142 117.091 148.725 116.741 148.48C116.391 148.238 115.935 148.205 115.556 148.401C100.727 156.013 89.5553 156.219 82.7944 155.054C75.4954 153.793 71.6231 150.707 71.5868 150.677C71.5274 150.631 71.468 150.588 71.402 150.551C65.1363 147.186 52.5851 136.748 44.5368 128.206C40.0339 123.428 37.7033 117.555 38.4527 112.881C38.9049 110.065 40.4631 107.862 42.9654 106.508C45.4479 105.165 48.1318 104.881 50.9642 105.671C54.1631 106.505 57.0714 108.414 59.3724 111.196C59.7586 111.663 60.442 111.752 60.9338 111.398C61.4257 111.044 61.5644 110.369 61.2442 109.85C60.6565 108.89 60.5047 107.398 60.8909 106.379C61.0989 105.827 61.4323 105.476 61.878 105.34C62.8981 105.029 63.73 105.079 64.4298 105.493C66.5822 106.773 67.5197 111.335 68.2757 115.018C68.2823 115.048 68.893 117.946 68.0975 121.684C67.8928 122.637 68.1569 123.636 68.7973 124.348C70.3423 126.065 74.2938 130.369 77.6313 133.254C82.428 137.403 85.7457 139.127 89.8755 139.617C98.6171 140.655 103.823 137.009 108.415 133.797C110.465 132.364 112.409 131.011 114.555 130.101C113.803 129.602 113.086 129.082 112.413 128.543C110.528 129.499 108.785 130.71 107.091 131.898C102.628 135.021 98.0129 138.247 90.1462 137.317C86.4851 136.884 83.6032 135.362 79.14 131.501C75.9015 128.702 72.0292 124.48 70.5139 122.796C70.3654 122.631 70.306 122.399 70.3555 122.167C71.26 117.909 70.5601 114.654 70.5337 114.538C69.6457 110.211 68.6388 105.304 65.6083 103.501C64.3374 102.747 62.8551 102.618 61.2012 103.127C60.0656 103.474 59.1875 104.341 58.7286 105.562C58.5636 106.005 58.4546 106.479 58.4018 106.972C56.3518 105.284 54.031 104.08 51.5617 103.438C48.1516 102.489 44.89 102.836 41.8661 104.474C38.7102 106.181 36.7426 108.963 36.1715 112.517C35.3099 117.886 37.8716 124.51 42.8565 129.8C52.0008 139.504 64.344 149.36 70.2201 152.546C70.8969 153.069 74.954 156.017 82.2365 157.307C94.2397 159.434 106.226 155.491 114.72 151.401C114.12 157.658 112.594 176.582 114.559 190.538C114.634 191.084 115.083 191.497 115.631 191.53L115.767 191.54C120.748 191.845 125.743 191.997 130.741 191.997C143.517 191.997 156.306 191.004 168.916 189.032C169.507 188.94 169.93 188.41 169.89 187.811C168.563 168.129 164.42 155.021 162.423 149.681C175.938 155.276 186.647 154.581 193.401 152.92C200.868 151.084 205.124 147.775 205.668 147.332C212.32 142.902 223.736 130.813 230.523 122.124C235 116.394 236.941 109.565 235.587 104.295C234.693 100.808 232.474 98.2206 229.176 96.8144L229.166 96.8178Z" fill="#1D2939"/>
<path d="M114.945 129.936C115.539 129.704 115.833 129.029 115.599 128.434C115.364 127.838 114.698 127.544 114.1 127.779C113.519 128.007 112.955 128.268 112.403 128.546C113.077 129.082 113.793 129.602 114.546 130.105C114.678 130.048 114.81 129.989 114.942 129.936H114.945Z" fill="#1D2939"/>
<path d="M157.692 127.547C157.643 128.083 157.966 128.566 158.448 128.741L160.32 127.722C160.347 127.709 160.37 127.693 160.396 127.676C160.773 127.431 161.139 127.177 161.499 126.918C160.68 126.73 159.832 126.588 158.95 126.502C158.316 126.442 157.752 126.909 157.689 127.544L157.692 127.547Z" fill="#1D2939"/>
<path d="M49.0889 115.656C46.1244 118.111 45.8438 122.67 48.455 125.84C51.0696 129.01 55.5922 129.592 58.5534 127.137C61.5179 124.682 61.7985 120.123 59.1872 116.953C56.5727 113.784 52.05 113.201 49.0889 115.656Z" fill="#FF7EFA"/>
<path d="M42.1473 116.404C41.3022 117.102 41.2229 118.402 41.9657 119.306C42.7118 120.209 43.9993 120.374 44.8444 119.676C45.6895 118.978 45.7687 117.678 45.0259 116.775C44.2799 115.871 42.9924 115.706 42.1473 116.404Z" fill="#FF7EFA"/>
<path d="M47.1744 110.839C46.4283 109.936 45.1408 109.77 44.2957 110.469C43.4506 111.167 43.3714 112.467 44.1142 113.37C44.8602 114.273 46.1477 114.439 46.9928 113.741C47.8379 113.043 47.9171 111.742 47.1744 110.839Z" fill="#FF7EFA"/>
<path d="M53.1393 111.871C53.9844 111.173 54.0636 109.873 53.3208 108.97C52.5748 108.067 51.2873 107.901 50.4422 108.599C49.5971 109.297 49.5179 110.598 50.2606 111.501C51.0034 112.404 52.2942 112.57 53.1393 111.871Z" fill="#FF7EFA"/>
<path d="M214.628 120.93C217.804 123.101 222.254 122.101 224.565 118.704C226.876 115.306 226.173 110.79 222.997 108.623C219.821 106.452 215.371 107.451 213.06 110.849C210.749 114.247 211.453 118.763 214.628 120.93Z" fill="#FF7EFA"/>
<path d="M227.149 109.354C226.492 110.323 226.69 111.607 227.595 112.225C228.499 112.844 229.767 112.559 230.427 111.59C231.084 110.621 230.886 109.337 229.982 108.718C229.077 108.1 227.809 108.384 227.149 109.354Z" fill="#FF7EFA"/>
<path d="M224.908 106.522C225.813 107.14 227.08 106.856 227.741 105.886C228.398 104.917 228.2 103.633 227.295 103.015C226.391 102.396 225.123 102.68 224.463 103.65C223.806 104.619 224.004 105.903 224.908 106.522Z" fill="#FF7EFA"/>
<path d="M218.616 105.225C219.521 105.843 220.788 105.559 221.449 104.589C222.106 103.62 221.908 102.336 221.003 101.718C220.099 101.099 218.831 101.383 218.171 102.353C217.514 103.322 217.712 104.606 218.616 105.225Z" fill="#FF7EFA"/>
</g>
<rect x="151" y="29" width="59" height="22" rx="11" fill="#58F8E1"/>
<path d="M165.158 44L165.518 41.816H163.694L163.334 44H162.182L162.542 41.816H161.342L161.534 40.664H162.734L163.022 38.864H161.822L162.014 37.712H163.214L163.574 35.504H164.726L164.366 37.712H166.19L166.55 35.504H167.702L167.342 37.712H168.542L168.35 38.864H167.15L166.862 40.664H168.062L167.87 41.816H166.67L166.31 44H165.158ZM163.886 40.664H165.71L165.998 38.864H164.174L163.886 40.664ZM172.793 37.448C172.781 39.092 173.765 40.964 175.433 41.744L174.713 42.776C173.513 42.212 172.637 41.072 172.157 39.74C171.677 41.204 170.753 42.452 169.529 43.04L168.761 42.008C170.453 41.204 171.485 39.224 171.497 37.448V36.56H169.169V35.504H175.001V36.56H172.793V37.448ZM175.985 45.032V34.448H177.281V38.576H178.913V39.656H177.281V45.032H175.985ZM188.18 34.472V42.2H186.884V34.472H188.18ZM179.372 39.704C181.088 39.092 181.964 37.604 181.964 36.08V35.048H183.308V36.08C183.308 37.556 184.172 38.948 185.852 39.512L185.18 40.544C183.98 40.124 183.116 39.272 182.648 38.192C182.18 39.356 181.304 40.28 180.068 40.736L179.372 39.704ZM181.172 44.84V41.456H182.492V43.784H188.468V44.84H181.172ZM198.095 34.448V36.872H199.583V37.928H198.095V40.4H196.775V34.448H198.095ZM189.647 39.56C192.107 38.936 193.499 37.676 193.715 36.152H190.151V35.096H195.143C195.143 37.844 193.343 39.752 190.175 40.592L189.647 39.56ZM191.231 44.912V40.832H198.095V44.912H191.231ZM192.527 43.88H196.799V41.888H192.527V43.88Z" fill="#1D2939"/>
<rect x="14" y="131" width="59" height="22" rx="11" fill="#58F8E1"/>
<path d="M28.1581 146L28.5181 143.816H26.6941L26.3341 146H25.1821L25.5421 143.816H24.3421L24.5341 142.664H25.7341L26.0221 140.864H24.8221L25.0141 139.712H26.2141L26.5741 137.504H27.7261L27.3661 139.712H29.1901L29.5501 137.504H30.7021L30.3421 139.712H31.5421L31.3501 140.864H30.1501L29.8621 142.664H31.0621L30.8701 143.816H29.6701L29.3101 146H28.1581ZM26.8861 142.664H28.7101L28.9981 140.864H27.1741L26.8861 142.664ZM40.5686 139.424V140.456H37.4726V141.848H41.6486V142.88H32.0006V141.848H36.1766V140.456H33.2486V136.784H34.5446V139.424H40.5686ZM33.1766 146.84V143.624H34.4486V145.784H40.6406V146.84H33.1766ZM51.1797 136.448V147.056H49.8837V136.448H51.1797ZM42.9477 144.56V140.312H46.5957V138.44H42.9477V137.384H47.9397V141.344H44.2917V143.48C45.9597 143.468 47.3877 143.384 49.0437 143.12L49.1637 144.176C47.3637 144.488 45.7797 144.548 43.8837 144.56H42.9477ZM56.6308 138.272C56.6308 139.556 57.4828 140.864 59.1268 141.416L58.4548 142.424C57.2788 142.04 56.4388 141.224 55.9828 140.228C55.5268 141.332 54.6388 142.232 53.3908 142.64L52.7188 141.608C54.3988 141.056 55.2988 139.652 55.3108 138.272V138.128H53.1028V137.096H58.8148V138.128H56.6308V138.272ZM54.3748 144.32V143.264H61.5988V147.032H60.3028V144.32H54.3748ZM58.5028 140.144V139.064H60.3028V136.448H61.5988V142.76H60.3028V140.144H58.5028Z" fill="#1D2939"/>
<rect x="145" y="176" width="59" height="22" rx="11" fill="#58F8E1"/>
<path d="M159.158 191L159.518 188.816H157.694L157.334 191H156.182L156.542 188.816H155.342L155.534 187.664H156.734L157.022 185.864H155.822L156.014 184.712H157.214L157.574 182.504H158.726L158.366 184.712H160.19L160.55 182.504H161.702L161.342 184.712H162.542L162.35 185.864H161.15L160.862 187.664H162.062L161.87 188.816H160.67L160.31 191H159.158ZM157.886 187.664H159.71L159.998 185.864H158.174L157.886 187.664ZM167.009 183.608C167.009 184.928 167.909 186.212 169.601 186.728L168.929 187.76C167.729 187.364 166.853 186.572 166.373 185.564C165.905 186.656 165.005 187.532 163.745 187.952L163.073 186.92C164.777 186.368 165.689 185 165.689 183.608V183.296H163.409V182.264H169.241V183.296H167.009V183.608ZM164.801 191.84V188.432H166.121V190.784H172.097V191.84H164.801ZM170.513 189.152V181.472H171.809V189.152H170.513ZM179.732 182.576V183.584H177.548C177.56 184.496 178.4 185.312 179.972 185.624L179.444 186.632C178.232 186.38 177.38 185.804 176.912 185.048C176.444 185.876 175.58 186.5 174.332 186.776L173.78 185.768C175.364 185.444 176.204 184.556 176.228 183.584H174.044V182.576H176.228V181.472H177.548V182.576H179.732ZM173.372 187.328C175.352 187.328 177.98 187.316 180.236 187.016L180.332 187.976C179.42 188.132 178.472 188.228 177.548 188.288V191.72H176.228V188.348C175.268 188.384 174.344 188.384 173.54 188.384L173.372 187.328ZM180.932 192.032V181.472H182.228V192.032H180.932ZM187.631 183.272C187.631 184.556 188.483 185.864 190.127 186.416L189.455 187.424C188.279 187.04 187.439 186.224 186.983 185.228C186.527 186.332 185.639 187.232 184.391 187.64L183.719 186.608C185.399 186.056 186.299 184.652 186.311 183.272V183.128H184.103V182.096H189.815V183.128H187.631V183.272ZM185.375 189.32V188.264H192.599V192.032H191.303V189.32H185.375ZM189.503 185.144V184.064H191.303V181.448H192.599V187.76H191.303V185.144H189.503Z" fill="#1D2939"/>
<defs>
<clipPath id="clip0_1283_5445">
<rect width="200" height="147" fill="white" transform="translate(36 45)"/>
</clipPath>
</defs>
</svg>
